<svg width="24" height="24" viewBox="0 0 24 24" fill="none" xmlns="http://www.w3.org/2000/svg">
<g clip-path="url(#clip0_1_361)">
<path d="M2.16992 7.29546V16.7044C2.16992 17.3051 2.49104 17.8605 3.01113 18.1599L11.1613 22.8655C11.6813 23.1649 12.3216 23.1649 12.8417 22.8655L20.9918 18.1599C21.5118 17.8605 21.833 17.3051 21.833 16.7044V7.29546C21.833 6.69473 21.5118 6.13929 20.9918 5.83991L12.8417 1.13445C12.3216 0.835066 11.6813 0.835066 11.1613 1.13445L3.00917 5.83991C2.48907 6.13929 2.16992 6.69473 2.16992 7.29546Z" fill="#213147"/>
<path d="M13.7797 13.8248L12.6174 17.0117C12.5859 17.1004 12.5859 17.1969 12.6174 17.2854L14.617 22.769L16.9298 21.4335L14.154 13.8248C14.091 13.6495 13.8428 13.6495 13.7797 13.8248Z" fill="#12AAFF"/>
<path d="M16.1101 8.46545C16.047 8.29016 15.7988 8.29016 15.7358 8.46545L14.5734 11.6523C14.5419 11.741 14.5419 11.8375 14.5734 11.9261L17.8496 20.9036L20.1625 19.5683L16.1101 8.46545Z" fill="#12AAFF"/>
<path d="M12.0006 1.48707C12.0577 1.48707 12.1149 1.50283 12.1661 1.53041L20.986 6.62191C21.0884 6.681 21.1516 6.7913 21.1516 6.90751V17.0885C21.1516 17.2068 21.0884 17.3151 20.986 17.3741L12.1661 22.4657C12.1168 22.4951 12.0577 22.5089 12.0006 22.5089C11.9435 22.5089 11.8863 22.4933 11.8351 22.4657L3.01518 17.378C2.91274 17.319 2.8497 17.2087 2.8497 17.0924V6.90948C2.8497 6.7913 2.91274 6.68298 3.01518 6.62388L11.8351 1.53238C11.8863 1.50283 11.9435 1.48707 12.0006 1.48707ZM12.0006 0C11.6874 0 11.3722 0.0807551 11.0904 0.244235L2.27247 5.33377C1.70903 5.65876 1.3623 6.25951 1.3623 6.90948V17.0906C1.3623 17.7404 1.70903 18.3413 2.27247 18.6662L11.0924 23.7578C11.3741 23.9193 11.6874 24.002 12.0026 24.002C12.3158 24.002 12.631 23.9212 12.9127 23.7578L21.7327 18.6662C22.2961 18.3413 22.6428 17.7404 22.6428 17.0906V6.90948C22.6428 6.25951 22.2961 5.65876 21.7327 5.33377L12.9108 0.244235C12.629 0.0807551 12.3138 0 12.0006 0Z" fill="#9DCCED"/>
<path d="M6.16699 20.9154L6.97865 18.6936L8.61182 20.0507L7.08503 21.4453L6.16699 20.9154Z" fill="#213147"/>
<path d="M11.257 6.18066H9.02097C8.85351 6.18066 8.70379 6.28506 8.64665 6.44262L3.85352 19.58L6.16636 20.9155L11.4441 6.44853C11.4934 6.31854 11.3969 6.18066 11.257 6.18066Z" fill="white"/>
<path d="M15.17 6.18066H12.934C12.7666 6.18066 12.6168 6.28506 12.5597 6.44262L7.08691 21.4434L9.39975 22.7788L15.3572 6.44853C15.4045 6.31854 15.3079 6.18066 15.17 6.18066Z" fill="white"/>
</g>
<defs>
<clipPath id="clip0_1_361">
<rect width="24" height="24" fill="white"/>
</clipPath>
</defs>
</svg>
