<svg width="24" height="24" viewBox="0 0 24 24" fill="none" xmlns="http://www.w3.org/2000/svg">
<path d="M3.78978 12.4L1.904 14.2865L0 12.4L1.9033 10.4967L3.78978 12.4ZM8.4 7.78978L11.648 11.0378L13.552 9.13522L8.4 4L3.24798 9.15202L5.15202 11.0546L8.4 7.78978ZM14.8967 10.4967L13.0102 12.4L14.9135 14.3033L16.8161 12.4L14.8967 10.4967ZM8.4 17.0102L5.15202 13.7454L3.24798 15.6487L8.4 20.8L13.552 15.648L11.648 13.7454L8.4 17.0102ZM8.4 14.2872L10.3033 12.3832L8.4 10.4974L6.49668 12.4L8.4 14.2865V14.2872Z" fill="#F6D658"/>
</svg>
