<svg width="24" height="24" viewBox="0 0 24 24" fill="none" xmlns="http://www.w3.org/2000/svg">
<path fill-rule="evenodd" clip-rule="evenodd" d="M11.9998 1.80005C17.6337 1.80005 22.1998 6.36617 22.1998 12C22.1998 17.6339 17.6337 22.2 11.9998 22.2C6.36592 22.2 1.7998 17.6339 1.7998 12C1.7998 6.36617 6.36592 1.80005 11.9998 1.80005Z" fill="url(#paint0_radial_222_892)"/>
<path d="M8.28203 9.67818C10.334 7.674 13.6649 7.674 15.7169 9.67818L15.9639 9.92124C16.0675 10.0208 16.0675 10.1842 15.9639 10.2838L15.1192 11.1086C15.0674 11.1604 14.9837 11.1604 14.9319 11.1086L14.5933 10.7779C13.1589 9.37932 10.84 9.37932 9.40565 10.7779L9.04307 11.1325C8.99123 11.1842 8.90759 11.1842 8.85581 11.1325L8.01107 10.3077C7.90751 10.2081 7.90751 10.0447 8.01107 9.94512L8.28203 9.67818ZM17.466 11.3835L18.219 12.1166C18.3227 12.2162 18.3227 12.3796 18.219 12.4792L14.8284 15.7902C14.7248 15.8898 14.5574 15.8898 14.4578 15.7902L12.0512 13.4394C12.0273 13.4155 11.9835 13.4155 11.9596 13.4394L9.55307 15.7902C9.44945 15.8898 9.28211 15.8898 9.18251 15.7902L5.77985 12.4792C5.67625 12.3796 5.67625 12.2162 5.77985 12.1166L6.53291 11.3835C6.63647 11.2838 6.80381 11.2838 6.90347 11.3835L9.31001 13.7342C9.33389 13.7582 9.37775 13.7582 9.40163 13.7342L11.8082 11.3835C11.9118 11.2838 12.0791 11.2838 12.1787 11.3835L14.5853 13.7342C14.6092 13.7582 14.6531 13.7582 14.6769 13.7342L17.0835 11.3835C17.1951 11.2838 17.3624 11.2838 17.466 11.3835Z" fill="white"/>
<defs>
<radialGradient id="paint0_radial_222_892" cx="0" cy="0" r="1" gradientUnits="userSpaceOnUse" gradientTransform="translate(1.79987 12.0003) scale(20.4)">
<stop stop-color="#5D9DF6"/>
<stop offset="1" stop-color="#006FFF"/>
</radialGradient>
</defs>
</svg>
