<svg width="24" height="24" viewBox="0 0 24 24" fill="none" xmlns="http://www.w3.org/2000/svg">
<path d="M11.9998 1.80005C17.6337 1.80005 22.1998 6.36617 22.1998 12C22.1998 17.6339 17.6337 22.2 11.9998 22.2C6.36592 22.2 1.7998 17.6339 1.7998 12C1.7998 6.36617 6.36592 1.80005 11.9998 1.80005Z" fill="#0052FF"/>
<path d="M12.0149 15.586C10.0312 15.586 8.42256 13.9822 8.42256 12C8.42256 10.0178 10.0312 8.41404 12.0149 8.41404C13.7932 8.41404 15.2701 9.70896 15.5535 11.4023H19.1719C18.8665 7.7208 15.779 4.82812 12.013 4.82812C8.04534 4.82812 4.82812 8.03952 4.82812 12C4.82812 15.9605 8.04534 19.1719 12.013 19.1719C15.779 19.1719 18.8665 16.2792 19.1719 12.5977H15.5515C15.2661 14.291 13.7932 15.586 12.0149 15.586Z" fill="white"/>
</svg>
