<svg width="24" height="24" viewBox="0 0 24 24" fill="none" xmlns="http://www.w3.org/2000/svg">
<g clip-path="url(#clip0_0_669)">
<path d="M12.096 0.120007C5.47201 0.0720075 0.0720075 5.47201 0.120007 12.096C0.168007 18.552 5.44801 23.808 11.904 23.88C18.552 23.928 23.952 18.528 23.88 11.904C23.832 5.44801 18.552 0.168007 12.096 0.120007Z" fill="#2081E2"/>
<path d="M8.54392 6.21622C9.28791 7.15222 9.71992 8.32822 9.71992 9.62422C9.71992 10.7282 9.38391 11.7602 8.83192 12.6242H4.84792L8.54392 6.21622Z" fill="white"/>
<path d="M20.712 14.04C20.712 14.088 20.688 14.136 20.64 14.16C20.376 14.28 19.488 14.688 19.104 15.216C18.144 16.536 17.424 18.648 15.792 18.648H8.95201C6.52801 18.648 4.51201 16.728 4.53601 14.184C4.53601 14.112 4.58401 14.064 4.65601 14.064H7.87201C7.99201 14.064 8.06401 14.16 8.06401 14.256V14.88C8.06401 15.216 8.32801 15.48 8.66401 15.48H11.112V14.064H9.43201C10.392 12.84 10.968 11.304 10.968 9.62401C10.968 7.75201 10.248 6.04801 9.07201 4.77601C9.79201 4.84801 10.464 4.99201 11.088 5.18401V4.77601C11.088 4.36801 11.424 4.03201 11.832 4.03201C12.24 4.03201 12.576 4.36801 12.576 4.77601V5.73601C14.856 6.79201 16.368 8.56801 16.368 10.584C16.368 11.76 15.864 12.864 14.976 13.776C14.808 13.944 14.568 14.04 14.328 14.04H12.6V15.456H14.76C15.216 15.456 16.056 14.568 16.464 14.04C16.464 14.04 16.488 14.016 16.536 13.992C16.584 13.968 20.52 13.08 20.52 13.08C20.592 13.056 20.688 13.128 20.688 13.2L20.712 14.04Z" fill="white"/>
</g>
<defs>
<clipPath id="clip0_0_669">
<rect width="24" height="24" fill="white"/>
</clipPath>
</defs>
</svg>
