<svg width="24" height="24" viewBox="0 0 24 24" fill="none" xmlns="http://www.w3.org/2000/svg">
<path fill-rule="evenodd" clip-rule="evenodd" d="M3.05439 5.6759C2.40039 6.9599 2.40039 8.6399 2.40039 11.9999C2.40039 15.3599 2.40039 17.0399 3.05439 18.3239C3.63039 19.4519 4.54839 20.3699 5.67639 20.9459C6.96039 21.5999 8.64039 21.5999 12.0004 21.5999C15.3604 21.5999 17.0404 21.5999 18.3244 20.9459C19.4524 20.3699 20.3704 19.4519 20.9464 18.3239C21.6004 17.0399 21.6004 15.3599 21.6004 11.9999C21.6004 8.6399 21.6004 6.9599 20.9464 5.6759C20.3704 4.5479 19.4524 3.6299 18.3244 3.0539C17.0404 2.3999 15.3604 2.3999 12.0004 2.3999C8.64039 2.3999 6.96039 2.3999 5.67639 3.0539C4.54839 3.6299 3.63039 4.5479 3.05439 5.6759ZM16.7914 7.57789C16.9594 7.57789 17.1184 7.64691 17.2354 7.76393C17.3524 7.88393 17.4184 8.04592 17.4154 8.21088C17.3854 9.99891 17.3164 11.3669 17.1874 12.4499C17.0614 13.5329 16.8724 14.3369 16.5874 14.9879C16.3954 15.4229 16.1584 15.7829 15.8794 16.0889C15.5044 16.4939 15.0754 16.7879 14.6074 17.0669C14.4073 17.1866 14.1993 17.3047 13.9811 17.4287C13.5155 17.6931 13.0035 17.9838 12.4234 18.3719C12.2134 18.5129 11.9404 18.5129 11.7304 18.3719C11.1414 17.9792 10.6227 17.6849 10.1528 17.4184C10.0484 17.3591 9.94629 17.3012 9.8464 17.2439C9.29743 16.9259 8.80243 16.6229 8.37043 16.1849C8.08243 15.8969 7.83343 15.5459 7.63542 15.1289C7.36541 14.5709 7.18241 13.8959 7.04742 13.0229C6.86741 11.8559 6.77741 10.3289 6.74442 8.21088C6.74141 8.04592 6.80442 7.88393 6.92141 7.76393C7.03841 7.64691 7.20042 7.57789 7.36842 7.57789H7.62643C8.42141 7.58092 10.1764 7.50291 11.6944 6.32091C11.9194 6.1469 12.2344 6.1469 12.4594 6.32091C13.9774 7.50291 15.7324 7.58092 16.5304 7.57789H16.7914ZM15.3964 14.5889C15.5914 14.1869 15.7534 13.6319 15.8764 12.8339C16.0234 11.8799 16.1134 10.5839 16.1554 8.81993C15.2194 8.7929 13.6114 8.61292 12.0784 7.58092C10.5454 8.60989 8.93743 8.78991 8.00442 8.81993C8.03741 10.2779 8.1034 11.4119 8.20839 12.3029C8.32839 13.3169 8.49942 14.0039 8.71239 14.4869C8.85341 14.8079 9.00943 15.0389 9.19542 15.2429C9.44442 15.5159 9.7594 15.7409 10.1884 15.9989C10.3664 16.1057 10.5626 16.2167 10.7761 16.3376C11.1567 16.553 11.5923 16.7995 12.0784 17.1089C12.5556 16.8046 12.9849 16.5606 13.361 16.3468C13.4744 16.2824 13.5829 16.2207 13.6864 16.1609C14.2144 15.8579 14.6044 15.6059 14.8954 15.3119C15.0904 15.1109 15.2494 14.8919 15.3964 14.5889Z" fill="#3375BB"/>
</svg>
