<svg width="24" height="24" viewBox="0 0 24 24" fill="none" xmlns="http://www.w3.org/2000/svg">
<g clip-path="url(#clip0_307_44)">
<path d="M2.5 6.5375C2.5 4.30765 4.30765 2.5 6.5375 2.5H17.4625C19.6923 2.5 21.5 4.30765 21.5 6.5375V17.4625C21.5 19.6923 19.6923 21.5 17.4625 21.5H6.5375C4.30765 21.5 2.5 19.6923 2.5 17.4625V6.5375Z" fill="#404347"/>
<path d="M4.13574 8.28782C3.96495 7.69882 4.33034 7.08875 4.93022 6.96134L14.9382 4.83556C15.4133 4.73467 15.8959 4.97094 16.1076 5.40807L20.6027 14.6915L7.93605 21.3942L4.13574 8.28782Z" fill="url(#paint0_linear_307_44)"/>
<path d="M4.26663 9.01221C4.08701 8.39082 4.50345 7.75551 5.14491 7.6723L18.4096 5.95198C18.9607 5.88051 19.4728 6.24857 19.5808 6.79372L21.5 16.486L7.8306 21.3416L4.26663 9.01221Z" fill="white"/>
<path d="M2.5 9.8889C2.5 8.72296 3.44518 7.7778 4.61111 7.7778H17.2778C19.6097 7.7778 21.5 9.66815 21.5 12V17.2778C21.5 19.6097 19.6097 21.5 17.2778 21.5H6.72223C4.39035 21.5 2.5 19.6097 2.5 17.2778V9.8889Z" fill="black"/>
<path d="M15.0703 15.7127V11.7572H15.8418V15.7127H15.0703Z" fill="#F7A600"/>
<path d="M6.26534 16.8933H4.61115V12.9378H6.1988C6.97037 12.9378 7.42 13.3711 7.42 14.0488C7.42 14.4876 7.13133 14.7711 6.93168 14.8656C7.17043 14.9767 7.47575 15.2265 7.47575 15.7543C7.47575 16.4932 6.97037 16.8933 6.26534 16.8933ZM6.13765 13.6267H5.38273V14.538H6.13765C6.46499 14.538 6.64843 14.3548 6.64843 14.0825C6.64843 13.8099 6.46543 13.6267 6.13765 13.6267ZM6.18757 15.2323H5.38273V16.2044H6.18757C6.53737 16.2044 6.70375 15.9821 6.70375 15.7156C6.70418 15.4488 6.53737 15.2323 6.18757 15.2323Z" fill="white"/>
<path d="M9.60181 15.271V16.8933H8.83564V15.271L7.64771 12.9378H8.48584L9.22412 14.5321L9.9512 12.9378H10.7893L9.60181 15.271Z" fill="white"/>
<path d="M12.9853 16.8933H11.3311V12.9378H12.9187C13.6903 12.9378 14.1399 13.3711 14.1399 14.0488C14.1399 14.4876 13.8513 14.7711 13.6516 14.8656C13.8904 14.9767 14.1957 15.2265 14.1957 15.7543C14.1952 16.4932 13.6899 16.8933 12.9853 16.8933ZM12.8576 13.6267H12.1026V14.538H12.8576C13.1849 14.538 13.3684 14.3548 13.3684 14.0825C13.3679 13.8099 13.1849 13.6267 12.8576 13.6267ZM12.9075 15.2323H12.1026V16.2044H12.9075C13.2573 16.2044 13.4237 15.9821 13.4237 15.7156C13.4237 15.4488 13.2569 15.2323 12.9075 15.2323Z" fill="white"/>
<path d="M18.3561 13.6267V16.8933H17.5846V13.6267H16.5522V12.9378H19.3889V13.6267H18.3561Z" fill="white"/>
</g>
<defs>
<linearGradient id="paint0_linear_307_44" x1="4.08325" y1="8.02599" x2="20.7741" y2="7.1899" gradientUnits="userSpaceOnUse">
<stop stop-color="#FFD748"/>
<stop offset="1" stop-color="#F7A600"/>
</linearGradient>
<clipPath id="clip0_307_44">
<rect width="19" height="19" fill="white" transform="translate(2.5 2.5)"/>
</clipPath>
</defs>
</svg>
