<svg width="24" height="24" viewBox="0 0 24 24" fill="none" xmlns="http://www.w3.org/2000/svg">
<g clip-path="url(#clip0_0_360)">
<path d="M12 24C18.6274 24 24 18.6274 24 12C24 5.37258 18.6274 0 12 0C5.37258 0 0 5.37258 0 12C0 18.6274 5.37258 24 12 24Z" fill="#0B0E11"/>
<path d="M7.725 6.477L11.952 4.017L16.179 6.477L14.625 7.386L11.952 5.835L9.279 7.386L7.725 6.477ZM16.179 9.5805L14.625 8.67L11.952 10.2225L9.279 8.6715L7.725 9.5805V11.3985L10.398 12.9495V16.053L11.952 16.962L13.506 16.053V12.9495L16.179 11.4V9.5805ZM16.179 14.5005V12.6825L14.625 13.5915V15.4095L16.179 14.5005ZM17.283 15.144L14.61 16.695V18.513L18.837 16.053V11.133L17.283 12.0405V15.144ZM15.729 8.028L17.283 8.937V10.755L18.837 9.846V8.028L17.283 7.119L15.729 8.028ZM10.398 17.355V19.173L11.952 20.082L13.506 19.173V17.355L11.952 18.264L10.398 17.355ZM7.725 14.5005L9.279 15.4095V13.5915L7.725 12.6825V14.5005ZM10.398 8.028L11.952 8.937L13.506 8.028L11.952 7.119L10.398 8.028ZM6.6225 8.937L8.1765 8.028L6.6225 7.119L5.067 8.028V9.846L6.6225 10.755V8.937ZM6.6225 12.042L5.067 11.13V16.05L9.294 18.5115V16.695L6.6225 15.144V12.042Z" fill="#F1B90C"/>
</g>
<defs>
<clipPath id="clip0_0_360">
<rect width="24" height="24" fill="white"/>
</clipPath>
</defs>
</svg>
