<svg width="24" height="24" viewBox="0 0 24 24" fill="none" xmlns="http://www.w3.org/2000/svg">
<path fill-rule="evenodd" clip-rule="evenodd" d="M4.5896 15.6543L7.51463 13.4173C7.3474 12.9093 7.25697 12.3659 7.25697 11.8006C7.25697 11.2354 7.34738 10.692 7.51458 10.184L4.58956 7.94708C4.01914 9.10696 3.69922 10.4146 3.69922 11.8006C3.69922 13.1867 4.01916 14.4944 4.5896 15.6543Z" fill="#FBBC05"/>
<path fill-rule="evenodd" clip-rule="evenodd" d="M7.51623 10.1841C8.19092 8.13389 10.1166 6.66101 12.3977 6.66101C13.6232 6.66101 14.73 7.09588 15.5997 7.80751L18.1297 5.27734C16.588 3.9332 14.6114 3.103 12.3977 3.103C8.96077 3.103 6.00565 5.07067 4.59117 7.94714L7.51623 10.1841Z" fill="#EA4335"/>
<path fill-rule="evenodd" clip-rule="evenodd" d="M4.59085 15.6513C6.00499 18.5287 8.96061 20.4972 12.3983 20.4972C16.7466 20.4972 20.6997 17.3345 20.6997 11.7998C20.6997 11.2859 20.6206 10.7324 20.502 10.2185H12.3983V13.5788H17.0629C16.628 15.7136 14.8096 16.9392 12.3983 16.9392C10.1147 16.9392 8.1874 15.4632 7.51465 13.4095L4.59085 15.6513Z" fill="#34A853"/>
<path fill-rule="evenodd" clip-rule="evenodd" d="M12.3981 10.2193H20.5019C20.6205 10.7332 20.6996 11.2867 20.6996 11.8006C20.6996 14.6355 19.6625 16.8481 18.0664 18.3321L15.2895 16.1821C16.1976 15.6091 16.8294 14.7253 17.0627 13.5796H12.3981V10.2193Z" fill="#4285F4"/>
</svg>
