<svg width="209" height="101" viewBox="0 0 209 101" fill="none" xmlns="http://www.w3.org/2000/svg">
<path fill-rule="evenodd" clip-rule="evenodd" d="M25.5251 46.425L195.892 0.775146L203.645 29.7089L190.049 49.9635L155.638 59.184L155.12 57.2521L188.807 48.2259L201.478 29.3487L194.478 3.22463L26.7717 48.1615L8.77719 75.1919L14.0954 95.0397L65.2894 81.3223L65.8071 83.2541L12.6811 97.4892L6.61133 74.8362L25.5251 46.425ZM41.1401 64.7002L41.229 64.6838C46.6557 63.7018 50.6908 63.7388 51.6909 67.4711C52.5853 70.8093 50.1109 73.9073 44.2226 75.4851C40.0498 76.6032 36.2449 76.4052 33.1482 75.0485L34.846 71.4629C37.205 72.5701 40.1132 72.7598 43.3587 71.8902C46.1406 71.1448 47.3948 70.2621 47.1091 69.1957C46.8296 68.1525 45.4382 68.1526 42.0254 68.7689C37.0917 69.6437 32.4245 69.7513 31.4555 66.1349C30.5238 62.6575 33.7699 59.7503 38.9164 58.3713C42.3937 57.4396 45.8165 57.4169 48.4644 58.397L46.8655 61.9809C44.7156 61.1904 42.3998 61.2643 39.8668 61.9182C37.9658 62.4275 35.7515 63.3439 36.0621 64.503C36.3511 65.5816 38.2308 65.2356 41.1401 64.7002ZM73.7752 58.2987C75.2474 63.7929 71.9193 68.0638 65.4979 69.7844C59.0764 71.505 54.082 69.4641 52.6098 63.9699C51.1377 58.4758 54.4425 54.2111 60.864 52.4905C67.2854 50.7698 72.303 52.8045 73.7752 58.2987ZM57.4085 62.6841C58.2285 65.7442 60.8967 66.8927 64.4667 65.9362C68.0368 64.9796 69.7732 62.6508 68.9533 59.5907C68.1334 56.5307 65.4652 55.3821 61.8951 56.3387C58.3482 57.2891 56.5886 59.6241 57.4085 62.6841ZM82.536 60.5727L79.2065 48.1471L74.4773 49.4142L78.8255 65.6418L94.4735 61.4489L93.4548 57.647L82.536 60.5727ZM92.43 44.6038L101.494 42.1751C107.73 40.5042 112.502 42.4557 113.868 47.5557C115.235 52.6558 112.078 56.7317 105.842 58.4026L96.7781 60.8314L92.43 44.6038ZM100.501 55.8087L104.465 54.7465C107.942 53.8148 109.817 51.7224 109.046 48.8478C108.276 45.9732 105.607 45.0982 102.129 46.03L98.1654 47.0922L100.501 55.8087ZM134.75 51.2283C141.172 49.5077 144.5 45.2368 143.027 39.7426C141.555 34.2484 136.538 32.2137 130.116 33.9344C123.695 35.655 120.39 39.9196 121.862 45.4138C123.334 50.908 128.329 52.9489 134.75 51.2283ZM133.719 47.38C130.149 48.3366 127.481 47.1881 126.661 44.128C125.841 41.068 127.6 38.733 131.147 37.7826C134.717 36.826 137.386 37.9746 138.205 41.0346C139.025 44.0947 137.289 46.4234 133.719 47.38ZM159.768 35.3563L157.569 27.1498L162.298 25.8826L164.597 34.46C165.92 39.3978 163.428 43.544 157.378 45.1653C151.327 46.7865 147.073 44.4479 145.75 39.5101L143.451 30.9327L148.18 29.6655L150.379 37.872C151.137 40.7002 153.204 42.1092 156.334 41.2707C159.464 40.4321 160.526 38.1845 159.768 35.3563ZM182.47 20.4777L164.295 25.3476L165.308 29.1263L172.007 27.3311L175.343 39.78L180.072 38.5128L176.736 26.064L183.482 24.2564L182.47 20.4777ZM74.6473 80.127C74.9595 81.2919 75.9641 81.7029 77.2159 81.3675C78.0331 81.1485 78.5845 80.7026 78.8357 79.9365L80.5667 80.3113C80.2416 81.3581 79.2022 82.382 77.5591 82.8222C75.2641 83.4372 73.3975 82.6608 72.8478 80.6092C72.2981 78.5576 73.5264 76.952 75.891 76.3184C77.4645 75.8968 78.8725 76.2835 79.6531 77.0061L78.3328 78.1985C77.7652 77.6797 77.0687 77.5495 76.2516 77.7685C74.9997 78.1039 74.3352 78.9621 74.6473 80.127ZM88.5358 76.4056C89.0879 78.4659 87.8399 80.0675 85.4318 80.7128C83.0238 81.358 81.1509 80.5927 80.5988 78.5323C80.0467 76.472 81.2861 74.8728 83.6941 74.2275C86.1022 73.5823 87.9838 74.3453 88.5358 76.4056ZM82.3983 78.0502C82.7058 79.1977 83.7064 79.6284 85.0451 79.2697C86.3839 78.9109 87.0351 78.0377 86.7276 76.8901C86.4201 75.7426 85.4196 75.3119 84.0808 75.6706C82.7507 76.027 82.0908 76.9026 82.3983 78.0502ZM95.3278 71.3246L93.8068 74.8628L90.7377 72.5545L88.7991 73.074L90.4297 79.1593L92.1423 78.7004L91.101 74.8145L94.3231 77.1377L94.4101 77.1144L96.0389 73.4914L97.0801 77.3773L98.8448 76.9045L97.2143 70.8191L95.3278 71.3246ZM98.6385 70.4375L102.863 69.3054C104.524 68.8605 105.823 69.2949 106.198 70.6945C106.578 72.1116 105.665 73.1202 104.005 73.5651L101.553 74.222L102.042 76.0476L100.269 76.5228L98.6385 70.4375ZM101.208 72.9354L103.512 72.3181C104.173 72.1411 104.571 71.82 104.408 71.2115C104.243 70.5943 103.737 70.5154 103.077 70.6925L100.773 71.3098L101.208 72.9354ZM109.581 72.4996L108.333 67.8399L106.559 68.3151L108.19 74.4005L114.058 72.8281L113.676 71.4024L109.581 72.4996ZM116.017 69.6942L116.306 70.7722L121.052 69.5004L121.416 70.8565L114.922 72.5966L113.291 66.5112L119.69 64.7968L120.053 66.153L115.402 67.3992L115.67 68.3989L119.504 67.3717L119.851 68.667L116.017 69.6942ZM127.097 62.8119L120.282 64.6381L120.662 66.0551L123.174 65.382L124.425 70.0503L126.198 69.5751L124.947 64.9068L127.477 64.2289L127.097 62.8119ZM130.67 65.768L130.959 66.8459L135.705 65.5741L136.069 66.9303L129.575 68.6703L127.944 62.585L134.343 60.8705L134.706 62.2267L130.055 63.4729L130.323 64.4726L134.157 63.4454L134.504 64.7407L130.67 65.768ZM138.531 64.7426L137.282 60.0829L135.509 60.5581L137.139 66.6435L143.007 65.0711L142.625 63.6454L138.531 64.7426ZM144.254 62.5381L140.313 59.2708L142.295 58.7397L144.772 60.8899L145.833 57.7916L147.807 57.2628L146.028 62.0629L146.577 64.1145L144.804 64.5897L144.254 62.5381Z" fill="url(#paint0_linear_222_909)"/>
<defs>
<linearGradient id="paint0_linear_222_909" x1="7.28495" y1="77.3502" x2="202.402" y2="25.0688" gradientUnits="userSpaceOnUse">
<stop stop-color="#9EE6FC"/>
<stop offset="1" stop-color="#EBB9E7"/>
</linearGradient>
</defs>
</svg>
