<svg width="24" height="24" viewBox="0 0 24 24" fill="none" xmlns="http://www.w3.org/2000/svg">
<path d="M19.5631 4.24463L13.0078 9.11332L14.2201 6.24088L19.5631 4.24463Z" fill="#E2761B" stroke="#E2761B" stroke-width="0.109804" stroke-linecap="round" stroke-linejoin="round"/>
<path d="M4.42969 4.24463L10.9323 9.15946L9.77934 6.24088L4.42969 4.24463Z" fill="#E4761B" stroke="#E4761B" stroke-width="0.109804" stroke-linecap="round" stroke-linejoin="round"/>
<path d="M17.2029 15.5298L15.457 18.2046L19.1926 19.2324L20.2665 15.5891L17.2029 15.5298Z" fill="#E4761B" stroke="#E4761B" stroke-width="0.109804" stroke-linecap="round" stroke-linejoin="round"/>
<path d="M3.73828 15.5891L4.80557 19.2324L8.54112 18.2046L6.79524 15.5298L3.73828 15.5891Z" fill="#E4761B" stroke="#E4761B" stroke-width="0.109804" stroke-linecap="round" stroke-linejoin="round"/>
<path d="M8.33 11.0122L7.28906 12.5868L10.9983 12.7515L10.8665 8.76562L8.33 11.0122Z" fill="#E4761B" stroke="#E4761B" stroke-width="0.109804" stroke-linecap="round" stroke-linejoin="round"/>
<path d="M15.6648 11.009L13.0954 8.71631L13.0098 12.7483L16.7124 12.5836L15.6648 11.009Z" fill="#E4761B" stroke="#E4761B" stroke-width="0.109804" stroke-linecap="round" stroke-linejoin="round"/>
<path d="M8.54102 18.2056L10.7678 17.1186L8.84408 15.6165L8.54102 18.2056Z" fill="#E4761B" stroke="#E4761B" stroke-width="0.109804" stroke-linecap="round" stroke-linejoin="round"/>
<path d="M13.2256 17.1186L15.459 18.2056L15.1493 15.6165L13.2256 17.1186Z" fill="#E4761B" stroke="#E4761B" stroke-width="0.109804" stroke-linecap="round" stroke-linejoin="round"/>
<path d="M15.457 18.2081L13.2236 17.1211L13.4015 18.5771L13.3817 19.1898L15.457 18.2081Z" fill="#D7C1B3" stroke="#D7C1B3" stroke-width="0.109804" stroke-linecap="round" stroke-linejoin="round"/>
<path d="M8.53809 18.2081L10.6134 19.1898L10.6002 18.5771L10.7649 17.1211L8.53809 18.2081Z" fill="#D7C1B3" stroke="#D7C1B3" stroke-width="0.109804" stroke-linecap="round" stroke-linejoin="round"/>
<path d="M10.6489 14.6534L8.79102 14.1066L10.1021 13.5071L10.6489 14.6534Z" fill="#233447" stroke="#233447" stroke-width="0.109804" stroke-linecap="round" stroke-linejoin="round"/>
<path d="M13.3428 14.6534L13.8896 13.5071L15.2072 14.1066L13.3428 14.6534Z" fill="#233447" stroke="#233447" stroke-width="0.109804" stroke-linecap="round" stroke-linejoin="round"/>
<path d="M8.54275 18.2046L8.85901 15.5298L6.79688 15.5891L8.54275 18.2046Z" fill="#CD6116" stroke="#CD6116" stroke-width="0.109804" stroke-linecap="round" stroke-linejoin="round"/>
<path d="M15.1426 15.5298L15.4588 18.2046L17.2047 15.5891L15.1426 15.5298Z" fill="#CD6116" stroke="#CD6116" stroke-width="0.109804" stroke-linecap="round" stroke-linejoin="round"/>
<path d="M16.7104 12.5837L13.0078 12.7484L13.3504 14.6524L13.8972 13.5061L15.2149 14.1056L16.7104 12.5837Z" fill="#CD6116" stroke="#CD6116" stroke-width="0.109804" stroke-linecap="round" stroke-linejoin="round"/>
<path d="M8.79318 14.1056L10.1108 13.5061L10.651 14.6524L11.0002 12.7484L7.29102 12.5837L8.79318 14.1056Z" fill="#CD6116" stroke="#CD6116" stroke-width="0.109804" stroke-linecap="round" stroke-linejoin="round"/>
<path d="M7.28906 12.5837L8.8439 15.6143L8.79122 14.1056L7.28906 12.5837Z" fill="#E4751F" stroke="#E4751F" stroke-width="0.109804" stroke-linecap="round" stroke-linejoin="round"/>
<path d="M15.2163 14.1056L15.1504 15.6143L16.7118 12.5837L15.2163 14.1056Z" fill="#E4751F" stroke="#E4751F" stroke-width="0.109804" stroke-linecap="round" stroke-linejoin="round"/>
<path d="M10.9967 12.7476L10.6475 14.6515L11.0823 16.8981L11.1811 13.94L10.9967 12.7476Z" fill="#E4751F" stroke="#E4751F" stroke-width="0.109804" stroke-linecap="round" stroke-linejoin="round"/>
<path d="M13.008 12.7476L12.8301 13.9335L12.9092 16.8981L13.3506 14.6515L13.008 12.7476Z" fill="#E4751F" stroke="#E4751F" stroke-width="0.109804" stroke-linecap="round" stroke-linejoin="round"/>
<path d="M13.3506 14.6538L12.9092 16.9004L13.2254 17.1178L15.1492 15.6156L15.2151 14.1069L13.3506 14.6538Z" fill="#F6851B" stroke="#F6851B" stroke-width="0.109804" stroke-linecap="round" stroke-linejoin="round"/>
<path d="M8.79102 14.1069L8.84376 15.6156L10.7675 17.1178L11.0837 16.9004L10.6489 14.6538L8.79102 14.1069Z" fill="#F6851B" stroke="#F6851B" stroke-width="0.109804" stroke-linecap="round" stroke-linejoin="round"/>
<path d="M13.3853 19.1855L13.4051 18.5728L13.2404 18.4279H10.7566L10.605 18.5728L10.6182 19.1855L8.54297 18.2039L9.26765 18.7968L10.7369 19.818H13.2601L14.7359 18.7968L15.4606 18.2039L13.3853 19.1855Z" fill="#C0AD9E" stroke="#C0AD9E" stroke-width="0.109804" stroke-linecap="round" stroke-linejoin="round"/>
<path d="M13.2256 17.1183L12.9094 16.9009H11.0844L10.7682 17.1183L10.6035 18.5743L10.755 18.4293H13.2388L13.4035 18.5743L13.2256 17.1183Z" fill="#161616" stroke="#161616" stroke-width="0.109804" stroke-linecap="round" stroke-linejoin="round"/>
<path d="M19.8402 9.42958L20.4001 6.74158L19.5634 4.24463L13.2256 8.94862L15.6632 11.0108L19.1089 12.0188L19.8731 11.1293L19.5437 10.8921L20.0707 10.4112L19.6623 10.095L20.1893 9.6931L19.8402 9.42958Z" fill="#763D16" stroke="#763D16" stroke-width="0.109804" stroke-linecap="round" stroke-linejoin="round"/>
<path d="M3.59961 6.74158L4.15961 9.42958L3.80384 9.6931L4.3309 10.095L3.92902 10.4112L4.45608 10.8921L4.12667 11.1293L4.88432 12.0188L8.32995 11.0108L10.7676 8.94862L4.42973 4.24463L3.59961 6.74158Z" fill="#763D16" stroke="#763D16" stroke-width="0.109804" stroke-linecap="round" stroke-linejoin="round"/>
<path d="M19.1099 12.019L15.6643 11.011L16.7118 12.5856L15.1504 15.6162L17.2059 15.5898H20.2695L19.1099 12.019Z" fill="#F6851B" stroke="#F6851B" stroke-width="0.109804" stroke-linecap="round" stroke-linejoin="round"/>
<path d="M8.33028 11.011L4.88464 12.019L3.73828 15.5898H6.79524L8.84418 15.6162L7.28934 12.5856L8.33028 11.011Z" fill="#F6851B" stroke="#F6851B" stroke-width="0.109804" stroke-linecap="round" stroke-linejoin="round"/>
<path d="M13.0066 12.7507L13.2239 8.94926L14.2253 6.24146H9.77832L10.7665 8.94926L10.9971 12.7507L11.0762 13.9497L11.0828 16.9012H12.9077L12.9209 13.9497L13.0066 12.7507Z" fill="#F6851B" stroke="#F6851B" stroke-width="0.109804" stroke-linecap="round" stroke-linejoin="round"/>
</svg>
