<svg width="24" height="24" viewBox="0 0 24 24" fill="none" xmlns="http://www.w3.org/2000/svg">
<path fill-rule="evenodd" clip-rule="evenodd" d="M6.07596 14.9014L8.43034 13.101C8.29579 12.6922 8.22303 12.2549 8.22303 11.8C8.22303 11.3451 8.2958 10.9077 8.43039 10.4989L6.07603 8.69849C5.61689 9.63201 5.35938 10.6845 5.35938 11.8C5.35938 12.9155 5.61686 13.9679 6.07596 14.9014Z" fill="#FBBC05"/>
<path fill-rule="evenodd" clip-rule="evenodd" d="M8.4315 10.4989C8.97466 8.84895 10.5245 7.66368 12.3605 7.66368C13.3469 7.66368 14.2378 8.01368 14.9378 8.58643L16.9742 6.55004C15.7333 5.46823 14.1423 4.80005 12.3605 4.80005C9.59422 4.80005 7.21573 6.38357 6.07715 8.69851L8.4315 10.4989Z" fill="#EA4335"/>
<path fill-rule="evenodd" clip-rule="evenodd" d="M6.07617 14.8995C7.21435 17.2156 9.59344 18.8001 12.3606 18.8001C15.8606 18.8001 19.0424 16.2546 19.0424 11.8C19.0424 11.3864 18.9788 10.941 18.8833 10.5273H12.3606V13.2319H16.1151C15.7651 14.95 14.3015 15.9364 12.3606 15.9364C10.5224 15.9364 8.97098 14.7483 8.42959 13.0952L6.07617 14.8995Z" fill="#34A853"/>
<path fill-rule="evenodd" clip-rule="evenodd" d="M12.3604 10.5273H18.8831C18.9785 10.941 19.0422 11.3864 19.0422 11.8C19.0422 14.0819 18.2073 15.8628 16.9224 17.0572L14.6872 15.3267C15.4183 14.8655 15.927 14.1541 16.1149 13.2319H12.3604V10.5273Z" fill="#4285F4"/>
</svg>
