<svg width="24" height="24" viewBox="0 0 24 24" fill="none" xmlns="http://www.w3.org/2000/svg">
<path fill-rule="evenodd" clip-rule="evenodd" d="M23.5871 15.1321C23.8564 14.1336 24 13.0835 24 11.9999C24 5.37255 18.6275 0 12.0001 0C5.3727 0 0.000152587 5.37255 0.000152587 11.9999C0.000152587 18.6273 5.3727 23.9998 12.0001 23.9998C13.0837 23.9998 14.1337 23.8562 15.1322 23.587C13.8283 22.4864 13.0001 20.8398 13.0001 18.9999C13.0001 15.6862 15.6863 12.9999 19 12.9999C20.84 12.9999 22.4865 13.8281 23.5871 15.1321Z" fill="url(#paint0_linear_0_867)"/>
<mask id="mask0_0_867" style="mask-type:alpha" maskUnits="userSpaceOnUse" x="0" y="0" width="24" height="24">
<path fill-rule="evenodd" clip-rule="evenodd" d="M23.587 15.1321C23.8562 14.1336 23.9998 13.0836 23.9998 12C23.9998 5.37259 18.6273 4.57761e-05 11.9999 4.57761e-05C5.37255 4.57761e-05 0 5.37259 0 12C0 18.6273 5.37255 23.9999 11.9999 23.9999C13.0835 23.9999 14.1336 23.8563 15.1321 23.587C13.8281 22.4864 12.9999 20.8399 12.9999 18.9999C12.9999 15.6862 15.6862 13 18.9999 13C20.8398 13 22.4864 13.8282 23.587 15.1321Z" fill="url(#paint1_linear_0_867)"/>
</mask>
<g mask="url(#mask0_0_867)">
<path fill-rule="evenodd" clip-rule="evenodd" d="M18.6584 16.0492C19.5223 15.0542 19.9986 13.7812 19.9999 12.4634C19.9993 11.949 19.9266 11.4374 19.784 10.9431C18.8962 7.82391 15.4769 6.16273 12.459 7.38251C11.9437 7.59079 11.4832 7.88761 11.0373 8.215C10.4984 8.61565 9.88442 8.73476 9.22454 8.61565C8.71497 8.52393 8.26082 8.308 7.82323 8.05322C7.60036 7.9242 7.43127 7.7194 7.34678 7.47614C7.32767 7.42367 7.31473 7.36811 7.30174 7.31231C7.29265 7.27329 7.28353 7.23415 7.27226 7.19588C7.16151 6.8218 6.9233 6.4983 6.59895 6.2815C6.2746 6.06471 5.8846 5.9683 5.4966 6.00901C5.1086 6.04972 4.74709 6.22496 4.47481 6.50435C4.20253 6.78374 4.03664 7.14964 4.00594 7.53856C3.90593 8.73858 5.09768 9.65261 6.23083 9.23923C6.38673 9.17945 6.55387 9.15468 6.72042 9.16668C6.88696 9.17868 7.04883 9.22715 7.19455 9.30866C7.51531 9.47419 7.81873 9.67135 8.1003 9.8972C8.79459 10.4667 9.136 11.1813 9.05575 12.0908C9.00452 12.7334 9.07541 13.3798 9.26467 13.996C9.63467 15.2607 10.4482 16.3496 11.556 17.0631C12.6639 17.7767 13.9918 18.0669 15.2963 17.8807C16.6008 17.6945 17.7945 17.0442 18.6584 16.0492ZM12.2032 10.9526C11.8996 11.4067 11.7374 11.9405 11.7373 12.4867C11.7383 13.2182 12.0291 13.9195 12.546 14.4372C13.0629 14.9548 13.7638 15.2465 14.4953 15.2486C15.0416 15.2492 15.5757 15.0878 16.0302 14.7848C16.4847 14.4818 16.8391 14.0508 17.0486 13.5464C17.2581 13.0419 17.3133 12.4867 17.2071 11.9508C17.101 11.4151 16.8383 10.9228 16.4524 10.5363C16.0664 10.1498 15.5745 9.88642 15.0388 9.77955C14.5031 9.67268 13.9478 9.72708 13.443 9.93588C12.9383 10.1447 12.5068 10.4985 12.2032 10.9526Z" fill="white"/>
</g>
<circle cx="19" cy="18.9998" r="4.99997" fill="#D9D9D9"/>
<path d="M19 23.9998C21.7614 23.9998 24 21.7613 24 18.9999C24 16.2385 21.7614 13.9999 19 13.9999C16.2386 13.9999 14.0001 16.2385 14.0001 18.9999C14.0001 21.7613 16.2386 23.9998 19 23.9998Z" fill="#6284F5"/>
<path opacity="0.6" d="M19.005 18.1315L16.959 19.0617L19.005 20.2712L21.0514 19.0617L19.005 18.1315Z" fill="white"/>
<path opacity="0.45" d="M16.96 19.0618L19.006 20.2713V18.1316V15.6666L16.96 19.0618Z" fill="white"/>
<path opacity="0.8" d="M19.0059 15.6666V18.1316V20.2713L21.0519 19.0618L19.0059 15.6666Z" fill="white"/>
<path opacity="0.45" d="M16.959 19.4498L19.005 22.3332V20.6586L16.959 19.4498Z" fill="white"/>
<path opacity="0.8" d="M19.0049 20.6586V22.3332L21.0524 19.4498L19.0049 20.6586Z" fill="white"/>
<defs>
<linearGradient id="paint0_linear_0_867" x1="0.000152587" y1="0" x2="24" y2="23.9998" gradientUnits="userSpaceOnUse">
<stop stop-color="#180F3E"/>
<stop offset="1" stop-color="#6221EB"/>
</linearGradient>
<linearGradient id="paint1_linear_0_867" x1="0" y1="4.57761e-05" x2="23.9998" y2="23.9999" gradientUnits="userSpaceOnUse">
<stop stop-color="#180F3E"/>
<stop offset="1" stop-color="#6221EB"/>
</linearGradient>
</defs>
</svg>
