<svg width="24" height="24" viewBox="0 0 24 24" fill="none" xmlns="http://www.w3.org/2000/svg">
<g clip-path="url(#clip0_0_692)">
<path d="M24 12C24 5.3724 18.6276 0 12 0C5.3724 0 0 5.3724 0 12C0 18.6276 5.3724 24 12 24C18.6276 24 24 18.6276 24 12Z" fill="white"/>
<path d="M19.6224 6.16319C18.0995 4.67142 16.0518 3.83717 13.92 3.83999C9.41339 3.83999 5.75999 7.49339 5.75999 12C5.75999 16.5066 9.41339 20.16 13.92 20.16C16.1394 20.16 18.1512 19.2744 19.6224 17.8368C18.7269 19.0081 17.5733 19.957 16.2512 20.6097C14.9292 21.2624 13.4744 21.6013 12 21.6C6.69779 21.6 2.39999 17.3022 2.39999 12C2.39999 6.69779 6.69779 2.39999 12 2.39999C15.1062 2.39999 17.868 3.87539 19.6224 6.16319Z" fill="url(#paint0_linear_0_692)"/>
<path d="M7.82227 16.6693C9.04052 17.8628 10.6786 18.5303 12.3841 18.5281C15.9895 18.5281 18.9121 15.6055 18.9121 12.0001C18.9121 8.39473 15.9895 5.47213 12.3841 5.47213C10.6786 5.46998 9.04052 6.13747 7.82227 7.33093C8.53864 6.3939 9.46153 5.63476 10.5191 5.11256C11.5767 4.59037 12.7406 4.31919 13.9201 4.32013C18.1621 4.32013 21.6001 7.75813 21.6001 12.0001C21.6001 16.2421 18.1621 19.6801 13.9201 19.6801C12.7406 19.6811 11.5767 19.4099 10.5191 18.8877C9.46153 18.3655 8.53864 17.6064 7.82227 16.6693Z" fill="url(#paint1_linear_0_692)"/>
<path fill-rule="evenodd" clip-rule="evenodd" d="M17.7599 12.0002C17.7599 12.7566 17.6109 13.5057 17.3215 14.2045C17.032 14.9033 16.6077 15.5383 16.0729 16.0732C15.538 16.608 14.903 17.0323 14.2042 17.3218C13.5054 17.6112 12.7563 17.7602 11.9999 17.7602C11.2435 17.7602 10.4945 17.6112 9.79567 17.3218C9.09684 17.0323 8.46186 16.608 7.92699 16.0732C7.39213 15.5383 6.96785 14.9033 6.67838 14.2045C6.38892 13.5057 6.23993 12.7566 6.23993 12.0002C6.23993 10.4726 6.84678 9.00751 7.92699 7.9273C9.0072 6.84709 10.4723 6.24023 11.9999 6.24023C13.5276 6.24023 14.9927 6.84709 16.0729 7.9273C17.1531 9.00751 17.7599 10.4726 17.7599 12.0002ZM15.8399 12.0002C15.8399 13.0187 15.4354 13.9954 14.7152 14.7155C13.9951 15.4357 13.0184 15.8402 11.9999 15.8402C10.9815 15.8402 10.0048 15.4357 9.28464 14.7155C8.5645 13.9954 8.15993 13.0187 8.15993 12.0002C8.15993 10.9818 8.5645 10.0051 9.28464 9.28494C10.0048 8.5648 10.9815 8.16023 11.9999 8.16023C13.0184 8.16023 13.9951 8.5648 14.7152 9.28494C15.4354 10.0051 15.8399 10.9818 15.8399 12.0002Z" fill="url(#paint2_linear_0_692)"/>
</g>
<defs>
<linearGradient id="paint0_linear_0_692" x1="2.39999" y1="11.6688" x2="21.6" y2="11.6688" gradientUnits="userSpaceOnUse">
<stop stop-color="#00E0FF"/>
<stop offset="1" stop-color="#562EC8"/>
</linearGradient>
<linearGradient id="paint1_linear_0_692" x1="2.40007" y1="11.6689" x2="21.6001" y2="11.6689" gradientUnits="userSpaceOnUse">
<stop stop-color="#00E0FF"/>
<stop offset="1" stop-color="#562EC8"/>
</linearGradient>
<linearGradient id="paint2_linear_0_692" x1="2.39993" y1="11.669" x2="21.5999" y2="11.669" gradientUnits="userSpaceOnUse">
<stop stop-color="#00E0FF"/>
<stop offset="1" stop-color="#562EC8"/>
</linearGradient>
<clipPath id="clip0_0_692">
<rect width="24" height="24" fill="white"/>
</clipPath>
</defs>
</svg>
