<svg width="24" height="24" viewBox="0 0 24 24" fill="none" xmlns="http://www.w3.org/2000/svg">
<g clip-path="url(#clip0_222_888)">
<path d="M12 24C18.6274 24 24 18.6274 24 12C24 5.37258 18.6274 0 12 0C5.37258 0 0 5.37258 0 12C0 18.6274 5.37258 24 12 24Z" fill="#0B0E11"/>
<path d="M7.72538 6.47709L11.9524 4.01709L16.1794 6.47709L14.6254 7.38609L11.9524 5.83509L9.27938 7.38609L7.72538 6.47709ZM16.1794 9.58059L14.6254 8.67009L11.9524 10.2226L9.27938 8.67159L7.72538 9.58059V11.3986L10.3984 12.9496V16.0531L11.9524 16.9621L13.5064 16.0531V12.9496L16.1794 11.4001V9.58059ZM16.1794 14.5006V12.6826L14.6254 13.5916V15.4096L16.1794 14.5006ZM17.2834 15.1441L14.6104 16.6951V18.5131L18.8374 16.0531V11.1331L17.2834 12.0406V15.1441ZM15.7294 8.02809L17.2834 8.93709V10.7551L18.8374 9.84609V8.02809L17.2834 7.11909L15.7294 8.02809ZM10.3984 17.3551V19.1731L11.9524 20.0821L13.5064 19.1731V17.3551L11.9524 18.2641L10.3984 17.3551ZM7.72538 14.5006L9.27938 15.4096V13.5916L7.72538 12.6826V14.5006ZM10.3984 8.02809L11.9524 8.93709L13.5064 8.02809L11.9524 7.11909L10.3984 8.02809ZM6.62288 8.93709L8.17688 8.02809L6.62288 7.11909L5.06738 8.02809V9.84609L6.62288 10.7551V8.93709ZM6.62288 12.0421L5.06738 11.1301V16.0501L9.29438 18.5116V16.6951L6.62288 15.1441V12.0421Z" fill="#F1B90C"/>
</g>
<defs>
<clipPath id="clip0_222_888">
<rect width="24" height="24" fill="white"/>
</clipPath>
</defs>
</svg>
