<svg width="24" height="24" viewBox="0 0 24 24" fill="none" xmlns="http://www.w3.org/2000/svg">
<g clip-path="url(#clip0_0_744)">
<path d="M12 24C18.6274 24 24 18.6274 24 12C24 5.37258 18.6274 0 12 0C5.37258 0 0 5.37258 0 12C0 18.6274 5.37258 24 12 24Z" fill="#0B070A"/>
<path d="M15.0029 9.85332L15.8464 10.8443C15.9428 10.9556 16.0285 11.0471 16.0631 11.0992C16.3153 11.3499 16.4567 11.6887 16.4565 12.0417C16.4328 12.4582 16.1614 12.7418 15.91 13.0452L15.3198 13.7382L15.012 14.0972C15.001 14.1096 14.9938 14.1249 14.9915 14.1412C14.9892 14.1576 14.9918 14.1742 14.999 14.1891C15.0061 14.204 15.0176 14.2165 15.0319 14.2251C15.0462 14.2336 15.0627 14.2379 15.0794 14.2373H18.1561C18.6261 14.2373 19.2181 14.6322 19.1836 15.2318C19.1825 15.5044 19.0723 15.7655 18.8767 15.9582C18.6812 16.1509 18.4162 16.2595 18.1398 16.2605H13.3215C13.0046 16.2605 12.1521 16.2946 11.9134 15.5675C11.8627 15.4156 11.8557 15.2528 11.8934 15.0972C11.9627 14.8671 12.0725 14.6508 12.2176 14.4581C12.4599 14.099 12.7222 13.74 12.9809 13.3917C13.3142 12.9357 13.6567 12.4941 13.9937 12.0291C14.0057 12.014 14.0122 11.9954 14.0122 11.9762C14.0122 11.957 14.0057 11.9383 13.9937 11.9232L12.7696 10.487C12.7616 10.4766 12.7513 10.4682 12.7394 10.4624C12.7276 10.4565 12.7145 10.4535 12.7013 10.4535C12.688 10.4535 12.675 10.4565 12.6631 10.4624C12.6513 10.4682 12.6409 10.4766 12.633 10.487C12.3051 10.9233 10.8696 12.8549 10.5636 13.2463C10.2576 13.6377 9.50342 13.6592 9.08627 13.2463L7.17174 11.3523C7.15951 11.3402 7.14391 11.332 7.12692 11.3287C7.10994 11.3253 7.09232 11.327 7.07631 11.3336C7.06031 11.3401 7.04664 11.3512 7.03703 11.3654C7.02744 11.3796 7.02232 11.3963 7.02236 11.4134V15.0559C7.02687 15.3144 6.9492 15.5678 6.80024 15.7806C6.65129 15.9934 6.43849 16.1549 6.19171 16.2425C6.03401 16.2966 5.86549 16.3128 5.70017 16.2896C5.53486 16.2665 5.37755 16.2048 5.24136 16.1096C5.10518 16.0143 4.99407 15.8884 4.91729 15.7423C4.84051 15.5962 4.80029 15.4341 4.79999 15.2695V8.72053C4.81096 8.48452 4.89713 8.25792 5.04625 8.07293C5.19537 7.88794 5.39986 7.75397 5.63065 7.69006C5.82861 7.63808 6.03701 7.6386 6.23471 7.69157C6.43241 7.74453 6.61239 7.84806 6.75641 7.99166L9.70015 10.8963C9.70896 10.9052 9.71963 10.912 9.73141 10.9163C9.74319 10.9206 9.75578 10.9223 9.76829 10.9213C9.78081 10.9202 9.79294 10.9165 9.80383 10.9103C9.81472 10.9042 9.82411 10.8957 9.83131 10.8856L11.9225 8.03295C12.0192 7.91715 12.1403 7.82356 12.2775 7.75875C12.4147 7.69394 12.5646 7.65947 12.7168 7.65775H18.1561C18.3049 7.65799 18.452 7.68955 18.5876 7.75033C18.7231 7.8111 18.8438 7.89968 18.9417 8.01015C19.0397 8.12062 19.1126 8.25043 19.1556 8.39089C19.1985 8.53135 19.2105 8.67924 19.1908 8.82465C19.1525 9.0769 19.0226 9.30688 18.8253 9.47194C18.628 9.63701 18.3766 9.72595 18.1179 9.72227H15.0721C15.0568 9.72263 15.0419 9.72703 15.0289 9.73502C15.0159 9.743 15.0053 9.75427 14.9983 9.76766C14.9912 9.78104 14.9879 9.79605 14.9887 9.81111C14.9895 9.82617 14.9944 9.84075 15.0029 9.85332Z" fill="#E42575"/>
</g>
<defs>
<clipPath id="clip0_0_744">
<rect width="24" height="24" fill="white"/>
</clipPath>
</defs>
</svg>
