<svg width="24" height="24" viewBox="0 0 24 24" fill="none" xmlns="http://www.w3.org/2000/svg">
<path d="M7.38978 12L5.504 13.8865L3.6 12L5.5033 10.0967L7.38978 12ZM12 7.38979L15.248 10.6378L17.152 8.73523L12 3.60001L6.84798 8.75203L8.75202 10.6546L12 7.38979ZM18.4967 10.0967L16.6102 12L18.5135 13.9033L20.4161 12L18.4967 10.0967ZM12 16.6102L8.75202 13.3454L6.84798 15.2487L12 20.4L17.152 15.248L15.248 13.3454L12 16.6102ZM12 13.8872L13.9033 11.9832L12 10.0974L10.0967 12L12 13.8865V13.8872Z" fill="#F6D658"/>
</svg>
