<svg width="209" height="101" viewBox="0 0 209 101" fill="none" xmlns="http://www.w3.org/2000/svg">
<path fill-rule="evenodd" clip-rule="evenodd" d="M25.5249 46.4251L195.892 0.775269L203.645 29.709L190.049 49.9636L155.638 59.1841L155.12 57.2522L188.807 48.226L201.478 29.3488L194.478 3.22475L26.7715 48.1616L8.77696 75.192L14.0952 95.0398L65.2892 81.3224L65.8069 83.2542L12.6809 97.4893L6.6111 74.8363L25.5249 46.4251ZM41.1399 64.7003L41.2288 64.6839C46.6555 63.7019 50.6906 63.7389 51.6907 67.4712C52.5851 70.8094 50.1107 73.9074 44.2224 75.4852C40.0496 76.6033 36.2447 76.4053 33.148 75.0486L34.8458 71.463C37.2048 72.5702 40.113 72.7599 43.3585 71.8903C46.1404 71.1449 47.3946 70.2622 47.1089 69.1958C46.8294 68.1526 45.438 68.1527 42.0252 68.769C37.0915 69.6438 32.4243 69.7514 31.4553 66.135C30.5236 62.6576 33.7697 59.7504 38.9162 58.3714C42.3935 57.4397 45.8163 57.417 48.4642 58.3971L46.8653 61.981C44.7154 61.1905 42.3996 61.2644 39.8666 61.9183C37.9656 62.4276 35.7513 63.344 36.0619 64.5031C36.3509 65.5817 38.2306 65.2357 41.1399 64.7003ZM73.775 58.2988C75.2472 63.793 71.9191 68.0639 65.4977 69.7845C59.0762 71.5051 54.0818 69.4642 52.6096 63.97C51.1375 58.4759 54.4423 54.2112 60.8638 52.4906C67.2852 50.7699 72.3028 52.8046 73.775 58.2988ZM57.4083 62.6842C58.2283 65.7443 60.8965 66.8928 64.4665 65.9363C68.0366 64.9797 69.773 62.6509 68.9531 59.5908C68.1332 56.5308 65.465 55.3822 61.8949 56.3388C58.348 57.2892 56.5884 59.6242 57.4083 62.6842ZM82.5358 60.5728L79.2063 48.1472L74.4771 49.4143L78.8253 65.6419L94.4733 61.449L93.4546 57.6471L82.5358 60.5728ZM92.4298 44.6039L101.494 42.1752C107.73 40.5043 112.502 42.4558 113.868 47.5558C115.235 52.6559 112.078 56.7318 105.842 58.4027L96.7779 60.8315L92.4298 44.6039ZM100.501 55.8088L104.465 54.7466C107.942 53.8149 109.817 51.7225 109.046 48.8479C108.276 45.9733 105.607 45.0983 102.129 46.0301L98.1652 47.0923L100.501 55.8088ZM134.75 51.2284C141.172 49.5078 144.5 45.2369 143.027 39.7427C141.555 34.2485 136.538 32.2138 130.116 33.9345C123.695 35.6551 120.39 39.9197 121.862 45.4139C123.334 50.9081 128.329 52.949 134.75 51.2284ZM133.719 47.3801C130.149 48.3367 127.481 47.1882 126.661 44.1281C125.841 41.0681 127.6 38.7331 131.147 37.7827C134.717 36.8261 137.386 37.9747 138.205 41.0347C139.025 44.0948 137.289 46.4235 133.719 47.3801ZM159.768 35.3564L157.569 27.1499L162.298 25.8827L164.597 34.4601C165.92 39.3979 163.428 43.5441 157.378 45.1654C151.327 46.7866 147.073 44.448 145.75 39.5102L143.451 30.9328L148.18 29.6656L150.379 37.8721C151.137 40.7003 153.204 42.1093 156.334 41.2708C159.464 40.4322 160.526 38.1846 159.768 35.3564ZM182.47 20.4778L164.295 25.3477L165.308 29.1264L172.007 27.3312L175.343 39.7801L180.072 38.5129L176.736 26.0641L183.482 24.2565L182.47 20.4778ZM74.6471 80.1271C74.9593 81.292 75.9639 81.703 77.2157 81.3676C78.0329 81.1486 78.5843 80.7027 78.8355 79.9366L80.5665 80.3114C80.2414 81.3582 79.202 82.3821 77.5589 82.8223C75.2639 83.4373 73.3973 82.6609 72.8476 80.6093C72.2979 78.5577 73.5262 76.9521 75.8908 76.3185C77.4643 75.8969 78.8723 76.2836 79.6529 77.0062L78.3326 78.1986C77.765 77.6798 77.0685 77.5496 76.2514 77.7686C74.9995 78.104 74.335 78.9622 74.6471 80.1271ZM88.5356 76.4057C89.0877 78.466 87.8397 80.0676 85.4316 80.7129C83.0236 81.3581 81.1507 80.5928 80.5986 78.5324C80.0465 76.4721 81.2859 74.8729 83.6939 74.2276C86.102 73.5824 87.9836 74.3454 88.5356 76.4057ZM82.3981 78.0503C82.7056 79.1978 83.7062 79.6285 85.0449 79.2698C86.3837 78.911 87.0349 78.0378 86.7274 76.8902C86.4199 75.7427 85.4194 75.312 84.0806 75.6707C82.7505 76.0271 82.0906 76.9027 82.3981 78.0503ZM95.3276 71.3247L93.8066 74.8629L90.7375 72.5546L88.7989 73.0741L90.4295 79.1594L92.1421 78.7005L91.1008 74.8146L94.3229 77.1378L94.4099 77.1145L96.0387 73.4915L97.0799 77.3774L98.8446 76.9046L97.2141 70.8192L95.3276 71.3247ZM98.6383 70.4376L102.863 69.3055C104.524 68.8606 105.823 69.295 106.198 70.6946C106.578 72.1117 105.665 73.1203 104.005 73.5652L101.553 74.2221L102.042 76.0477L100.269 76.5229L98.6383 70.4376ZM101.208 72.9355L103.512 72.3182C104.173 72.1412 104.571 71.8201 104.408 71.2116C104.243 70.5944 103.737 70.5155 103.077 70.6926L100.773 71.3099L101.208 72.9355ZM109.581 72.4997L108.333 67.84L106.559 68.3152L108.19 74.4006L114.058 72.8282L113.676 71.4025L109.581 72.4997ZM116.017 69.6943L116.306 70.7723L121.052 69.5005L121.416 70.8566L114.922 72.5967L113.291 66.5113L119.69 64.7969L120.053 66.1531L115.402 67.3993L115.67 68.399L119.504 67.3718L119.851 68.6671L116.017 69.6943ZM127.097 62.812L120.282 64.6382L120.662 66.0552L123.174 65.3821L124.425 70.0504L126.198 69.5752L124.947 64.9069L127.477 64.229L127.097 62.812ZM130.67 65.7681L130.959 66.846L135.705 65.5742L136.069 66.9304L129.575 68.6704L127.944 62.5851L134.343 60.8706L134.706 62.2268L130.055 63.473L130.323 64.4727L134.157 63.4455L134.504 64.7408L130.67 65.7681ZM138.531 64.7427L137.282 60.083L135.509 60.5582L137.139 66.6436L143.007 65.0712L142.625 63.6455L138.531 64.7427ZM144.254 62.5382L140.313 59.2709L142.295 58.7398L144.772 60.89L145.833 57.7917L147.807 57.2629L146.028 62.063L146.577 64.1146L144.804 64.5898L144.254 62.5382Z" fill="url(#paint0_linear_0_418)"/>
<defs>
<linearGradient id="paint0_linear_0_418" x1="7.28472" y1="77.3503" x2="202.402" y2="25.0689" gradientUnits="userSpaceOnUse">
<stop stop-color="#9EE6FC"/>
<stop offset="1" stop-color="#EBB9E7"/>
</linearGradient>
</defs>
</svg>
