<svg width="24" height="24" viewBox="0 0 24 24" fill="none" xmlns="http://www.w3.org/2000/svg">
<g clip-path="url(#clip0_1_372)">
<path d="M12 24C18.6274 24 24 18.6274 24 12C24 5.37258 18.6274 0 12 0C5.37258 0 0 5.37258 0 12C0 18.6274 5.37258 24 12 24Z" fill="#F0B90B"/>
<path d="M7.7244 6.47562L11.9514 4.01562L16.1784 6.47562L14.6244 7.38462L11.9514 5.83362L9.2784 7.38462L7.7244 6.47562ZM16.1784 9.57912L14.6244 8.66862L11.9514 10.2211L9.2784 8.67013L7.7244 9.57912V11.3971L10.3974 12.9481V16.0516L11.9514 16.9606L13.5054 16.0516V12.9481L16.1784 11.3986V9.57912ZM16.1784 14.4991V12.6811L14.6244 13.5901V15.4081L16.1784 14.4991ZM17.2824 15.1426L14.6094 16.6936V18.5116L18.8364 16.0516V11.1316L17.2824 12.0391V15.1426ZM15.7284 8.02662L17.2824 8.93563V10.7536L18.8364 9.84462V8.02662L17.2824 7.11762L15.7284 8.02662ZM10.3974 17.3536V19.1716L11.9514 20.0806L13.5054 19.1716V17.3536L11.9514 18.2626L10.3974 17.3536ZM7.7244 14.4991L9.2784 15.4081V13.5901L7.7244 12.6811V14.4991ZM10.3974 8.02662L11.9514 8.93563L13.5054 8.02662L11.9514 7.11762L10.3974 8.02662ZM6.6219 8.93563L8.1759 8.02662L6.6219 7.11762L5.0664 8.02662V9.84462L6.6219 10.7536V8.93563ZM6.6219 12.0406L5.0664 11.1286V16.0486L9.2934 18.5101V16.6936L6.6219 15.1426V12.0406Z" fill="white"/>
</g>
<defs>
<clipPath id="clip0_1_372">
<rect width="24" height="24" fill="white"/>
</clipPath>
</defs>
</svg>
