<svg width="209" height="101" viewBox="0 0 209 101" fill="none" xmlns="http://www.w3.org/2000/svg">
<path fill-rule="evenodd" clip-rule="evenodd" d="M25.5251 46.4252L195.892 0.775391L203.645 29.7091L190.049 49.9637L155.638 59.1842L155.12 57.2523L188.807 48.2261L201.478 29.3489L194.478 3.22488L26.7717 48.1617L8.77719 75.1921L14.0954 95.0399L65.2894 81.3225L65.8071 83.2543L12.6811 97.4894L6.61133 74.8364L25.5251 46.4252ZM41.1401 64.7004L41.229 64.684C46.6557 63.702 50.6908 63.739 51.6909 67.4713C52.5853 70.8095 50.1109 73.9075 44.2226 75.4853C40.0498 76.6034 36.2449 76.4054 33.1482 75.0487L34.846 71.4631C37.205 72.5703 40.1132 72.76 43.3587 71.8904C46.1406 71.145 47.3948 70.2623 47.1091 69.1959C46.8296 68.1527 45.4382 68.1528 42.0254 68.7691C37.0917 69.6439 32.4245 69.7515 31.4555 66.1351C30.5238 62.6577 33.7699 59.7505 38.9164 58.3715C42.3937 57.4398 45.8165 57.4171 48.4644 58.3972L46.8655 61.9811C44.7156 61.1906 42.3998 61.2645 39.8668 61.9184C37.9658 62.4277 35.7515 63.3441 36.0621 64.5032C36.3511 65.5818 38.2308 65.2358 41.1401 64.7004ZM73.7752 58.2989C75.2474 63.7931 71.9193 68.064 65.4979 69.7846C59.0764 71.5052 54.082 69.4643 52.6098 63.9701C51.1377 58.476 54.4425 54.2113 60.864 52.4907C67.2854 50.77 72.303 52.8047 73.7752 58.2989ZM57.4085 62.6843C58.2285 65.7444 60.8967 66.8929 64.4667 65.9364C68.0368 64.9798 69.7732 62.651 68.9533 59.5909C68.1334 56.5309 65.4652 55.3823 61.8951 56.3389C58.3482 57.2893 56.5886 59.6243 57.4085 62.6843ZM82.536 60.5729L79.2065 48.1473L74.4773 49.4144L78.8255 65.642L94.4735 61.4491L93.4548 57.6472L82.536 60.5729ZM92.43 44.604L101.494 42.1753C107.73 40.5044 112.502 42.4559 113.868 47.5559C115.235 52.656 112.078 56.7319 105.842 58.4028L96.7781 60.8316L92.43 44.604ZM100.501 55.8089L104.465 54.7467C107.942 53.815 109.817 51.7226 109.046 48.848C108.276 45.9734 105.607 45.0984 102.129 46.0302L98.1654 47.0924L100.501 55.8089ZM134.75 51.2285C141.172 49.5079 144.5 45.237 143.027 39.7428C141.555 34.2486 136.538 32.2139 130.116 33.9346C123.695 35.6552 120.39 39.9198 121.862 45.414C123.334 50.9082 128.329 52.9491 134.75 51.2285ZM133.719 47.3802C130.149 48.3368 127.481 47.1883 126.661 44.1282C125.841 41.0682 127.6 38.7332 131.147 37.7828C134.717 36.8262 137.386 37.9748 138.205 41.0348C139.025 44.0949 137.289 46.4236 133.719 47.3802ZM159.768 35.3565L157.569 27.15L162.298 25.8828L164.597 34.4602C165.92 39.398 163.428 43.5442 157.378 45.1655C151.327 46.7867 147.073 44.4481 145.75 39.5103L143.451 30.9329L148.18 29.6657L150.379 37.8722C151.137 40.7004 153.204 42.1094 156.334 41.2709C159.464 40.4323 160.526 38.1847 159.768 35.3565ZM182.47 20.4779L164.295 25.3478L165.308 29.1265L172.007 27.3313L175.343 39.7802L180.072 38.513L176.736 26.0642L183.482 24.2566L182.47 20.4779ZM74.6473 80.1272C74.9595 81.2921 75.9641 81.7031 77.2159 81.3677C78.0331 81.1487 78.5845 80.7028 78.8357 79.9367L80.5667 80.3115C80.2416 81.3583 79.2022 82.3822 77.5591 82.8224C75.2641 83.4374 73.3975 82.661 72.8478 80.6094C72.2981 78.5578 73.5264 76.9522 75.891 76.3186C77.4645 75.897 78.8725 76.2837 79.6531 77.0063L78.3328 78.1987C77.7652 77.6799 77.0687 77.5497 76.2516 77.7687C74.9997 78.1041 74.3352 78.9623 74.6473 80.1272ZM88.5358 76.4058C89.0879 78.4661 87.8399 80.0677 85.4318 80.713C83.0238 81.3582 81.1509 80.5929 80.5988 78.5325C80.0467 76.4722 81.2861 74.873 83.6941 74.2277C86.1022 73.5825 87.9838 74.3455 88.5358 76.4058ZM82.3983 78.0504C82.7058 79.1979 83.7064 79.6286 85.0451 79.2699C86.3839 78.9111 87.0351 78.0379 86.7276 76.8903C86.4201 75.7428 85.4196 75.3121 84.0808 75.6708C82.7507 76.0272 82.0908 76.9028 82.3983 78.0504ZM95.3278 71.3248L93.8068 74.863L90.7377 72.5547L88.7991 73.0742L90.4297 79.1595L92.1423 78.7006L91.101 74.8147L94.3231 77.1379L94.4101 77.1146L96.0389 73.4916L97.0801 77.3775L98.8448 76.9047L97.2143 70.8193L95.3278 71.3248ZM98.6385 70.4377L102.863 69.3056C104.524 68.8607 105.823 69.2951 106.198 70.6947C106.578 72.1118 105.665 73.1204 104.005 73.5653L101.553 74.2222L102.042 76.0478L100.269 76.523L98.6385 70.4377ZM101.208 72.9356L103.512 72.3183C104.173 72.1413 104.571 71.8202 104.408 71.2117C104.243 70.5945 103.737 70.5156 103.077 70.6927L100.773 71.31L101.208 72.9356ZM109.581 72.4998L108.333 67.8401L106.559 68.3153L108.19 74.4007L114.058 72.8283L113.676 71.4026L109.581 72.4998ZM116.017 69.6944L116.306 70.7724L121.052 69.5006L121.416 70.8567L114.922 72.5968L113.291 66.5114L119.69 64.797L120.053 66.1532L115.402 67.3994L115.67 68.3991L119.504 67.3719L119.851 68.6672L116.017 69.6944ZM127.097 62.8121L120.282 64.6383L120.662 66.0553L123.174 65.3822L124.425 70.0505L126.198 69.5753L124.947 64.907L127.477 64.2291L127.097 62.8121ZM130.67 65.7682L130.959 66.8461L135.705 65.5743L136.069 66.9305L129.575 68.6705L127.944 62.5852L134.343 60.8707L134.706 62.2269L130.055 63.4731L130.323 64.4728L134.157 63.4456L134.504 64.7409L130.67 65.7682ZM138.531 64.7428L137.282 60.0831L135.509 60.5583L137.139 66.6437L143.007 65.0713L142.625 63.6456L138.531 64.7428ZM144.254 62.5383L140.313 59.271L142.295 58.7399L144.772 60.8901L145.833 57.7918L147.807 57.263L146.028 62.0631L146.577 64.1147L144.804 64.5899L144.254 62.5383Z" fill="url(#paint0_linear_222_909)"/>
<defs>
<linearGradient id="paint0_linear_222_909" x1="7.28495" y1="77.3504" x2="202.402" y2="25.069" gradientUnits="userSpaceOnUse">
<stop stop-color="#9EE6FC"/>
<stop offset="1" stop-color="#EBB9E7"/>
</linearGradient>
</defs>
</svg>
