<svg width="24" height="24" viewBox="0 0 24 24" fill="none" xmlns="http://www.w3.org/2000/svg">
<g clip-path="url(#clip0_1_357)">
<path fill-rule="evenodd" clip-rule="evenodd" d="M17.9397 17.9397C16.3644 19.515 14.2278 20.4 12 20.4C9.77218 20.4 7.63561 19.515 6.0603 17.9397C4.77063 16.65 3.94363 14.9842 3.68613 13.2H16.8V10.8H3.68611C3.9436 9.01588 4.77061 7.35 6.0603 6.0603C7.63561 4.485 9.77218 3.6 12 3.6C14.2278 3.6 16.3644 4.485 17.9397 6.0603C19.515 7.63561 20.4 9.77218 20.4 12C20.4 14.2278 19.515 16.3644 17.9397 17.9397ZM24 12C24 18.627 18.627 24 12 24C5.373 24 0 18.627 0 12C0 5.373 5.373 0 12 0C18.627 0 24 5.373 24 12Z" fill="#0052FF"/>
</g>
<defs>
<clipPath id="clip0_1_357">
<rect width="24" height="24" fill="white"/>
</clipPath>
</defs>
</svg>
