<svg width="24" height="24" viewBox="0 0 24 24" fill="none" xmlns="http://www.w3.org/2000/svg">
<path fill-rule="evenodd" clip-rule="evenodd" d="M3.36678 2.25949C5.85733 5.28226 9.69696 9.98855 9.88764 10.2521C10.045 10.4696 9.9858 10.6652 9.71616 10.8185C9.56622 10.9037 9.25794 10.9901 9.10356 10.9901C8.92902 10.9901 8.73234 10.906 8.58912 10.7702C8.4879 10.6742 8.07936 10.0641 7.13616 8.60063C6.41454 7.48091 5.81058 6.55199 5.79413 6.53645C5.75603 6.50045 5.75669 6.50165 7.0626 8.83829C7.88262 10.3055 8.1594 10.8242 8.1594 10.8936C8.1594 11.0347 8.12094 11.1089 7.94688 11.303C7.65672 11.6267 7.527 11.9904 7.43334 12.7433C7.32834 13.5871 7.0332 14.1832 6.21516 15.2034C5.73636 15.8006 5.65799 15.91 5.53718 16.1507C5.38497 16.4538 5.34312 16.6236 5.32617 17.0063C5.30825 17.411 5.34316 17.6724 5.46681 18.0593C5.57504 18.3981 5.688 18.6218 5.97684 19.0691C6.22608 19.4552 6.36966 19.7421 6.36966 19.8543C6.36966 19.9436 6.3867 19.9437 6.77298 19.8566C7.69728 19.6478 8.44788 19.2807 8.86998 18.8307C9.13122 18.5523 9.1926 18.3985 9.19458 18.0169C9.19584 17.7673 9.18708 17.7151 9.11964 17.5715C9.00984 17.3378 8.80986 17.1434 8.36916 16.8422C7.79178 16.4475 7.54512 16.1297 7.47702 15.6927C7.4211 15.3341 7.48596 15.0811 7.8054 14.4116C8.136 13.7186 8.21796 13.4233 8.2734 12.7248C8.30916 12.2735 8.35878 12.0956 8.48844 11.9527C8.62362 11.8037 8.74536 11.7533 9.08004 11.7075C9.62562 11.633 9.97302 11.4919 10.2586 11.2287C10.5064 11.0004 10.61 10.7805 10.6259 10.4493L10.638 10.1984L10.4996 10.037C9.99822 9.45239 3.03104 1.79999 3.00019 1.79999C2.9936 1.79999 3.15857 2.00678 3.36678 2.25949ZM6.65106 17.4642C6.7644 17.2635 6.70422 17.0054 6.51462 16.8794C6.33546 16.7602 6.05712 16.8163 6.05712 16.9716C6.05712 17.0189 6.08334 17.0534 6.14238 17.0838C6.24174 17.135 6.249 17.1924 6.17076 17.31C6.09156 17.4291 6.09798 17.5337 6.18882 17.6049C6.33522 17.7195 6.54252 17.6565 6.65106 17.4642ZM10.0636 6.51677C9.83994 6.48209 9.83046 6.47801 9.93576 6.46181C10.1374 6.43079 10.6137 6.47309 10.942 6.55109C11.7082 6.73325 12.4054 7.19981 13.1496 8.02847L13.3474 8.24861L13.6302 8.20313C14.8218 8.01161 16.034 8.16383 17.0479 8.63219C17.3268 8.76107 17.7666 9.01757 17.8215 9.08351C17.8391 9.10445 17.8712 9.23975 17.893 9.38399C17.9683 9.88319 17.9306 10.2659 17.7779 10.5516C17.6948 10.7072 17.6902 10.7564 17.746 10.8896C17.7907 10.9958 17.9149 11.0744 18.038 11.0742C18.29 11.0739 18.5612 10.6665 18.6869 10.0998L18.7368 9.87473L18.8357 9.98669C19.378 10.6012 19.804 11.4392 19.8772 12.0357L19.8962 12.1913L19.8051 12.0499C19.6482 11.8066 19.4905 11.6409 19.2887 11.5074C18.9248 11.2666 18.54 11.1846 17.521 11.1309C16.6007 11.0825 16.0798 11.0039 15.5633 10.8354C14.6846 10.5489 14.2416 10.1673 13.1977 8.79785C12.7341 8.18957 12.4475 7.85297 12.1625 7.58195C11.5148 6.96611 10.8783 6.64313 10.0636 6.51677ZM18.027 7.87553C18.0502 7.46789 18.1055 7.19903 18.2166 6.95351C18.2606 6.85631 18.3018 6.77675 18.3082 6.77675C18.3145 6.77675 18.2954 6.84851 18.2657 6.93617C18.1849 7.17449 18.1716 7.50041 18.2272 7.87961C18.2979 8.36075 18.338 8.43011 18.8466 8.94989C19.0852 9.19367 19.3626 9.50111 19.4632 9.63311L19.646 9.87311L19.4632 9.70157C19.2395 9.49187 18.7252 9.08279 18.6116 9.02429C18.5354 8.98505 18.5241 8.98571 18.4771 9.03251C18.4338 9.07559 18.4247 9.14033 18.4187 9.44651C18.4093 9.92357 18.3443 10.2299 18.1873 10.536C18.1024 10.7016 18.089 10.6664 18.1659 10.4794C18.2232 10.3398 18.229 10.2785 18.2286 9.81653C18.2278 8.88857 18.1175 8.66543 17.4715 8.28323C17.3077 8.18645 17.0381 8.04677 16.8721 7.97291C16.7062 7.89911 16.5744 7.83473 16.5791 7.82993C16.5974 7.81175 17.2276 7.99565 17.4812 8.09315C17.8585 8.23829 17.9207 8.25713 17.9665 8.23961C17.9972 8.22791 18.0121 8.13845 18.027 7.87553ZM9.8241 7.16327C9.76332 7.87979 10.0442 8.83823 10.4983 9.46337C10.8503 9.94799 11.3959 10.3245 11.7988 10.3608C12.0625 10.3847 12.1417 10.3021 12.0224 10.1279C11.8568 9.88595 11.653 9.51341 11.5991 9.35393C11.5656 9.25481 11.4928 8.96219 11.4374 8.70359C11.248 7.82063 11.0618 7.47677 10.6318 7.21559C10.475 7.12043 10.1404 6.99587 9.94626 6.96047L9.84294 6.94157L9.8241 7.16327ZM17.4774 14.1161C15.3554 13.2617 14.6081 12.5201 14.6081 11.2688C14.6081 11.0847 14.6144 10.934 14.6221 10.934C14.6299 10.934 14.712 10.9947 14.8046 11.069C15.2349 11.4141 15.7168 11.5616 17.0507 11.7561C17.8356 11.8707 18.2774 11.9632 18.6848 12.0983C19.98 12.5279 20.7813 13.3995 20.9723 14.5868C21.0279 14.9318 20.9953 15.5787 20.9053 15.9197C20.8342 16.189 20.6174 16.6745 20.5598 16.6931C20.5439 16.6982 20.5283 16.6371 20.5241 16.5539C20.5024 16.1081 20.2771 15.6741 19.8987 15.3489C19.4686 14.9793 18.8906 14.685 17.4774 14.1161ZM15.887 14.022C15.9168 14.1108 15.9629 14.3128 15.9895 14.471C16.1594 15.4826 15.6285 16.2998 14.5957 16.6164C14.4863 16.65 14.0556 16.7342 13.6385 16.8037C12.7942 16.9443 12.4174 17.0438 12.0388 17.2262C11.7704 17.3555 11.4453 17.5493 11.4646 17.5685C11.4709 17.5747 11.5321 17.5601 11.6008 17.5359C12.0782 17.3683 12.6094 17.2815 13.4167 17.2396C13.737 17.223 14.1013 17.1964 14.2264 17.1807C14.9455 17.0901 15.4438 16.8717 15.8314 16.4772C16.0472 16.2576 16.1757 16.0532 16.2793 15.7647C16.345 15.5819 16.3539 15.5139 16.3544 15.1898C16.3549 14.8595 16.3469 14.7991 16.2758 14.5959C16.1826 14.3297 16.0726 14.1298 15.9335 13.9736L15.8329 13.8607L15.887 14.022ZM16.9606 16.1981C16.6787 15.5921 16.614 15.0069 16.7684 14.4611C16.7849 14.4029 16.8115 14.3551 16.8275 14.3551C16.8435 14.3551 16.91 14.3911 16.9753 14.435C17.1052 14.5225 17.3658 14.6698 18.06 15.0483C18.9262 15.5205 19.4201 15.8862 19.756 16.3041C20.0501 16.67 20.2322 17.0868 20.3198 17.5949C20.3693 17.8828 20.3403 18.5754 20.2664 18.8654C20.0336 19.7793 19.4923 20.4972 18.7202 20.9162C18.607 20.9775 18.5055 21.0279 18.4945 21.0282C18.4835 21.0284 18.5248 20.9235 18.5861 20.7953C18.8459 20.2523 18.8754 19.7242 18.6791 19.1364C18.5588 18.7765 18.3137 18.3373 17.8187 17.595C17.2433 16.7321 17.1022 16.5024 16.9606 16.1981ZM11.651 18.1866C10.7585 18.3315 9.77868 18.8039 8.99124 19.4687L8.75682 19.6667L8.96286 19.6988C10.038 19.8667 10.3275 20.0156 11.0733 20.7837C11.5025 21.2258 11.6474 21.3242 12.0034 21.4151C12.5262 21.5486 13.0416 21.3033 13.2184 20.8369C13.2974 20.6285 13.2868 20.2834 13.1963 20.1101C12.9806 19.6976 12.3527 19.5642 12.049 19.8664C11.7961 20.1182 11.8698 20.4974 12.1843 20.5626C12.2564 20.5776 12.2543 20.5745 12.166 20.5344C12.0283 20.4722 11.9686 20.3859 11.9678 20.2486C11.966 19.9265 12.3345 19.7457 12.6774 19.9004C12.9284 20.0137 13.0281 20.1617 13.0281 20.4212C13.0281 20.8207 12.688 21.1217 12.2923 21.0725C12.0808 21.0462 11.822 20.9109 11.6834 20.7541C11.3343 20.3594 11.4703 19.7366 11.9576 19.4977C12.3286 19.3158 12.8218 19.3606 13.2041 19.611C13.6435 19.8988 13.8304 20.1618 14.2088 21.0249C14.3321 21.3059 14.4907 21.6223 14.5612 21.7279C14.9196 22.2646 15.3491 22.5278 15.8665 22.5278C16.1519 22.5278 16.3666 22.4756 16.6366 22.3407C16.8373 22.2405 17.1217 22.0501 17.1013 22.0298C17.0954 22.0239 17.0122 22.0498 16.9163 22.0872C16.3514 22.3076 15.7771 22.2923 15.4436 22.0482C15.2336 21.8945 15.0642 21.5885 14.9771 21.2056C14.9621 21.1393 14.9123 20.8467 14.8666 20.5552C14.7506 19.8164 14.6393 19.4843 14.3797 19.1033C14.1141 18.7134 13.6034 18.3861 13.0325 18.24C12.6763 18.1488 12.0356 18.1241 11.651 18.1866ZM10.3997 12.4738C10.4768 12.1892 10.7258 11.9177 10.9819 11.839C11.1448 11.789 11.4815 11.8209 11.6398 11.9014C11.9465 12.0573 12.1693 12.4127 12.1209 12.669C12.062 12.9818 11.5549 13.232 10.9716 13.236C10.6736 13.2381 10.5637 13.1981 10.4498 13.0461C10.3794 12.9521 10.3528 12.6474 10.3997 12.4738ZM11.5615 12.0128C11.7145 12.1062 11.7538 12.2444 11.6638 12.3722C11.6019 12.4603 11.4101 12.5439 11.2699 12.5439C11.0593 12.5439 10.8295 12.3944 10.8295 12.2574C10.8295 11.9822 11.2702 11.8349 11.5615 12.0128Z" fill="#FEFEFE"/>
</svg>
