<svg width="24" height="24" viewBox="0 0 24 24" fill="none" xmlns="http://www.w3.org/2000/svg">
<mask id="mask0_222_910" style={{maskType: 'alpha'}} maskUnits="userSpaceOnUse" x="5" y="4" width="15" height="15">
<path d="M18.8822 10.5273H12.3594V13.2318H16.114C15.7639 14.95 14.3003 15.9364 12.3594 15.9364C10.0685 15.9364 8.22303 14.0909 8.22303 11.8C8.22303 9.50911 10.0685 7.66368 12.3594 7.66368C13.3458 7.66368 14.2367 8.01368 14.9367 8.58643L16.9731 6.55004C15.7321 5.46823 14.1412 4.80005 12.3594 4.80005C8.47756 4.80005 5.35938 7.91823 5.35938 11.8C5.35938 15.6819 8.47756 18.8 12.3594 18.8C15.8594 18.8 19.0413 16.2546 19.0413 11.8C19.0413 11.3864 18.9776 10.9409 18.8822 10.5273Z" fill="white"/>
</mask>
<g mask="url(#mask0_222_910)">
<path d="M4.72266 15.9363V7.66357L10.1318 11.7999L4.72266 15.9363Z" fill="#FBBC05"/>
</g>
<mask id="mask1_222_910" style={{maskType: 'alpha'}} maskUnits="userSpaceOnUse" x="5" y="4" width="15" height="15">
<path d="M18.8822 10.5273H12.3594V13.2318H16.114C15.7639 14.95 14.3003 15.9364 12.3594 15.9364C10.0685 15.9364 8.22303 14.0909 8.22303 11.8C8.22303 9.50911 10.0685 7.66368 12.3594 7.66368C13.3458 7.66368 14.2367 8.01368 14.9367 8.58643L16.9731 6.55004C15.7321 5.46823 14.1412 4.80005 12.3594 4.80005C8.47756 4.80005 5.35938 7.91823 5.35938 11.8C5.35938 15.6819 8.47756 18.8 12.3594 18.8C15.8594 18.8 19.0413 16.2546 19.0413 11.8C19.0413 11.3864 18.9776 10.9409 18.8822 10.5273Z" fill="white"/>
</mask>
<g mask="url(#mask1_222_910)">
<path d="M4.72266 7.66357L10.1318 11.8L12.359 9.85901L19.9954 8.6181V4.16357H4.72266V7.66357Z" fill="#EA4335"/>
</g>
<mask id="mask2_222_910" style={{maskType: 'alpha'}} maskUnits="userSpaceOnUse" x="5" y="4" width="15" height="15">
<path d="M18.8822 10.5273H12.3594V13.2318H16.114C15.7639 14.95 14.3003 15.9364 12.3594 15.9364C10.0685 15.9364 8.22303 14.0909 8.22303 11.8C8.22303 9.50911 10.0685 7.66368 12.3594 7.66368C13.3458 7.66368 14.2367 8.01368 14.9367 8.58643L16.9731 6.55004C15.7321 5.46823 14.1412 4.80005 12.3594 4.80005C8.47756 4.80005 5.35938 7.91823 5.35938 11.8C5.35938 15.6819 8.47756 18.8 12.3594 18.8C15.8594 18.8 19.0413 16.2546 19.0413 11.8C19.0413 11.3864 18.9776 10.9409 18.8822 10.5273Z" fill="white"/>
</mask>
<g mask="url(#mask2_222_910)">
<path d="M4.72266 15.9363L14.2681 8.6181L16.7818 8.93626L19.9954 4.16357V19.4363H4.72266V15.9363Z" fill="#34A853"/>
</g>
<mask id="mask3_222_910" style={{maskType: 'alpha'}} maskUnits="userSpaceOnUse" x="5" y="4" width="15" height="15">
<path d="M18.8822 10.5273H12.3594V13.2318H16.114C15.7639 14.95 14.3003 15.9364 12.3594 15.9364C10.0685 15.9364 8.22303 14.0909 8.22303 11.8C8.22303 9.50911 10.0685 7.66368 12.3594 7.66368C13.3458 7.66368 14.2367 8.01368 14.9367 8.58643L16.9731 6.55004C15.7321 5.46823 14.1412 4.80005 12.3594 4.80005C8.47756 4.80005 5.35938 7.91823 5.35938 11.8C5.35938 15.6819 8.47756 18.8 12.3594 18.8C15.8594 18.8 19.0413 16.2546 19.0413 11.8C19.0413 11.3864 18.9776 10.9409 18.8822 10.5273Z" fill="white"/>
</mask>
<g mask="url(#mask3_222_910)">
<path d="M19.9948 19.4365L10.1311 11.8002L8.8584 10.8456L19.9948 7.66382V19.4365Z" fill="#4285F4"/>
</g>
</svg>
