<svg width="24" height="24" viewBox="0 0 24 24" fill="none" xmlns="http://www.w3.org/2000/svg">
<path fill-rule="evenodd" clip-rule="evenodd" d="M23.5871 15.1322C23.8564 14.1337 24 13.0836 24 12C24 5.37258 18.6274 0 12 0C5.37258 0 0 5.37258 0 12C0 18.6274 5.37258 24 12 24C13.0836 24 14.1337 23.8564 15.1322 23.5871C13.8282 22.4865 13 20.84 13 19C13 15.6863 15.6863 13 19 13C20.84 13 22.4865 13.8282 23.5871 15.1322Z" fill="url(#paint0_linear_1_847)"/>
<mask id="mask0_1_847" style="mask-type:alpha" maskUnits="userSpaceOnUse" x="0" y="0" width="24" height="24">
<path fill-rule="evenodd" clip-rule="evenodd" d="M23.5871 15.1322C23.8564 14.1337 24 13.0836 24 12C24 5.37258 18.6274 0 12 0C5.37258 0 0 5.37258 0 12C0 18.6274 5.37258 24 12 24C13.0836 24 14.1337 23.8564 15.1322 23.5871C13.8282 22.4865 13 20.84 13 19C13 15.6863 15.6863 13 19 13C20.84 13 22.4865 13.8282 23.5871 15.1322Z" fill="url(#paint1_linear_1_847)"/>
</mask>
<g mask="url(#mask0_1_847)">
<path fill-rule="evenodd" clip-rule="evenodd" d="M18.6584 16.0494C19.5223 15.0544 19.9987 13.7814 20 12.4636C19.9994 11.9492 19.9267 11.4375 19.7841 10.9432C18.8962 7.82404 15.4769 6.16285 12.459 7.38263C11.9437 7.59091 11.4832 7.88774 11.0373 8.21513C10.4984 8.61578 9.88441 8.73489 9.22452 8.61578C8.71495 8.52406 8.2608 8.30813 7.82321 8.05335C7.60033 7.92433 7.43124 7.71952 7.34675 7.47626C7.32764 7.42379 7.3147 7.36823 7.30171 7.31243C7.29262 7.27341 7.2835 7.23427 7.27223 7.196C7.16148 6.82192 6.92327 6.49842 6.59892 6.28162C6.27457 6.06482 5.88456 5.96841 5.49656 6.00912C5.10856 6.04983 4.74705 6.22508 4.47476 6.50447C4.20248 6.78386 4.03659 7.14976 4.00589 7.53868C3.90588 8.73871 5.09764 9.65275 6.2308 9.23936C6.3867 9.17958 6.55384 9.15481 6.72039 9.16681C6.88693 9.17881 7.0488 9.22728 7.19452 9.30879C7.51528 9.47433 7.81871 9.67149 8.10028 9.89734C8.79457 10.4668 9.13598 11.1814 9.05573 12.091C9.0045 12.7336 9.07539 13.38 9.26465 13.9962C9.63466 15.2609 10.4482 16.3498 11.556 17.0633C12.6639 17.7769 13.9918 18.0671 15.2963 17.8809C16.6008 17.6947 17.7945 17.0444 18.6584 16.0494ZM12.2032 10.9527C11.8996 11.4068 11.7374 11.9407 11.7373 12.4869C11.7383 13.2184 12.0291 13.9197 12.546 14.4374C13.0629 14.955 13.7638 15.2467 14.4953 15.2488C15.0416 15.2494 15.5757 15.088 16.0302 14.785C16.4847 14.482 16.8391 14.051 17.0486 13.5466C17.2581 13.0421 17.3133 12.4869 17.2071 11.951C17.101 11.4152 16.8383 10.9229 16.4524 10.5364C16.0664 10.1499 15.5745 9.88656 15.0388 9.77969C14.5031 9.67282 13.9478 9.72722 13.443 9.93602C12.9383 10.1448 12.5068 10.4986 12.2032 10.9527Z" fill="white"/>
</g>
<circle cx="19" cy="19" r="5" fill="#D9D9D9"/>
<path d="M19 24C21.7614 24 24 21.7614 24 19C24 16.2386 21.7614 14 19 14C16.2386 14 14 16.2386 14 19C14 21.7614 16.2386 24 19 24Z" fill="#0B0E11"/>
<path d="M17.2187 16.6988L18.98 15.6738L20.7412 16.6988L20.0937 17.0775L18.98 16.4313L17.8662 17.0775L17.2187 16.6988ZM20.7412 17.9919L20.0937 17.6125L18.98 18.2594L17.8662 17.6132L17.2187 17.9919V18.7494L18.3325 19.3957V20.6888L18.98 21.0675L19.6275 20.6888V19.3957L20.7412 18.75V17.9919ZM20.7412 20.0419V19.2844L20.0937 19.6632V20.4207L20.7412 20.0419ZM21.2012 20.31L20.0875 20.9563V21.7138L21.8487 20.6888V18.6388L21.2012 19.0169V20.31ZM20.5537 17.345L21.2012 17.7238V18.4813L21.8487 18.1025V17.345L21.2012 16.9663L20.5537 17.345ZM18.3325 21.2313V21.9888L18.98 22.3675L19.6275 21.9888V21.2313L18.98 21.61L18.3325 21.2313ZM17.2187 20.0419L17.8662 20.4207V19.6632L17.2187 19.2844V20.0419ZM18.3325 17.345L18.98 17.7238L19.6275 17.345L18.98 16.9663L18.3325 17.345ZM16.7594 17.7238L17.4069 17.345L16.7594 16.9663L16.1112 17.345V18.1025L16.7594 18.4813V17.7238ZM16.7594 19.0175L16.1112 18.6375V20.6875L17.8725 21.7132V20.9563L16.7594 20.31V19.0175Z" fill="#F1B90C"/>
<defs>
<linearGradient id="paint0_linear_1_847" x1="0" y1="0" x2="24" y2="24" gradientUnits="userSpaceOnUse">
<stop stop-color="#180F3E"/>
<stop offset="1" stop-color="#6221EB"/>
</linearGradient>
<linearGradient id="paint1_linear_1_847" x1="0" y1="0" x2="24" y2="24" gradientUnits="userSpaceOnUse">
<stop stop-color="#180F3E"/>
<stop offset="1" stop-color="#6221EB"/>
</linearGradient>
</defs>
</svg>
