<svg width="24" height="24" viewBox="0 0 24 24" fill="none" xmlns="http://www.w3.org/2000/svg">
<path d="M7.38939 12.0001L5.50361 13.8866L3.59961 12.0001L5.50291 10.0968L7.38939 12.0001ZM11.9996 7.38988L15.2476 10.6379L17.1516 8.73532L11.9996 3.6001L6.84759 8.75212L8.75163 10.6547L11.9996 7.38988ZM18.4963 10.0968L16.6098 12.0001L18.5131 13.9034L20.4157 12.0001L18.4963 10.0968ZM11.9996 16.6103L8.75163 13.3455L6.84759 15.2488L11.9996 20.4001L17.1516 15.2481L15.2476 13.3455L11.9996 16.6103ZM11.9996 13.8873L13.9029 11.9833L11.9996 10.0975L10.0963 12.0001L11.9996 13.8866V13.8873Z" fill="#F6D658"/>
</svg>
