<svg width="24" height="24" viewBox="0 0 24 24" fill="none" xmlns="http://www.w3.org/2000/svg">
<path fill-rule="evenodd" clip-rule="evenodd" d="M12 1.79999C17.6339 1.79999 22.2 6.36611 22.2 12C22.2 17.6339 17.6339 22.2 12 22.2C6.36612 22.2 1.8 17.6339 1.8 12C1.8 6.36611 6.36612 1.79999 12 1.79999Z" fill="url(#paint0_radial_1_451)"/>
<path d="M8.28222 9.67812C10.3342 7.67394 13.6651 7.67394 15.7171 9.67812L15.9641 9.92118C16.0677 10.0208 16.0677 10.1841 15.9641 10.2838L15.1194 11.1085C15.0676 11.1603 14.9839 11.1603 14.9321 11.1085L14.5935 10.7778C13.1591 9.37926 10.8402 9.37926 9.40584 10.7778L9.04326 11.1324C8.99142 11.1842 8.90778 11.1842 8.856 11.1324L8.01126 10.3076C7.9077 10.208 7.9077 10.0447 8.01126 9.94506L8.28222 9.67812ZM17.4662 11.3834L18.2192 12.1165C18.3229 12.2162 18.3229 12.3795 18.2192 12.4791L14.8286 15.7901C14.725 15.8897 14.5576 15.8897 14.458 15.7901L12.0514 13.4393C12.0275 13.4155 11.9837 13.4155 11.9598 13.4393L9.55326 15.7901C9.44964 15.8897 9.2823 15.8897 9.1827 15.7901L5.78004 12.4791C5.67645 12.3795 5.67645 12.2162 5.78004 12.1165L6.5331 11.3834C6.63666 11.2838 6.804 11.2838 6.90366 11.3834L9.3102 13.7342C9.33408 13.7581 9.37794 13.7581 9.40182 13.7342L11.8084 11.3834C11.912 11.2838 12.0793 11.2838 12.1789 11.3834L14.5855 13.7342C14.6094 13.7581 14.6533 13.7581 14.6771 13.7342L17.0837 11.3834C17.1953 11.2838 17.3626 11.2838 17.4662 11.3834Z" fill="white"/>
<defs>
<radialGradient id="paint0_radial_1_451" cx="0" cy="0" r="1" gradientUnits="userSpaceOnUse" gradientTransform="translate(1.80007 12.0003) scale(20.4)">
<stop stop-color="#5D9DF6"/>
<stop offset="1" stop-color="#006FFF"/>
</radialGradient>
</defs>
</svg>
