<svg width="24" height="24" viewBox="0 0 24 24" fill="none" xmlns="http://www.w3.org/2000/svg">
<path d="M12 1.79999C17.6339 1.79999 22.2 6.36611 22.2 12C22.2 17.6339 17.6339 22.2 12 22.2C6.36611 22.2 1.79999 17.6339 1.79999 12C1.79999 6.36611 6.36611 1.79999 12 1.79999Z" fill="#0052FF"/>
<path d="M12.0149 15.586C10.0312 15.586 8.42256 13.9822 8.42256 12C8.42256 10.0178 10.0312 8.41404 12.0149 8.41404C13.7932 8.41404 15.2701 9.70896 15.5535 11.4023H19.1719C18.8665 7.7208 15.779 4.82812 12.013 4.82812C8.04534 4.82812 4.82812 8.03952 4.82812 12C4.82812 15.9605 8.04534 19.1719 12.013 19.1719C15.779 19.1719 18.8665 16.2792 19.1719 12.5977H15.5515C15.2661 14.291 13.7932 15.586 12.0149 15.586Z" fill="white"/>
</svg>
