<svg width="24" height="24" viewBox="0 0 24 24" fill="none" xmlns="http://www.w3.org/2000/svg">
<path d="M18.65 2.5H5.35C3.77599 2.5 2.5 3.77599 2.5 5.35V18.65C2.5 20.224 3.77599 21.5 5.35 21.5H18.65C20.224 21.5 21.5 20.224 21.5 18.65V5.35C21.5 3.77599 20.224 2.5 18.65 2.5Z" fill="black"/>
<path d="M13.6187 10.2138H10.5483C10.4191 10.2138 10.3127 10.3202 10.3127 10.4494V13.5198C10.3127 13.649 10.4191 13.7554 10.5483 13.7554H13.6187C13.7479 13.7554 13.8543 13.649 13.8543 13.5198V10.4494C13.8543 10.3202 13.7479 10.2138 13.6187 10.2138Z" fill="white"/>
<path d="M10.0692 6.67215H6.99878C6.86958 6.67215 6.76318 6.77855 6.76318 6.90775V9.97815C6.76318 10.1073 6.86958 10.2137 6.99878 10.2137H10.0692C10.1984 10.2137 10.3048 10.1073 10.3048 9.97815V6.90775C10.3048 6.77855 10.1984 6.67215 10.0692 6.67215Z" fill="white"/>
<path d="M17.1682 6.67215H14.0978C13.9686 6.67215 13.8622 6.77855 13.8622 6.90775V9.97815C13.8622 10.1073 13.9686 10.2137 14.0978 10.2137H17.1682C17.2974 10.2137 17.4038 10.1073 17.4038 9.97815V6.90775C17.4038 6.77855 17.2974 6.67215 17.1682 6.67215Z" fill="white"/>
<path d="M10.0692 13.7629H6.99878C6.86958 13.7629 6.76318 13.8693 6.76318 13.9985V17.0689C6.76318 17.1981 6.86958 17.3045 6.99878 17.3045H10.0692C10.1984 17.3045 10.3048 17.1981 10.3048 17.0689V13.9985C10.3048 13.8693 10.1984 13.7629 10.0692 13.7629Z" fill="white"/>
<path d="M17.1682 13.7631H14.0978C13.9686 13.7631 13.8622 13.8695 13.8622 13.9987V17.0691C13.8622 17.1983 13.9686 17.3047 14.0978 17.3047H17.1682C17.2974 17.3047 17.4038 17.1983 17.4038 17.0691V13.9987C17.4038 13.8695 17.2974 13.7631 17.1682 13.7631Z" fill="white"/>
</svg>
