<svg width="64" height="64" viewBox="0 0 64 64" fill="none" xmlns="http://www.w3.org/2000/svg">
<path d="M32 56C45.2548 56 56 45.2548 56 32C56 18.7452 45.2548 8 32 8C18.7452 8 8 18.7452 8 32C8 45.2548 18.7452 56 32 56Z" fill="url(#paint0_linear_1_244)"/>
<path fill-rule="evenodd" clip-rule="evenodd" d="M42.9998 17H20.9998L17.6369 25.9677C16.7617 28.3016 17.6702 30.7424 19.5 32.0453V41.5H18V44.5H19.5H32.5H33V41.5H32.5H22.5V33L22.5103 33C24.3614 33 26.0733 32.0166 27.006 30.4177L27.2498 30.0001L27.6011 30.5621C28.549 32.0788 30.2114 33 31.9998 33C33.7881 33 35.4507 32.0786 36.3985 30.5619L36.7498 30.0001L36.9935 30.4178C37.9263 32.0168 39.6381 33 41.4893 33C45.1233 33 47.6386 29.3703 46.3627 25.9677L42.9998 17ZM20.4459 27.0211L23.0788 20H40.9208L43.5537 27.0211C44.0941 28.4625 43.0286 30 41.4893 30C40.7051 30 39.9799 29.5833 39.5848 28.906L39.3411 28.4883L36.8383 24.198L34.2058 28.41L33.8544 28.9721C33.4548 29.6115 32.7539 30 31.9998 30C31.2456 30 30.5446 29.6113 30.145 28.9719L27.1612 24.198L24.6584 28.4884L24.4147 28.9061C24.0196 29.5835 23.2944 30 22.5103 30C20.9709 30 19.9054 28.4625 20.4459 27.0211ZM39.0491 42.072L45.1211 36L42.9998 33.8787L38.9505 37.928L36.8989 36.0629L34.8809 38.2827L39.0491 42.072Z" fill="#0A1161"/>
<defs>
<linearGradient id="paint0_linear_1_244" x1="8" y1="32.8276" x2="56" y2="32.8276" gradientUnits="userSpaceOnUse">
<stop stop-color="#9EE6FC"/>
<stop offset="1" stop-color="#EBB9E7"/>
</linearGradient>
</defs>
</svg>
