<svg width="24" height="24" viewBox="0 0 24 24" fill="none" xmlns="http://www.w3.org/2000/svg">
<path fill-rule="evenodd" clip-rule="evenodd" d="M4.5896 15.6543L7.51463 13.4174C7.3474 12.9094 7.25697 12.366 7.25697 11.8007C7.25697 11.2355 7.34738 10.6921 7.51458 10.1841L4.58956 7.94714C4.01914 9.10702 3.69922 10.4147 3.69922 11.8007C3.69922 13.1867 4.01916 14.4944 4.5896 15.6543Z" fill="#FBBC05"/>
<path fill-rule="evenodd" clip-rule="evenodd" d="M7.51625 10.1842C8.19093 8.13392 10.1166 6.66104 12.3978 6.66104C13.6232 6.66104 14.73 7.09591 15.5997 7.80754L18.1297 5.27737C16.588 3.93323 14.6114 3.10303 12.3978 3.10303C8.96078 3.10303 6.00567 5.0707 4.59119 7.94718L7.51625 10.1842Z" fill="#EA4335"/>
<path fill-rule="evenodd" clip-rule="evenodd" d="M4.59085 15.6513C6.00499 18.5287 8.96061 20.4972 12.3983 20.4972C16.7466 20.4972 20.6997 17.3345 20.6997 11.7998C20.6997 11.2859 20.6206 10.7324 20.502 10.2185H12.3983V13.5788H17.0629C16.628 15.7136 14.8096 16.9392 12.3983 16.9392C10.1147 16.9392 8.1874 15.4632 7.51465 13.4095L4.59085 15.6513Z" fill="#34A853"/>
<path fill-rule="evenodd" clip-rule="evenodd" d="M12.3981 10.2194H20.5019C20.6205 10.7333 20.6996 11.2868 20.6996 11.8007C20.6996 14.6356 19.6625 16.8481 18.0664 18.3322L15.2895 16.1822C16.1975 15.6091 16.8294 14.7253 17.0627 13.5797H12.3981V10.2194Z" fill="#4285F4"/>
</svg>
