<svg width="24" height="24" viewBox="0 0 24 24" fill="none" xmlns="http://www.w3.org/2000/svg">
<g clip-path="url(#clip0_222_887)">
<path d="M12 24C18.6274 24 24 18.6274 24 12C24 5.37258 18.6274 0 12 0C5.37258 0 0 5.37258 0 12C0 18.6274 5.37258 24 12 24Z" fill="#8247E5"/>
<mask id="mask0_222_887" style={{maskType: 'luminance'}} maskUnits="userSpaceOnUse" x="5" y="6" width="15" height="12">
<path d="M19.1556 6H5.40039V18H19.1556V6Z" fill="white"/>
</mask>
<g mask="url(#mask0_222_887)">
<path d="M15.7885 9.65048C15.5377 9.5072 15.2153 9.5072 14.9287 9.65048L12.9228 10.8326L11.5616 11.5848L9.59143 12.7669C9.34067 12.9102 9.01829 12.9102 8.73173 12.7669L7.19143 11.8356C6.94067 11.6923 6.76157 11.4057 6.76157 11.0833V9.29228C6.76157 9.00572 6.90485 8.71914 7.19143 8.54004L8.73173 7.64452C8.98247 7.50124 9.30485 7.50124 9.59143 7.64452L11.1317 8.57586C11.3825 8.71914 11.5616 9.00572 11.5616 9.3281V10.5102L12.9228 9.72214V8.50422C12.9228 8.21766 12.7795 7.93108 12.4929 7.75198L9.62725 6.0684C9.37651 5.92512 9.05411 5.92512 8.76755 6.0684L5.83023 7.7878C5.54367 7.93108 5.40039 8.21766 5.40039 8.50422V11.8714C5.40039 12.158 5.54367 12.4445 5.83023 12.6236L8.73173 14.3072C8.98247 14.4505 9.30485 14.4505 9.59143 14.3072L11.5616 13.1609L12.9228 12.3729L14.8929 11.2266C15.1437 11.0833 15.4661 11.0833 15.7526 11.2266L17.2929 12.1221C17.5437 12.2654 17.7228 12.552 17.7228 12.8744V14.6654C17.7228 14.952 17.5795 15.2385 17.2929 15.4177L15.7885 16.3132C15.5377 16.4565 15.2153 16.4565 14.9287 16.3132L13.3885 15.4177C13.1377 15.2744 12.9586 14.9878 12.9586 14.6654V13.5191L11.5974 14.3072V15.4893C11.5974 15.7759 11.7407 16.0624 12.0273 16.2415L14.9287 17.9251C15.1795 18.0684 15.5019 18.0684 15.7885 17.9251L18.6899 16.2415C18.9407 16.0983 19.1198 15.8117 19.1198 15.4893V12.0863C19.1198 11.7997 18.9765 11.5132 18.6899 11.3341L15.7885 9.65048Z" fill="white"/>
</g>
</g>
<defs>
<clipPath id="clip0_222_887">
<rect width="24" height="24" fill="white"/>
</clipPath>
</defs>
</svg>
