<svg width="24" height="24" viewBox="0 0 24 24" fill="none" xmlns="http://www.w3.org/2000/svg">
<g clip-path="url(#clip0_1_663)">
<path d="M12.096 0.120007C5.472 0.0720075 0.0719999 5.47201 0.12 12.096C0.168 18.552 5.448 23.808 11.904 23.88C18.552 23.928 23.952 18.528 23.88 11.904C23.832 5.44801 18.552 0.168007 12.096 0.120007Z" fill="#2081E2"/>
<path d="M8.5439 6.21619C9.2879 7.15219 9.7199 8.32819 9.7199 9.62419C9.7199 10.7282 9.3839 11.7602 8.8319 12.6242H4.8479L8.5439 6.21619Z" fill="white"/>
<path d="M20.712 14.04C20.712 14.088 20.688 14.136 20.64 14.16C20.376 14.28 19.488 14.688 19.104 15.216C18.144 16.536 17.424 18.648 15.792 18.648H8.952C6.528 18.648 4.512 16.728 4.536 14.184C4.536 14.112 4.584 14.064 4.656 14.064H7.872C7.992 14.064 8.064 14.16 8.064 14.256V14.88C8.064 15.216 8.328 15.48 8.664 15.48H11.112V14.064H9.432C10.392 12.84 10.968 11.304 10.968 9.62398C10.968 7.75198 10.248 6.04798 9.072 4.77598C9.792 4.84798 10.464 4.99198 11.088 5.18398V4.77598C11.088 4.36798 11.424 4.03198 11.832 4.03198C12.24 4.03198 12.576 4.36798 12.576 4.77598V5.73598C14.856 6.79198 16.368 8.56798 16.368 10.584C16.368 11.76 15.864 12.864 14.976 13.776C14.808 13.944 14.568 14.04 14.328 14.04H12.6V15.456H14.76C15.216 15.456 16.056 14.568 16.464 14.04C16.464 14.04 16.488 14.016 16.536 13.992C16.584 13.968 20.52 13.08 20.52 13.08C20.592 13.056 20.688 13.128 20.688 13.2L20.712 14.04Z" fill="white"/>
</g>
<defs>
<clipPath id="clip0_1_663">
<rect width="24" height="24" fill="white"/>
</clipPath>
</defs>
</svg>
