<svg width="24" height="24" viewBox="0 0 24 24" fill="none" xmlns="http://www.w3.org/2000/svg">
<path fill-rule="evenodd" clip-rule="evenodd" d="M9.46766 4.03122C9.82922 3.66967 10.3196 3.46655 10.8309 3.46655L20.2657 3.46661L16.2213 7.51103H8.39745C7.90572 7.51103 7.51023 7.90965 7.51023 8.40136V14.9902L3.78848 11.2685C3.57338 11.0534 3.46582 10.7714 3.46582 10.4895C3.46582 10.2076 3.57337 9.92565 3.78847 9.71052L9.46766 4.03122ZM15.3309 16.222H7.51023L3.46582 20.2664L12.9006 20.2665C13.4119 20.2665 13.9023 20.0634 14.2638 19.7018L19.943 14.0225C20.1581 13.8074 20.2657 13.5255 20.2657 13.2435C20.2657 12.9616 20.1581 12.6797 19.943 12.4646L16.2213 8.74277V15.3317C16.2213 15.8234 15.8227 16.222 15.3309 16.222Z" fill="#4A21EF"/>
</svg>
