<svg width="24" height="24" viewBox="0 0 24 24" fill="none" xmlns="http://www.w3.org/2000/svg">
<path fill-rule="evenodd" clip-rule="evenodd" d="M3.05397 5.67599C2.39996 6.95999 2.39996 8.63999 2.39996 12C2.39996 15.36 2.39996 17.04 3.05397 18.324C3.62997 19.452 4.54796 20.37 5.67596 20.946C6.95996 21.6 8.63996 21.6 12 21.6C15.36 21.6 17.04 21.6 18.324 20.946C19.452 20.37 20.37 19.452 20.946 18.324C21.6 17.04 21.6 15.36 21.6 12C21.6 8.63999 21.6 6.95999 20.946 5.67599C20.37 4.54799 19.452 3.63 18.324 3.054C17.04 2.39999 15.36 2.39999 12 2.39999C8.63996 2.39999 6.95996 2.39999 5.67596 3.054C4.54796 3.63 3.62997 4.54799 3.05397 5.67599ZM16.791 7.57798C16.959 7.57798 17.118 7.647 17.235 7.76402C17.352 7.88402 17.418 8.04601 17.415 8.21098C17.385 9.999 17.316 11.367 17.187 12.45C17.061 13.533 16.872 14.337 16.587 14.988C16.395 15.423 16.158 15.783 15.879 16.089C15.504 16.494 15.075 16.788 14.607 17.067C14.4069 17.1867 14.1989 17.3048 13.9806 17.4287C13.515 17.6931 13.0031 17.9839 12.423 18.372C12.213 18.513 11.94 18.513 11.73 18.372C11.141 17.9793 10.6223 17.685 10.1524 17.4185C10.0479 17.3592 9.94587 17.3013 9.84598 17.244C9.29701 16.926 8.802 16.623 8.37 16.185C8.082 15.897 7.83301 15.546 7.63499 15.129C7.36499 14.571 7.18199 13.896 7.04699 13.023C6.86698 11.856 6.77699 10.329 6.74399 8.21098C6.74099 8.04601 6.80399 7.88402 6.92099 7.76402C7.03799 7.647 7.19999 7.57798 7.36799 7.57798H7.626C8.42098 7.58101 10.176 7.503 11.694 6.321C11.919 6.147 12.234 6.147 12.459 6.321C13.977 7.503 15.732 7.58101 16.53 7.57798H16.791ZM15.396 14.589C15.591 14.187 15.753 13.632 15.876 12.834C16.023 11.88 16.113 10.584 16.155 8.82002C15.219 8.79299 13.611 8.61301 12.078 7.58101C10.545 8.60998 8.93701 8.79001 8.00399 8.82002C8.03698 10.278 8.10297 11.412 8.20796 12.303C8.32796 13.317 8.49899 14.004 8.71196 14.487C8.85298 14.808 9.00901 15.039 9.19499 15.243C9.44399 15.516 9.75897 15.741 10.188 15.999C10.3659 16.1058 10.5621 16.2168 10.7757 16.3377C11.1562 16.5531 11.5919 16.7996 12.078 17.109C12.5551 16.8047 12.9845 16.5607 13.3606 16.3469C13.474 16.2825 13.5824 16.2208 13.686 16.161C14.214 15.858 14.604 15.606 14.895 15.312C15.09 15.111 15.249 14.892 15.396 14.589Z" fill="#3375BB"/>
</svg>
