<svg width="24" height="24" viewBox="0 0 24 24" fill="none" xmlns="http://www.w3.org/2000/svg">
<path fill-rule="evenodd" clip-rule="evenodd" d="M9.46785 4.03129C9.8294 3.66973 10.3198 3.46661 10.8311 3.46661L20.2659 3.46667L16.2214 7.51109H8.39763C7.90591 7.51109 7.51041 7.90971 7.51041 8.40142V14.9903L3.78866 11.2686C3.57356 11.0534 3.466 10.7715 3.466 10.4895C3.466 10.2077 3.57355 9.92571 3.78866 9.71058L9.46785 4.03129ZM15.3311 16.2221H7.51042L3.466 20.2665L12.9008 20.2666C13.4121 20.2666 13.9025 20.0634 14.264 19.7019L19.9432 14.0226C20.1583 13.8075 20.2659 13.5255 20.2659 13.2436C20.2659 12.9617 20.1583 12.6798 19.9432 12.4646L16.2215 8.74283V15.3317C16.2215 15.8234 15.8229 16.2221 15.3311 16.2221Z" fill="#4A21EF"/>
</svg>
