<svg width="24" height="24" viewBox="0 0 24 24" fill="none" xmlns="http://www.w3.org/2000/svg">
<path d="M19.5631 4.24454L13.0078 9.11322L14.2201 6.24079L19.5631 4.24454Z" fill="#E2761B" stroke="#E2761B" stroke-width="0.109804" stroke-linecap="round" stroke-linejoin="round"/>
<path d="M4.42969 4.24454L10.9323 9.15937L9.77934 6.24079L4.42969 4.24454Z" fill="#E4761B" stroke="#E4761B" stroke-width="0.109804" stroke-linecap="round" stroke-linejoin="round"/>
<path d="M17.2029 15.5297L15.457 18.2046L19.1926 19.2323L20.2665 15.589L17.2029 15.5297Z" fill="#E4761B" stroke="#E4761B" stroke-width="0.109804" stroke-linecap="round" stroke-linejoin="round"/>
<path d="M3.73828 15.589L4.80557 19.2323L8.54112 18.2046L6.79524 15.5297L3.73828 15.589Z" fill="#E4761B" stroke="#E4761B" stroke-width="0.109804" stroke-linecap="round" stroke-linejoin="round"/>
<path d="M8.32997 11.0122L7.28903 12.5868L10.9982 12.7515L10.8665 8.76562L8.32997 11.0122Z" fill="#E4761B" stroke="#E4761B" stroke-width="0.109804" stroke-linecap="round" stroke-linejoin="round"/>
<path d="M15.6652 11.0091L13.0958 8.71637L13.0102 12.7484L16.7128 12.5837L15.6652 11.0091Z" fill="#E4761B" stroke="#E4761B" stroke-width="0.109804" stroke-linecap="round" stroke-linejoin="round"/>
<path d="M8.54065 18.2056L10.7674 17.1186L8.84371 15.6164L8.54065 18.2056Z" fill="#E4761B" stroke="#E4761B" stroke-width="0.109804" stroke-linecap="round" stroke-linejoin="round"/>
<path d="M13.2258 17.1186L15.4592 18.2056L15.1495 15.6164L13.2258 17.1186Z" fill="#E4761B" stroke="#E4761B" stroke-width="0.109804" stroke-linecap="round" stroke-linejoin="round"/>
<path d="M15.4568 18.2081L13.2234 17.1211L13.4013 18.5771L13.3815 19.1898L15.4568 18.2081Z" fill="#D7C1B3" stroke="#D7C1B3" stroke-width="0.109804" stroke-linecap="round" stroke-linejoin="round"/>
<path d="M8.5383 18.2081L10.6136 19.1898L10.6004 18.5771L10.7651 17.1211L8.5383 18.2081Z" fill="#D7C1B3" stroke="#D7C1B3" stroke-width="0.109804" stroke-linecap="round" stroke-linejoin="round"/>
<path d="M10.6493 14.6534L8.79138 14.1065L10.1024 13.507L10.6493 14.6534Z" fill="#233447" stroke="#233447" stroke-width="0.109804" stroke-linecap="round" stroke-linejoin="round"/>
<path d="M13.343 14.6534L13.8898 13.507L15.2074 14.1065L13.343 14.6534Z" fill="#233447" stroke="#233447" stroke-width="0.109804" stroke-linecap="round" stroke-linejoin="round"/>
<path d="M8.54275 18.2046L8.85901 15.5297L6.79688 15.589L8.54275 18.2046Z" fill="#CD6116" stroke="#CD6116" stroke-width="0.109804" stroke-linecap="round" stroke-linejoin="round"/>
<path d="M15.143 15.5297L15.4592 18.2046L17.2051 15.589L15.143 15.5297Z" fill="#CD6116" stroke="#CD6116" stroke-width="0.109804" stroke-linecap="round" stroke-linejoin="round"/>
<path d="M16.7104 12.5836L13.0078 12.7483L13.3504 14.6523L13.8972 13.5059L15.2149 14.1055L16.7104 12.5836Z" fill="#CD6116" stroke="#CD6116" stroke-width="0.109804" stroke-linecap="round" stroke-linejoin="round"/>
<path d="M8.79354 14.1055L10.1112 13.5059L10.6514 14.6523L11.0006 12.7483L7.29138 12.5836L8.79354 14.1055Z" fill="#CD6116" stroke="#CD6116" stroke-width="0.109804" stroke-linecap="round" stroke-linejoin="round"/>
<path d="M7.28903 12.5836L8.84387 15.6142L8.79119 14.1055L7.28903 12.5836Z" fill="#E4751F" stroke="#E4751F" stroke-width="0.109804" stroke-linecap="round" stroke-linejoin="round"/>
<path d="M15.2159 14.1055L15.15 15.6142L16.7114 12.5836L15.2159 14.1055Z" fill="#E4751F" stroke="#E4751F" stroke-width="0.109804" stroke-linecap="round" stroke-linejoin="round"/>
<path d="M10.9968 12.7477L10.6476 14.6516L11.0825 16.8982L11.1813 13.9401L10.9968 12.7477Z" fill="#E4751F" stroke="#E4751F" stroke-width="0.109804" stroke-linecap="round" stroke-linejoin="round"/>
<path d="M13.0076 12.7477L12.8297 13.9336L12.9088 16.8982L13.3502 14.6516L13.0076 12.7477Z" fill="#E4751F" stroke="#E4751F" stroke-width="0.109804" stroke-linecap="round" stroke-linejoin="round"/>
<path d="M13.3508 14.6539L12.9094 16.9004L13.2256 17.1179L15.1494 15.6157L15.2153 14.107L13.3508 14.6539Z" fill="#F6851B" stroke="#F6851B" stroke-width="0.109804" stroke-linecap="round" stroke-linejoin="round"/>
<path d="M8.79138 14.107L8.84412 15.6157L10.7679 17.1179L11.0841 16.9004L10.6493 14.6539L8.79138 14.107Z" fill="#F6851B" stroke="#F6851B" stroke-width="0.109804" stroke-linecap="round" stroke-linejoin="round"/>
<path d="M13.3853 19.1855L13.4051 18.5728L13.2404 18.4279H10.7566L10.605 18.5728L10.6182 19.1855L8.54297 18.2039L9.26765 18.7969L10.7369 19.818H13.2601L14.7359 18.7969L15.4606 18.2039L13.3853 19.1855Z" fill="#C0AD9E" stroke="#C0AD9E" stroke-width="0.109804" stroke-linecap="round" stroke-linejoin="round"/>
<path d="M13.2253 17.1182L12.909 16.9008H11.084L10.7678 17.1182L10.6031 18.5742L10.7546 18.4292H13.2384L13.4031 18.5742L13.2253 17.1182Z" fill="#161616" stroke="#161616" stroke-width="0.109804" stroke-linecap="round" stroke-linejoin="round"/>
<path d="M19.8404 9.42949L20.4004 6.74148L19.5637 4.24454L13.2258 8.94852L15.6634 11.0107L19.1091 12.0187L19.8733 11.1292L19.5439 10.892L20.071 10.4111L19.6625 10.0949L20.1895 9.69301L19.8404 9.42949Z" fill="#763D16" stroke="#763D16" stroke-width="0.109804" stroke-linecap="round" stroke-linejoin="round"/>
<path d="M3.60001 6.74148L4.16 9.42949L3.80424 9.69301L4.3313 10.0949L3.92942 10.4111L4.45648 10.892L4.12706 11.1292L4.88471 12.0187L8.33035 11.0107L10.768 8.94852L4.43012 4.24454L3.60001 6.74148Z" fill="#763D16" stroke="#763D16" stroke-width="0.109804" stroke-linecap="round" stroke-linejoin="round"/>
<path d="M19.1095 12.019L15.6639 11.011L16.7114 12.5855L15.15 15.6161L17.2055 15.5897H20.2691L19.1095 12.019Z" fill="#F6851B" stroke="#F6851B" stroke-width="0.109804" stroke-linecap="round" stroke-linejoin="round"/>
<path d="M8.33028 11.011L4.88464 12.019L3.73828 15.5897H6.79524L8.84418 15.6161L7.28934 12.5855L8.33028 11.011Z" fill="#F6851B" stroke="#F6851B" stroke-width="0.109804" stroke-linecap="round" stroke-linejoin="round"/>
<path d="M13.0064 12.7506L13.2238 8.94919L14.2252 6.24139H9.77814L10.7663 8.94919L10.9969 12.7506L11.076 13.9497L11.0826 16.9012H12.9076L12.9207 13.9497L13.0064 12.7506Z" fill="#F6851B" stroke="#F6851B" stroke-width="0.109804" stroke-linecap="round" stroke-linejoin="round"/>
</svg>
