<svg width="24" height="24" viewBox="0 0 24 24" fill="none" xmlns="http://www.w3.org/2000/svg">
<path fill-rule="evenodd" clip-rule="evenodd" d="M4.5896 15.6542L7.51463 13.4173C7.3474 12.9093 7.25697 12.3658 7.25697 11.8006C7.25697 11.2353 7.34738 10.6919 7.51458 10.184L4.58956 7.94702C4.01914 9.1069 3.69922 10.4146 3.69922 11.8006C3.69922 13.1866 4.01916 14.4943 4.5896 15.6542Z" fill="#FBBC05"/>
<path fill-rule="evenodd" clip-rule="evenodd" d="M7.51588 10.1842C8.19057 8.13392 10.1162 6.66104 12.3974 6.66104C13.6228 6.66104 14.7296 7.09591 15.5994 7.80754L18.1293 5.27737C16.5876 3.93323 14.6111 3.10303 12.3974 3.10303C8.96041 3.10303 6.0053 5.0707 4.59082 7.94718L7.51588 10.1842Z" fill="#EA4335"/>
<path fill-rule="evenodd" clip-rule="evenodd" d="M4.59082 15.6513C6.00496 18.5287 8.96058 20.4972 12.3983 20.4972C16.7466 20.4972 20.6997 17.3345 20.6997 11.7998C20.6997 11.2859 20.6206 10.7324 20.502 10.2185H12.3983V13.5788H17.0628C16.628 15.7136 14.8096 16.9392 12.3983 16.9392C10.1147 16.9392 8.18737 15.4632 7.51462 13.4095L4.59082 15.6513Z" fill="#34A853"/>
<path fill-rule="evenodd" clip-rule="evenodd" d="M12.3984 10.2192H20.5022C20.6208 10.7331 20.6999 11.2866 20.6999 11.8006C20.6999 14.6354 19.6628 16.848 18.0667 18.3321L15.2898 16.182C16.1978 15.609 16.8297 14.7252 17.063 13.5796H12.3984V10.2192Z" fill="#4285F4"/>
</svg>
