<svg width="24" height="24" viewBox="0 0 24 24" fill="none" xmlns="http://www.w3.org/2000/svg">
<g clip-path="url(#clip0_1_471)">
<path d="M12 24C18.6274 24 24 18.6274 24 12C24 5.37258 18.6274 0 12 0C5.37258 0 0 5.37258 0 12C0 18.6274 5.37258 24 12 24Z" fill="#FEFEFE"/>
<path fill-rule="evenodd" clip-rule="evenodd" d="M18.6584 16.0494C19.5223 15.0544 19.9987 13.7814 20 12.4636C19.9994 11.9492 19.9267 11.4375 19.7841 10.9432C18.8962 7.82404 15.4769 6.16285 12.459 7.38263C11.9437 7.59091 11.4832 7.88774 11.0373 8.21513C10.4984 8.61578 9.88441 8.73489 9.22452 8.61578C8.71495 8.52406 8.2608 8.30813 7.82321 8.05335C7.60033 7.92433 7.43124 7.71952 7.34675 7.47626C7.32764 7.42379 7.3147 7.36823 7.30171 7.31243C7.29262 7.27341 7.2835 7.23427 7.27223 7.196C7.16148 6.82192 6.92327 6.49842 6.59892 6.28162C6.27457 6.06482 5.88456 5.96841 5.49656 6.00912C5.10856 6.04983 4.74705 6.22508 4.47476 6.50447C4.20248 6.78386 4.03659 7.14976 4.00589 7.53868C3.90588 8.73871 5.09764 9.65275 6.2308 9.23936C6.3867 9.17958 6.55384 9.15481 6.72039 9.16681C6.88693 9.17881 7.0488 9.22728 7.19452 9.30879C7.51528 9.47433 7.81871 9.67149 8.10028 9.89734C8.79457 10.4668 9.13598 11.1814 9.05573 12.091C9.0045 12.7336 9.07539 13.38 9.26465 13.9962C9.63466 15.2609 10.4482 16.3498 11.556 17.0633C12.6639 17.7769 13.9918 18.0671 15.2963 17.8809C16.6008 17.6947 17.7945 17.0444 18.6584 16.0494ZM12.2032 10.9527C11.8996 11.4068 11.7374 11.9407 11.7373 12.4869C11.7383 13.2184 12.0291 13.9197 12.546 14.4374C13.0629 14.955 13.7638 15.2467 14.4953 15.2488C15.0416 15.2494 15.5757 15.088 16.0302 14.785C16.4847 14.482 16.8391 14.051 17.0486 13.5466C17.2581 13.0421 17.3133 12.4869 17.2071 11.951C17.101 11.4152 16.8383 10.9229 16.4524 10.5364C16.0664 10.1499 15.5745 9.88656 15.0388 9.77969C14.5031 9.67282 13.9478 9.72722 13.443 9.93602C12.9383 10.1448 12.5068 10.4986 12.2032 10.9527Z" fill="#0A1161"/>
</g>
<defs>
<clipPath id="clip0_1_471">
<rect width="24" height="24" fill="white"/>
</clipPath>
</defs>
</svg>
