<svg width="24" height="24" viewBox="0 0 24 24" fill="none" xmlns="http://www.w3.org/2000/svg">
<g clip-path="url(#clip0_0_688)">
<path d="M12 24C18.6274 24 24 18.6274 24 12C24 5.37258 18.6274 0 12 0C5.37258 0 0 5.37258 0 12C0 18.6274 5.37258 24 12 24Z" fill="#0CE466"/>
<path fill-rule="evenodd" clip-rule="evenodd" d="M12 13.2972C10.6273 13.2972 9.51349 12.1845 9.51349 10.8107C9.51349 9.43689 10.6273 8.32422 12 8.32422C13.3727 8.32422 14.4865 9.43689 14.4865 10.8107C14.4865 12.1845 13.3727 13.2972 12 13.2972ZM10.9189 10.8107C10.9189 11.408 11.4032 11.8918 12 11.8918C12.5968 11.8918 13.0811 11.408 13.0811 10.8107C13.0811 10.2134 12.5968 9.72962 12 9.72962C11.4032 9.72962 10.9189 10.2134 10.9189 10.8107Z" fill="black"/>
<path fill-rule="evenodd" clip-rule="evenodd" d="M4 10.814L8.75675 6.05396H15.2432L20 10.814L12 18.8107L4 10.814ZM15.6756 9.08096C13.6545 7.05098 10.3454 7.05098 8.32432 9.08098L6.5946 10.8107L8.32432 12.5405C10.3454 14.5704 13.6545 14.5704 15.6756 12.5405L17.4054 10.8107L15.6756 9.08096Z" fill="black"/>
</g>
<defs>
<clipPath id="clip0_0_688">
<rect width="24" height="24" fill="white"/>
</clipPath>
</defs>
</svg>
