<svg width="24" height="24" viewBox="0 0 24 24" fill="none" xmlns="http://www.w3.org/2000/svg">
<path fill-rule="evenodd" clip-rule="evenodd" d="M3.36678 2.25955C5.85733 5.28232 9.69696 9.98861 9.88764 10.2521C10.045 10.4697 9.9858 10.6652 9.71616 10.8185C9.56622 10.9038 9.25794 10.9901 9.10356 10.9901C8.92902 10.9901 8.73234 10.9061 8.58912 10.7702C8.4879 10.6742 8.07936 10.0641 7.13616 8.60069C6.41454 7.48097 5.81059 6.55205 5.79413 6.53651C5.75603 6.50051 5.75669 6.50171 7.0626 8.83835C7.88262 10.3056 8.1594 10.8243 8.1594 10.8936C8.1594 11.0348 8.12094 11.1089 7.94688 11.3031C7.65672 11.6268 7.527 11.9905 7.43334 12.7433C7.32834 13.5872 7.0332 14.1833 6.21516 15.2034C5.73636 15.8006 5.65799 15.9101 5.53718 16.1508C5.38497 16.4538 5.34312 16.6236 5.32617 17.0064C5.30825 17.4111 5.34316 17.6725 5.46681 18.0594C5.57504 18.3981 5.688 18.6218 5.97684 19.0692C6.22608 19.4552 6.36966 19.7421 6.36966 19.8544C6.36966 19.9437 6.3867 19.9438 6.77298 19.8566C7.69728 19.6478 8.44788 19.2807 8.86998 18.8308C9.13122 18.5523 9.1926 18.3986 9.19458 18.017C9.19584 17.7674 9.18708 17.7152 9.11964 17.5715C9.00984 17.3378 8.80986 17.1435 8.36916 16.8423C7.79178 16.4475 7.54512 16.1298 7.47702 15.6927C7.4211 15.3341 7.48596 15.0812 7.8054 14.4117C8.136 13.7187 8.21796 13.4234 8.2734 12.7249C8.30916 12.2736 8.35878 12.0956 8.48844 11.9528C8.62362 11.8038 8.74536 11.7534 9.08004 11.7076C9.62562 11.6331 9.97302 11.492 10.2586 11.2288C10.5064 11.0005 10.61 10.7805 10.6259 10.4494L10.638 10.1984L10.4996 10.037C9.99822 9.45245 3.03104 1.80005 3.00019 1.80005C2.9936 1.80005 3.15857 2.00684 3.36678 2.25955ZM6.65106 17.4643C6.7644 17.2635 6.70422 17.0055 6.51462 16.8794C6.33546 16.7603 6.05712 16.8164 6.05712 16.9716C6.05712 17.019 6.08334 17.0535 6.14238 17.0838C6.24174 17.135 6.249 17.1925 6.17076 17.3101C6.09156 17.4291 6.09798 17.5338 6.18882 17.6049C6.33522 17.7196 6.54252 17.6565 6.65106 17.4643ZM10.0636 6.51683C9.83994 6.48215 9.83046 6.47807 9.93576 6.46187C10.1374 6.43085 10.6137 6.47315 10.942 6.55115C11.7082 6.73331 12.4054 7.19987 13.1496 8.02853L13.3474 8.24867L13.6302 8.20319C14.8218 8.01167 16.034 8.16389 17.0479 8.63225C17.3268 8.76113 17.7666 9.01763 17.8215 9.08357C17.8391 9.10451 17.8712 9.23981 17.893 9.38405C17.9683 9.88325 17.9306 10.2659 17.7779 10.5517C17.6948 10.7072 17.6902 10.7565 17.746 10.8896C17.7907 10.9958 17.9149 11.0744 18.038 11.0743C18.29 11.0739 18.5612 10.6666 18.6869 10.0999L18.7368 9.87479L18.8357 9.98675C19.378 10.6013 19.804 11.4393 19.8772 12.0358L19.8962 12.1913L19.8051 12.05C19.6482 11.8067 19.4905 11.641 19.2887 11.5074C18.9248 11.2667 18.54 11.1847 17.521 11.131C16.6007 11.0825 16.0798 11.0039 15.5633 10.8355C14.6846 10.549 14.2416 10.1674 13.1977 8.79791C12.7341 8.18963 12.4475 7.85303 12.1625 7.58201C11.5148 6.96617 10.8783 6.64319 10.0636 6.51683ZM18.027 7.87559C18.0502 7.46795 18.1055 7.19909 18.2166 6.95357C18.2606 6.85637 18.3018 6.77681 18.3082 6.77681C18.3145 6.77681 18.2954 6.84857 18.2657 6.93623C18.1849 7.17455 18.1716 7.50047 18.2272 7.87967C18.2979 8.36081 18.338 8.43017 18.8466 8.94995C19.0852 9.19373 19.3626 9.50117 19.4632 9.63317L19.646 9.87317L19.4632 9.70163C19.2395 9.49193 18.7252 9.08285 18.6116 9.02435C18.5354 8.98511 18.5241 8.98577 18.4771 9.03257C18.4338 9.07565 18.4247 9.14039 18.4187 9.44657C18.4093 9.92363 18.3443 10.2299 18.1873 10.5361C18.1024 10.7017 18.089 10.6664 18.1659 10.4795C18.2232 10.3399 18.229 10.2785 18.2286 9.81659C18.2278 8.88863 18.1175 8.66549 17.4715 8.28329C17.3077 8.18651 17.0381 8.04683 16.8721 7.97297C16.7062 7.89917 16.5744 7.83479 16.5791 7.82999C16.5974 7.81181 17.2276 7.99571 17.4812 8.09321C17.8585 8.23835 17.9207 8.25719 17.9665 8.23967C17.9972 8.22797 18.0121 8.13851 18.027 7.87559ZM9.8241 7.16333C9.76332 7.87985 10.0442 8.83829 10.4983 9.46343C10.8503 9.94805 11.3959 10.3245 11.7988 10.3609C12.0625 10.3847 12.1417 10.3022 12.0224 10.1279C11.8568 9.88601 11.653 9.51347 11.5991 9.35399C11.5656 9.25487 11.4928 8.96225 11.4374 8.70365C11.248 7.82069 11.0618 7.47683 10.6318 7.21565C10.475 7.12049 10.1404 6.99593 9.94626 6.96053L9.84294 6.94163L9.8241 7.16333ZM17.4774 14.1161C15.3554 13.2617 14.6081 12.5201 14.6081 11.2688C14.6081 11.0847 14.6144 10.934 14.6221 10.934C14.6299 10.934 14.712 10.9948 14.8046 11.0691C15.2349 11.4142 15.7168 11.5616 17.0507 11.7562C17.8356 11.8707 18.2774 11.9633 18.6848 12.0984C19.98 12.5279 20.7813 13.3996 20.9723 14.5869C21.0279 14.9319 20.9953 15.5788 20.9053 15.9198C20.8342 16.1891 20.6174 16.6745 20.5598 16.6931C20.5439 16.6983 20.5283 16.6372 20.5241 16.554C20.5024 16.1082 20.2771 15.6741 19.8987 15.349C19.4686 14.9793 18.8906 14.685 17.4774 14.1161ZM15.887 14.0221C15.9168 14.1108 15.9629 14.3129 15.9895 14.4711C16.1594 15.4826 15.6285 16.2998 14.5957 16.6165C14.4863 16.65 14.0556 16.7343 13.6385 16.8038C12.7942 16.9444 12.4174 17.0439 12.0388 17.2262C11.7704 17.3555 11.4453 17.5493 11.4646 17.5685C11.4709 17.5748 11.5321 17.5601 11.6008 17.536C12.0782 17.3684 12.6094 17.2816 13.4167 17.2397C13.737 17.223 14.1013 17.1965 14.2264 17.1807C14.9455 17.0901 15.4438 16.8717 15.8314 16.4772C16.0472 16.2577 16.1757 16.0532 16.2793 15.7648C16.345 15.5819 16.3539 15.514 16.3544 15.1898C16.3549 14.8596 16.3469 14.7992 16.2758 14.596C16.1826 14.3298 16.0726 14.1299 15.9335 13.9737L15.8329 13.8608L15.887 14.0221ZM16.9606 16.1982C16.6787 15.5921 16.614 15.0069 16.7684 14.4612C16.7849 14.4029 16.8115 14.3552 16.8275 14.3552C16.8435 14.3552 16.91 14.3912 16.9753 14.4351C17.1052 14.5226 17.3658 14.6699 18.06 15.0483C18.9262 15.5206 19.4201 15.8863 19.756 16.3041C20.0501 16.6701 20.2322 17.0868 20.3198 17.595C20.3693 17.8829 20.3403 18.5755 20.2664 18.8654C20.0336 19.7794 19.4923 20.4973 18.7202 20.9162C18.607 20.9775 18.5055 21.028 18.4945 21.0282C18.4835 21.0284 18.5248 20.9236 18.5861 20.7953C18.8459 20.2524 18.8754 19.7243 18.6791 19.1364C18.5588 18.7766 18.3137 18.3374 17.8187 17.5951C17.2433 16.7322 17.1022 16.5025 16.9606 16.1982ZM11.651 18.1866C10.7585 18.3316 9.77868 18.8039 8.99124 19.4688L8.75682 19.6668L8.96286 19.6989C10.038 19.8668 10.3275 20.0156 11.0733 20.7838C11.5025 21.2259 11.6474 21.3243 12.0034 21.4152C12.5262 21.5487 13.0416 21.3034 13.2184 20.837C13.2974 20.6285 13.2868 20.2835 13.1963 20.1102C12.9806 19.6976 12.3527 19.5642 12.049 19.8665C11.7961 20.1182 11.8698 20.4975 12.1843 20.5627C12.2564 20.5777 12.2543 20.5745 12.166 20.5345C12.0283 20.4722 11.9686 20.386 11.9678 20.2487C11.966 19.9266 12.3345 19.7457 12.6774 19.9005C12.9284 20.0138 13.0281 20.1618 13.0281 20.4212C13.0281 20.8208 12.688 21.1218 12.2923 21.0726C12.0808 21.0463 11.822 20.911 11.6834 20.7542C11.3343 20.3595 11.4703 19.7367 11.9576 19.4978C12.3286 19.3158 12.8218 19.3607 13.2041 19.6111C13.6435 19.8989 13.8304 20.1618 14.2088 21.025C14.3321 21.306 14.4907 21.6224 14.5612 21.728C14.9196 22.2647 15.3491 22.5279 15.8665 22.5279C16.1519 22.5279 16.3666 22.4757 16.6366 22.3408C16.8373 22.2406 17.1217 22.0502 17.1013 22.0298C17.0954 22.0239 17.0122 22.0499 16.9163 22.0872C16.3514 22.3076 15.7771 22.2924 15.4436 22.0483C15.2336 21.8946 15.0642 21.5885 14.9771 21.2057C14.9621 21.1394 14.9123 20.8467 14.8666 20.5553C14.7506 19.8164 14.6393 19.4844 14.3797 19.1033C14.1141 18.7134 13.6034 18.3862 13.0325 18.24C12.6763 18.1489 12.0356 18.1241 11.651 18.1866ZM10.3997 12.4739C10.4768 12.1892 10.7258 11.9177 10.9819 11.8391C11.1448 11.7891 11.4815 11.821 11.6398 11.9015C11.9465 12.0574 12.1693 12.4127 12.1209 12.669C12.062 12.9818 11.5549 13.232 10.9716 13.236C10.6736 13.2381 10.5637 13.1981 10.4498 13.0462C10.3794 12.9521 10.3528 12.6475 10.3997 12.4739ZM11.5615 12.0129C11.7145 12.1063 11.7538 12.2445 11.6638 12.3723C11.6019 12.4604 11.4101 12.5439 11.2699 12.5439C11.0593 12.5439 10.8295 12.3945 10.8295 12.2574C10.8295 11.9822 11.2702 11.835 11.5615 12.0129Z" fill="white"/>
</svg>
