<svg width="24" height="24" viewBox="0 0 24 24" fill="none" xmlns="http://www.w3.org/2000/svg">
<g clip-path="url(#clip0_0_713)">
<path d="M12 24C18.6274 24 24 18.6274 24 12C24 5.37258 18.6274 0 12 0C5.37258 0 0 5.37258 0 12C0 18.6274 5.37258 24 12 24Z" fill="#080404"/>
<path fill-rule="evenodd" clip-rule="evenodd" d="M12.4287 6H13.8572V6.74512V7.63895V7.93652V8.68138V8.97949V9.87332V10.1357L14.3659 10.6113H17.4284V10.618H17.4287V10.9159H17.4284V11.8094H13.527L12.5584 10.7356L12.4287 10.618V10.5136V10.171V9.87332V8.97949V8.68138V7.93652V7.63895V7.125V6.74512V6ZM7.4983 7.93652V7.125H9.94402L10.2126 7.42294V7.93652V7.99596V8.03931L9.94402 8.29555H7.4983V7.93652ZM6.14258 7.93652V7.11182V6.74512V6H10.5444L11.2325 6.74512H11.2355L11.3012 6.81947L11.5712 7.11182H11.5595L11.5712 7.125V7.93652V7.99596V8.29555L11.0124 8.82604L11.5712 9.45699V9.83496V9.87263V10.6181L11.5679 10.6211L11.5712 10.6211L10.4855 11.8102H6.14258V11.7995V10.916V10.6925V10.1712V9.87263V8.9788V8.94204V7.93652ZM7.4983 10.1712V10.6181H9.94402L10.2126 10.3559V9.87263V9.83496V9.76537L9.94402 9.45699H7.4983V9.87263V10.1712ZM6 15.5345V14.6406V14.3425V13.9135V13.5977V12.7041H7.42858V13.5977V14.3425V14.6406V15.5345V15.832V16.5769V16.8401L7.95001 17.4051H9.62144L10.1426 16.8019V16.5769V15.832V15.5345V14.6406V14.3425V13.5977V12.7041H11.5712V13.5977V14.3425V14.6406V15.5345V15.832V16.5769V16.8747L11.5714 16.8748V17.4051L10.6518 18.5224H6.94643L6 17.4051V16.9782V16.8748V16.5769V15.832V15.5345ZM16.6087 14.7628V14.6406H16.6144V14.1682L16.3287 13.9135H13.8572V15.0712H16.323L16.6087 14.7628ZM12.4287 12.7041V12.96V13.5977V13.6572V13.6836V14.3425V14.6406V15.4424V15.5345V16.2316V16.5772V16.875V17.7688V18.5135H13.8572V17.7688V16.875V16.2316H16.3287L16.6144 16.4878V18.5138H18.0001V16.2316L17.4079 15.7015L18.0001 15.0712V14.9065V14.6406V13.9135L17.983 13.8976L17.9912 13.8979L16.913 12.7041H12.4287Z" fill="#FF8700"/>
</g>
<defs>
<clipPath id="clip0_0_713">
<rect width="24" height="24" fill="white"/>
</clipPath>
</defs>
</svg>
