<svg width="32" height="32" viewBox="0 0 32 32" fill="none" xmlns="http://www.w3.org/2000/svg">
<path d="M4 8H28V22H30V6H2V26H26V24H4V8Z" fill="white"/>
<path d="M28 24V26H30V24H28Z" fill="white"/>
<path d="M19.2678 12H20.9255V20H19.2678V12ZM22.64 15.19V16.7477H19.9782V15.19H22.64ZM22.9147 12V13.5576H19.8551V12H22.9147ZM23 18.4424V20H19.8551V18.4424H23Z" fill="white"/>
<path d="M16.1326 13.7072V18.2928C16.1326 18.3842 16.1515 18.4548 16.1894 18.5047C16.2273 18.5462 16.2873 18.567 16.3694 18.567H16.5873V20H15.8673C15.3621 20 15.0022 19.8588 14.7875 19.5763C14.5791 19.2939 14.4749 18.92 14.4749 18.4548V13.5452C14.4749 13.08 14.5791 12.7061 14.7875 12.4237C15.0022 12.1412 15.3621 12 15.8673 12H16.6252V13.433H16.3694C16.2873 13.433 16.2273 13.4579 16.1894 13.5078C16.1515 13.5493 16.1326 13.6158 16.1326 13.7072ZM18.6049 15.5763V16.9595H16.4736V15.5763H18.6049ZM16.9472 14.7414V13.7072C16.9472 13.6158 16.9283 13.5493 16.8904 13.5078C16.8525 13.4579 16.7925 13.433 16.7104 13.433H16.4546V12H17.2125C17.7177 12 18.0745 12.1412 18.2829 12.4237C18.4976 12.7061 18.6049 13.08 18.6049 13.5452V14.7414H16.9472ZM16.9472 18.2928V16.5358H18.6049V18.4548C18.6049 18.92 18.4976 19.2939 18.2829 19.5763C18.0745 19.8588 17.7177 20 17.2125 20H16.4925V18.567H16.7104C16.7925 18.567 16.8525 18.5462 16.8904 18.5047C16.9283 18.4548 16.9472 18.3842 16.9472 18.2928Z" fill="white"/>
<path d="M13.1016 17.2586V18.8037H10.0609V17.2586H13.1016ZM14.1436 20H12.4764L11.5671 14.3801L10.6293 20H9L10.563 12H12.5806L14.1436 20Z" fill="white"/>
</svg>
