<svg width="64" height="64" viewBox="0 0 64 64" fill="none" xmlns="http://www.w3.org/2000/svg">
<path d="M11 17H54V42H59V12H6V52H49V47H11V17Z" fill="white"/>
<path d="M54 47V52H59V47H54Z" fill="white"/>
<path d="M38.8022 24H41.9992V39H38.8022V24ZM45.3058 29.9813V32.9019H40.1723V29.9813H45.3058ZM45.8356 24V26.9206H39.9348V24H45.8356ZM46 36.0794V39H39.9348V36.0794H46Z" fill="white"/>
<path d="M32.7557 27.2009V35.7991C32.7557 35.9704 32.7922 36.1028 32.8653 36.1963C32.9384 36.2741 33.0541 36.3131 33.2124 36.3131H33.6326V39H32.2442C31.2698 39 30.5756 38.7352 30.1615 38.2056C29.7596 37.676 29.5587 36.9751 29.5587 36.1028V26.8972C29.5587 26.0249 29.7596 25.324 30.1615 24.7944C30.5756 24.2648 31.2698 24 32.2442 24H33.7056V26.6869H33.2124C33.0541 26.6869 32.9384 26.7336 32.8653 26.8271C32.7922 26.905 32.7557 27.0296 32.7557 27.2009ZM37.5238 30.7056V33.2991H33.4134V30.7056H37.5238ZM34.3268 29.1402V27.2009C34.3268 27.0296 34.2902 26.905 34.2172 26.8271C34.1441 26.7336 34.0284 26.6869 33.8701 26.6869H33.3768V24H34.8383C35.8126 24 36.5007 24.2648 36.9027 24.7944C37.3167 25.324 37.5238 26.0249 37.5238 26.8972V29.1402H34.3268ZM34.3268 35.7991V32.5047H37.5238V36.1028C37.5238 36.9751 37.3167 37.676 36.9027 38.2056C36.5007 38.7352 35.8126 39 34.8383 39H33.4499V36.3131H33.8701C34.0284 36.3131 34.1441 36.2741 34.2172 36.1963C34.2902 36.1028 34.3268 35.9704 34.3268 35.7991Z" fill="white"/>
<path d="M26.9103 33.8598V36.757H21.0461V33.8598H26.9103ZM28.9199 39H25.7046L23.9508 28.4626L22.1422 39H19L22.0143 24H25.9055L28.9199 39Z" fill="white"/>
</svg>
