<svg width="40" height="40" viewBox="0 0 40 40" fill="none" xmlns="http://www.w3.org/2000/svg">
<path d="M6.90909 10H33.0909V26H36V7H4V32H30.1818V29H6.90909V10Z" fill="white"/>
<path d="M33 29V31.7V32H36V29H33Z" fill="white"/>
<path d="M23.7346 15H25.6291V24H23.7346V15ZM27.5886 18.5888V20.3411H24.5466V18.5888H27.5886ZM27.9026 15V16.7523H24.4058V15H27.9026ZM28 22.2477V24H24.4058V22.2477H28Z" fill="white"/>
<path d="M20.1515 16.9206V22.0794C20.1515 22.1822 20.1732 22.2617 20.2165 22.3178C20.2598 22.3645 20.3283 22.3879 20.4222 22.3879H20.6712V24H19.8484C19.271 24 18.8596 23.8411 18.6142 23.5234C18.3761 23.2056 18.257 22.785 18.257 22.2617V16.7383C18.257 16.215 18.3761 15.7944 18.6142 15.4766C18.8596 15.1589 19.271 15 19.8484 15H20.7145V16.6121H20.4222C20.3283 16.6121 20.2598 16.6402 20.2165 16.6963C20.1732 16.743 20.1515 16.8178 20.1515 16.9206ZM22.9771 19.0234V20.5794H20.5412V19.0234H22.9771ZM21.0825 18.0841V16.9206C21.0825 16.8178 21.0609 16.743 21.0176 16.6963C20.9743 16.6402 20.9057 16.6121 20.8119 16.6121H20.5196V15H21.3857C21.963 15 22.3708 15.1589 22.609 15.4766C22.8544 15.7944 22.9771 16.215 22.9771 16.7383V18.0841H21.0825ZM21.0825 22.0794V20.1028H22.9771V22.2617C22.9771 22.785 22.8544 23.2056 22.609 23.5234C22.3708 23.8411 21.963 24 21.3857 24H20.5629V22.3879H20.8119C20.9057 22.3879 20.9743 22.3645 21.0176 22.3178C21.0609 22.2617 21.0825 22.1822 21.0825 22.0794Z" fill="white"/>
<path d="M16.6876 20.9159V22.6542H13.2125V20.9159H16.6876ZM17.8784 24H15.9731L14.9338 17.6776L13.862 24H12L13.7863 15H16.0922L17.8784 24Z" fill="white"/>
</svg>
