<svg width="24" height="24" viewBox="0 0 24 24" fill="none" xmlns="http://www.w3.org/2000/svg">
<path d="M10.5005 2.4375C12.3943 2.43755 14.1508 2.72098 15.4673 3.20996C16.1219 3.45312 16.717 3.7653 17.1655 4.15918C17.6125 4.55167 18.0005 5.10799 18.0005 5.8125C18.0005 5.87625 17.9959 5.93869 17.9897 6H18.0005V10.5H16.1255V8.13379C15.9155 8.23578 15.6954 8.33031 15.4673 8.41504C14.1508 8.90403 12.3943 9.18745 10.5005 9.1875C8.60651 9.1875 6.84933 8.90407 5.53271 8.41504C5.30493 8.33042 5.0852 8.23563 4.87549 8.13379V10.8613L4.9751 10.9619C5.16599 11.1528 5.72206 11.5236 6.66553 11.8467C7.5833 12.1609 8.80705 12.4082 10.2798 12.4082C12.0505 12.4082 13.8267 12.2265 14.7603 11.8232L15.6216 11.4512L16.3647 13.1729L15.5044 13.5439C14.1827 14.1151 12.0572 14.2832 10.2798 14.2832C8.59847 14.2832 7.16966 14.0007 6.05811 13.6201C5.62283 13.4711 5.22594 13.3012 4.87549 13.123V15.9395C5.14236 16.2064 5.52098 16.5218 6.15576 16.7969C6.93904 17.1362 8.16769 17.4375 10.1255 17.4375H11.063V19.3125H10.1255C7.97921 19.3125 6.48443 18.9828 5.41064 18.5176C4.32025 18.0452 3.72155 17.4575 3.3501 17.0586C3.12051 16.812 3.00049 16.4913 3.00049 16.166V11.6387L2.98682 11.625L3.00049 11.6113V5.8125C3.00049 5.10799 3.38753 4.55167 3.83447 4.15918C4.283 3.7653 4.87814 3.45312 5.53271 3.20996C6.84933 2.72093 8.60651 2.4375 10.5005 2.4375ZM10.5005 4.3125C8.7701 4.3125 7.24458 4.5746 6.18604 4.96777C5.65318 5.16569 5.28732 5.37908 5.07178 5.56836C4.91379 5.70712 4.88132 5.78982 4.87549 5.8125C4.88132 5.83518 4.91379 5.91788 5.07178 6.05664C5.28732 6.24592 5.65318 6.45931 6.18604 6.65723C7.24458 7.0504 8.7701 7.3125 10.5005 7.3125C12.2307 7.31245 13.7555 7.05036 14.814 6.65723C15.3468 6.45931 15.7127 6.24592 15.9282 6.05664C16.0862 5.91788 16.1187 5.83518 16.1245 5.8125C16.1187 5.78982 16.0862 5.70712 15.9282 5.56836C15.7127 5.37908 15.3468 5.16569 14.814 4.96777C13.7555 4.57464 12.2307 4.31255 10.5005 4.3125Z" fill="#FEFEFE"/>
<path d="M20.5197 12.1101L19.7648 13.7263L21.5021 14.5603L20.6906 16.2507L18.9728 15.4265L18.5802 16.2693C19.5787 17.1756 19.9192 18.6588 19.3195 19.9451C18.5818 21.5271 16.7013 22.2118 15.1193 21.4744C13.5372 20.7366 12.8522 18.8553 13.59 17.2732C14.1898 15.9872 15.5451 15.2942 16.881 15.4763L18.8205 11.3181L20.5197 12.1101ZM16.9982 17.4441C16.3546 17.144 15.5893 17.4226 15.2892 18.0662C14.9893 18.7097 15.2678 19.4751 15.9113 19.7751C16.5548 20.0752 17.3201 19.7966 17.6203 19.1531C17.9204 18.5095 17.6418 17.7442 16.9982 17.4441Z" fill="#FEFEFE"/>
</svg>
