<svg width="24" height="24" viewBox="0 0 24 24" fill="none" xmlns="http://www.w3.org/2000/svg">
<path d="M19.1998 11.64V4.80005C16.5673 5.16005 13.9573 5.52005 11.3248 5.94755V11.7075L19.1998 11.64ZM4.7998 6.91505V11.7525C6.7348 11.7525 8.7148 11.73 10.6498 11.73V6.10505C8.7148 6.37505 6.7348 6.62255 4.7998 6.91505ZM4.7998 12.315V17.1525C6.7348 17.4225 8.7148 17.67 10.6498 17.94V12.3375C8.7148 12.3375 6.7348 12.315 4.7998 12.315ZM11.3698 12.4275C11.3923 14.3175 11.3923 16.2075 11.3923 18.0975C14.0023 18.4575 16.5898 18.8175 19.1998 19.2V12.4275H11.3698Z" fill="#FEFEFE"/>
</svg>
