<svg width="64" height="64" viewBox="0 0 64 64" fill="none" xmlns="http://www.w3.org/2000/svg">
<path fill-rule="evenodd" clip-rule="evenodd" d="M32 12C20.9543 12 12 20.9543 12 32C12 43.0457 20.9543 52 32 52C43.0457 52 52 43.0457 52 32C52 20.9543 43.0457 12 32 12ZM8 32C8 18.7452 18.7452 8 32 8C45.2548 8 56 18.7452 56 32C56 45.2548 45.2548 56 32 56C18.7452 56 8 45.2548 8 32Z" fill="#9598B9" fill-opacity="0.1"/>
<path fill-rule="evenodd" clip-rule="evenodd" d="M30 8H32C45.2549 8 56 18.7451 56 32V34H52V32C52 20.9543 43.0457 12 32 12H30V8Z" fill="#0A1161"/>
<path fill-rule="evenodd" clip-rule="evenodd" d="M42.9037 39.7023C44.2537 38.1477 44.9979 36.1585 45 34.0995C44.999 33.2957 44.8855 32.4961 44.6626 31.7238C43.2752 26.8501 37.9327 24.2545 33.2172 26.1604C32.412 26.4858 31.6925 26.9496 30.9958 27.4612C30.1538 28.0872 29.1944 28.2733 28.1633 28.0872C27.3671 27.9439 26.6575 27.6065 25.9738 27.2084C25.6255 27.0068 25.3613 26.6868 25.2293 26.3067C25.1994 26.2247 25.1792 26.1379 25.1589 26.0507C25.1447 25.9897 25.1305 25.9286 25.1129 25.8688C24.9398 25.2843 24.5676 24.7788 24.0608 24.44C23.554 24.1013 22.9446 23.9506 22.3384 24.0142C21.7321 24.0779 21.1673 24.3517 20.7418 24.7882C20.3164 25.2248 20.0572 25.7965 20.0092 26.4042C19.8529 28.2793 21.7151 29.7075 23.4856 29.0615C23.7292 28.9681 23.9904 28.9294 24.2506 28.9482C24.5108 28.9669 24.7637 29.0427 24.9914 29.17C25.4926 29.4287 25.9667 29.7367 26.4067 30.0896C27.4915 30.9794 28.025 32.0961 27.8996 33.5173C27.8195 34.5213 27.9303 35.5313 28.226 36.4941C28.8042 38.4702 30.0753 40.1717 31.8063 41.2866C33.5373 42.4014 35.6122 42.855 37.6504 42.564C39.6887 42.273 41.5538 41.257 42.9037 39.7023ZM32.8171 31.7369C32.3427 32.4464 32.0893 33.2807 32.0891 34.1342C32.0907 35.2772 32.545 36.373 33.3527 37.1818C34.1604 37.9905 35.2556 38.4464 36.3986 38.4496C37.2521 38.4506 38.0867 38.1984 38.7968 37.7249C39.5069 37.2515 40.0607 36.5781 40.388 35.7899C40.7154 35.0017 40.8016 34.1341 40.6358 33.2969C40.4699 32.4596 40.0595 31.6904 39.4564 31.0865C38.8533 30.4826 38.0847 30.0711 37.2477 29.9041C36.4107 29.7371 35.543 29.8221 34.7543 30.1484C33.9657 30.4746 33.2915 31.0275 32.8171 31.7369Z" fill="#0A1161"/>
</svg>
