<svg width="16" height="16" viewBox="0 0 16 16" fill="none" xmlns="http://www.w3.org/2000/svg">
<path fill-rule="evenodd" clip-rule="evenodd" d="M8.00001 2.5C6.4352 2.5 5.16667 3.76853 5.16667 5.33334V5.67207C5.16667 6.31858 5.4235 6.93861 5.88065 7.39575L6.27446 7.78957C6.70345 8.21856 6.94445 8.80039 6.94445 9.40707C6.94445 10.7761 6.14152 12.0179 4.89303 12.5798L2.20519 13.7893L1.79483 12.8774L4.48267 11.6678C5.37231 11.2675 5.94445 10.3826 5.94445 9.40707C5.94445 9.0656 5.80881 8.73813 5.56736 8.49668L5.17354 8.10286C4.52885 7.45818 4.16667 6.58379 4.16667 5.67207V5.33334C4.16667 3.21624 5.88292 1.5 8.00001 1.5C10.1171 1.5 11.8333 3.21624 11.8333 5.33333V5.67207C11.8333 6.58379 11.4712 7.45818 10.8265 8.10286L10.4326 8.49668C10.1912 8.73813 10.0556 9.0656 10.0556 9.40707C10.0556 10.3826 10.6277 11.2675 11.5173 11.6678L14.2052 12.8774L13.7948 13.7893L11.107 12.5798C9.85849 12.0179 9.05556 10.7761 9.05556 9.40707C9.05556 8.80039 9.29656 8.21856 9.72555 7.78957L10.1194 7.39575C10.5765 6.93861 10.8333 6.31858 10.8333 5.67207V5.33333C10.8333 3.76853 9.56481 2.5 8.00001 2.5Z" fill="#FEFEFE"/>
</svg>
