<svg width="120" height="120" viewBox="0 0 120 120" fill="none" xmlns="http://www.w3.org/2000/svg">
<path fill-rule="evenodd" clip-rule="evenodd" d="M22 37H88V58.82L91.5 57.5607L95 58.82V30H15V90H72.5873C71.5079 87.8267 70.8236 85.4565 70.5899 83H22V37ZM84.5 74.9578V81.1043C84.5 83.009 85.4044 84.8006 86.9369 85.9317L91.5 89.2997L96.0631 85.9317C97.5956 84.8006 98.5 83.009 98.5 81.1043V74.9578L91.5 72.4393L84.5 74.9578ZM91.5 98L100.22 91.5638C103.54 89.113 105.5 85.2312 105.5 81.1043V70.037L91.5 65L77.5 70.037V81.1043C77.5 85.2312 79.4595 89.113 82.7799 91.5638L91.5 98ZM35.5056 45.84L32.4961 52.16L55.0009 62.8765L77.5056 52.16L74.4961 45.84L55.0009 55.1234L35.5056 45.84Z" fill="#FEFEFE"/>
</svg>
