<svg width="24" height="24" viewBox="0 0 24 24" fill="none" xmlns="http://www.w3.org/2000/svg">
<path d="M16.8698 7.40085C16.866 7.39335 16.8595 7.38745 16.8517 7.3842C15.944 6.96775 14.9861 6.67075 14.002 6.50075C13.993 6.49905 13.9838 6.50025 13.9756 6.50415C13.9674 6.50805 13.9606 6.51445 13.9562 6.5224C13.8258 6.75915 13.7074 7.0023 13.6014 7.25095C12.5406 7.08995 11.4616 7.08995 10.4008 7.25095C10.2942 7.00165 10.1739 6.75845 10.0404 6.5224C10.0359 6.5146 10.0291 6.50835 10.0209 6.5045C10.0127 6.50065 10.0036 6.4993 9.9946 6.50075C9.0104 6.6704 8.05245 6.9674 7.1449 7.38425C7.1371 7.38755 7.13055 7.39315 7.1261 7.40035C5.31115 10.1108 4.81395 12.7546 5.05785 15.3656C5.05855 15.372 5.0605 15.3782 5.06365 15.3839C5.06675 15.3895 5.071 15.3944 5.07605 15.3984C6.1329 16.1809 7.315 16.7782 8.5719 17.1648C8.58075 17.1674 8.5902 17.1673 8.599 17.1644C8.6078 17.1616 8.61545 17.1561 8.62105 17.1487C8.891 16.7814 9.1302 16.3924 9.3362 15.9858C9.33905 15.9802 9.34065 15.9741 9.34095 15.9678C9.34125 15.9616 9.3402 15.9553 9.3379 15.9495C9.3356 15.9437 9.3321 15.9384 9.32765 15.9341C9.32315 15.9297 9.3178 15.9263 9.31195 15.9242C8.93475 15.7798 8.56955 15.6059 8.21985 15.4039C8.2135 15.4001 8.20815 15.3949 8.2043 15.3886C8.20045 15.3823 8.1982 15.3752 8.1978 15.3678C8.19735 15.3605 8.19875 15.3531 8.2018 15.3464C8.2049 15.3397 8.20955 15.3339 8.21545 15.3294C8.28905 15.2745 8.36135 15.2178 8.4323 15.1595C8.43855 15.1544 8.4461 15.1511 8.45405 15.15C8.46205 15.1489 8.4702 15.1501 8.47755 15.1534C10.7688 16.199 13.2493 16.199 15.5133 15.1534C15.5207 15.1499 15.5289 15.1486 15.537 15.1495C15.5451 15.1505 15.5528 15.1538 15.5591 15.159C15.6302 15.2176 15.7027 15.2744 15.7766 15.3294C15.7825 15.3338 15.7872 15.3396 15.7903 15.3463C15.7934 15.353 15.7949 15.3603 15.7945 15.3677C15.7941 15.375 15.7919 15.3822 15.7881 15.3885C15.7843 15.3948 15.779 15.4001 15.7727 15.4039C15.4238 15.6076 15.0583 15.7814 14.6801 15.9236C14.6742 15.9259 14.6689 15.9293 14.6644 15.9337C14.66 15.9382 14.6565 15.9435 14.6543 15.9494C14.652 15.9552 14.651 15.9615 14.6514 15.9678C14.6517 15.9741 14.6534 15.9802 14.6563 15.9858C14.8657 16.3902 15.1046 16.7786 15.3709 17.1481C15.3763 17.1556 15.3839 17.1613 15.3928 17.1643C15.4016 17.1673 15.4111 17.1674 15.42 17.1647C16.6792 16.7794 17.8633 16.1821 18.9215 15.3984C18.9267 15.3946 18.9309 15.3898 18.9341 15.3843C18.9372 15.3787 18.9391 15.3725 18.9397 15.3662C19.2317 12.3475 18.4509 9.7254 16.8698 7.40085ZM9.67835 13.7758C8.98855 13.7758 8.4202 13.1428 8.4202 12.3653C8.4202 11.5879 8.97755 10.9548 9.67835 10.9548C10.3847 10.9548 10.9476 11.5934 10.9366 12.3653C10.9366 13.1428 10.3792 13.7758 9.67835 13.7758ZM14.3303 13.7758C13.6405 13.7758 13.0721 13.1428 13.0721 12.3653C13.0721 11.5879 13.6295 10.9548 14.3303 10.9548C15.0367 10.9548 15.5995 11.5934 15.5885 12.3653C15.5885 13.1428 15.0367 13.7758 14.3303 13.7758Z" fill="url(#paint0_linear_222_905)"/>
<defs>
<linearGradient id="paint0_linear_222_905" x1="5" y1="12.0173" x2="19" y2="12.0173" gradientUnits="userSpaceOnUse">
<stop stop-color="#9EE6FC"/>
<stop offset="1" stop-color="#EBB9E7"/>
</linearGradient>
</defs>
</svg>
