<svg width="12" height="12" viewBox="0 0 12 12" fill="none" xmlns="http://www.w3.org/2000/svg">
<g clip-path="url(#clip0_222_775)">
<mask id="mask0_222_775" style="mask-type:alpha" maskUnits="userSpaceOnUse" x="0" y="0" width="12" height="12">
<path d="M11.25 0.75H0.75V11.25H11.25V0.75Z" fill="#D9D9D9" stroke="#FEFEFE" stroke-width="1.5"/>
</mask>
<g mask="url(#mask0_222_775)">
<path fill-rule="evenodd" clip-rule="evenodd" d="M4.70745 6.70196L8.4427 6.8648L9.09394 6.21355C9.97262 5.33488 9.97262 3.91024 9.09394 3.03156C8.21526 2.15288 6.79064 2.15288 5.91196 3.03156L5.55841 3.38512L4.49775 2.32447L4.8513 1.97091C6.31577 0.506443 8.69014 0.506443 10.1546 1.97091C11.6191 3.43538 11.6191 5.80975 10.1546 7.27422L9.0367 8.39212L4.64212 8.20054L4.70745 6.70196ZM7.50318 5.37279L3.57096 5.37254L2.90608 6.03743C2.0274 6.91611 2.0274 8.34072 2.90608 9.21941C3.78476 10.0981 5.20938 10.0981 6.08806 9.21941L6.44161 8.86586L7.50227 9.92651L7.14872 10.2801C5.68425 11.7445 3.30989 11.7445 1.84542 10.2801C0.380954 8.81559 0.380954 6.44124 1.84542 4.97677L2.94968 3.8725L7.50327 3.87279L7.50318 5.37279Z" fill="#FEFEFE"/>
</g>
</g>
<defs>
<clipPath id="clip0_222_775">
<rect width="12" height="12" fill="white"/>
</clipPath>
</defs>
</svg>
