<svg width="12" height="12" viewBox="0 0 12 12" fill="none" xmlns="http://www.w3.org/2000/svg">
<path fill-rule="evenodd" clip-rule="evenodd" d="M8.25397 4.30273L10.3753 2.18141L9.66818 1.4743L7.54686 3.59562L8.25397 4.30273ZM3.40731 3.69852C3.56247 3.75036 3.76948 3.84789 4.02249 3.9997C4.61806 4.35703 5.37244 4.95655 6.13329 5.7174C6.89414 6.47824 7.49365 7.23263 7.85099 7.8282C8.0028 8.0812 8.10033 8.28822 8.15217 8.44338C7.99701 8.39154 7.78999 8.29401 7.53699 8.1422C6.94142 7.78486 6.18703 7.18535 5.42618 6.4245C4.66534 5.66365 4.06582 4.90927 3.70848 4.3137C3.55668 4.06069 3.45915 3.85368 3.40731 3.69852ZM4.53698 3.1422C5.22103 3.55263 6.03915 4.20904 6.8404 5.01029C7.64165 5.81154 8.29806 6.62966 8.70848 7.3137C8.91166 7.65232 9.0697 7.9829 9.14539 8.2774C9.21141 8.53425 9.26152 8.95313 8.96172 9.25293C8.78193 9.43272 8.55932 9.48666 8.35452 9.48681L0.117179 11.7334L2.36388 3.49547C2.36414 3.29085 2.41818 3.06855 2.59776 2.88897C2.89756 2.58917 3.31644 2.63928 3.57328 2.70529C3.86779 2.78099 4.19836 2.93903 4.53698 3.1422ZM4.71908 7.13161C5.44073 7.85327 6.17608 8.45743 6.81482 8.87021L1.5424 10.3081L2.98035 5.03566C3.39312 5.67445 3.99734 6.40987 4.71908 7.13161ZM10.7288 5.8633L9.31459 5.8633V4.8633L10.7288 4.8633L10.7288 5.8633ZM5.98647 2.53493V1.12071L6.98647 1.12071L6.98647 2.53493L5.98647 2.53493Z" fill="#FEFEFE"/>
</svg>
