<svg width="24" height="24" viewBox="0 0 24 24" fill="none" xmlns="http://www.w3.org/2000/svg">
<path d="M18.7441 7.46289C20.6612 8.30855 22 10.2251 22 12.4551V16.0908C21.9998 19.103 19.558 21.5457 16.5459 21.5459H7.4541C4.44196 21.5457 2.0002 19.103 2 16.0908V12.4551C2 10.2254 3.33821 8.30874 5.25488 7.46289L6.86133 8.86719C5.19341 9.14092 3.90702 10.5491 3.82227 12.2734L3.81836 12.4551V16.0908C3.81855 18.0381 5.34957 19.6291 7.27344 19.7236L7.4541 19.7275H16.5459C18.493 19.7273 20.083 18.1961 20.1777 16.2725L20.1816 16.0908V12.4551C20.1816 10.6485 18.8642 9.15008 17.1377 8.86719L18.7441 7.46289ZM10.1816 11.7725V13.3643H12V15.1826H10.1807L10.1816 17H8.36328L8.3623 15.1826H6.5459V13.3643H8.36328V11.5459H9.92188L10.1816 11.7725ZM17.4541 17H15.6367V15.1826H17.4541V17ZM15.6367 13.3643H13.8184V11.7725L14.0781 11.5459H15.6367V13.3643ZM12.8564 8.72363L15.5283 6.12695L15.7188 5.94141L15.9092 6.12695L16.7354 6.92969L16.9365 7.12598L16.7354 7.32129L12.1895 11.7402L12 11.9258L11.8096 11.7402L7.26367 7.32129L7.0625 7.12598L7.26367 6.92969L8.09082 6.12695L8.28027 5.94141L8.4707 6.12695L11.1426 8.72363V2.18164H12.8564V8.72363ZM11.415 9.36914L11.416 9.37012V2.4541H11.415V9.36914Z" fill="#FEFEFE"/>
</svg>
