<svg width="12" height="12" viewBox="0 0 12 12" fill="none" xmlns="http://www.w3.org/2000/svg">
<path fill-rule="evenodd" clip-rule="evenodd" d="M3.57536 7.75103H1.5V9.25103H4C4.26345 9.25103 4.50758 9.11281 4.64312 8.88691L4.85266 8.53767L3.96017 7.10968L3.57536 7.75103ZM5.50009 4.54314L4.64312 3.11486C4.50758 2.88896 4.26345 2.75073 4 2.75073H1.5V4.25073H3.57536L6.35688 8.8866C6.49242 9.11251 6.73655 9.25073 7 9.25073H8.18934L7.96967 9.4704L9.03033 10.5311L10.5303 9.03106C10.7448 8.81656 10.809 8.49398 10.6929 8.21372C10.5768 7.93346 10.3033 7.75073 10 7.75073H7.42464L6.37473 6.00088L7.42464 4.25103H10C10.3033 4.25103 10.5768 4.0683 10.6929 3.78805C10.809 3.50779 10.7448 3.1852 10.5303 2.9707L9.03033 1.4707L7.96967 2.53136L8.18934 2.75103H7C6.73655 2.75103 6.49242 2.88926 6.35688 3.11516L5.50009 4.54314Z" fill="#FEFEFE"/>
</svg>
