<svg width="80" height="80" viewBox="0 0 80 80" fill="none" xmlns="http://www.w3.org/2000/svg">
<path fill-rule="evenodd" clip-rule="evenodd" d="M30.5004 28C30.5004 22.7533 34.7537 18.5 40.0004 18.5C45.2471 18.5 49.5004 22.7533 49.5004 28V29.2195C49.5004 31.3612 48.6496 33.4153 47.1351 34.9297L45.7174 36.3475C44.0417 38.0231 43.1004 40.2957 43.1004 42.6654C43.1004 45.0236 43.7271 47.2824 44.854 49.2464C45.5659 47.1254 46.697 45.1967 48.1489 43.559C48.1168 43.2644 48.1004 42.9662 48.1004 42.6654C48.1004 41.6218 48.515 40.621 49.2529 39.883L50.6706 38.4653C53.1228 36.0131 54.5004 32.6873 54.5004 29.2195V28C54.5004 19.9919 48.0085 13.5 40.0004 13.5C31.9922 13.5 25.5004 19.9919 25.5004 28V29.2195C25.5004 32.6873 26.878 36.0131 29.3301 38.4653L30.7479 39.883C31.4858 40.621 31.9004 41.6218 31.9004 42.6654C31.9004 45.902 30.0022 48.8377 27.0507 50.1659L20.4696 53.1274C18.147 54.1726 16.0336 55.6312 14.2326 57.4322L12.4648 59.2L16.0004 62.7355L17.7681 60.9678C19.1407 59.5952 20.7513 58.4835 22.5215 57.687L29.1025 54.7255C33.8483 52.5899 36.9004 47.8696 36.9004 42.6654C36.9004 40.2957 35.959 38.0231 34.2834 36.3475L32.8657 34.9297C31.3512 33.4153 30.5004 31.3612 30.5004 29.2195V28ZM61 58.5357L54.768 64.7677L51.2324 61.2322L57.4645 55.0001L51.232 48.7677L54.7676 45.2322L61 51.4646L67.2324 45.2322L70.768 48.7677L64.5355 55.0001L70.7676 61.2322L67.232 64.7677L61 58.5357Z" fill="#FEFEFE"/>
</svg>
