<svg width="24" height="24" viewBox="0 0 24 24" fill="none" xmlns="http://www.w3.org/2000/svg">
<path d="M19.2949 9.56543C19.9444 11.2975 18.6643 13.1453 16.8145 13.1455C15.8721 13.1455 15.0002 12.645 14.5254 11.8311L14.4014 11.6182L14.2227 11.9043C13.7402 12.6763 12.8937 13.1454 11.9834 13.1455C11.073 13.1455 10.2267 12.6764 9.74414 11.9043L9.56445 11.6182L9.44043 11.8311C8.96559 12.6448 8.09453 13.1454 7.15234 13.1455C7.15048 13.1455 7.14835 13.1445 7.14648 13.1445V17.4727H12.4922V19H4.85547V17.4727H5.61914V12.6582C4.68823 11.9947 4.22552 10.7532 4.6709 9.56543L6.38281 5H17.583L19.2949 9.56543ZM19.2129 15.5801L16.1221 18.6709L14 16.7422L15.0273 15.6123L16.0723 16.5615L18.1328 14.5L19.2129 15.5801ZM6.10156 10.1016C5.82641 10.8354 6.36867 11.6182 7.15234 11.6182C7.55146 11.6181 7.92098 11.4063 8.12207 11.0615L8.24609 10.8486L9.51953 8.66406L11.0391 11.0947C11.2425 11.4202 11.5995 11.6182 11.9834 11.6182C12.3672 11.6181 12.7244 11.4201 12.9277 11.0947L13.1064 10.8086L14.4463 8.66406L15.7207 10.8486L15.8447 11.0615C16.0459 11.4062 16.4153 11.6182 16.8145 11.6182C17.5979 11.6179 18.1403 10.8353 17.8652 10.1016L16.5244 6.52734H7.44141L6.10156 10.1016Z" fill="#FEFEFE"/>
</svg>
