<svg width="24" height="24" viewBox="0 0 24 24" fill="none" xmlns="http://www.w3.org/2000/svg">
<path d="M21 4.20001C21 9.53335 21 14.8667 21 20.2H3V4.20001H21ZM19.4444 5.97779H11.92C11.3066 7.73515 11 10.1058 11 13.0889H13.6667C13.5644 13.9067 13.5333 14.7582 13.5715 15.6462C14.6613 15.4587 15.9751 14.9556 17.1511 14.1262L18.16 15.6063C16.7005 16.5796 15.224 17.1876 13.7369 17.4222C13.7831 17.7511 13.8373 18.0844 13.9004 18.4222H19.4444V5.97779ZM7.49334 14.1271L6.50664 15.6063C8.424 16.8844 10.3706 17.5333 12.3333 17.5333V15.7556C10.7404 15.7556 9.13152 15.2196 7.49334 14.1271ZM16.7778 7.75555C17.0135 7.75555 17.2396 7.84921 17.4063 8.01589C17.573 8.18263 17.6666 8.40871 17.6666 8.64445V9.53335C17.6666 9.76909 17.573 9.99511 17.4062 10.1618C17.2396 10.3285 17.0135 10.4221 16.7778 10.4221C16.5421 10.4221 16.316 10.3285 16.1493 10.1618C15.9826 9.99511 15.8889 9.76909 15.8889 9.53335V8.64445C15.8889 8.40871 15.9826 8.18263 16.1492 8.01589C16.3159 7.84921 16.542 7.75555 16.7778 7.75555ZM7.88886 7.75555C7.39824 7.75555 7.00002 8.15737 7.00002 8.64445V9.53335C7.00002 9.76909 7.09368 9.99511 7.26042 10.1618C7.4271 10.3285 7.65318 10.4221 7.88886 10.4221C8.1246 10.4221 8.35068 10.3285 8.51736 10.1618C8.68404 9.99511 8.77776 9.76909 8.77776 9.53335V8.64445C8.77776 8.40871 8.6841 8.18263 8.51742 8.01589C8.35074 7.84921 8.12466 7.75555 7.88886 7.75555Z" fill="#FEFEFE"/>
</svg>
