<svg width="24" height="24" viewBox="0 0 24 24" fill="none" xmlns="http://www.w3.org/2000/svg">
<path fill-rule="evenodd" clip-rule="evenodd" d="M10.3776 2.08191L8.7046 3.56547L9.23353 5.53949C6.08116 6.88676 4.31896 10.3803 5.23135 13.7853L6.27368 17.6754L5.70289 20.9342L21.9203 16.5887L19.7966 14.0519L18.7543 10.1619C17.8413 6.75436 14.5663 4.6126 11.1654 5.02177L10.3776 2.08191ZM10.0195 7.37857L10.6856 7.09391L11.4043 7.00745C13.8316 6.7154 16.1708 8.2473 16.8225 10.6795L17.9792 14.9966L18.3741 15.4684L8.21384 18.1908L8.31998 17.5848L7.1632 13.2677C6.51192 10.8371 7.76959 8.34015 10.0195 7.37857ZM15.5237 19.5968L10.2865 21.0001L9.57734 23.0018L14.8145 21.5986L15.5237 19.5968Z" fill="#FEFEFE"/>
</svg>
