<svg width="64" height="64" viewBox="0 0 64 64" fill="none" xmlns="http://www.w3.org/2000/svg">
<path fill-rule="evenodd" clip-rule="evenodd" d="M13.5249 14.8484C13.1033 15.2186 13.0173 15.4395 13.0018 15.5C13.0173 15.5605 13.1033 15.7814 13.5249 16.1516C14.0996 16.6563 15.0751 17.2248 16.4961 17.7526C19.3189 18.8011 23.3856 19.5 28 19.5C32.6144 19.5 36.6811 18.8011 39.5039 17.7526C40.9249 17.2248 41.9004 16.6563 42.4751 16.1516C42.8967 15.7814 42.9827 15.5605 42.9982 15.5C42.9827 15.4395 42.8967 15.2186 42.4751 14.8484C41.9004 14.3437 40.9249 13.7752 39.5039 13.2474C36.6811 12.1989 32.6144 11.5 28 11.5C23.3856 11.5 19.3189 12.1989 16.4961 13.2474C15.0751 13.7752 14.0996 14.3437 13.5249 14.8484ZM43.0002 15.5087L43.0008 15.5147C43.001 15.5163 43.0012 15.517 43.0013 15.517C43.0014 15.517 43.0014 15.5161 43.0012 15.5142L43.0002 15.5087ZM43.0002 15.4913C43.0005 15.4857 43.0011 15.483 43.0013 15.483C43.0015 15.483 43.0013 15.4857 43.0002 15.4913ZM12.9998 15.4913C12.9987 15.4857 12.9985 15.483 12.9987 15.483C12.9989 15.483 12.9995 15.4857 12.9998 15.4913ZM28 6.5C22.9494 6.5 18.2661 7.25617 14.7552 8.56024C13.0092 9.20873 11.4219 10.0409 10.2256 11.0914C9.03374 12.1381 8 13.6213 8 15.5V30.9647L7.96484 30.9999L8 31.035V43.1098C8 43.9771 8.32173 44.8315 8.93396 45.4892C9.92451 46.5528 11.521 48.1195 14.4289 49.3793C17.2923 50.6199 21.2766 51.5 27 51.5H29.5V46.5H27C21.7792 46.5 18.5053 45.6964 16.4166 44.7914C14.7228 44.0576 13.7118 43.2174 13 42.5053V35.0014C13.9341 35.4761 14.9937 35.9238 16.1538 36.321C19.118 37.336 22.9284 38.0883 27.4123 38.0883C32.1521 38.0883 37.8205 37.6416 41.3451 36.1185L43.64 35.1268L41.6566 30.537L39.3617 31.5287C36.8724 32.6044 32.1349 33.0883 27.4123 33.0883C23.4843 33.0883 20.221 32.4287 17.7735 31.5907C15.2576 30.7292 13.7772 29.7412 13.2681 29.2321L13 28.964V21.6946C13.5593 21.9662 14.1476 22.2141 14.7552 22.4398C18.2661 23.7438 22.9494 24.5 28 24.5C33.0506 24.5 37.7339 23.7438 41.2448 22.4398C41.8524 22.2141 42.4407 21.9662 43 21.6946V28H48V16H47.9753C47.9915 15.8366 48 15.6699 48 15.5C48 13.6213 46.9663 12.1381 45.7744 11.0914C44.5781 10.0409 42.9908 9.20873 41.2448 8.56024C37.7339 7.25617 33.0506 6.5 28 6.5Z" fill="#FEFEFE"/>
<path fill-rule="evenodd" clip-rule="evenodd" d="M50.5968 41.1384L49.5494 43.3848C52.2114 45.8016 53.1185 49.7575 51.5192 53.1873C49.5519 57.4063 44.5369 59.2316 40.3179 57.2643C36.0989 55.2969 34.2736 50.2819 36.2409 46.063C37.8405 42.6326 41.4549 40.7847 45.018 41.2712L50.1891 30.1816L54.7207 32.2947L52.71 36.6066L57.3388 38.8272L55.1762 43.3353L50.5968 41.1384ZM45.3292 46.5175C43.6129 45.7172 41.5728 46.4598 40.7725 48.176C39.9722 49.8923 40.7147 51.9324 42.431 52.7327C44.1472 53.533 46.1873 52.7905 46.9877 51.0742C47.788 49.358 47.0454 47.3179 45.3292 46.5175Z" fill="#FEFEFE"/>
</svg>
