<svg width="80" height="80" viewBox="0 0 80 80" fill="none" xmlns="http://www.w3.org/2000/svg">
<path fill-rule="evenodd" clip-rule="evenodd" d="M40 12.8333C31.9919 12.8333 25.5 19.3251 25.5 27.3333V27.9999V31.479V37.8429C22.9957 40.9989 21.5 44.9914 21.5 49.3333C21.5 59.5505 29.7827 67.8333 40 67.8333C50.2173 67.8333 58.5 59.5505 58.5 49.3333C58.5 39.116 50.2173 30.8333 40 30.8333C36.5266 30.8333 33.2768 31.7905 30.5 33.4555V28.3809V27.9999V27.3333C30.5 22.0866 34.7533 17.8333 40 17.8333C45.2467 17.8333 49.5 22.0865 49.5 27.3333V28.3809C51.3031 29.1998 52.9818 30.2445 54.5 31.479V27.3333C54.5 19.3251 48.0081 12.8333 40 12.8333ZM26.5 49.3333C26.5 41.8774 32.5442 35.8333 40 35.8333C47.4558 35.8333 53.5 41.8774 53.5 49.3333C53.5 56.7891 47.4558 62.8333 40 62.8333C32.5442 62.8333 26.5 56.7891 26.5 49.3333ZM34.334 49.3333C34.334 46.2037 36.871 43.6666 40.0007 43.6666C43.1303 43.6666 45.6673 46.2037 45.6673 49.3333C45.6673 51.5658 44.3762 53.4968 42.5 54.4204V57.0908L37.5 57.9999V54.4198C35.6245 53.4959 34.334 51.5653 34.334 49.3333Z" fill="#FEFEFE"/>
</svg>
