<svg width="16" height="16" viewBox="0 0 16 16" fill="none" xmlns="http://www.w3.org/2000/svg">
<path fill-rule="evenodd" clip-rule="evenodd" d="M10.0003 11.9998H6.00033L4.66699 13.9998H0.666992L1.33366 3.99984L2.66699 2.6665H13.3337L14.667 3.99984L15.3337 13.9998H11.3337L10.0003 11.9998ZM4.92996 9.99984L3.59662 11.9998H2.80476L3.27924 4.88268L3.49542 4.6665H12.5052L12.7214 4.88268L13.1959 11.9998H12.404L11.0707 9.99984H4.92996ZM10.6673 7.33317C10.6673 7.14908 10.8166 6.99984 11.0007 6.99984C11.1847 6.99984 11.334 7.14908 11.334 7.33317C11.334 7.51727 11.1847 7.6665 11.0007 7.6665C10.8166 7.6665 10.6673 7.51727 10.6673 7.33317ZM12.6673 7.33317C12.6673 8.25364 11.9211 8.99984 11.0007 8.99984C10.0802 8.99984 9.33398 8.25364 9.33398 7.33317C9.33398 6.4127 10.0802 5.6665 11.0007 5.6665C11.9211 5.6665 12.6673 6.4127 12.6673 7.33317ZM6.66699 6.33325H7.66699V8.33325H6.66699V9.33325H4.66699V8.33325H3.66699V6.33325H4.66699V5.33325H6.66699V6.33325Z" fill="#FEFEFE"/>
</svg>
