<svg width="24" height="24" viewBox="0 0 24 24" fill="none" xmlns="http://www.w3.org/2000/svg">
<path d="M14.7556 9.04982C16.2728 10.567 17.516 12.1167 18.2932 13.4119C18.6778 14.053 18.9771 14.6788 19.1204 15.2363C19.2454 15.7227 19.3401 16.5165 18.7724 17.0842C18.4351 17.4213 18.0179 17.5213 17.633 17.5234L2.0249 21.7805L6.28204 6.17236C6.28419 5.78765 6.38489 5.37091 6.72191 5.03367C7.28959 4.46599 8.08344 4.56064 8.56978 4.68564C9.12734 4.82901 9.75312 5.12827 10.3942 5.5129C11.6894 6.29002 13.2385 7.53274 14.7556 9.04982ZM14.71 16.357C13.5003 15.5754 12.1056 14.4335 10.7387 13.0667C9.37149 11.6994 8.22925 10.3047 7.44766 9.0947L4.72351 19.0819L14.71 16.357ZM13.4166 10.3888C11.976 8.94819 10.5475 7.81294 9.41983 7.13635C8.94084 6.84897 8.54866 6.6648 8.2549 6.56666C8.35307 6.86038 8.53801 7.25209 8.82528 7.7309C9.50187 8.85856 10.6371 10.2871 12.0777 11.7277C13.5182 13.1683 14.9468 14.3035 16.0745 14.9801C16.5536 15.2676 16.9456 15.453 17.2394 15.5512C17.1413 15.2574 16.9565 14.8646 16.6691 14.3856C15.9924 13.2579 14.8572 11.8293 13.4166 10.3888ZM15.0325 4.36316H13.139V1.68527H15.0325V4.36316ZM22.1187 10.665H19.4409V8.77153H22.1187V10.665ZM17.4321 7.71018L16.0931 6.37124L20.11 2.3544L21.4489 3.69335L17.4321 7.71018Z" fill="#FEFEFE"/>
</svg>
