<svg width="24" height="24" viewBox="0 0 24 24" fill="none" xmlns="http://www.w3.org/2000/svg">
<circle cx="12" cy="12" r="12" fill="#4F9F7D"/>
<path fill-rule="evenodd" clip-rule="evenodd" d="M6.4186 5.86046V8.55813H10.4651L10.4651 10.3721C8.97674 10.3256 4.84615 10.9302 4.74418 11.8139C4.60465 13.0232 8.83721 13.4884 10.4651 13.4884V19.2093L12.186 19.2093H13.3953V13.5349C15.0698 13.5039 18.9767 13.0232 19.2093 12C19.4402 10.9839 15.6506 10.4112 13.4419 10.3273V8.55813L17.4884 8.60464V5.86046H6.4186ZM13.4419 10.5582V12.5116C12.4372 12.6977 11.0388 12.5891 10.4651 12.5116V10.5777C8.39596 10.6187 5.70195 10.9685 5.44186 11.6744C5.06178 12.706 9.67441 13.0698 12.186 13.0698C13.938 13.1318 17.6279 12.8837 18.4186 12C19.2032 11.1231 15.4538 10.5667 13.4419 10.5582Z" fill="white"/>
</svg>
