<svg width="24" height="24" viewBox="0 0 24 24" fill="none" xmlns="http://www.w3.org/2000/svg">
<path d="M12 18.499C12.9267 18.4991 13.6777 19.25 13.6777 20.1768C13.6777 21.1034 12.9267 21.8544 12 21.8545C11.0733 21.8545 10.3223 21.1035 10.3223 20.1768C10.3223 19.25 11.0732 18.499 12 18.499ZM8.82227 5.18945C6.36361 6.37333 4.66707 8.88921 4.66699 11.8008C4.66707 14.7121 6.36394 17.2262 8.82227 18.4102V21.2812C4.8579 19.953 2.00009 16.2122 2 11.8008C2.00009 7.38914 4.85766 3.64644 8.82227 2.31836V5.18945ZM15.4141 2.39844C19.2557 3.79375 21.9999 7.47705 22 11.8008C21.9999 16.1243 19.2554 19.8057 15.4141 21.2012V18.29C17.7438 17.0618 19.3329 14.6176 19.333 11.8008C19.3329 8.98378 17.744 6.53869 15.4141 5.31055V2.39844ZM16.2402 11.8008L12 16.042L7.75879 11.8008L12 7.56055L16.2402 11.8008ZM12 2C12.9266 2.00009 13.6775 2.75119 13.6777 3.67773C13.6777 4.60445 12.9267 5.35636 12 5.35645C11.0732 5.35645 10.3223 4.6045 10.3223 3.67773C10.3225 2.75114 11.0734 2 12 2Z" fill="#FEFEFE"/>
</svg>
