<svg width="24" height="24" viewBox="0 0 24 24" fill="none" xmlns="http://www.w3.org/2000/svg">
<path fill-rule="evenodd" clip-rule="evenodd" d="M8.85759 9.00004V13.2858H10.8576V9.41425L13.9933 6.27858C15.0229 5.24894 16.6923 5.24894 17.7219 6.27857C18.7515 7.30821 18.7515 8.97758 17.7219 10.0072L16.8648 10.8644L18.279 12.2786L19.1361 11.4214C20.9468 9.61075 20.9468 6.67505 19.1361 4.86436C17.3254 3.05368 14.3897 3.05368 12.5791 4.86436L9.15049 8.29293C8.96295 8.48047 8.85759 8.73482 8.85759 9.00004ZM15.1424 15.0002V10.7145H13.1424V14.586L10.0067 17.7216C8.97709 18.7513 7.30772 18.7513 6.27809 17.7216C5.24845 16.692 5.24845 15.0226 6.27809 13.993L7.13523 13.1359L5.72102 11.7216L4.86387 12.5788C3.05319 14.3895 3.05319 17.3252 4.86387 19.1359C6.67456 20.9465 9.61026 20.9465 11.4209 19.1359L14.8495 15.7073C15.0371 15.5198 15.1424 15.2654 15.1424 15.0002Z" fill="#FEFEFE"/>
</svg>
