<svg width="24" height="24" viewBox="0 0 24 24" fill="none" xmlns="http://www.w3.org/2000/svg">
<path fill-rule="evenodd" clip-rule="evenodd" d="M20.1818 12C20.1818 16.5187 16.5187 20.1818 12 20.1818C7.48131 20.1818 3.81818 16.5187 3.81818 12C3.81818 7.48131 7.48131 3.81818 12 3.81818C16.5187 3.81818 20.1818 7.48131 20.1818 12ZM22 12C22 17.5228 17.5228 22 12 22C6.47715 22 2 17.5228 2 12C2 6.47715 6.47715 2 12 2C17.5228 2 22 6.47715 22 12ZM7.82199 8.36679C7.58727 8.34966 7.35274 8.40252 7.14806 8.51867C6.94338 8.63484 6.77774 8.80908 6.67209 9.01938C6.56644 9.22967 6.52553 9.46658 6.55452 9.70014C6.58351 9.93368 6.68111 10.1534 6.83497 10.3315C6.98884 10.5095 7.19205 10.638 7.41892 10.7006C7.64579 10.7632 7.88613 10.7571 8.10953 10.6831C8.13666 10.6741 8.1634 10.6642 8.18969 10.6533C8.18969 10.6533 8.49719 10.5303 8.87044 10.7486L8.91523 10.7746C9.3295 11.015 10.2122 11.5272 10.1544 12.5975C10.1378 12.7695 10.1325 12.9446 10.1391 13.1221C10.2196 15.2774 12.0321 16.9593 14.1874 16.8787C16.3426 16.7982 18.0245 14.9857 17.944 12.8305C17.8635 10.6753 16.051 8.99335 13.8957 9.07389C13.0269 9.10636 12.235 9.42028 11.6045 9.92465V9.92115C10.7004 10.5908 9.79267 10.1134 9.37224 9.89219L9.34496 9.87786C8.96215 9.67689 8.90655 9.34375 8.90655 9.34375C8.86915 9.13528 8.77642 8.93871 8.63561 8.77574C8.42932 8.53697 8.13668 8.38988 7.82199 8.36679ZM13.318 14.8314C12.3041 14.4402 11.7993 13.301 12.1905 12.2871C12.5817 11.2732 13.7209 10.7684 14.7348 11.1596C15.7487 11.5508 16.2535 12.69 15.8623 13.7039C15.4711 14.7178 14.3319 15.2226 13.318 14.8314Z" fill="#FEFEFE"/>
</svg>
