<svg width="24" height="24" viewBox="0 0 24 24" fill="none" xmlns="http://www.w3.org/2000/svg">
<path fill-rule="evenodd" clip-rule="evenodd" d="M22 6.5C22 8.98528 19.9853 11 17.5 11C16.2236 11 15.0712 10.4685 14.2523 9.61484L10.7828 11.6965C10.9236 12.1051 11 12.5436 11 13C11 13.4564 10.9236 13.8949 10.7828 14.3034L14.5743 16.5783C15.2 15.6276 16.2767 15 17.5 15C19.433 15 21 16.567 21 18.5C21 20.433 19.433 22 17.5 22C15.5892 22 14.036 20.4688 14.0006 18.5665L9.67694 15.9722C8.96805 16.6111 8.02944 17 7 17C4.79086 17 3 15.2091 3 13C3 10.7909 4.79086 9 7 9C8.0294 9 8.96799 9.38886 9.67687 10.0277L13.2222 7.90049C13.078 7.45972 13 6.98897 13 6.5C13 4.01472 15.0147 2 17.5 2C19.9853 2 22 4.01472 22 6.5ZM17.5 9C18.8807 9 20 7.88071 20 6.5C20 5.11929 18.8807 4 17.5 4C16.1193 4 15 5.11929 15 6.5C15 7.88071 16.1193 9 17.5 9ZM9 13C9 14.1046 8.10457 15 7 15C5.89543 15 5 14.1046 5 13C5 11.8954 5.89543 11 7 11C8.10457 11 9 11.8954 9 13ZM17.5 20C18.3284 20 19 19.3284 19 18.5C19 17.6716 18.3284 17 17.5 17C16.6716 17 16 17.6716 16 18.5C16 19.3284 16.6716 20 17.5 20Z" fill="#FEFEFE"/>
</svg>
