<svg width="24" height="24" viewBox="0 0 24 24" fill="none" xmlns="http://www.w3.org/2000/svg">
<path d="M8 5C8.35121 5 8.67668 5.18423 8.85742 5.48535L11.8994 10.5557L13.1426 8.48535C13.3233 8.18423 13.6488 8 14 8H17.5859L16.293 6.70703L17.707 5.29297L20.707 8.29297C20.993 8.57897 21.0786 9.00914 20.9238 9.38281C20.769 9.75641 20.4044 10 20 10H14.5664L13.0654 12.5L14.5664 15H20C20.4044 15 20.769 15.2436 20.9238 15.6172C21.0786 15.9909 20.993 16.421 20.707 16.707L17.707 19.707L16.293 18.293L17.5859 17H14C13.6488 17 13.3233 16.8158 13.1426 16.5146L11.8994 14.4434L8.85742 19.5146C8.67668 19.8158 8.35121 20 8 20H3V18H7.43359L10.7334 12.5L7.43359 7H3V5H8Z" fill="#FEFEFE"/>
</svg>
