<svg width="24" height="24" viewBox="0 0 24 24" fill="none" xmlns="http://www.w3.org/2000/svg">
<path d="M3.00488 2.99979H21.0049C21.5572 2.99979 22.0049 3.4475 22.0049 3.99979V19.9998C22.0049 20.5521 21.5572 20.9998 21.0049 20.9998H3.00488C2.4526 20.9998 2.00488 20.5521 2.00488 19.9998V3.99979C2.00488 3.4475 2.4526 2.99979 3.00488 2.99979ZM20.0049 10.9998H4.00488V18.9998H20.0049V10.9998ZM20.0049 8.99979V4.99979H4.00488V8.99979H20.0049Z" fill="#FEFEFE"/>
<path d="M18.0234 12.3945L18.6064 12.9824L18.7109 13.0879L18.6064 13.1943L14.2314 17.6055L14.125 17.7129L14.0186 17.6055L11.3936 14.959L11.2891 14.8525L11.3936 14.7471L11.9766 14.1592L12.083 14.0518L12.1895 14.1592L14.124 16.1104L17.8105 12.3945L17.917 12.2871L18.0234 12.3945Z" fill="#FEFEFE" stroke="#FEFEFE" stroke-width="0.3"/>
</svg>
