<svg width="24" height="24" viewBox="0 0 24 24" fill="none" xmlns="http://www.w3.org/2000/svg">
<path d="M13.1531 12.1116C13.1531 14.9345 10.8802 17.2229 8.07664 17.2229C5.27308 17.2229 3 14.9339 3 12.1116C3 9.28912 5.27289 7 8.07664 7C10.8804 7 13.1531 9.28861 13.1531 12.1116ZM18.7221 12.1116C18.7221 14.7687 17.5857 16.9237 16.1838 16.9237C14.782 16.9237 13.6455 14.7687 13.6455 12.1116C13.6455 9.45434 14.7818 7.29945 16.1837 7.29945C17.5855 7.29945 18.7221 9.4537 18.7221 12.1116ZM21 12.1116C21 14.4917 20.6004 16.4224 20.1073 16.4224C19.6142 16.4224 19.2147 14.4922 19.2147 12.1116C19.2147 9.73084 19.6143 7.80063 20.1073 7.80063C20.6002 7.80063 21 9.73064 21 12.1116Z" fill="url(#paint0_linear_1_370)"/>
<defs>
<linearGradient id="paint0_linear_1_370" x1="3" y1="12.2877" x2="21" y2="12.2877" gradientUnits="userSpaceOnUse">
<stop stop-color="#9EE6FC"/>
<stop offset="1" stop-color="#EBB9E7"/>
</linearGradient>
</defs>
</svg>
