<svg width="16" height="16" viewBox="0 0 16 16" fill="none" xmlns="http://www.w3.org/2000/svg">
<path fill-rule="evenodd" clip-rule="evenodd" d="M8.0001 2.5C6.43529 2.5 5.16676 3.76853 5.16676 5.33334V5.67207C5.16676 6.31858 5.42359 6.93861 5.88074 7.39575L6.27455 7.78957C6.70354 8.21856 6.94454 8.80039 6.94454 9.40707C6.94454 10.7761 6.14161 12.0179 4.89312 12.5798L2.20528 13.7893L1.79492 12.8774L4.48276 11.6678C5.3724 11.2675 5.94454 10.3826 5.94454 9.40707C5.94454 9.0656 5.8089 8.73813 5.56745 8.49668L5.17363 8.10286C4.52894 7.45818 4.16676 6.58379 4.16676 5.67207V5.33334C4.16676 3.21624 5.88301 1.5 8.0001 1.5C10.1172 1.5 11.8334 3.21624 11.8334 5.33333V5.67207C11.8334 6.58379 11.4713 7.45818 10.8266 8.10286L10.4327 8.49668C10.1913 8.73813 10.0557 9.0656 10.0557 9.40707C10.0557 10.3826 10.6278 11.2675 11.5174 11.6678L14.2053 12.8774L13.7949 13.7893L11.1071 12.5798C9.85858 12.0179 9.05565 10.7761 9.05565 9.40707C9.05565 8.80039 9.29665 8.21856 9.72564 7.78957L10.1195 7.39575C10.5766 6.93861 10.8334 6.31858 10.8334 5.67207V5.33333C10.8334 3.76853 9.5649 2.5 8.0001 2.5Z" fill="#FEFEFE"/>
</svg>
