<svg width="24" height="24" viewBox="0 0 24 24" fill="none" xmlns="http://www.w3.org/2000/svg">
<path fill-rule="evenodd" clip-rule="evenodd" d="M4.58578 4H19.4142L21.9687 6.55447L23.0799 21H16.4648L14.4648 18H9.53518L7.53518 21H0.92012L2.03131 6.55447L4.58578 4ZM17 12C17.5523 12 18 11.5523 18 11C18 10.4477 17.5523 10 17 10C16.4477 10 16 10.4477 16 11C16 11.5523 16.4477 12 17 12ZM17 14C18.6569 14 20 12.6569 20 11C20 9.34315 18.6569 8 17 8C15.3432 8 14 9.34315 14 11C14 12.6569 15.3432 14 17 14ZM9.00002 8V10H11V12H9.00002V14H7.00002V12H5.00002V10H7.00002V8H9.00002Z" fill="#FEFEFE"/>
</svg>
