<svg width="24" height="24" viewBox="0 0 24 24" fill="none" xmlns="http://www.w3.org/2000/svg">
<path d="M20.6238 7.55017C20.4169 6.77472 19.8062 6.16401 19.0328 5.95709C17.6285 5.57941 11.9995 5.57941 11.9995 5.57941C11.9995 5.57941 6.37049 5.57941 4.96625 5.95508C4.19081 6.162 3.5821 6.77271 3.37518 7.54816C2.99951 8.95442 2.99951 11.8875 2.99951 11.8875C2.99951 11.8875 2.99951 14.8205 3.37518 16.2248C3.5821 17.0002 4.19282 17.6109 4.96625 17.8178C6.37049 18.1955 11.9995 18.1955 11.9995 18.1955C11.9995 18.1955 17.6285 18.1955 19.0328 17.8178C19.8082 17.6109 20.4169 17.0002 20.6238 16.2248C20.9995 14.8205 20.9995 11.8875 20.9995 11.8875C20.9995 11.8875 20.9995 8.95442 20.6238 7.55017ZM10.2116 14.5794V9.19549L14.8723 11.8674L10.2116 14.5794Z" fill="#FEFEFE"/>
</svg>
