<svg width="40" height="40" viewBox="0 0 40 40" fill="none" xmlns="http://www.w3.org/2000/svg">
<path d="M7.96784 25.0441L15.2388 29.897L21.6426 26.9952L21.6593 25.8779L15.1388 28.9297L8.58487 24.7939L7.96784 25.0441ZM28.2799 13.0703C28.38 13.137 28.48 13.2037 28.5968 13.2871C28.3967 13.3705 28.1799 13.4705 27.9797 13.5706C27.7796 13.654 27.5795 13.754 27.3627 13.8374C27.2627 13.7707 27.1459 13.6873 27.0459 13.6206C26.6957 13.7207 26.3788 13.754 26.112 13.7207C25.8451 13.704 25.6117 13.6206 25.4116 13.4705C25.078 13.237 24.7612 13.0036 24.4276 12.7701C24.6111 12.6867 24.8112 12.5867 24.9946 12.5033C25.1781 12.4199 25.3782 12.3198 25.5616 12.2365C25.8952 12.4699 26.2287 12.7034 26.5789 12.9535C26.679 13.0202 26.8124 13.0202 26.9792 12.9535C27.1292 12.8868 27.1626 12.8201 27.0625 12.7367C26.8791 12.62 26.6957 12.4866 26.5289 12.3699C26.4121 12.2865 26.2454 12.2364 26.0286 12.2198C25.9119 12.2031 25.7117 12.1864 25.3949 12.1864C25.0947 12.1697 24.6945 12.1697 24.1942 12.1531C23.7105 12.1364 23.3603 12.0363 23.1769 11.9029C23.0268 11.7862 22.8767 11.6861 22.7266 11.5694C22.5265 11.4193 22.4264 11.2692 22.4264 11.1191C22.4264 10.969 22.5432 10.8023 22.76 10.6355C22.6766 10.5688 22.5765 10.5021 22.4932 10.4354C22.6766 10.352 22.8434 10.2519 23.0268 10.1519C23.2102 10.0518 23.3937 9.96843 23.5605 9.86837C23.6605 9.93508 23.7439 10.0018 23.844 10.0685C24.1275 9.96843 24.3943 9.93508 24.6278 9.95176C24.8612 9.96843 25.078 10.0351 25.2781 10.1686L26.0286 10.6689C25.8285 10.7689 25.645 10.8523 25.4449 10.9524C25.2615 11.0524 25.0613 11.1358 24.8779 11.2359C24.6111 11.0524 24.3609 10.8856 24.0941 10.7022C24.0107 10.6522 23.9107 10.6522 23.7939 10.7022C23.6605 10.7689 23.6772 10.869 23.8273 10.969C23.9273 11.0357 24.0274 11.0858 24.1275 11.1525C24.2775 11.2525 24.5944 11.3192 25.0947 11.3359C25.595 11.3526 26.0119 11.3526 26.3288 11.3693C26.6456 11.3859 26.8791 11.4026 27.0125 11.4193C27.2793 11.4526 27.5128 11.536 27.6962 11.6528L28.2966 12.053C28.5468 12.2198 28.6802 12.3865 28.6635 12.57C28.6802 12.7201 28.5468 12.9035 28.2799 13.0703ZM18.0572 17.8565C18.1739 17.9398 18.274 18.0065 18.3907 18.0899C18.1739 18.19 17.9404 18.2901 17.7236 18.3901C17.5069 18.4902 17.2901 18.5902 17.0733 18.6736C16.9565 18.5902 16.8565 18.5235 16.7397 18.4401C16.3562 18.5402 16.0226 18.5736 15.7391 18.5569C15.4556 18.5235 15.2055 18.4401 15.0054 18.2901L13.9547 17.5396C14.1549 17.4395 14.355 17.3562 14.5551 17.2561C14.7552 17.156 14.9553 17.056 15.1721 16.9726C15.5223 17.2228 15.8892 17.4729 16.2561 17.723C16.3728 17.8064 16.5063 17.8064 16.673 17.723C16.8398 17.6563 16.8731 17.573 16.7564 17.4896C16.573 17.3562 16.3728 17.2228 16.1894 17.0893C16.0727 17.006 15.8892 16.9559 15.6557 16.9226C15.539 16.9059 15.3055 16.8892 14.9887 16.8725C14.6718 16.8559 14.2382 16.8559 13.7213 16.8392C13.2043 16.8225 12.8374 16.7225 12.6373 16.5724C12.4705 16.4556 12.3204 16.3389 12.1537 16.2222C11.9369 16.0721 11.8368 15.9053 11.8368 15.7385C11.8535 15.5718 11.9702 15.405 12.2037 15.2216L11.9035 15.0214C12.087 14.9214 12.2871 14.8213 12.4705 14.7213C12.654 14.6212 12.8541 14.5211 13.0542 14.4211L13.3544 14.6212C13.6546 14.5211 13.9381 14.4878 14.1882 14.5045C14.4384 14.5211 14.6718 14.6045 14.8886 14.7379C15.1554 14.9214 15.4223 15.0881 15.6891 15.2716C15.489 15.3716 15.2722 15.4717 15.0721 15.5718L14.4717 15.8719C14.1882 15.6885 13.9214 15.4884 13.6379 15.3049C13.5545 15.2382 13.4378 15.2382 13.321 15.3049C13.1709 15.3716 13.1876 15.4717 13.3544 15.5884C13.4544 15.6552 13.5712 15.7052 13.6712 15.7719C13.838 15.8886 14.1715 15.9553 14.7052 15.972C15.2388 15.9887 15.6724 15.9887 16.0226 16.0054C16.3728 16.022 16.6063 16.0387 16.7564 16.0554C17.0399 16.0887 17.2901 16.1721 17.4735 16.3055C17.6903 16.439 17.8904 16.589 18.1072 16.7225C18.374 16.9059 18.5074 17.0893 18.5074 17.2728C18.4741 17.4896 18.324 17.673 18.0572 17.8565ZM26.7957 24.6438L31.8654 22.3425L30.6647 21.642L26.8124 23.4598L26.7957 24.6438ZM21.7094 21.2418L21.6927 22.3258L15.2388 25.2609L7.96784 20.408L8.53484 20.1578L15.1221 24.3103L21.7094 21.2418ZM26.8791 19.9744L26.8958 18.8237L30.698 17.0393L31.8654 17.7064L26.8791 19.9744ZM26.9625 15.3383L31.8654 13.1036L24.3776 8.76772L19.408 10.9023L26.9625 15.3383ZM17.6903 9.90173L24.1108 7.15009L24.4777 7L24.8279 7.20012L34 12.52L33.9333 15.5384L32.4658 16.2222L34 17.106L33.9333 20.1245L32.4157 20.8249L33.9833 21.7421L33.9166 24.7606L15.1388 33.5491L6.13341 27.8791L6 24.1602L6.95057 23.76L6.13341 23.243L6 19.5241L6.91721 19.1239L6.13341 18.6236L6 14.9047L13.0542 11.8696L12.9708 11.8029L17.6069 9.81834L17.6903 9.90173ZM14.6218 12.9535L7.96784 15.8052L15.2388 20.6581L21.7427 17.7064L14.6218 12.9535Z" fill="#FEFEFE"/>
</svg>
