<svg width="12" height="12" viewBox="0 0 12 12" fill="none" xmlns="http://www.w3.org/2000/svg">
<g clip-path="url(#clip0_222_777)">
<mask id="mask0_222_777" style={{maskType: 'alpha'}} maskUnits="userSpaceOnUse" x="0" y="0" width="12" height="12">
<path d="M11.25 0.75H0.75V11.25H11.25V0.75Z" fill="#D9D9D9" stroke="#FEFEFE" stroke-width="1.5"/>
</mask>
<g mask="url(#mask0_222_777)">
<path fill-rule="evenodd" clip-rule="evenodd" d="M4.9278 1.78487L3.86714 2.84553L4.9278 3.90619L5.98846 2.84553C6.86714 1.96685 8.29176 1.96685 9.17044 2.84553C10.0491 3.72421 10.0491 5.14883 9.17044 6.02751L8.10978 7.08817L9.17044 8.14883L10.2311 7.08817C11.6956 5.62371 11.6956 3.24934 10.2311 1.78487C8.76663 0.320407 6.39226 0.320408 4.9278 1.78487ZM2.08318 4.62949L0.995872 3.54218L2.05653 2.48152L9.48115 9.90614L8.42049 10.9668L7.38648 9.93279L7.04911 10.2702C5.58464 11.7347 3.21028 11.7347 1.74581 10.2702C0.281344 8.8057 0.281344 6.43133 1.74581 4.96686L2.08318 4.62949ZM6.32582 8.87213L5.98845 9.2095C5.10977 10.0882 3.68515 10.0882 2.80647 9.2095C1.92779 8.33082 1.92779 6.9062 2.80647 6.02752L3.14384 5.69015L6.32582 8.87213Z" fill="#FEFEFE"/>
</g>
</g>
<defs>
<clipPath id="clip0_222_777">
<rect width="12" height="12" fill="white"/>
</clipPath>
</defs>
</svg>
