<svg width="34" height="32" viewBox="0 0 34 32" fill="none" xmlns="http://www.w3.org/2000/svg">
<path fill-rule="evenodd" clip-rule="evenodd" d="M16.9757 9.80005C15.2775 9.80005 13.9007 11.1432 13.9007 12.8V13.2065C13.9007 13.8763 14.1734 14.5185 14.6588 14.9921L15.1432 15.4647C15.7478 16.0545 16.0874 16.8544 16.0874 17.6885C16.0874 19.4888 15.0052 21.1218 13.3224 21.8605L11.0739 22.8477C10.488 23.1049 9.95485 23.4639 9.50052 23.9072L8.77574 24.6143L7.32617 23.2L8.05096 22.4929C8.68094 21.8783 9.42018 21.3805 10.2326 21.0239L12.4812 20.0367C13.4283 19.6209 14.0374 18.7018 14.0374 17.6885C14.0374 17.3849 13.9138 17.0936 13.6937 16.8789L13.2093 16.4063C12.3394 15.5577 11.8507 14.4067 11.8507 13.2065V12.8C11.8507 10.0386 14.1453 7.80005 16.9757 7.80005C19.8062 7.80005 22.1007 10.0386 22.1007 12.8V13.2065C22.1007 14.4067 21.6121 15.5577 20.7422 16.4063L20.2578 16.8789C20.0377 17.0936 19.9141 17.3849 19.9141 17.6885C19.9141 18.7018 20.5232 19.6209 21.4703 20.0367L23.7188 21.0239C24.5313 21.3805 25.2705 21.8783 25.9005 22.4929L26.6253 23.2L25.1757 24.6143L24.451 23.9072C23.9966 23.4639 23.4635 23.1049 22.8776 22.8477L20.6291 21.8605C18.9463 21.1218 17.8641 19.4888 17.8641 17.6885C17.8641 16.8544 18.2037 16.0545 18.8082 15.4647L19.2926 14.9921C19.778 14.5185 20.0507 13.8763 20.0507 13.2065V12.8C20.0507 11.1432 18.674 9.80005 16.9757 9.80005Z" fill="#FEFEFE"/>
</svg>
