<svg width="24" height="24" viewBox="0 0 24 24" fill="none" xmlns="http://www.w3.org/2000/svg">
<path fill-rule="evenodd" clip-rule="evenodd" d="M6 6C6 2.68629 8.68629 0 12 0C15.3137 0 18 2.68629 18 6V8.08305C17.3854 7.61653 16.7148 7.21994 16 6.90514V6C16 3.79086 14.2091 2 12 2C9.79086 2 8 3.79086 8 6V6.90513V9.07026C9.17669 8.38958 10.5429 8 12 8C16.4183 8 20 11.5817 20 16C20 20.4183 16.4183 24 12 24C7.58172 24 4 20.4183 4 16C4 13.9711 4.75527 12.1186 6 10.7084V8.08302V6ZM6 16C6 12.6863 8.68629 10 12 10C15.3137 10 18 12.6863 18 16C18 19.3137 15.3137 22 12 22C8.68629 22 6 19.3137 6 16ZM12 14C10.8954 14 10 14.8954 10 16C10 16.7403 10.4022 17.3866 11 17.7324V19L13 18.5V17.7324C13.5978 17.3866 14 16.7403 14 16C14 14.8954 13.1046 14 12 14Z" fill="#FEFEFE"/>
</svg>
