<svg width="24" height="24" viewBox="0 0 24 24" fill="none" xmlns="http://www.w3.org/2000/svg">
<path fill-rule="evenodd" clip-rule="evenodd" d="M10.6544 4.06567L10.0919 2.00317L8.28296 2.49652L8.84546 4.55902L10.6544 4.06567ZM3.75 2.4375L6 5.4375L4.5 6.5625L2.25 3.5625L3.75 2.4375ZM20.25 2.4375L18 5.4375L19.5 6.5625L21.75 3.5625L20.25 2.4375ZM14.278 2.02258L13.7155 4.2726L15.5345 4.72732L16.097 2.47733L14.278 2.02258ZM4.5 12.75H15V19.5H4.5V12.75ZM15 21.375H2.625V11.4712L0.358154 6.9375H12.5759L16.0312 10.3929L19.4866 6.9375H23.6972L22.1222 10.875H22.125V21.375H16.875H15ZM16.875 19.5H20.25V12.75H16.875V19.5ZM12.5625 16.3125H9.375V14.4375H12.5625V16.3125ZM4.32945 10.6875L3.39197 8.8125H11.7992L13.6742 10.6875H4.32945ZM20.9277 8.8125L20.1777 10.6875H18.3882L20.2632 8.8125H20.9277Z" fill="#FEFEFE"/>
</svg>
