<svg width="24" height="24" viewBox="0 0 24 24" fill="none" xmlns="http://www.w3.org/2000/svg">
<path fill-rule="evenodd" clip-rule="evenodd" d="M15.163 15.8442C14.9292 17.1184 14.5856 18.2431 14.17 19.1574C13.3109 21.0473 12.4308 21.4999 12 21.4999C11.5692 21.4999 10.6891 21.0473 9.83002 19.1574C9.41442 18.2431 9.07077 17.1184 8.83696 15.8442C9.80972 15.7859 10.8687 15.7498 12 15.7498C13.1313 15.7498 14.1903 15.7859 15.163 15.8442ZM16.6668 15.9563C16.2315 18.4404 15.3981 20.4893 14.3387 21.725C17.2121 21.0365 19.6033 19.1076 20.9144 16.536C20.4717 16.451 19.8752 16.3468 19.1439 16.2423C18.4377 16.1414 17.6063 16.0404 16.6668 15.9563ZM21.5026 15.1231C21.4785 15.1182 21.4537 15.1132 21.4283 15.1081C20.947 15.0119 20.2458 14.8845 19.356 14.7574C18.6443 14.6557 17.8114 14.5541 16.8736 14.4689C16.9563 13.6752 17 12.8488 17 11.9999C17 11.1511 16.9563 10.3247 16.8736 9.53101C17.8114 9.44575 18.6443 9.3442 19.356 9.24252C20.2458 9.11541 20.947 8.988 21.4283 8.89175L21.5026 8.87678C21.8254 9.85944 22 10.9093 22 11.9999C22 13.0906 21.8254 14.1405 21.5026 15.1231ZM15.3774 14.3544C14.3423 14.29 13.2112 14.2498 12 14.2498C10.7888 14.2498 9.65768 14.29 8.62264 14.3544C8.54292 13.604 8.5 12.8158 8.5 11.9999C8.5 11.184 8.54292 10.3959 8.62264 9.64544C9.65768 9.70987 10.7888 9.75006 12 9.75006C13.2112 9.75006 14.3423 9.70987 15.3774 9.64544C15.4571 10.3959 15.5 11.184 15.5 11.9999C15.5 12.8158 15.4571 13.604 15.3774 14.3544ZM7.12644 14.4689C7.04371 13.6752 7 12.8488 7 11.9999C7 11.1511 7.04371 10.3247 7.12644 9.53101C6.18855 9.44576 5.35567 9.3442 4.64391 9.24252C3.75411 9.11541 3.0529 8.988 2.57164 8.89175L2.49737 8.87679C2.1746 9.85944 2 10.9093 2 11.9999C2 13.0906 2.1746 14.1404 2.49737 15.1231C2.52151 15.1182 2.54627 15.1132 2.57164 15.1081C3.0529 15.0119 3.75411 14.8845 4.64391 14.7574C5.35567 14.6557 6.18855 14.5541 7.12644 14.4689ZM3.08556 16.536C4.3967 19.1076 6.78788 21.0365 9.66132 21.725C8.60191 20.4893 7.76855 18.4404 7.33316 15.9563C6.39372 16.0404 5.56229 16.1414 4.85604 16.2423C4.12479 16.3468 3.52826 16.451 3.08556 16.536ZM12 8.25006C10.8687 8.25006 9.80972 8.21401 8.83696 8.15574C9.07077 6.8815 9.41442 5.7568 9.83002 4.84247C10.6891 2.95258 11.5692 2.49994 12 2.49994C12.4308 2.49994 13.3109 2.95258 14.17 4.84247C14.5856 5.75679 14.9292 6.8815 15.163 8.15573C14.1903 8.21401 13.1313 8.25006 12 8.25006ZM19.1439 7.7576C19.8752 7.65313 20.4717 7.54888 20.9144 7.46391C19.6033 4.89233 17.2121 2.96339 14.3387 2.2749C15.3981 3.51054 16.2315 5.5595 16.6668 8.04357C17.6063 7.95951 18.4377 7.85849 19.1439 7.7576ZM4.85604 7.7576C5.56229 7.85849 6.39372 7.95952 7.33316 8.04357C7.76855 5.55951 8.60191 3.51054 9.66132 2.2749C6.78789 2.96339 4.3967 4.89233 3.08556 7.46392C3.52826 7.54889 4.12479 7.65314 4.85604 7.7576Z" fill="#FEFEFE"/>
</svg>
