<svg width="24" height="24" viewBox="0 0 24 24" fill="none" xmlns="http://www.w3.org/2000/svg">
<circle cx="12" cy="12" r="12" fill="#4F9F7D"/>
<path fill-rule="evenodd" clip-rule="evenodd" d="M6.41861 5.86047V8.55815H10.4651L10.4651 10.3721C8.97675 10.3256 4.84617 10.9302 4.7442 11.814C4.60466 13.0233 8.83722 13.4884 10.4651 13.4884V19.2093L12.1861 19.2093H13.3954V13.5349C15.0698 13.5039 18.9768 13.0233 19.2093 12C19.4402 10.9839 15.6506 10.4112 13.4419 10.3273V8.55815L17.4884 8.60466V5.86047H6.41861ZM13.4419 10.5582V12.5116C12.4372 12.6977 11.0388 12.5892 10.4651 12.5116V10.5777C8.39597 10.6187 5.70196 10.9685 5.44187 11.6744C5.0618 12.706 9.67443 13.0698 12.1861 13.0698C13.938 13.1318 17.6279 12.8837 18.4186 12C19.2032 11.1231 15.4538 10.5668 13.4419 10.5582Z" fill="white"/>
</svg>
