<svg width="24" height="24" viewBox="0 0 24 24" fill="none" xmlns="http://www.w3.org/2000/svg">
<path fill-rule="evenodd" clip-rule="evenodd" d="M8.85759 8.99992V13.2856H10.8576V9.41413L13.9933 6.27845C15.0229 5.24882 16.6923 5.24882 17.7219 6.27845C18.7515 7.30809 18.7515 8.97746 17.7219 10.0071L16.8648 10.8642L18.279 12.2785L19.1361 11.4213C20.9468 9.61062 20.9468 6.67493 19.1361 4.86424C17.3254 3.05355 14.3897 3.05355 12.5791 4.86424L9.15049 8.29281C8.96295 8.48035 8.85759 8.7347 8.85759 8.99992ZM15.1424 15.0001V10.7143H13.1424V14.5858L10.0067 17.7215C8.97709 18.7512 7.30772 18.7512 6.27809 17.7215C5.24845 16.6919 5.24845 15.0225 6.27809 13.9929L7.13523 13.1357L5.72102 11.7215L4.86387 12.5787C3.05319 14.3894 3.05319 17.3251 4.86387 19.1357C6.67456 20.9464 9.61026 20.9464 11.4209 19.1357L14.8495 15.7072C15.0371 15.5196 15.1424 15.2653 15.1424 15.0001Z" fill="#FEFEFE"/>
</svg>
