<svg width="117" height="24" viewBox="0 0 117 24" fill="none" xmlns="http://www.w3.org/2000/svg">
<g clip-path="url(#clip0_1_329)">
<path fill-rule="evenodd" clip-rule="evenodd" d="M28.0317 3.48483C28.0362 3.50828 28.0444 3.53085 28.0561 3.5517C28.0622 3.90673 28.0695 4.26063 28.0828 4.62539C28.0934 5.85583 28.1035 7.08707 28.1132 8.31915C28.1238 9.56497 28.1339 10.8108 28.1436 12.0566C28.1473 12.5565 28.1503 13.0563 28.1532 13.5561C28.1572 14.2223 28.1612 14.8885 28.1668 15.5546C28.1644 15.7348 28.1762 15.9149 28.202 16.0933C28.5254 17.9973 29.4531 19.5146 31.1017 20.5591C32.2228 21.2691 33.4654 21.663 34.7603 21.9062C36.6956 22.252 38.67 22.324 40.6255 22.1202C40.7385 22.1093 40.7471 22.0606 40.7471 21.9682C40.7423 20.5141 40.7423 19.0575 40.7471 17.5985C40.7471 17.4805 40.7106 17.461 40.6036 17.461C39.8419 17.4543 39.0832 17.3645 38.3409 17.1936C37.3415 16.948 36.4223 16.548 35.6989 15.7905C35.018 15.078 34.6375 14.2378 34.6436 13.2373C34.6516 12.0011 34.6516 10.7646 34.6436 9.52766C34.6423 9.36235 34.6946 9.33682 34.8429 9.33682H39.6249C39.738 9.33682 39.7744 9.31369 39.7744 9.19209C39.7687 7.76955 39.7687 6.34784 39.7744 4.92692C39.7744 4.79561 39.738 4.77615 39.6164 4.77615C37.9823 4.78223 36.3384 4.78223 34.6995 4.78223C34.5681 4.78223 34.5232 4.75914 34.5232 4.61444V0.769942L34.5154 0.768757L34.5207 0.766204L34.5268 0.727295H28.0317V3.48483ZM1.28529 21.5192C1.0995 21.7064 0.913346 21.894 0.727528 22.0849C0.723833 22.1487 0.760866 22.1436 0.793804 22.1391C0.80419 22.1377 0.814204 22.1363 0.822364 22.1372H8.7144C8.74916 22.1376 8.78349 22.1302 8.81506 22.1157C8.84655 22.1012 8.87447 22.0799 8.8968 22.0533L11.1388 19.7529C11.7873 19.0858 12.4357 18.4179 13.0841 17.7492L13.0878 17.7456C13.132 17.7013 13.1625 17.6707 13.2252 17.737C13.5468 18.0787 13.8726 18.4133 14.1977 18.7472L14.2879 18.8398C15.3254 19.9106 16.3601 20.9837 17.3919 22.0594C17.4165 22.0868 17.4471 22.1082 17.4812 22.1222C17.5153 22.1361 17.5521 22.1421 17.5889 22.1396H25.4518C25.4596 22.1396 25.4683 22.141 25.4772 22.1423C25.5064 22.1468 25.5388 22.1517 25.5612 22.1117L25.5476 22.0965C25.5393 22.0872 25.531 22.0778 25.5223 22.0691L23.0675 19.5328C21.7657 18.1881 20.4639 16.8426 19.1622 15.4962C18.5551 14.8656 17.9451 14.2366 17.3324 13.6093C17.2521 13.5205 17.2204 13.4609 17.3324 13.3661C17.4397 13.2684 17.5412 13.1645 17.6363 13.0548C18.5563 12.1065 19.4759 11.1573 20.3951 10.2073L24.7441 5.70625L25.5952 4.82111H25.4165H17.6436C17.5873 4.8192 17.5314 4.82989 17.4799 4.8524C17.4284 4.87491 17.3825 4.90867 17.3457 4.95121C16.9244 5.39709 16.4994 5.83636 16.0748 6.27531L16.074 6.27602C15.9524 6.40172 15.8306 6.52761 15.7092 6.6534C15.49 6.87976 15.2707 7.10568 15.0513 7.33159C14.4554 7.94533 13.8596 8.559 13.2678 9.18111C13.1753 9.27479 13.1389 9.26991 13.0537 9.18111C12.8266 8.94548 12.6007 8.71064 12.3751 8.47617L12.371 8.47188L12.37 8.47086C12.0492 8.1374 11.7292 7.80475 11.4075 7.47166C10.588 6.62867 9.76975 5.78407 8.95273 4.93783C8.92291 4.90267 8.8856 4.87468 8.84349 4.85595C8.80138 4.83721 8.75564 4.82821 8.70953 4.82962H5.10092H0.891666C0.880677 4.82962 0.868386 4.82708 0.855717 4.82447C0.816546 4.81638 0.77387 4.80756 0.755491 4.87096C1.35855 5.48051 1.95594 6.09248 2.54765 6.70689L6.42133 10.7119C7.28946 11.6124 8.1592 12.513 9.03055 13.4135C9.08887 13.4719 9.08524 13.501 9.03055 13.5557C8.89011 13.6926 8.75564 13.8327 8.62073 13.9733C8.57229 14.0237 8.52378 14.0743 8.47491 14.1247L4.155 18.5748C3.36794 19.3853 2.58007 20.1959 1.7914 21.0064C1.62335 21.1786 1.45447 21.3487 1.28529 21.5192ZM77.1644 6.50618C76.5047 6.87493 75.8756 7.29573 75.2829 7.7646C75.2815 7.72999 75.28 7.71071 75.2785 7.69639L75.2771 7.68068V4.93287C75.2785 4.81615 75.2604 4.77481 75.1273 4.77481C73.3935 4.77967 71.6599 4.77967 69.9262 4.77481C69.7997 4.77481 69.7718 4.81007 69.7718 4.93165V22.0751C69.7705 22.204 69.8095 22.2271 69.9311 22.2271C71.6599 22.2214 73.3891 22.2214 75.1178 22.2271C75.2575 22.2271 75.2771 22.1808 75.2771 22.0593V15.0779C75.2764 14.993 75.2887 14.9085 75.3135 14.8274C75.568 14.0272 75.9993 13.2946 76.5753 12.6839C77.4269 11.7501 78.4771 11.0838 79.6153 10.5501C80.8378 9.98002 82.1273 9.56584 83.4538 9.31719C83.5498 9.299 83.584 9.2686 83.584 9.16526V8.57922V4.91585C83.584 4.82831 83.584 4.76143 83.4618 4.77238C83.3796 4.77846 83.296 4.7789 83.2124 4.77935C83.1455 4.77972 83.0785 4.78008 83.0124 4.78332C80.9549 4.89232 78.952 5.48242 77.1644 6.50618ZM91.4749 15.7757V22.0665C91.4749 22.2051 91.4371 22.2282 91.3084 22.2282H86.3171C86.1956 22.2282 86.1593 22.2015 86.1593 22.0738V9.42904C86.1593 9.30744 86.1956 9.2734 86.3171 9.2734H91.3091C91.4393 9.2734 91.4749 9.30257 91.4749 9.43631C91.472 11.5495 91.472 13.6626 91.4749 15.7757ZM57.4236 14.9758H47.7856C47.6957 14.9758 47.6505 14.9758 47.6309 14.9982C47.6111 15.021 47.6177 15.0669 47.6312 15.1594C47.8111 16.4093 48.6452 17.2494 49.8964 17.4087C50.266 17.4383 50.6372 17.4448 51.0076 17.4282H54.767C55.2029 17.4282 55.6388 17.43 56.0747 17.4318C56.5105 17.4336 56.9464 17.4354 57.3823 17.4354C58.0935 17.4354 58.8049 17.4354 59.5161 17.4197C60.011 17.4099 60.4474 17.202 60.8705 16.971C61.1783 16.8024 61.4711 16.6079 61.746 16.3898C61.7708 16.3634 61.8043 16.347 61.8404 16.3436C61.8764 16.3402 61.9125 16.3502 61.9417 16.3716C63.2629 17.1141 64.5866 17.8533 65.9127 18.5893C66.0111 18.6428 66.01 18.6805 65.9613 18.768C65.1212 20.2538 63.8615 21.241 62.2931 21.8636C61.9631 21.9956 61.6233 22.1013 61.2767 22.1797C61.1695 22.205 61.0597 22.2176 60.9496 22.2174C59.583 22.2174 58.2164 22.2165 56.8498 22.2157C54.1165 22.2141 51.3833 22.2125 48.6501 22.2174C47.6177 22.2203 46.6044 21.938 45.7223 21.4016C44.4287 20.6343 43.5812 19.4975 43.0365 18.1188C42.6704 17.1549 42.4472 16.1428 42.3739 15.1144C42.2786 14.0678 42.2977 13.0139 42.4311 11.9714C42.6742 10.1416 43.2821 8.46737 44.5466 7.08009C45.5668 5.94824 46.9123 5.15995 48.3984 4.82348C48.491 4.8029 48.5857 4.79311 48.6805 4.79431C49.8363 4.79431 50.9919 4.7929 52.1476 4.79149C55.1521 4.78783 58.1563 4.78417 61.1612 4.80524C62.4366 4.81376 63.5564 5.32684 64.5011 6.18888C65.4032 7.01201 65.9796 8.04548 66.3966 9.17624C66.7908 10.2845 67.0457 11.4374 67.1553 12.6085C67.2347 13.3445 67.2668 14.0849 67.2513 14.825C67.2513 14.9563 67.21 14.9746 67.092 14.9746C63.8692 14.9738 60.6465 14.9742 57.4236 14.9758ZM54.8948 11.4158H47.7687C47.6804 11.4158 47.6358 11.4158 47.6156 11.3935C47.595 11.3707 47.6001 11.3245 47.6106 11.231C47.7006 10.4431 48.1821 9.94584 48.8435 9.58475C49.1456 9.41646 49.4863 9.32977 49.832 9.33304C53.3174 9.34279 56.8052 9.34279 60.2956 9.33304C60.5361 9.32671 60.7747 9.37871 60.9909 9.48453C61.2071 9.59042 61.3944 9.747 61.5369 9.94097C61.8425 10.3508 62.062 10.8181 62.1825 11.3149C62.2008 11.3842 62.1947 11.4218 62.1108 11.4121C62.076 11.4103 62.0411 11.4103 62.0063 11.4121L54.8948 11.4158Z" fill="#FEFEFE"/>
<path fill-rule="evenodd" clip-rule="evenodd" d="M113.607 20.3967C115.256 18.4976 116.165 16.0678 116.167 13.5527C116.167 12.5709 116.028 11.5941 115.756 10.6507C114.06 4.69733 107.535 1.52671 101.775 3.85483C100.791 4.25237 99.912 4.8189 99.0611 5.44379C98.0327 6.20848 96.8604 6.43583 95.6007 6.20848C94.6284 6.03342 93.7615 5.62129 92.9266 5.135C92.5011 4.88875 92.1782 4.49785 92.0167 4.03354C91.9804 3.93339 91.9556 3.82734 91.9309 3.72084C91.9135 3.64636 91.896 3.57167 91.8749 3.49863C91.6633 2.78464 91.2087 2.16719 90.5898 1.75339C89.9709 1.3396 89.2262 1.15559 88.4858 1.23329C87.7455 1.31098 87.0553 1.64548 86.5353 2.17874C86.016 2.712 85.6989 3.41038 85.6407 4.15268C85.4495 6.44312 87.7244 8.18768 89.8873 7.39866C90.1847 7.28455 90.5033 7.23731 90.8218 7.2602C91.1396 7.2831 91.448 7.37561 91.7266 7.53117C92.3389 7.84717 92.9178 8.22346 93.4553 8.65452C94.7804 9.74142 95.432 11.1054 95.2786 12.8415C95.1811 14.0679 95.3164 15.3017 95.6778 16.4777C96.384 18.8916 97.9367 20.9701 100.051 22.3319C102.165 23.6937 104.7 24.2478 107.19 23.8923C109.679 23.5368 111.958 22.2958 113.607 20.3967ZM101.286 10.6688C100.707 11.5355 100.397 12.5545 100.397 13.5971C100.399 14.9933 100.954 16.3318 101.94 17.3198C102.927 18.3078 104.265 18.8646 105.661 18.8685C106.703 18.8696 107.723 18.5616 108.591 17.9833C109.458 17.405 110.135 16.5824 110.535 15.6196C110.934 14.6568 111.039 13.597 110.837 12.5743C110.634 11.5516 110.133 10.612 109.396 9.8743C108.66 9.13655 107.721 8.63393 106.698 8.42993C105.676 8.22601 104.616 8.32979 103.652 8.72833C102.689 9.12688 101.865 9.80215 101.286 10.6688Z" fill="url(#paint0_linear_1_329)"/>
</g>
<defs>
<linearGradient id="paint0_linear_1_329" x1="85.6291" y1="1.21588" x2="116.167" y2="24.1195" gradientUnits="userSpaceOnUse">
<stop stop-color="#CBF2FE"/>
<stop offset="0.390625" stop-color="#7DD5F9"/>
<stop offset="0.734529" stop-color="#E6B1F7"/>
<stop offset="1" stop-color="#E1DFA2"/>
</linearGradient>
<clipPath id="clip0_1_329">
<rect width="116.364" height="24" fill="white"/>
</clipPath>
</defs>
</svg>
