<svg width="64" height="64" viewBox="0 0 64 64" fill="none" xmlns="http://www.w3.org/2000/svg">
<path fill-rule="evenodd" clip-rule="evenodd" d="M8.5 9.5H53.5V26.2333H48.5V14.5H13.5V47.2941L18.1294 44.1667H30.3421V49.1667H19.66L8.5 56.7059V9.5ZM45 34C44.4477 34 44 34.4477 44 35C44 35.5523 44.4477 36 45 36C45.5523 36 46 35.5523 46 35C46 34.4477 45.5523 34 45 34ZM39 35C39 31.6863 41.6863 29 45 29C48.3137 29 51 31.6863 51 35C51 38.3137 48.3137 41 45 41C41.6863 41 39 38.3137 39 35ZM38.6758 52.1129L39.3739 49.786C39.3859 49.7592 39.411 49.7064 39.4529 49.6347C39.5529 49.4632 39.7477 49.1843 40.0901 48.8865C40.7318 48.3285 42.1279 47.5 44.9997 47.5C47.8714 47.5 49.2675 48.3285 49.9092 48.8865C50.2516 49.1843 50.4464 49.4632 50.5465 49.6347C50.5883 49.7064 50.6134 49.7592 50.6254 49.786L51.3235 52.1129L56.1126 50.6762C56.0298 50.4002 55.953 50.1213 55.8762 49.8421L55.8761 49.8418C55.6178 48.9029 55.3586 47.9609 54.8654 47.1153C54.5279 46.5368 53.9977 45.8157 53.1901 45.1135C51.5318 43.6715 48.9279 42.5 44.9997 42.5C41.0714 42.5 38.4675 43.6715 36.8092 45.1135C36.0016 45.8157 35.4714 46.5368 35.134 47.1153C34.9655 47.404 34.8448 47.6577 34.7607 47.8572C34.4931 48.4923 34.3093 49.1621 34.1262 49.8294C34.0484 50.1131 33.9707 50.3963 33.8867 50.6762L38.6758 52.1129ZM20.5 22.5H41.5V27.5H20.5V22.5ZM29.5 32.5H20.5V37.5H29.5V32.5Z" fill="#FEFEFE"/>
</svg>
