<svg width="24" height="24" viewBox="0 0 24 24" fill="none" xmlns="http://www.w3.org/2000/svg">
<path fill-rule="evenodd" clip-rule="evenodd" d="M6 15.3511C5.95334 15.3523 5.90657 15.3529 5.85973 15.3529C5.19892 15.3529 4.57397 15.2365 4 15.0256V19H3V21H21V19H20V15.0256C19.426 15.2365 18.8011 15.3529 18.1402 15.3529C18.0934 15.3529 18.0467 15.3523 18 15.3511V19H6V15.3511Z" fill="#FEFEFE"/>
<path d="M4.88235 3H19.1176L21.2936 8.80261C22.1193 11.0043 20.4917 13.3529 18.1403 13.3529L-nan -nanL18.1403 13.3529C16.9424 13.3529 15.8348 12.7167 15.2312 11.6821L15.0735 11.4118L14.8462 11.7754C14.2329 12.7568 13.1573 13.3529 12 13.3529L-nan -nanL12 13.3529C10.8427 13.3529 9.7671 12.7568 9.15375 11.7754L8.92647 11.4118L8.76879 11.6821C8.16524 12.7167 7.05757 13.3529 5.85975 13.3529L-nan -nanL5.85975 13.3529C3.50832 13.3529 1.88073 11.0043 2.70637 8.80261L4.88235 3Z" fill="#FEFEFE"/>
</svg>
