<svg width="24" height="24" viewBox="0 0 24 24" fill="none" xmlns="http://www.w3.org/2000/svg">
<path fill-rule="evenodd" clip-rule="evenodd" d="M10.3777 2.08179L8.70469 3.56535L9.23363 5.53937C6.08126 6.88664 4.31906 10.3802 5.23145 13.7852L6.27378 17.6753L5.70299 20.9341L21.9204 16.5886L19.7967 14.0518L18.7544 10.1618C17.8414 6.75424 14.5664 4.61248 11.1655 5.02165L10.3777 2.08179ZM10.0196 7.37845L10.6857 7.09379L11.4044 7.00733C13.8317 6.71528 16.1709 8.24718 16.8226 10.6794L17.9793 14.9965L18.3742 15.4683L8.21394 18.1907L8.32008 17.5847L7.1633 13.2676C6.51202 10.837 7.76969 8.34003 10.0196 7.37845ZM15.5238 19.5967L10.2866 21L9.57744 23.0017L14.8146 21.5985L15.5238 19.5967Z" fill="#FEFEFE"/>
</svg>
