<svg width="24" height="24" viewBox="0 0 24 24" fill="none" xmlns="http://www.w3.org/2000/svg">
<path d="M6.66026 3C10.4866 0.790872 15.3798 2.10148 17.589 5.92773L21.089 11.9902L22.8204 10.9902L23.8204 12.7227L6.5001 22.7227L5.5001 20.9902L7.23252 19.9902L3.73252 13.9277C1.5235 10.1014 2.83398 5.20912 6.66026 3ZM19.7579 19.6865L14.5626 22.6865L13.5626 20.9541L18.7579 17.9541L19.7579 19.6865ZM15.8565 6.92773C14.1996 4.05819 10.5299 3.07563 7.66026 4.73242C4.79078 6.38925 3.80747 10.0581 5.46397 12.9277L8.96397 18.9902L19.3565 12.9902L15.8565 6.92773ZM12.7813 7.94043L12.1134 10.4355L14.6075 11.1035L14.1583 12.7822L13.6749 12.6523L11.6632 12.1143L11.1241 14.125L10.9952 14.6084L9.31651 14.1582L9.98545 11.6641L7.49033 10.9951L7.94053 9.31738L10.4347 9.98535L11.1036 7.49121L12.7813 7.94043ZM8.10264 10.6416L10.5978 11.3105L9.92881 13.8047L10.6417 13.9961L9.92979 13.8047L10.5978 11.3105L8.10361 10.6416L8.29404 9.92969L8.10264 10.6416Z" fill="#FEFEFE"/>
</svg>
