<svg width="24" height="24" viewBox="0 0 24 24" fill="none" xmlns="http://www.w3.org/2000/svg">
<g clip-path="url(#clip0_222_822)">
<path fill-rule="evenodd" clip-rule="evenodd" d="M21 12C21 16.9706 16.9706 21 12 21C7.02944 21 3 16.9706 3 12C3 7.02944 7.02944 3 12 3C16.9706 3 21 7.02944 21 12ZM23 12C23 18.0751 18.0751 23 12 23C5.92487 23 1 18.0751 1 12C1 5.92487 5.92487 1 12 1C18.0751 1 23 5.92487 23 12ZM7.40419 8.00347C7.146 7.98463 6.88801 8.04277 6.66287 8.17054C6.43772 8.29832 6.25551 8.48999 6.1393 8.72132C6.02308 8.95264 5.97808 9.21324 6.00997 9.47015C6.04186 9.72705 6.14922 9.96873 6.31847 10.1646C6.48772 10.3605 6.71125 10.5018 6.96081 10.5707C7.21037 10.6395 7.47474 10.6328 7.72048 10.5514C7.75033 10.5415 7.77974 10.5306 7.80866 10.5186C7.80866 10.5186 8.14691 10.3833 8.55748 10.6235L8.60675 10.6521C9.06245 10.9165 10.0334 11.4799 9.9698 12.6572C9.9516 12.8465 9.94575 13.0391 9.95304 13.2343C10.0416 15.6051 12.0353 17.4552 14.4061 17.3666C16.7769 17.278 18.6269 15.2843 18.5384 12.9135C18.4498 10.5428 16.4561 8.69269 14.0853 8.78128C13.1296 8.817 12.2585 9.16231 11.5649 9.71711V9.71327C10.5704 10.4499 9.57194 9.92469 9.10946 9.68141L9.07946 9.66565C8.65837 9.44458 8.59721 9.07812 8.59721 9.07812C8.55606 8.84881 8.45406 8.63258 8.29917 8.45331C8.07225 8.19067 7.75035 8.02887 7.40419 8.00347ZM13.4498 15.1145C12.3345 14.6842 11.7792 13.4311 12.2096 12.3158C12.6399 11.2005 13.893 10.6452 15.0083 11.0756C16.1236 11.5059 16.6789 12.759 16.2485 13.8743C15.8182 14.9896 14.5651 15.5449 13.4498 15.1145Z" fill="#FEFEFE"/>
<path d="M7.80899 10.5187L7.85794 10.5295L7.87854 10.4358L7.78984 10.4724L7.80899 10.5187ZM7.80899 10.5187L7.7599 10.5085L7.73956 10.6011L7.82754 10.5658L7.80899 10.5187ZM9.97013 12.6573L10.02 12.6621L10.0202 12.66L9.97013 12.6573ZM11.5652 9.71719L11.5151 9.71698L11.5146 9.82184L11.5965 9.75634L11.5652 9.71719ZM11.5652 9.71335L11.6153 9.71357L11.6158 9.61353L11.5354 9.67307L11.5652 9.71335ZM8.59754 9.0782L8.64698 9.06995L8.63146 8.977L8.56306 9.04181L8.59754 9.0782ZM8.59754 9.0782L8.54817 9.08708L8.56458 9.17848L8.632 9.11461L8.59754 9.0782ZM12.0003 21.0502C16.9985 21.0502 21.0504 16.9983 21.0504 12.0001H20.9502C20.9502 16.943 16.9432 20.95 12.0003 20.95V21.0502ZM2.9502 12.0001C2.9502 16.9983 7.00208 21.0502 12.0003 21.0502V20.95C7.05745 20.95 3.05046 16.943 3.05046 12.0001H2.9502ZM12.0003 2.94995C7.00208 2.94995 2.9502 7.00183 2.9502 12.0001H3.05046C3.05046 7.0572 7.05745 3.05021 12.0003 3.05021V2.94995ZM21.0504 12.0001C21.0504 7.00183 16.9985 2.94995 12.0003 2.94995V3.05021C16.9432 3.05021 20.9502 7.0572 20.9502 12.0001H21.0504ZM12.0003 23.0502C18.1031 23.0502 23.0504 18.1029 23.0504 12.0001H22.9502C22.9502 18.0475 18.0477 22.95 12.0003 22.95V23.0502ZM0.950195 12.0001C0.950195 18.1029 5.89751 23.0502 12.0003 23.0502V22.95C5.95288 22.95 1.05046 18.0475 1.05046 12.0001H0.950195ZM12.0003 0.949951C5.89751 0.949951 0.950195 5.89726 0.950195 12.0001H1.05046C1.05046 5.95263 5.95288 1.05021 12.0003 1.05021V0.949951ZM23.0504 12.0001C23.0504 5.89726 18.1031 0.949951 12.0003 0.949951V1.05021C18.0477 1.05021 22.9502 5.95263 22.9502 12.0001H23.0504ZM6.68794 8.21422C6.90446 8.09134 7.15257 8.03543 7.40087 8.05355L7.40819 7.95356C7.14011 7.93399 6.87222 7.99436 6.63845 8.12702L6.68794 8.21422ZM6.18442 8.7439C6.29619 8.52143 6.47141 8.3371 6.68794 8.21422L6.63845 8.12702C6.40468 8.25969 6.2155 8.4587 6.09483 8.69889L6.18442 8.7439ZM6.06005 9.46405C6.02938 9.21698 6.07266 8.96637 6.18442 8.7439L6.09483 8.69889C5.97417 8.93908 5.92743 9.20966 5.96055 9.4764L6.06005 9.46405ZM6.35673 10.132C6.19397 9.94354 6.09072 9.71112 6.06005 9.46405L5.96055 9.4764C5.99367 9.74315 6.10513 9.99409 6.28087 10.1975L6.35673 10.132ZM6.97447 10.5224C6.73447 10.4562 6.5195 10.3203 6.35673 10.132L6.28087 10.1975C6.4566 10.4009 6.68869 10.5476 6.94781 10.6191L6.97447 10.5224ZM7.70505 10.5039C7.46871 10.5822 7.21447 10.5886 6.97447 10.5224L6.94781 10.6191C7.20692 10.6906 7.48142 10.6836 7.73658 10.5991L7.70505 10.5039ZM7.78984 10.4724C7.76202 10.4839 7.73375 10.4944 7.70505 10.5039L7.73658 10.5991C7.76756 10.5888 7.79751 10.5782 7.82754 10.5658L7.78984 10.4724ZM8.58312 10.5803C8.36862 10.4548 8.17183 10.4271 8.02792 10.4313C7.95611 10.4334 7.89759 10.4434 7.85666 10.453C7.83616 10.4579 7.82004 10.4626 7.80879 10.4662C7.80317 10.468 7.79878 10.4696 7.79565 10.4707C7.79409 10.4713 7.79285 10.4717 7.79193 10.4721C7.79148 10.4723 7.79013 10.4723 7.78984 10.4724C7.7897 10.4725 7.78995 10.4723 7.78984 10.4724C7.78981 10.4724 7.79032 10.4722 7.80899 10.5187C7.82767 10.5652 7.82756 10.5658 7.82754 10.5658C7.82793 10.5657 7.82886 10.5653 7.82986 10.565C7.8319 10.5642 7.83517 10.5631 7.8396 10.5616C7.84847 10.5588 7.86199 10.5548 7.87964 10.5506C7.91498 10.5423 7.96672 10.5334 8.03083 10.5315C8.15874 10.5278 8.33644 10.5522 8.5325 10.6668L8.58312 10.5803ZM8.63229 10.6089L8.58312 10.5803L8.5325 10.6668L8.58187 10.6956L8.63229 10.6089ZM10.0202 12.66C10.0855 11.4488 9.08481 10.8714 8.63229 10.6089L8.58187 10.6956C9.04074 10.9618 9.9818 11.5111 9.92006 12.6546L10.0202 12.66ZM10.0034 13.2326C9.99626 13.0396 10.002 12.8492 10.02 12.6621L9.92023 12.6525C9.9018 12.844 9.8959 13.0389 9.90328 13.2363L10.0034 13.2326ZM14.4045 17.3166C12.0614 17.4042 10.091 15.5757 10.0034 13.2326L9.90328 13.2363C9.9929 15.6348 12.0098 17.5064 14.4083 17.4168L14.4045 17.3166ZM18.4886 12.9155C18.5761 15.2586 16.7476 17.229 14.4045 17.3166L14.4083 17.4168C16.8067 17.3272 18.6784 15.3102 18.5888 12.9118L18.4886 12.9155ZM14.0875 8.83146C16.4306 8.7439 18.401 10.5724 18.4886 12.9155L18.5888 12.9118C18.4991 10.5133 16.4822 8.64165 14.0837 8.73127L14.0875 8.83146ZM11.5965 9.75634C12.282 9.20802 13.1428 8.86676 14.0875 8.83146L14.0837 8.73127C13.1169 8.7674 12.2356 9.11676 11.5339 9.67805L11.5965 9.75634ZM11.5151 9.71314V9.71698L11.6153 9.7174V9.71357L11.5151 9.71314ZM9.08644 9.72586C9.5465 9.96786 10.573 10.5106 11.5951 9.75364L11.5354 9.67307C10.5683 10.3893 9.59803 9.88168 9.13311 9.63713L9.08644 9.72586ZM9.05647 9.7101L9.08644 9.72586L9.13311 9.63713L9.10311 9.62136L9.05647 9.7101ZM8.59754 9.0782C8.54809 9.08646 8.54817 9.08705 8.54817 9.08708C8.54817 9.08706 8.54817 9.08709 8.54817 9.08708C8.54822 9.08739 8.54833 9.08783 8.54842 9.08832C8.54859 9.08929 8.54885 9.09061 8.54918 9.09226C8.54985 9.09556 8.55084 9.10019 8.55223 9.10602C8.55501 9.11768 8.55939 9.13416 8.566 9.15444C8.5792 9.19498 8.60131 9.25088 8.6372 9.31388C8.70912 9.44014 8.83618 9.59445 9.05647 9.7101L9.10311 9.62136C8.9023 9.51593 8.78824 9.37649 8.72431 9.26425C8.69227 9.208 8.67275 9.15847 8.66133 9.12339C8.65562 9.10587 8.65196 9.09199 8.64974 9.08274C8.64864 9.07812 8.6479 9.07466 8.64746 9.07249C8.64724 9.0714 8.64706 9.07038 8.64698 9.06995C8.64698 9.06997 8.64698 9.06995 8.59754 9.0782ZM8.26157 8.48616C8.41053 8.65857 8.50861 8.86654 8.54817 9.08708L8.64698 9.06995C8.60426 8.83186 8.49826 8.60675 8.33743 8.42062L8.26157 8.48616ZM7.40087 8.05355C7.73377 8.07798 8.04334 8.23358 8.26157 8.48616L8.33743 8.42062C8.10183 8.14792 7.76759 7.97993 7.40819 7.95356L7.40087 8.05355ZM12.1631 12.2978C11.7228 13.439 12.2909 14.7211 13.432 15.1614L13.4681 15.0679C12.3786 14.6475 11.8362 13.4234 12.2566 12.3339L12.1631 12.2978ZM15.0267 11.0289C13.8855 10.5885 12.6034 11.1567 12.1631 12.2978L12.2566 12.3339C12.677 11.2444 13.9011 10.702 14.9906 11.1224L15.0267 11.0289ZM16.2956 13.8924C16.7359 12.7513 16.1678 11.4692 15.0267 11.0289L14.9906 11.1224C16.0801 11.5428 16.6225 12.7669 16.2021 13.8564L16.2956 13.8924ZM13.432 15.1614C14.5732 15.6017 15.8553 15.0336 16.2956 13.8924L16.2021 13.8564C15.7817 14.9459 14.5576 15.4883 13.4681 15.0679L13.432 15.1614Z" fill="#FEFEFE"/>
</g>
<defs>
<clipPath id="clip0_222_822">
<rect width="24" height="24" fill="white"/>
</clipPath>
</defs>
</svg>
