<svg width="16" height="16" viewBox="0 0 16 16" fill="none" xmlns="http://www.w3.org/2000/svg">
<path fill-rule="evenodd" clip-rule="evenodd" d="M9.06208 3.11C9.42572 2.73387 9.9356 2.5 10.5001 2.5C11.6046 2.5 12.5001 3.39543 12.5001 4.5V4.75405C12.5001 5.20578 12.3206 5.63901 12.0012 5.95843L11.7059 6.25379C11.3607 6.59897 11.1667 7.06714 11.1667 7.5553C11.1667 8.6313 11.7978 9.60726 12.779 10.0488L14.7949 10.956L15.2053 10.044L13.1894 9.13689C12.567 8.85683 12.1667 8.23779 12.1667 7.5553C12.1667 7.33236 12.2553 7.11854 12.413 6.9609L12.7083 6.66553C13.2153 6.15858 13.5001 5.471 13.5001 4.75405V4.5C13.5001 2.84315 12.1569 1.5 10.5001 1.5C9.589 1.5 8.77275 1.90615 8.22255 2.54728C8.52268 2.70527 8.80394 2.89427 9.06208 3.11ZM3.72232 6.77778C3.72232 5.5198 4.74212 4.5 6.0001 4.5C7.25808 4.5 8.27788 5.5198 8.27788 6.77778V7.06006C8.27788 7.57671 8.07264 8.07221 7.70731 8.43754L7.37913 8.76572C7.00601 9.13883 6.7964 9.64489 6.7964 10.1726C6.7964 11.3462 7.48474 12.4108 8.55505 12.8925L10.7949 13.9004L11.2053 12.9885L8.96542 11.9805C8.25395 11.6604 7.7964 10.9527 7.7964 10.1726C7.7964 9.91011 7.90066 9.65841 8.08624 9.47282L8.41442 9.14464C8.96728 8.59178 9.27788 7.84193 9.27788 7.06006V6.77778C9.27788 4.96751 7.81037 3.5 6.0001 3.5C4.18983 3.5 2.72232 4.96751 2.72232 6.77778V7.06006C2.72232 7.84193 3.03292 8.59178 3.58579 9.14464L3.91397 9.47282C4.09955 9.65841 4.20381 9.91011 4.20381 10.1726C4.20381 10.9527 3.74625 11.6604 3.03479 11.9805L0.794922 12.9885L1.20528 13.9004L3.44515 12.8925C4.51546 12.4108 5.20381 11.3462 5.20381 10.1726C5.20381 9.64489 4.99419 9.13883 4.62107 8.76572L4.29289 8.43754C3.92756 8.07221 3.72232 7.57671 3.72232 7.06006V6.77778Z" fill="#FEFEFE"/>
</svg>
