<svg width="24" height="24" viewBox="0 0 24 24" fill="none" xmlns="http://www.w3.org/2000/svg">
<path fill-rule="evenodd" clip-rule="evenodd" d="M11.5035 1.53019C11.8109 1.35452 12.1883 1.35452 12.4957 1.53019L20.8957 6.33019C21.2073 6.50824 21.3996 6.83958 21.3996 7.19844V16.7984C21.3996 17.1573 21.2073 17.4886 20.8957 17.6667L12.4957 22.4667C12.1883 22.6424 11.8109 22.6424 11.5035 22.4667L3.10347 17.6667C2.7919 17.4886 2.59961 17.1573 2.59961 16.7984V7.19844C2.59961 6.83958 2.7919 6.50824 3.10347 6.33019L11.5035 1.53019ZM4.59961 7.77876V16.2181L11.9996 20.4467L19.3996 16.2181V7.77876L11.9996 3.55019L4.59961 7.77876ZM13 12.5372L16.1552 10.4337C16.6147 10.1274 16.7389 9.5065 16.4325 9.04697C16.1262 8.58744 15.5053 8.46327 15.0458 8.76962L12.0005 10.7998L8.9552 8.76962C8.49567 8.46327 7.8748 8.58744 7.56845 9.04697C7.26209 9.5065 7.38627 10.1274 7.8458 10.4337L11 12.5365V15.6C11 16.1523 11.4477 16.6 12 16.6C12.5523 16.6 13 16.1523 13 15.6V12.5372Z" fill="#FEFEFE"/>
</svg>
