<svg width="24" height="24" viewBox="0 0 24 24" fill="none" xmlns="http://www.w3.org/2000/svg">
<path fill-rule="evenodd" clip-rule="evenodd" d="M9.41782 5.53621C11.1224 5.19529 12.8776 5.19529 14.5822 5.53621L15.3727 5.6943L16.8718 10.9413C16.9568 11.2388 17.1747 11.4802 17.462 11.5951L18.7572 12.1132L17.8209 12.3473C13.9991 13.3027 10.0009 13.3027 6.17916 12.3473L5.2428 12.1132L6.53807 11.5951C6.82532 11.4802 7.04321 11.2388 7.12821 10.9413L8.62736 5.6943L9.41782 5.53621ZM14.9744 3.57504C13.0109 3.18234 10.9891 3.18234 9.02559 3.57504L7.63723 3.85271C7.27007 3.92615 6.97469 4.19855 6.87182 4.55857L5.3399 9.92031L1.62862 11.4048C1.2259 11.5659 0.97294 11.9683 1.00231 12.401C1.03168 12.8338 1.33668 13.1982 1.75748 13.3034L5.42786 14.221L6.87175 19.2746C6.95217 19.5561 7.15192 19.7882 7.41828 19.9097C7.68464 20.0312 7.99086 20.0299 8.25615 19.9061L9.95599 19.1128C11.2516 18.5082 12.7483 18.5082 14.0439 19.1128L15.7437 19.9061C16.009 20.0299 16.3152 20.0312 16.5816 19.9097C16.848 19.7882 17.0477 19.5561 17.1281 19.2746L18.572 14.2211L22.2425 13.3034C22.6633 13.1982 22.9683 12.8338 22.9977 12.401C23.0271 11.9683 22.7741 11.5659 22.3714 11.4048L18.6601 9.92031L17.1282 4.55857C17.0253 4.19855 16.73 3.92615 16.3628 3.85271L14.9744 3.57504ZM16.3562 14.6964C15.9035 14.7733 15.4493 14.8381 14.9941 14.8909C14.998 14.9267 15 14.9631 15 15C15 15.5523 14.5523 16 14 16C13.4627 16 13.0243 15.5762 13.001 15.0446C12.3339 15.0703 11.6661 15.0703 10.999 15.0446C10.9757 15.5762 10.5373 16 10 16C9.44771 16 9 15.5523 9 15C9 14.9631 9.002 14.9267 9.00588 14.8909C8.55061 14.8381 8.09638 14.7733 7.6437 14.6963L8.47273 17.598L9.11022 17.3005C10.9419 16.4457 13.058 16.4457 14.8897 17.3005L15.5271 17.598L16.3562 14.6964Z" fill="#FEFEFE"/>
</svg>
