<svg width="24" height="24" viewBox="0 0 24 24" fill="none" xmlns="http://www.w3.org/2000/svg">
<path fill-rule="evenodd" clip-rule="evenodd" d="M20 5.48806L12 3.08806L4 5.48806V12.4705C4 14.5781 5.1058 16.5311 6.91303 17.6154L12 20.6676L17.087 17.6154C18.8942 16.5311 20 14.5781 20 12.4705V5.48806ZM12 23L18.116 19.3304C20.5256 17.8846 22 15.2806 22 12.4705V4L12 1L2 4V12.4705C2 15.2806 3.47439 17.8846 5.88404 19.3304L12 23ZM13 11.7324C13.5978 11.3866 14 10.7403 14 10C14 8.89543 13.1046 8 12 8C10.8954 8 10 8.89543 10 10C10 10.7403 10.4022 11.3866 11 11.7324V16L13 15V11.7324Z" fill="#FEFEFE"/>
</svg>
