<svg width="24" height="24" viewBox="0 0 24 24" fill="none" xmlns="http://www.w3.org/2000/svg">
<path d="M12.0001 2.6001C12.3574 2.6001 12.6877 2.79066 12.8663 3.1001L21.8663 18.7007C22.0447 19.01 22.0449 19.3914 21.8663 19.7007C21.6876 20.0099 21.3572 20.1997 21.0001 20.1997H3.00008C2.64295 20.1997 2.31255 20.0099 2.13386 19.7007C1.95526 19.3914 1.9555 19.01 2.13386 18.7007L11.1339 3.1001C11.3125 2.79066 11.6428 2.6001 12.0001 2.6001ZM4.73152 18.1997H19.2686L12.0001 5.60107L4.73152 18.1997ZM13.0001 17.0005H11.0001V15.0005H13.0001V17.0005ZM13.0001 13.9995L11.0001 14.0005V9.00049L13.0001 8.99951V13.9995Z" fill="#FEFEFE"/>
</svg>
