<svg width="16" height="16" viewBox="0 0 16 16" fill="none" xmlns="http://www.w3.org/2000/svg">
<path fill-rule="evenodd" clip-rule="evenodd" d="M9.99999 11.9999H5.99999L4.66666 13.9999H0.666656L1.33332 3.9999L2.66666 2.66656H13.3333L14.6667 3.9999L15.3333 13.9999H11.3333L9.99999 11.9999ZM4.92962 9.9999L3.59629 11.9999H2.80443L3.27891 4.88274L3.49508 4.66656H12.5049L12.7211 4.88274L13.1956 11.9999H12.4037L11.0704 9.9999H4.92962ZM10.667 7.33323C10.667 7.14914 10.8162 6.9999 11.0003 6.9999C11.1844 6.9999 11.3336 7.14914 11.3336 7.33323C11.3336 7.51733 11.1844 7.66656 11.0003 7.66656C10.8162 7.66656 10.667 7.51733 10.667 7.33323ZM12.667 7.33323C12.667 8.25371 11.9208 8.9999 11.0003 8.9999C10.0798 8.9999 9.33365 8.25371 9.33365 7.33323C9.33365 6.41276 10.0798 5.66656 11.0003 5.66656C11.9208 5.66656 12.667 6.41276 12.667 7.33323ZM6.66666 6.33331H7.66666V8.33331H6.66666V9.33331H4.66666V8.33331H3.66666V6.33331H4.66666V5.33331H6.66666V6.33331Z" fill="#FEFEFE"/>
</svg>
