<svg width="24" height="24" viewBox="0 0 24 24" fill="none" xmlns="http://www.w3.org/2000/svg">
<path d="M17.6567 14.8283L16.2425 13.4141L17.6567 11.9999C19.2188 10.4378 19.2188 7.90518 17.6567 6.34308C16.0946 4.78099 13.5619 4.78099 11.9998 6.34308L10.5856 7.7573L9.17139 6.34308L10.5856 4.92887C12.9287 2.58572 16.7277 2.58572 19.0709 4.92887C21.414 7.27202 21.414 11.071 19.0709 13.4141L17.6567 14.8283ZM14.8282 17.6568L13.414 19.071C11.0709 21.4141 7.27189 21.4141 4.92875 19.071C2.5856 16.7278 2.5856 12.9288 4.92875 10.5857L6.34296 9.17151L7.75717 10.5857L6.34296 11.9999C4.78086 13.562 4.78086 16.0947 6.34296 17.6568C7.90506 19.2188 10.4377 19.2188 11.9998 17.6568L13.414 16.2425L14.8282 17.6568ZM14.8282 7.7573L16.2425 9.17151L9.17139 16.2425L7.75717 14.8283L14.8282 7.7573Z" fill="#FEFEFE"/>
</svg>
