<svg width="24" height="24" viewBox="0 0 24 24" fill="none" xmlns="http://www.w3.org/2000/svg">
<path d="M21 4.19995C21 9.53329 21 14.8666 21 20.2H3V4.19995H21ZM19.4444 5.97773H11.92C11.3066 7.73509 11 10.1058 11 13.0888H13.6667C13.5644 13.9066 13.5333 14.7582 13.5715 15.6462C14.6613 15.4586 15.9751 14.9555 17.1511 14.1262L18.16 15.6062C16.7005 16.5795 15.224 17.1875 13.7369 17.4222C13.7831 17.7511 13.8373 18.0844 13.9004 18.4222H19.4444V5.97773ZM7.49334 14.1271L6.50664 15.6062C8.424 16.8844 10.3706 17.5333 12.3333 17.5333V15.7555C10.7404 15.7555 9.13152 15.2195 7.49334 14.1271ZM16.7778 7.75549C17.0135 7.75549 17.2396 7.84915 17.4063 8.01583C17.573 8.18257 17.6666 8.40865 17.6666 8.64439V9.53329C17.6666 9.76903 17.573 9.99505 17.4062 10.1617C17.2396 10.3284 17.0135 10.422 16.7778 10.422C16.5421 10.422 16.316 10.3284 16.1493 10.1617C15.9826 9.99505 15.8889 9.76903 15.8889 9.53329V8.64439C15.8889 8.40865 15.9826 8.18257 16.1492 8.01583C16.3159 7.84915 16.542 7.75549 16.7778 7.75549ZM7.88886 7.75549C7.39824 7.75549 7.00002 8.15731 7.00002 8.64439V9.53329C7.00002 9.76903 7.09368 9.99505 7.26042 10.1617C7.4271 10.3284 7.65318 10.422 7.88886 10.422C8.1246 10.422 8.35068 10.3284 8.51736 10.1617C8.68404 9.99505 8.77776 9.76903 8.77776 9.53329V8.64439C8.77776 8.40865 8.6841 8.18257 8.51742 8.01583C8.35074 7.84915 8.12466 7.75549 7.88886 7.75549Z" fill="#FEFEFE"/>
</svg>
