<svg width="12" height="12" viewBox="0 0 12 12" fill="none" xmlns="http://www.w3.org/2000/svg">
<path fill-rule="evenodd" clip-rule="evenodd" d="M6 10C8.20914 10 10 8.20914 10 6C10 3.79086 8.20914 2 6 2C3.79086 2 2 3.79086 2 6C2 8.20914 3.79086 10 6 10ZM6 11C8.76142 11 11 8.76142 11 6C11 3.23858 8.76142 1 6 1C3.23858 1 1 3.23858 1 6C1 8.76142 3.23858 11 6 11Z" fill="#FEFEFE"/>
<path fill-rule="evenodd" clip-rule="evenodd" d="M6.39645 4.60354C6.1775 4.38459 5.82251 4.38459 5.60356 4.60354L4.85356 5.35354L4.14645 4.64644L4.89645 3.89644C5.50593 3.28696 6.49408 3.28696 7.10356 3.89644C7.71304 4.50591 7.71304 5.49407 7.10356 6.10354L6.50001 6.7071V7.49999H5.50001V6.29288L6.39645 5.39644C6.61541 5.17749 6.61541 4.8225 6.39645 4.60354Z" fill="#FEFEFE"/>
<path fill-rule="evenodd" clip-rule="evenodd" d="M5.5 9V8H6.5V9H5.5Z" fill="#FEFEFE"/>
</svg>
