<svg width="24" height="24" viewBox="0 0 24 24" fill="none" xmlns="http://www.w3.org/2000/svg">
<g clip-path="url(#clip0_222_916)">
<path d="M0 12C0 5.37259 5.37259 0 12 0C18.6274 0 24 5.37259 24 12C24 18.6274 18.6274 24 12 24C5.37259 24 0 18.6274 0 12Z" fill="#E6B1F7"/>
<path fill-rule="evenodd" clip-rule="evenodd" d="M10.2502 10.4998V12.9997H11.7502V10.8104L13.5306 9.03006C14.0661 8.49456 14.9344 8.49456 15.4699 9.03006C16.0054 9.56562 16.0054 10.4339 15.4699 10.9694L14.9699 11.4694L16.0306 12.53L16.5306 12.0301C17.6519 10.9087 17.6519 9.09072 16.5306 7.96938C15.4093 6.8481 13.5913 6.8481 12.4699 7.96938L10.4699 9.96942C10.3292 10.1101 10.2502 10.3008 10.2502 10.4998ZM14.2502 13.9997V11.4997H12.7502V13.6891L10.9699 15.4694C10.4344 16.0049 9.56609 16.0049 9.03059 15.4694C8.49503 14.9339 8.49503 14.0656 9.03059 13.5301L9.53057 13.0301L8.46989 11.9694L7.96991 12.4694C6.84857 13.5907 6.84857 15.4087 7.96991 16.5301C9.09125 17.6514 10.9093 17.6514 12.0306 16.5301L14.0306 14.5301C14.1712 14.3894 14.2502 14.1986 14.2502 13.9997Z" fill="#FEFEFE"/>
</g>
<defs>
<clipPath id="clip0_222_916">
<rect width="24" height="24" fill="white"/>
</clipPath>
</defs>
</svg>
