<svg width="24" height="24" viewBox="0 0 24 24" fill="none" xmlns="http://www.w3.org/2000/svg">
<path d="M20.9588 12C20.955 12.0122 20.951 12.0248 20.9468 12.0377C20.884 12.2333 20.784 12.5193 20.6398 12.8654C20.3503 13.5603 19.8883 14.4828 19.2004 15.4C17.8369 17.218 15.6075 19 12.0004 19C8.39329 19 6.16394 17.218 4.80043 15.4C4.11252 14.4828 3.65055 13.5603 3.36101 12.8654C3.21678 12.5193 3.11687 12.2333 3.05402 12.0377C3.04985 12.0248 3.04584 12.0122 3.04199 12C3.04584 11.9878 3.04985 11.9752 3.05402 11.9623C3.11687 11.7667 3.21678 11.4807 3.36101 11.1346C3.65055 10.4397 4.11252 9.51721 4.80043 8.6C6.16394 6.78198 8.39329 5 12.0004 5C15.6075 5 17.8369 6.78198 19.2004 8.6C19.8883 9.51721 20.3503 10.4397 20.6398 11.1346C20.784 11.4807 20.884 11.7667 20.9468 11.9623C20.951 11.9752 20.955 11.9878 20.9588 12Z" stroke="#FEFEFE" stroke-width="2"/>
<path d="M12 15C13.6569 15 15 13.6569 15 12C15 10.3431 13.6569 9 12 9C10.3431 9 9 10.3431 9 12C9 13.6569 10.3431 15 12 15Z" stroke="#FEFEFE" stroke-width="2"/>
</svg>
