<svg width="64" height="64" viewBox="0 0 64 64" fill="none" xmlns="http://www.w3.org/2000/svg">
<path fill-rule="evenodd" clip-rule="evenodd" d="M10 17H54V31H59V12H5V52H35V47H10V17ZM54 41.7202L49 40.2202L44 41.7202V46.4705C44 47.5243 44.5529 48.5008 45.4565 49.043L49 51.169L52.5435 49.043C53.4471 48.5008 54 47.5243 54 46.4705V41.7202ZM49 57L55.116 53.3304C57.5256 51.8846 59 49.2806 59 46.4705V38L49 35L39 38V46.4705C39 49.2806 40.4744 51.8846 42.884 53.3304L49 57ZM19.0745 22.7429L16.9248 27.2572L31.9996 34.4357L47.0745 27.2572L44.9248 22.7429L31.9996 28.8978L19.0745 22.7429Z" fill="#FEFEFE"/>
</svg>
