<svg width="32" height="32" viewBox="0 0 32 32" fill="none" xmlns="http://www.w3.org/2000/svg">
<mask id="mask0_222_844" style={{maskType: 'luminance'}} maskUnits="userSpaceOnUse" x="5" y="3" width="22" height="22">
<path fill-rule="evenodd" clip-rule="evenodd" d="M17.3157 3L14.5788 4.36842V6.14741C10.2818 6.82909 7 10.5504 7 15.0358V21L5 25H27L25 21V15.0358C25 10.5105 21.6608 6.76762 17.3157 6.13121V3Z" fill="#FEFEFE"/>
</mask>
<g mask="url(#mask0_222_844)">
<path d="M14.5785 4.36841L13.6841 2.57956L12.5785 3.13235V4.36841H14.5785ZM17.3154 2.99999H19.3154V-0.236084L16.421 1.21114L17.3154 2.99999ZM14.5785 6.1474L14.8919 8.1227L16.5785 7.85514V6.1474H14.5785ZM6.99974 21L8.78859 21.8944L8.99974 21.4721V21H6.99974ZM4.99974 25L3.21089 24.1056L1.76367 27H4.99974V25ZM26.9997 25V27H30.2358L28.7886 24.1056L26.9997 25ZM24.9997 21H22.9997V21.4721L23.2108 21.8944L24.9997 21ZM17.3154 6.1312H15.3154V7.8596L17.0255 8.11008L17.3154 6.1312ZM15.473 6.15726L18.2098 4.78884L16.421 1.21114L13.6841 2.57956L15.473 6.15726ZM16.5785 6.1474V4.36841H12.5785V6.1474H16.5785ZM8.99974 15.0358C8.99974 11.549 11.5515 8.65262 14.8919 8.1227L14.2652 4.17211C9.01163 5.00553 4.99974 9.55186 4.99974 15.0358H8.99974ZM8.99974 21V15.0358H4.99974V21H8.99974ZM6.78859 25.8944L8.78859 21.8944L5.21089 20.1056L3.21089 24.1056L6.78859 25.8944ZM26.9997 23H4.99974V27H26.9997V23ZM23.2108 21.8944L25.2108 25.8944L28.7886 24.1056L26.7886 20.1056L23.2108 21.8944ZM22.9997 15.0358V21H26.9997V15.0358H22.9997ZM17.0255 8.11008C20.4033 8.60481 22.9997 11.5179 22.9997 15.0358H26.9997C26.9997 9.50301 22.9178 4.93042 17.6052 4.15231L17.0255 8.11008ZM15.3154 2.99999V6.1312H19.3154V2.99999H15.3154Z" fill="#FEFEFE"/>
</g>
<path d="M11.375 27H21L19.625 29H10L11.375 27Z" fill="#FEFEFE"/>
</svg>
