<svg width="24" height="24" viewBox="0 0 24 24" fill="none" xmlns="http://www.w3.org/2000/svg">
<g clip-path="url(#clip0_222_917)">
<path d="M24 12C24 5.37258 18.6274 0 12 0C5.37258 0 0 5.37258 0 12C0 18.6274 5.37258 24 12 24C18.6274 24 24 18.6274 24 12Z" fill="#7DD5F9"/>
<path d="M8.40187 12.1259C7.88731 10.2054 9.02701 8.23143 10.9475 7.71681C12.868 7.20225 14.842 8.34195 15.3566 10.2624L15.9777 12.5806L17.6027 14.0087L8.32981 16.4934L9.02305 14.4441L8.40187 12.1259Z" fill="#FEFEFE"/>
<path d="M10.2119 7.2925L11.2157 6.40234L11.6816 8.14102L10.5225 8.45158L10.2119 7.2925Z" fill="#FEFEFE"/>
<path d="M10.8031 16.4518L13.7009 15.6753L13.4319 16.9897L10.5342 17.7662L10.8031 16.4518Z" fill="#FEFEFE"/>
</g>
<defs>
<clipPath id="clip0_222_917">
<rect width="24" height="24" fill="white"/>
</clipPath>
</defs>
</svg>
