<svg width="80" height="80" viewBox="0 0 80 80" fill="none" xmlns="http://www.w3.org/2000/svg">
<path fill-rule="evenodd" clip-rule="evenodd" d="M59 25H15V55H47.6731C47.9593 56.7809 48.5943 58.4791 49.5313 60H10V20H64V37.5961L61.5 36.6633L59 37.5961V25ZM61.5 47.3367L65.5 48.8292V52.8307C65.5 53.9722 64.9684 55.0486 64.062 55.7424L61.5 57.7034L58.938 55.7424C58.0316 55.0486 57.5 53.9722 57.5 52.8307V48.8292L61.5 47.3367ZM67.1011 59.7128L61.5 64L55.8989 59.7128C53.7565 58.0729 52.5 55.5288 52.5 52.8307V45.358L61.5 42L70.5 45.358V52.8307C70.5 55.5288 69.2435 58.0729 67.1011 59.7128Z" fill="#FEFEFE"/>
<path fill-rule="evenodd" clip-rule="evenodd" d="M21.9258 34.9238L24.0754 30.4095L37.0006 36.5644L49.9258 30.4095L52.0755 34.9238L37.0006 42.1023L21.9258 34.9238Z" fill="#FEFEFE"/>
</svg>
