<svg width="16" height="16" viewBox="0 0 16 16" fill="none" xmlns="http://www.w3.org/2000/svg">
<g clip-path="url(#clip0_1_90)">
<path fill-rule="evenodd" clip-rule="evenodd" d="M6.57091 2.38024L5.1567 3.79445L6.57091 5.20867L7.98512 3.79445C9.1567 2.62288 11.0562 2.62288 12.2278 3.79445C13.3993 4.96603 13.3993 6.86552 12.2278 8.0371L10.8136 9.45131L12.2278 10.8655L13.642 9.45131C15.5946 7.49869 15.5946 4.33286 13.642 2.38024C11.6894 0.427616 8.52353 0.427616 6.57091 2.38024ZM2.77862 6.17254L1.32842 4.72234L2.74263 3.30813L12.6421 13.2076L11.2279 14.6219L9.84968 13.2436L9.39949 13.6938C7.44687 15.6464 4.28104 15.6464 2.32842 13.6938C0.375797 11.7412 0.375798 8.57535 2.32842 6.62273L2.77862 6.17254ZM8.43547 11.8294L7.98528 12.2796C6.8137 13.4512 4.91421 13.4512 3.74263 12.2796C2.57106 11.108 2.57106 9.20852 3.74263 8.03694L4.19283 7.58675L8.43547 11.8294Z" fill="#FEFEFE"/>
</g>
<defs>
<clipPath id="clip0_1_90">
<rect width="16" height="16" fill="white"/>
</clipPath>
</defs>
</svg>
