<svg width="12" height="12" viewBox="0 0 12 12" fill="none" xmlns="http://www.w3.org/2000/svg">
<mask id="mask0_222_790" style="mask-type:alpha" maskUnits="userSpaceOnUse" x="0" y="0" width="12" height="12">
<rect width="12" height="12" fill="#D9D9D9"/>
</mask>
<g mask="url(#mask0_222_790)">
<path fill-rule="evenodd" clip-rule="evenodd" d="M6 10C8.20914 10 10 8.20914 10 6C10 3.79086 8.20914 2 6 2C3.79086 2 2 3.79086 2 6C2 8.20914 3.79086 10 6 10ZM6 11C8.76142 11 11 8.76142 11 6C11 3.23858 8.76142 1 6 1C3.23858 1 1 3.23858 1 6C1 8.76142 3.23858 11 6 11ZM5.5 4V3H6.5V4H5.5ZM6.49978 5.5C6.49978 5.33601 6.41936 5.18245 6.28458 5.08904C6.14979 4.99563 5.97777 4.97426 5.82422 5.03184L4.82422 5.40684L5.17534 6.34317L5.49978 6.2215V8.5C5.49978 8.66399 5.5802 8.81756 5.71498 8.91097C5.84977 9.00437 6.02179 9.02575 6.17534 8.96817L7.17534 8.59317L6.82422 7.65684L6.49978 7.7785V5.5Z" fill="#FEFEFE"/>
</g>
</svg>
