<svg width="24" height="24" viewBox="0 0 24 24" fill="none" xmlns="http://www.w3.org/2000/svg">
<g clip-path="url(#clip0_0_381)">
<path d="M24 12C24 5.37258 18.6274 0 12 0C5.37258 0 0 5.37258 0 12C0 18.6274 5.37258 24 12 24C18.6274 24 24 18.6274 24 12Z" fill="#7DD5F9"/>
<path d="M8.40138 12.1259C7.88682 10.2054 9.02652 8.2314 10.947 7.71678C12.8675 7.20222 14.8415 8.34192 15.3561 10.2624L15.9772 12.5806L17.6022 14.0087L8.32932 16.4933L9.02256 14.4441L8.40138 12.1259Z" fill="#FEFEFE"/>
<path d="M10.2122 7.29253L11.216 6.40237L11.6819 8.14105L10.5227 8.45161L10.2122 7.29253Z" fill="#FEFEFE"/>
<path d="M10.8028 16.4517L13.7006 15.6752L13.4317 16.9897L10.5339 17.7661L10.8028 16.4517Z" fill="#FEFEFE"/>
</g>
<defs>
<clipPath id="clip0_0_381">
<rect width="24" height="24" fill="white"/>
</clipPath>
</defs>
</svg>
