<svg width="24" height="24" viewBox="0 0 24 24" fill="none" xmlns="http://www.w3.org/2000/svg">
<path d="M19.0991 17.334L20.4097 16.0234L22.0005 17.6142L18.0571 21.5566L14.1138 17.6142L15.7046 16.0234L16.8501 17.1689V13.6709H19.0991V17.334ZM21.2554 7.69334C22.097 9.93843 20.4373 12.3338 18.0396 12.334C16.8219 12.334 15.6954 11.6888 15.0786 10.6396L15.0249 10.7246C14.3993 11.7255 13.3018 12.334 12.1216 12.334C10.9415 12.3339 9.84481 11.7254 9.21925 10.7246L9.16554 10.6396C8.57363 11.6467 7.51203 12.2786 6.35109 12.3281V17.5459H12.8452V19.7949H3.32277V17.5459H4.10304V11.6162C2.97381 10.738 2.43017 9.18325 2.98878 7.69334L5.13136 1.9785H19.1118L21.2554 7.69334ZM5.09425 8.48241C4.80353 9.25776 5.37662 10.0849 6.2046 10.0849C6.62627 10.0849 7.01649 9.86122 7.22902 9.49706L7.38039 9.23631L9.09914 6.291L11.1255 9.53221C11.3401 9.87559 11.7166 10.0848 12.1216 10.0849C12.5267 10.0849 12.904 9.87662 13.1187 9.53319L13.3374 9.1826L15.145 6.291L16.8628 9.23631L17.0152 9.49608C17.2277 9.86042 17.6178 10.0849 18.0396 10.0849C18.8674 10.0848 19.4406 9.25767 19.1499 8.48241L17.5542 4.22655H6.68996L5.09425 8.48241Z" fill="#FEFEFE"/>
</svg>
