<svg width="12" height="12" viewBox="0 0 12 12" fill="none" xmlns="http://www.w3.org/2000/svg">
<g clip-path="url(#clip0_1_20)">
<mask id="mask0_1_20" style="mask-type:alpha" maskUnits="userSpaceOnUse" x="0" y="0" width="12" height="12">
<path d="M11.25 0.75H0.75V11.25H11.25V0.75Z" fill="#D9D9D9" stroke="#FEFEFE" stroke-width="1.5"/>
</mask>
<g mask="url(#mask0_1_20)">
<path fill-rule="evenodd" clip-rule="evenodd" d="M4.70708 6.70196L8.44233 6.8648L9.09357 6.21355C9.97225 5.33488 9.97225 3.91024 9.09357 3.03156C8.21489 2.15288 6.79027 2.15288 5.91159 3.03156L5.55804 3.38512L4.49738 2.32447L4.85093 1.97091C6.3154 0.506443 8.68977 0.506443 10.1542 1.97091C11.6187 3.43538 11.6187 5.80975 10.1542 7.27422L9.03633 8.39212L4.64175 8.20054L4.70708 6.70196ZM7.50281 5.37279L3.57059 5.37254L2.90571 6.03743C2.02703 6.91611 2.02703 8.34072 2.90571 9.21941C3.78439 10.0981 5.20901 10.0981 6.08769 9.21941L6.44124 8.86586L7.5019 9.92651L7.14835 10.2801C5.68388 11.7445 3.30952 11.7445 1.84505 10.2801C0.380588 8.81559 0.380588 6.44124 1.84505 4.97677L2.94931 3.8725L7.5029 3.87279L7.50281 5.37279Z" fill="#FEFEFE"/>
</g>
</g>
<defs>
<clipPath id="clip0_1_20">
<rect width="12" height="12" fill="white"/>
</clipPath>
</defs>
</svg>
