<svg width="16" height="16" viewBox="0 0 16 16" fill="none" xmlns="http://www.w3.org/2000/svg">
<path fill-rule="evenodd" clip-rule="evenodd" d="M9.06196 3.11C9.4256 2.73387 9.93548 2.5 10.5 2.5C11.6045 2.5 12.5 3.39543 12.5 4.5V4.75405C12.5 5.20578 12.3205 5.63901 12.0011 5.95843L11.7058 6.25379C11.3606 6.59897 11.1666 7.06714 11.1666 7.5553C11.1666 8.6313 11.7977 9.60726 12.7789 10.0488L14.7948 10.956L15.2052 10.044L13.1893 9.13689C12.5669 8.85683 12.1666 8.23779 12.1666 7.5553C12.1666 7.33236 12.2552 7.11854 12.4129 6.9609L12.7082 6.66553C13.2152 6.15858 13.5 5.471 13.5 4.75405V4.5C13.5 2.84315 12.1568 1.5 10.5 1.5C9.58888 1.5 8.77263 1.90615 8.22243 2.54728C8.52256 2.70527 8.80382 2.89427 9.06196 3.11ZM3.7222 6.77778C3.7222 5.5198 4.742 4.5 5.99998 4.5C7.25796 4.5 8.27776 5.5198 8.27776 6.77778V7.06006C8.27776 7.57671 8.07252 8.07221 7.70719 8.43754L7.37901 8.76572C7.00589 9.13883 6.79628 9.64489 6.79628 10.1726C6.79628 11.3462 7.48462 12.4108 8.55493 12.8925L10.7948 13.9004L11.2052 12.9885L8.9653 11.9805C8.25383 11.6604 7.79628 10.9527 7.79628 10.1726C7.79628 9.91011 7.90054 9.65841 8.08612 9.47282L8.4143 9.14464C8.96716 8.59178 9.27776 7.84193 9.27776 7.06006V6.77778C9.27776 4.96751 7.81025 3.5 5.99998 3.5C4.18971 3.5 2.7222 4.96751 2.7222 6.77778V7.06006C2.7222 7.84193 3.0328 8.59178 3.58567 9.14464L3.91385 9.47282C4.09943 9.65841 4.20369 9.91011 4.20369 10.1726C4.20369 10.9527 3.74613 11.6604 3.03467 11.9805L0.7948 12.9885L1.20516 13.9004L3.44503 12.8925C4.51534 12.4108 5.20369 11.3462 5.20369 10.1726C5.20369 9.64489 4.99407 9.13883 4.62095 8.76572L4.29277 8.43754C3.92744 8.07221 3.7222 7.57671 3.7222 7.06006V6.77778Z" fill="#FEFEFE"/>
</svg>
