<svg width="24" height="24" viewBox="0 0 24 24" fill="none" xmlns="http://www.w3.org/2000/svg">
<path d="M19.2 11.64V4.79999C16.5675 5.15999 13.9575 5.51999 11.325 5.94749V11.7075L19.2 11.64ZM4.8 6.91499V11.7525C6.735 11.7525 8.715 11.73 10.65 11.73V6.10499C8.715 6.37499 6.735 6.62249 4.8 6.91499ZM4.8 12.315V17.1525C6.735 17.4225 8.715 17.67 10.65 17.94V12.3375C8.715 12.3375 6.735 12.315 4.8 12.315ZM11.37 12.4275C11.3925 14.3175 11.3925 16.2075 11.3925 18.0975C14.0025 18.4575 16.59 18.8175 19.2 19.2V12.4275H11.37Z" fill="#FEFEFE"/>
</svg>
