<svg width="24" height="24" viewBox="0 0 24 24" fill="none" xmlns="http://www.w3.org/2000/svg">
<path fill-rule="evenodd" clip-rule="evenodd" d="M12 20C16.4183 20 20 16.4183 20 12C20 7.58172 16.4183 4 12 4C7.58172 4 4 7.58172 4 12C4 16.4183 7.58172 20 12 20ZM12 22C17.5228 22 22 17.5228 22 12C22 6.47715 17.5228 2 12 2C6.47715 2 2 6.47715 2 12C2 17.5228 6.47715 22 12 22ZM12.793 9.20709C12.3551 8.76919 11.6451 8.76919 11.2072 9.20709L9.70718 10.7071L8.29297 9.29288L9.79297 7.79288C11.0119 6.57393 12.9882 6.57392 14.2072 7.79288C15.4261 9.01183 15.4261 10.9881 14.2072 12.2071L13.0001 13.4142V15H11.0001V12.5858L12.793 10.7929C13.2309 10.355 13.2309 9.64499 12.793 9.20709ZM11 16V18H13V16H11Z" fill="#FEFEFE"/>
</svg>
