<svg width="24" height="24" viewBox="0 0 24 24" fill="none" xmlns="http://www.w3.org/2000/svg">
<path fill-rule="evenodd" clip-rule="evenodd" d="M12 4C4 4 2 12 2 12C2 12 3.02824 16.113 6.55927 18.4407L5 20L6.41421 21.4142L8.43724 19.3912C9.46618 19.7713 10.6473 20 12 20C20 20 22 12 22 12C22 12 21.4836 9.93441 19.926 7.90242L21.4142 6.41421L20 5L18.5692 6.43078C17.0526 5.0718 14.9282 4 12 4ZM17.1531 7.84687C15.9478 6.79629 14.2936 6 12 6C8.78571 6 6.82703 7.56396 5.6 9.2C4.97418 10.0344 4.55025 10.8794 4.28365 11.5192C4.2083 11.7001 4.14651 11.8622 4.09704 12C4.14651 12.1379 4.2083 12.2999 4.28365 12.4808C4.55025 13.1206 4.97418 13.9656 5.6 14.8C6.205 15.6067 6.98786 16.3958 8.01141 16.9886L17.1531 7.84687ZM10.0426 17.7859C10.6372 17.9232 11.2878 18 12 18C15.2143 18 17.173 16.436 18.4 14.8C19.0258 13.9656 19.4498 13.1206 19.7163 12.4808C19.7917 12.2999 19.8535 12.1379 19.903 12C19.8535 11.8622 19.7917 11.7001 19.7163 11.5192C19.4638 10.913 19.0699 10.1226 18.4969 9.3315L15.9965 11.8319C15.9988 11.8876 16 11.9437 16 12C16 14.2091 14.2091 16 12 16C11.9437 16 11.8876 15.9988 11.8319 15.9965L10.0426 17.7859ZM12 10C12.0644 10 12.1281 10.003 12.191 10.009L13.7821 8.41793C13.2455 8.15045 12.6403 8 12 8C9.79086 8 8 9.79086 8 12C8 12.6403 8.15045 13.2455 8.41793 13.7821L10.009 12.191C10.003 12.1281 10 12.0644 10 12C10 10.8954 10.8954 10 12 10Z" fill="#FEFEFE"/>
</svg>
