<svg width="40" height="40" viewBox="0 0 40 40" fill="none" xmlns="http://www.w3.org/2000/svg">
<path fill-rule="evenodd" clip-rule="evenodd" d="M34.4922 4.36302L31.1175 2L20.3014 17.4469L20.0223 21.4369L23.6762 19.8099L30.003 10.7742C32.5096 13.0436 33.7628 15.8617 33.7628 19.2285C33.7628 21.5427 33.0914 23.2499 31.7486 24.3499C30.4057 25.4499 28.7914 25.9999 26.9057 25.9999H23.9057C22.7057 25.9999 21.6914 26.357 20.8628 27.0713C20.0343 27.7856 19.62 28.7427 19.62 29.9427C19.62 31.0285 19.8343 31.8427 20.2628 32.3856C20.6914 32.9285 20.9057 33.3999 20.9057 33.7999C20.9057 34.0285 20.8271 34.2142 20.67 34.357C20.5128 34.4999 20.3057 34.5713 20.0486 34.5713C16.2486 34.5713 13.0128 33.2356 10.3414 30.5642C7.66999 27.8927 6.33427 24.657 6.33427 20.857C6.33427 17.0285 7.7057 13.7856 10.4486 11.1285C13.1914 8.47132 16.5057 7.14275 20.3914 7.14275C20.8191 7.14275 21.2399 7.15872 21.6538 7.19067L23.8635 4.0349C22.7412 3.82108 21.5838 3.71418 20.3914 3.71418C17.9914 3.71418 15.7343 4.16418 13.62 5.06418C11.5057 5.96418 9.6557 7.1856 8.06999 8.72846C6.48427 10.2713 5.22713 12.0856 4.29856 14.1713C3.36999 16.257 2.9057 18.4856 2.9057 20.857C2.9057 23.1999 3.3557 25.4142 4.2557 27.4999C5.1557 29.5856 6.38427 31.407 7.94141 32.9642C9.49856 34.5213 11.32 35.7499 13.4057 36.6499C15.4914 37.5499 17.7057 37.9999 20.0486 37.9999C21.3343 37.9999 22.37 37.657 23.1557 36.9713C23.9414 36.2856 24.3343 35.2285 24.3343 33.7999C24.3343 32.9713 24.12 32.2356 23.6914 31.5927C23.2628 30.9499 23.0486 30.457 23.0486 30.1142C23.0486 29.9427 23.0986 29.7856 23.1986 29.6427C23.2986 29.4999 23.4771 29.4285 23.7343 29.4285H26.9057C29.7628 29.4285 32.1914 28.5499 34.1914 26.7927C36.1914 25.0356 37.1914 22.5142 37.1914 19.2285C37.1914 17.0285 36.7414 14.9785 35.8414 13.0785C34.9414 11.1785 33.7271 9.5356 32.1986 8.14989C32.1256 8.08377 32.0521 8.01834 31.9781 7.95359L34.4922 4.36302ZM15.8908 25.2714C15.4051 25.7572 14.7908 26 14.048 26C13.3051 26 12.6908 25.7572 12.2051 25.2714C11.7194 24.7857 11.4765 24.1714 11.4765 23.4286C11.4765 22.6857 11.7194 22.0714 12.2051 21.5857C12.6908 21.1 13.3051 20.8572 14.048 20.8572C14.7908 20.8572 15.4051 21.1 15.8908 21.5857C16.3765 22.0714 16.6194 22.6857 16.6194 23.4286C16.6194 24.1714 16.3765 24.7857 15.8908 25.2714Z" fill="#FEFEFE"/>
</svg>
