<svg width="24" height="24" viewBox="0 0 24 24" fill="none" xmlns="http://www.w3.org/2000/svg">
<path fill-rule="evenodd" clip-rule="evenodd" d="M20.352 17.2189C21.4454 15.9596 22.0483 14.3483 22.05 12.6806C22.0492 12.0295 21.9572 11.3818 21.7767 10.7563C20.6529 6.80856 16.3255 4.7061 12.5059 6.2499C11.8538 6.51351 11.2709 6.88917 10.7066 7.30353C10.0246 7.81062 9.24747 7.96137 8.41227 7.81062C7.76736 7.69452 7.19256 7.42125 6.63873 7.09878C6.35667 6.93549 6.14265 6.67629 6.03573 6.3684C6.01155 6.30198 5.99517 6.23166 5.97873 6.16107C5.96721 6.11166 5.95569 6.06213 5.94141 6.01371C5.80125 5.54025 5.49975 5.13081 5.08926 4.85643C4.67874 4.58205 4.18515 4.46001 3.69408 4.51155C3.20301 4.56306 2.74549 4.78488 2.40088 5.13849C2.05626 5.49207 1.84631 5.95518 1.80745 6.44742C1.68089 7.9662 3.18921 9.12303 4.62336 8.59983C4.82067 8.52417 5.0322 8.49282 5.24298 8.50803C5.45376 8.52321 5.65863 8.58456 5.84307 8.6877C6.24903 8.89722 6.63306 9.14676 6.98943 9.4326C7.86813 10.1533 8.30022 11.0578 8.19864 12.209C8.13381 13.0222 8.22354 13.8403 8.46306 14.6202C8.93136 16.2208 9.96096 17.5991 11.3631 18.5021C12.7652 19.4052 14.4458 19.7725 16.0969 19.5368C17.7479 19.3011 19.2586 18.4782 20.352 17.2189ZM12.1822 10.7679C11.798 11.3426 11.5928 12.0183 11.5926 12.7096C11.5939 13.6355 11.9619 14.5231 12.6161 15.1782C13.2703 15.8333 14.1574 16.2026 15.0833 16.2051C15.7746 16.2059 16.4506 16.0017 17.0258 15.6182C17.601 15.2347 18.0496 14.6892 18.3147 14.0508C18.5798 13.4123 18.6497 12.7096 18.5153 12.0314C18.381 11.3533 18.0486 10.7302 17.5601 10.241C17.0716 9.75189 16.449 9.41859 15.771 9.28332C15.0931 9.14805 14.3902 9.2169 13.7514 9.48117C13.1126 9.74544 12.5665 10.1932 12.1822 10.7679Z" fill="url(#paint0_linear_1_416)"/>
<defs>
<linearGradient id="paint0_linear_1_416" x1="1.8" y1="4.5" x2="22.05" y2="19.6875" gradientUnits="userSpaceOnUse">
<stop stop-color="#CBF2FE"/>
<stop offset="0.390625" stop-color="#7DD5F9"/>
<stop offset="0.734529" stop-color="#E6B1F7"/>
<stop offset="1" stop-color="#E1DFA2"/>
</linearGradient>
</defs>
</svg>
