<svg width="24" height="24" viewBox="0 0 24 24" fill="none" xmlns="http://www.w3.org/2000/svg">
<path fill-rule="evenodd" clip-rule="evenodd" d="M14.5 7.5H9.5C8.39545 7.5 7.5 8.39545 7.5 9.5V14.5C7.5 15.6046 8.39545 16.5 9.5 16.5H14.5C15.6046 16.5 16.5 15.6046 16.5 14.5V9.5C16.5 8.39545 15.6046 7.5 14.5 7.5ZM9.5 6.5C7.84315 6.5 6.5 7.84315 6.5 9.5V14.5C6.5 16.1568 7.84315 17.5 9.5 17.5H14.5C16.1568 17.5 17.5 16.1568 17.5 14.5V9.5C17.5 7.84315 16.1568 6.5 14.5 6.5H9.5ZM12 14C13.1045 14 14 13.1045 14 12C14 10.8955 13.1045 10 12 10C10.8955 10 10 10.8955 10 12C10 13.1045 10.8955 14 12 14ZM12 15C13.6568 15 15 13.6568 15 12C15 10.3432 13.6568 9 12 9C10.3432 9 9 10.3432 9 12C9 13.6568 10.3432 15 12 15ZM15 9.5C15.2761 9.5 15.5 9.27615 15.5 9C15.5 8.72385 15.2761 8.5 15 8.5C14.7239 8.5 14.5 8.72385 14.5 9C14.5 9.27615 14.7239 9.5 15 9.5Z" fill="url(#paint0_linear_222_903)"/>
<defs>
<linearGradient id="paint0_linear_222_903" x1="6.5" y1="12.1897" x2="17.5" y2="12.1897" gradientUnits="userSpaceOnUse">
<stop stop-color="#9EE6FC"/>
<stop offset="1" stop-color="#EBB9E7"/>
</linearGradient>
</defs>
</svg>
