<svg width="64" height="64" viewBox="0 0 64 64" fill="none" xmlns="http://www.w3.org/2000/svg">
<path fill-rule="evenodd" clip-rule="evenodd" d="M10 17H54V31H59V12H5V52H27V47H10V17ZM42 55.5C36.7533 55.5 32.5 51.2467 32.5 46C32.5 40.7533 36.7533 36.5 42 36.5H45L43 41.5H42C39.5147 41.5 37.5 43.5147 37.5 46C37.5 48.4853 39.5147 50.5 42 50.5H45V55.5H42ZM53 36.5C58.2467 36.5 62.5 40.7533 62.5 46C62.5 51.2467 58.2467 55.5 53 55.5H50L52 50.5H53C55.4853 50.5 57.5 48.4853 57.5 46C57.5 43.5147 55.4853 41.5 53 41.5H50V36.5H53ZM43 48.5H52V43.5H43V48.5ZM19.0748 22.7428L16.9252 27.2571L32 34.4356L47.0748 27.2571L44.9252 22.7428L32 28.8976L19.0748 22.7428Z" fill="#FEFEFE"/>
</svg>
