<svg width="24" height="24" viewBox="0 0 24 24" fill="none" xmlns="http://www.w3.org/2000/svg">
<path fill-rule="evenodd" clip-rule="evenodd" d="M1.12584 11.5144C0.958053 11.8164 0.958053 12.1836 1.12584 12.4856L6.12584 21.4856C6.30221 21.8031 6.63683 22 7 22H17C17.3632 22 17.6978 21.8031 17.8742 21.4856L22.8742 12.4856C23.0419 12.1836 23.0419 11.8164 22.8742 11.5144L17.8742 2.51436C17.6978 2.19689 17.3632 2 17 2H7C6.63683 2 6.30221 2.19689 6.12584 2.51436L1.12584 11.5144ZM20.856 12L16.4116 20H7.5884L3.14396 12L7.5884 4H16.4116L20.856 12ZM10 12C10 10.8954 10.8954 10 12 10C13.1046 10 14 10.8954 14 12C14 13.1046 13.1046 14 12 14C10.8954 14 10 13.1046 10 12ZM12 8C9.79086 8 8 9.79086 8 12C8 14.2091 9.79086 16 12 16C14.2091 16 16 14.2091 16 12C16 9.79086 14.2091 8 12 8Z" fill="#FEFEFE"/>
</svg>
