<svg width="24" height="24" viewBox="0 0 24 24" fill="none" xmlns="http://www.w3.org/2000/svg">
<path d="M9.82957 10.9048C9.88625 10.1555 10.2239 9.45534 10.7749 8.94445C11.3259 8.43357 12.0496 8.14969 12.801 8.14969C13.5524 8.14969 14.2761 8.43357 14.8271 8.94445C15.3781 9.45534 15.7157 10.1555 15.7724 10.9048H9.82957ZM18.9221 7.83153C18.1411 6.71893 17.0732 5.83876 15.8319 5.28463C17.2241 4.74129 18.2684 4.7328 18.8033 5.28463C19.3381 5.83646 19.3212 6.63449 18.9221 7.83153ZM5.8309 14.9035C6.41082 16.35 7.42529 17.581 8.7344 18.4267C8.13587 18.7001 7.4961 18.8723 6.84118 18.9361C6.60463 18.9697 6.36364 18.9531 6.13395 18.8872C5.90427 18.8214 5.69107 18.7079 5.50829 18.554C4.88853 17.9343 5.00739 16.6099 5.8309 14.9035ZM19.3042 8.41732C19.6019 7.66959 19.749 6.87043 19.7371 6.06569C19.7359 5.39709 19.481 4.75388 19.024 4.26587C18.175 3.4169 15.8658 3.54425 13.3444 4.65639H12.801C11.133 4.65388 9.51179 5.20773 8.19399 6.23028C6.87619 7.25283 5.93707 8.68568 5.52526 10.3021L5.38943 10.8539L5.73751 10.4039C6.54621 9.31916 7.55834 8.4022 8.71742 7.70419L8.22501 8.19659C7.26789 9.14534 6.42455 10.2023 5.71204 11.3463C5.09146 12.3515 4.59001 13.4257 4.21784 14.5468C3.91697 15.4099 3.75645 16.3157 3.74241 17.2297C3.69795 17.8655 3.89842 18.4942 4.30273 18.9869C4.56775 19.2355 4.88049 19.4277 5.22198 19.5517C5.56347 19.6758 5.9266 19.7291 6.28935 19.7086C7.39746 19.6637 8.48185 19.3738 9.46452 18.8596C10.5025 19.3795 11.6486 19.6471 12.8095 19.6407C14.3754 19.6394 15.9014 19.1473 17.173 18.2336C18.4447 17.3199 19.3978 16.0305 19.8984 14.5468L19.9494 14.3855H15.7045V14.445C15.4363 14.9395 15.0396 15.3525 14.5562 15.6403C14.0727 15.9281 13.5206 16.0799 12.9581 16.0799C12.3955 16.0799 11.8433 15.9281 11.3599 15.6403C10.8766 15.3525 10.4798 14.9395 10.2116 14.445C9.97099 14.0157 9.83433 13.5359 9.8126 13.0442H20.2211V12.9338C20.2505 12.6518 20.2648 12.3684 20.2635 12.0849C20.2632 10.8003 19.9328 9.53746 19.3042 8.41732Z" fill="#FEFEFE"/>
</svg>
