<svg width="40" height="40" viewBox="0 0 40 40" fill="none" xmlns="http://www.w3.org/2000/svg">
<path d="M3.17969 10.2887L20.0002 0.577393L36.8207 10.2887V29.7113L20.0002 39.4226L3.17969 29.7113V10.2887Z" stroke="#7DD5F9"/>
<path d="M3.17969 10.2887L20.0002 0.577393L36.8207 10.2887V29.7113L20.0002 39.4226L3.17969 29.7113V10.2887Z" stroke="#7DD5F9"/>
<path d="M16 19L21 16" stroke="#7DD5F9" stroke-width="2"/>
<path d="M23.5 18C25.433 18 27 16.433 27 14.5C27 12.567 25.433 11 23.5 11C21.567 11 20 12.567 20 14.5C20 16.433 21.567 18 23.5 18Z" stroke="#7DD5F9" stroke-width="2"/>
<path d="M13 24C14.6569 24 16 22.6569 16 21C16 19.3431 14.6569 18 13 18C11.3431 18 10 19.3431 10 21C10 22.6569 11.3431 24 13 24Z" stroke="#7DD5F9" stroke-width="2"/>
<path d="M23.5 29C24.8807 29 26 27.8807 26 26.5C26 25.1193 24.8807 24 23.5 24C22.1193 24 21 25.1193 21 26.5C21 27.8807 22.1193 29 23.5 29Z" stroke="#7DD5F9" stroke-width="2"/>
<path d="M21 26L16 23" stroke="#7DD5F9" stroke-width="2"/>
</svg>
