<svg width="24" height="24" viewBox="0 0 24 24" fill="none" xmlns="http://www.w3.org/2000/svg">
<g clip-path="url(#clip0_222_916)">
<path d="M0 12C0 5.37259 5.37259 0 12 0C18.6274 0 24 5.37259 24 12C24 18.6274 18.6274 24 12 24C5.37259 24 0 18.6274 0 12Z" fill="#E6B1F7"/>
<path fill-rule="evenodd" clip-rule="evenodd" d="M10.2502 10.5V13H11.7502V10.8106L13.5306 9.0303C14.0661 8.4948 14.9344 8.4948 15.4699 9.0303C16.0054 9.56586 16.0054 10.4341 15.4699 10.9696L14.9699 11.4697L16.0306 12.5303L16.5306 12.0303C17.6519 10.909 17.6519 9.09096 16.5306 7.96962C15.4093 6.84834 13.5913 6.84834 12.4699 7.96962L10.4699 9.96966C10.3292 10.1103 10.2502 10.301 10.2502 10.5ZM14.2502 14V11.5H12.7502V13.6893L10.9699 15.4696C10.4344 16.0052 9.56609 16.0052 9.03059 15.4696C8.49503 14.9341 8.49503 14.0659 9.03059 13.5303L9.53057 13.0303L8.46989 11.9696L7.96991 12.4696C6.84857 13.591 6.84857 15.409 7.96991 16.5303C9.09125 17.6516 10.9093 17.6516 12.0306 16.5303L14.0306 14.5303C14.1712 14.3897 14.2502 14.1989 14.2502 14Z" fill="#FEFEFE"/>
</g>
<defs>
<clipPath id="clip0_222_916">
<rect width="24" height="24" fill="white"/>
</clipPath>
</defs>
</svg>
