<svg width="80" height="80" viewBox="0 0 80 80" fill="none" xmlns="http://www.w3.org/2000/svg">
<path d="M62.6111 36.7466C62.1234 38.4477 60.0713 40.1795 55.8356 40.9695C51.7533 41.7309 46.3288 41.4404 40.5848 39.7933C34.8407 38.1463 30.0865 35.518 27.028 32.709C23.8546 29.7945 23.032 27.2385 23.5198 25.5374C24.0076 23.8362 26.0597 22.1045 30.2954 21.3145C34.3776 20.5531 39.8022 20.8435 45.5462 22.4906C51.2903 24.1377 56.0445 26.7659 59.1029 29.5749C62.2763 32.4894 63.0989 35.0455 62.6111 36.7466Z" stroke="#FEFEFE" stroke-width="4.66667"/>
<path d="M23.6201 27.4583L28.4871 72.2294C28.5177 72.5112 28.8638 72.6286 29.0596 72.4235L61.1617 38.7916" stroke="#FEFEFE" stroke-width="4.66667"/>
<path d="M25.334 47C31.3054 51.9051 38.9942 54.2112 46.6794 53.4022L47.334 53.3333" stroke="#FEFEFE" stroke-width="4.66667"/>
<path d="M52.6032 10.6667L52.3321 11.2481C51.7654 12.4634 50.5461 13.2404 49.2052 13.2408L48.1918 13.2411C47.3179 13.2414 46.5574 13.8391 46.3506 14.6882C46.1529 15.4999 46.5099 16.3453 47.2295 16.7697L52.1793 19.6885C53.0212 20.185 53.3845 21.2146 53.0406 22.1295C52.6496 23.1695 51.4895 23.6957 50.4495 23.3048L46.6036 21.8591C45.8753 21.5853 45.0538 21.7747 44.5188 22.3397C43.9413 22.9498 43.8236 23.8629 44.2276 24.5994L45.2186 26.4061C45.7422 27.3606 45.6161 28.5402 44.9027 29.3625C44.0355 30.3621 42.5561 30.5515 41.4651 29.8026L40.5322 29.1624" stroke="#121233" stroke-width="8.66667"/>
<path d="M52.6032 10.6667L52.3321 11.2481C51.7654 12.4634 50.5461 13.2404 49.2052 13.2408L48.1918 13.2411C47.3179 13.2414 46.5574 13.8391 46.3506 14.6882C46.1529 15.4999 46.5099 16.3453 47.2295 16.7697L52.1793 19.6885C53.0212 20.185 53.3845 21.2146 53.0406 22.1295C52.6496 23.1695 51.4895 23.6957 50.4495 23.3048L46.6036 21.8591C45.8753 21.5853 45.0538 21.7747 44.5188 22.3397C43.9413 22.9498 43.8236 23.8629 44.2276 24.5994L45.2186 26.4061C45.7422 27.3606 45.6161 28.5402 44.9027 29.3625C44.0355 30.3621 42.5561 30.5515 41.4651 29.8026L40.5322 29.1624" stroke="#FEFEFE" stroke-width="3.66667"/>
<path d="M52 36C54.3333 32.4444 61.4 25.0667 71 24" stroke="#121234" stroke-width="9.33333"/>
<path d="M52 36C54.3333 32.4444 61.4 25.0667 71 24" stroke="#FEFEFE" stroke-width="4.66667"/>
<path d="M32.1394 28.6894C33.2383 24.5586 33.6821 14.9229 26.666 9.427" stroke="#121234" stroke-width="9.33333"/>
<path d="M32.1394 28.6894C33.2383 24.5586 33.6821 14.9229 26.666 9.427" stroke="#FEFEFE" stroke-width="4.66667"/>
</svg>
