<svg width="24" height="24" viewBox="0 0 24 24" fill="none" xmlns="http://www.w3.org/2000/svg">
<path fill-rule="evenodd" clip-rule="evenodd" d="M3.75 6.375H20.25V11.625H22.125V4.5H1.875V19.5H10.125V17.625H3.75V6.375ZM15.75 20.8125C13.7825 20.8125 12.1875 19.2175 12.1875 17.25C12.1875 15.2825 13.7825 13.6875 15.75 13.6875H16.875L16.125 15.5625H15.75C14.818 15.5625 14.0625 16.318 14.0625 17.25C14.0625 18.182 14.818 18.9375 15.75 18.9375H16.875V20.8125H15.75ZM19.875 13.6875C21.8425 13.6875 23.4375 15.2825 23.4375 17.25C23.4375 19.2175 21.8425 20.8125 19.875 20.8125H18.75L19.5 18.9375H19.875C20.807 18.9375 21.5625 18.182 21.5625 17.25C21.5625 16.318 20.807 15.5625 19.875 15.5625H18.75V13.6875H19.875ZM16.125 18.1875H19.5V16.3125H16.125V18.1875ZM7.15305 8.52855L6.34695 10.2214L12 12.9134L17.653 10.2214L16.847 8.52855L12 10.8366L7.15305 8.52855Z" fill="#FEFEFE"/>
</svg>
