<svg width="24" height="24" viewBox="0 0 24 24" fill="none" xmlns="http://www.w3.org/2000/svg">
<path d="M18.3141 10.6234C17.0016 10.6234 15.725 10.1969 14.675 9.40781V14.9125C14.675 17.7234 12.5094 20 9.8375 20C7.16562 20 5 17.7234 5 14.9125C5 12.1016 7.16562 9.825 9.8375 9.825C10.1047 9.825 10.3641 9.84844 10.6172 9.89219V12.8078C10.375 12.7125 10.1172 12.6641 9.85781 12.6641C8.66563 12.6641 7.69844 13.6797 7.69844 14.9344C7.69844 16.1875 8.66563 17.2047 9.85781 17.2047C11.0484 17.2047 12.0156 16.1875 12.0156 14.9344V4H14.7141C14.7141 6.10156 16.3344 7.80469 18.3328 7.80469V10.6219L18.3141 10.6234Z" fill="url(#paint0_linear_1_414)"/>
<defs>
<linearGradient id="paint0_linear_1_414" x1="5" y1="12.2759" x2="18.3328" y2="12.2759" gradientUnits="userSpaceOnUse">
<stop stop-color="#9EE6FC"/>
<stop offset="1" stop-color="#EBB9E7"/>
</linearGradient>
</defs>
</svg>
