<svg width="24" height="24" viewBox="0 0 24 24" fill="none" xmlns="http://www.w3.org/2000/svg">
<path fill-rule="evenodd" clip-rule="evenodd" d="M7.5 2.25H9.375V3.375H14.625V2.25H16.5V3.375H21V7.125H19.125V5.25H16.5V6.375H14.625V5.25H9.375V6.375H7.5V5.25H4.875V18.75H7.5V20.625H3V3.375H7.5V2.25ZM15.75 20.25C18.4424 20.25 20.625 18.0674 20.625 15.375C20.625 12.6826 18.4424 10.5 15.75 10.5C13.0576 10.5 10.875 12.6826 10.875 15.375C10.875 18.0674 13.0576 20.25 15.75 20.25ZM15.75 22.125C19.4779 22.125 22.5 19.1029 22.5 15.375C22.5 11.6471 19.4779 8.625 15.75 8.625C12.0221 8.625 9 11.6471 9 15.375C9 19.1029 12.0221 22.125 15.75 22.125ZM16.0379 17.163L18.9508 14.2502L17.625 12.9243L15.375 15.1743L14.25 14.0493L12.9242 15.3752L14.7121 17.163C15.0782 17.5292 15.6718 17.5292 16.0379 17.163Z" fill="#FEFEFE"/>
</svg>
