<svg width="12" height="12" viewBox="0 0 12 12" fill="none" xmlns="http://www.w3.org/2000/svg">
<g clip-path="url(#clip0_1_28)">
<mask id="mask0_1_28" style="mask-type:alpha" maskUnits="userSpaceOnUse" x="0" y="0" width="12" height="12">
<path d="M11.25 0.75H0.75V11.25H11.25V0.75Z" fill="#D9D9D9" stroke="#FEFEFE" stroke-width="1.5"/>
</mask>
<g mask="url(#mask0_1_28)">
<path fill-rule="evenodd" clip-rule="evenodd" d="M4.92792 1.78481L3.86726 2.84547L4.92792 3.90613L5.98858 2.84547C6.86726 1.96679 8.29188 1.96679 9.17056 2.84547C10.0492 3.72415 10.0492 5.14877 9.17056 6.02745L8.1099 7.08811L9.17056 8.14877L10.2312 7.08811C11.6957 5.62365 11.6957 3.24928 10.2312 1.78481C8.76675 0.320346 6.39238 0.320347 4.92792 1.78481ZM2.0833 4.62943L0.995994 3.54212L2.05665 2.48146L9.48127 9.90608L8.42061 10.9667L7.3866 9.93273L7.04923 10.2701C5.58476 11.7346 3.2104 11.7346 1.74593 10.2701C0.281466 8.80564 0.281466 6.43127 1.74593 4.9668L2.0833 4.62943ZM6.32594 8.87207L5.98857 9.20944C5.10989 10.0881 3.68527 10.0881 2.80659 9.20944C1.92791 8.33076 1.92791 6.90614 2.80659 6.02746L3.14396 5.69009L6.32594 8.87207Z" fill="#FEFEFE"/>
</g>
</g>
<defs>
<clipPath id="clip0_1_28">
<rect width="12" height="12" fill="white"/>
</clipPath>
</defs>
</svg>
