<svg width="24" height="24" viewBox="0 0 24 24" fill="none" xmlns="http://www.w3.org/2000/svg">
<path d="M12.7531 12.0325C12.7531 11.9723 12.6929 11.8518 12.6326 11.7916L4.80251 4.32288C4.74228 4.26265 4.62182 4.26265 4.56159 4.26265C4.44112 4.26265 4.38089 4.32288 4.32066 4.44334C4.26043 4.62404 4.2002 4.80473 4.2002 4.98543V19.0796C4.2002 19.2603 4.26043 19.441 4.32066 19.6217C4.38089 19.682 4.44112 19.8024 4.56159 19.8024H4.62182C4.68205 19.8024 4.80251 19.8024 4.80251 19.7422L12.6929 12.2735C12.7531 12.2132 12.7531 12.0928 12.7531 12.0325ZM13.1747 11.4302C13.2349 11.4904 13.2952 11.4904 13.3554 11.4904C13.4156 11.4904 13.4759 11.4904 13.5361 11.4302L15.7044 9.38234C15.7647 9.32211 15.8249 9.20164 15.8249 9.14141C15.8249 9.02095 15.7647 8.96072 15.6442 8.90048L6.24807 3.78079C6.06738 3.66033 5.88668 3.66033 5.70599 3.6001C5.58552 3.6001 5.46506 3.66033 5.40483 3.78079C5.3446 3.90126 5.40483 4.02172 5.46506 4.14218L13.1747 11.4302ZM13.5963 12.6348C13.4759 12.5144 13.2952 12.5144 13.1747 12.6348L5.46506 19.9229C5.40483 20.0433 5.3446 20.1638 5.40483 20.2843C5.46506 20.4047 5.58552 20.465 5.70599 20.465C5.88668 20.465 6.06738 20.4047 6.24807 20.2843L15.584 15.1043C15.6442 15.0441 15.7044 14.9839 15.7647 14.8634C15.7647 14.743 15.7647 14.6827 15.6442 14.6225L13.5963 12.6348ZM19.0774 10.7677L16.7886 9.5028C16.6681 9.44257 16.5477 9.44257 16.4272 9.56303L14.018 11.8518C13.9577 11.9121 13.8975 11.9723 13.8975 12.0928C13.8975 12.2132 13.9577 12.2735 14.018 12.3337L16.367 14.5623C16.4272 14.6225 16.4875 14.6225 16.5477 14.6225C16.6079 14.6225 16.6681 14.6225 16.6681 14.5623L19.0774 13.2372C19.499 12.9962 19.8002 12.5144 19.8002 12.0325C19.8002 11.5507 19.6195 11.0086 19.0774 10.7677Z" fill="#FEFEFE"/>
</svg>
