<svg width="24" height="24" viewBox="0 0 24 24" fill="none" xmlns="http://www.w3.org/2000/svg">
<path fill-rule="evenodd" clip-rule="evenodd" d="M20.4256 2.37843L18.457 1L12.1477 10.0107L11.9848 12.3382L14.1163 11.3891L17.8068 6.11843C19.2689 7.44221 20 9.08606 20 11.05C20 12.4 19.6083 13.3958 18.825 14.0375C18.0417 14.6792 17.1 15 16 15H14.25C13.55 15 12.9583 15.2083 12.475 15.625C11.9917 16.0417 11.75 16.6 11.75 17.3C11.75 17.9333 11.875 18.4083 12.125 18.725C12.375 19.0417 12.5 19.3167 12.5 19.55C12.5 19.6833 12.4542 19.7917 12.3625 19.875C12.2708 19.9583 12.15 20 12 20C9.78333 20 7.89583 19.2208 6.3375 17.6625C4.77917 16.1042 4 14.2167 4 12C4 9.76667 4.8 7.875 6.4 6.325C8 4.775 9.93333 4 12.2 4C12.4493 4 12.6946 4.00931 12.936 4.02792L14.225 2.18701C13.5704 2.06234 12.8954 2 12.2 2C10.8 2 9.48333 2.2625 8.25 2.7875C7.01667 3.3125 5.9375 4.025 5.0125 4.925C4.0875 5.825 3.35417 6.88333 2.8125 8.1C2.27083 9.31667 2 10.6167 2 12C2 13.3667 2.2625 14.6583 2.7875 15.875C3.3125 17.0917 4.02917 18.1542 4.9375 19.0625C5.84583 19.9708 6.90833 20.6875 8.125 21.2125C9.34167 21.7375 10.6333 22 12 22C12.75 22 13.3542 21.8 13.8125 21.4C14.2708 21 14.5 20.3833 14.5 19.55C14.5 19.0667 14.375 18.6375 14.125 18.2625C13.875 17.8875 13.75 17.6 13.75 17.4C13.75 17.3 13.7792 17.2083 13.8375 17.125C13.8958 17.0417 14 17 14.15 17H16C17.6667 17 19.0833 16.4875 20.25 15.4625C21.4167 14.4375 22 12.9667 22 11.05C22 9.76667 21.7375 8.57083 21.2125 7.4625C20.6875 6.35417 19.9792 5.39583 19.0875 4.5875C19.045 4.54896 19.0021 4.51081 18.959 4.47306L20.4256 2.37843ZM9.575 14.575C9.29167 14.8583 8.93333 15 8.5 15C8.06667 15 7.70833 14.8583 7.425 14.575C7.14167 14.2917 7 13.9333 7 13.5C7 13.0667 7.14167 12.7083 7.425 12.425C7.70833 12.1417 8.06667 12 8.5 12C8.93333 12 9.29167 12.1417 9.575 12.425C9.85833 12.7083 10 13.0667 10 13.5C10 13.9333 9.85833 14.2917 9.575 14.575Z" fill="#FEFEFE"/>
</svg>
