<svg width="24" height="24" viewBox="0 0 24 24" fill="none" xmlns="http://www.w3.org/2000/svg">
<path fill-rule="evenodd" clip-rule="evenodd" d="M12 2.6001C12.3574 2.6001 12.6876 2.79082 12.8662 3.10038L21.8662 18.7004C22.0447 19.0098 22.0446 19.3909 21.8659 19.7002C21.6873 20.0096 21.3572 20.2001 21 20.2001H3C2.64279 20.2001 2.31271 20.0096 2.13405 19.7002C1.9554 19.3909 1.95531 19.0098 2.13381 18.7004L11.1338 3.10038C11.3124 2.79082 11.6426 2.6001 12 2.6001ZM19.2686 18.2001L12 5.60121L4.73141 18.2001H19.2686ZM13 15V17H11V15H13ZM13 14V9H11V14H13Z" fill="#FEFEFE"/>
</svg>
