<svg width="24" height="24" viewBox="0 0 24 24" fill="none" xmlns="http://www.w3.org/2000/svg">
<path d="M22.125 14.25V17.4268C22.1249 18.4803 21.5723 19.4569 20.6689 19.999L18.375 21.375L16.0811 19.999C15.1777 19.4569 14.6251 18.4803 14.625 17.4268V14.25L18.375 13.125L22.125 14.25ZM22.125 11.625H20.25V6.375H3.75V17.625H13.125V19.5H1.875V4.5H22.125V11.625ZM16.5 15.6455V17.4268C16.5001 17.8216 16.7074 18.1873 17.0459 18.3906L18.375 19.1885L19.7041 18.3906C20.0426 18.1873 20.2499 17.8216 20.25 17.4268V15.6455L18.375 15.083L16.5 15.6455ZM17.6533 10.2217L12 12.9131L6.34668 10.2217L7.15332 8.52832L12 10.8369L16.8467 8.52832L17.6533 10.2217Z" fill="#FEFEFE"/>
</svg>
