<svg width="120" height="120" viewBox="0 0 120 120" fill="none" xmlns="http://www.w3.org/2000/svg">
<path fill-rule="evenodd" clip-rule="evenodd" d="M60 46.5C54.6783 46.5 49.7096 48.0116 45.5 50.6289V41H38.5V56.8519C34.7449 61.5538 32.5 67.5148 32.5 74C32.5 89.1878 44.8122 101.5 60 101.5C75.1878 101.5 87.5 89.1878 87.5 74C87.5 58.8122 75.1878 46.5 60 46.5ZM60 53.5C48.6782 53.5 39.5 62.6782 39.5 74C39.5 85.3218 48.6782 94.5 60 94.5C71.3218 94.5 80.5 85.3218 80.5 74C80.5 62.6782 71.3218 53.5 60 53.5ZM51.5 74C51.5 69.3056 55.3056 65.5 60 65.5C64.6944 65.5 68.5 69.3056 68.5 74C68.5 77.4467 66.4485 80.4143 63.5 81.7483V85.1333L56.5 87V81.7483C53.5515 80.4143 51.5 77.4467 51.5 74Z" fill="#FEFEFE"/>
<path fill-rule="evenodd" clip-rule="evenodd" d="M60 19.5C48.1259 19.5 38.5 29.1259 38.5 41V46.3801C40.6471 44.7063 42.9944 43.2775 45.5 42.1355V41C45.5 32.9919 51.9919 26.5 60 26.5C68.0081 26.5 74.5 32.9919 74.5 41V42.1355C77.0056 43.2775 79.3529 44.7063 81.5 46.3801V41C81.5 29.1259 71.8741 19.5 60 19.5Z" fill="#FEFEFE"/>
</svg>
