<svg width="24" height="24" viewBox="0 0 24 24" fill="none" xmlns="http://www.w3.org/2000/svg">
<path d="M11.9707 2.3999C6.96068 2.3999 2.79066 6.2999 2.43066 11.2199L7.56068 13.3499C8.01068 13.0499 8.52068 12.8999 9.09068 12.8999H9.24068L11.5207 9.5699V9.5399C11.5207 7.5599 13.1407 5.9099 15.1507 5.9099C17.1607 5.9099 18.7807 7.5299 18.7807 9.5399C18.7807 11.5499 17.1607 13.1699 15.1507 13.1699H15.0607L11.7907 15.5099V15.6299C11.7907 17.1299 10.5607 18.3599 9.06068 18.3599C7.74068 18.3599 6.63068 17.3999 6.39068 16.1699L2.73066 14.6099C3.87066 18.6299 7.59068 21.5999 11.9707 21.5999C17.2807 21.5999 21.5707 17.3099 21.5707 11.9999C21.5707 6.6899 17.2807 2.3999 11.9707 2.3999Z" fill="#FEFEFE"/>
<path d="M8.43074 16.9806L7.26074 16.5006C7.47074 16.9506 7.83074 17.3106 8.31074 17.4906C9.33074 17.9406 10.5307 17.4306 10.9807 16.4106C11.1907 15.9006 11.1907 15.3606 10.9807 14.8506C10.7707 14.3406 10.3807 13.9506 9.90074 13.7406C9.42074 13.5306 8.88074 13.5606 8.40074 13.7106L9.63074 14.2206C10.3807 14.5506 10.7707 15.4206 10.4407 16.1706C10.0807 16.9206 9.21074 17.2806 8.43074 16.9806ZM17.5507 9.51057C17.5507 8.19057 16.4707 7.08057 15.1207 7.08057C13.8007 7.08057 12.6907 8.16057 12.6907 9.51057C12.6907 10.8606 13.8007 11.9406 15.1207 11.9406C16.4407 11.9406 17.5507 10.8606 17.5507 9.51057ZM13.3507 9.51057C13.3507 8.49057 14.1607 7.71057 15.1507 7.71057C16.1707 7.71057 16.9507 8.52057 16.9507 9.51057C16.9507 10.5306 16.1407 11.3106 15.1507 11.3106C14.1607 11.3406 13.3507 10.5306 13.3507 9.51057Z" fill="#FEFEFE"/>
</svg>
