<svg width="24" height="24" viewBox="0 0 24 24" fill="none" xmlns="http://www.w3.org/2000/svg">
<path d="M7.15228 9.03137H17.087V16.2386C17.087 16.8982 16.5554 17.4297 15.9085 17.4297H15.0943V19.8861C15.0943 20.5034 14.5977 21 13.9815 21C13.3642 21 12.8645 20.5024 12.8645 19.8861V17.4297H11.3737V19.8861C11.3737 20.5024 10.8739 21 10.2567 21C9.6521 21 9.15341 20.5024 9.15341 19.8861L9.14388 17.4297H8.34237C7.6838 17.4297 7.15228 16.8993 7.15228 16.2386V9.03137ZM5.61491 8.82597C4.99869 8.82597 4.5 9.32466 4.5 9.92923V14.5837C4.5 15.201 4.99869 15.6975 5.61491 15.6975C6.23113 15.6975 6.71818 15.1999 6.71818 14.5837V9.92923C6.71818 9.32466 6.22266 8.82597 5.61491 8.82597ZM17.1187 8.64174H7.10887C7.10887 6.92119 8.13802 5.42723 9.66375 4.64902L8.894 3.23235C8.85059 3.15612 8.87177 3.05871 8.948 3.0153C9.02317 2.98247 9.12164 3.00365 9.16505 3.08094L9.94327 4.50926C10.605 4.21597 11.3409 4.05397 12.1191 4.05397C12.8973 4.05397 13.6332 4.21597 14.2949 4.5082L15.0731 3.07988C15.1165 3.00365 15.215 2.98247 15.2902 3.01424C15.3664 3.05765 15.3876 3.15506 15.3442 3.23129L14.5744 4.64796C16.0906 5.42723 17.1187 6.92119 17.1187 8.64174ZM10.2567 6.41297C10.2567 6.18533 10.0735 5.99051 9.83633 5.99051C9.60763 5.99051 9.42446 6.18533 9.42446 6.41297C9.42446 6.63955 9.60763 6.83437 9.83633 6.83437C10.0735 6.83543 10.2567 6.64061 10.2567 6.41297ZM14.8137 6.41297C14.8137 6.18533 14.6306 5.99051 14.4019 5.99051C14.1636 5.99051 13.9815 6.18533 13.9815 6.41297C13.9815 6.63955 14.1647 6.83437 14.4019 6.83437C14.6306 6.83543 14.8137 6.64061 14.8137 6.41297ZM18.6233 8.82597C18.0166 8.82597 17.52 9.31301 17.52 9.92923V14.5837C17.52 15.201 18.0166 15.6975 18.6233 15.6975C19.2395 15.6975 19.7382 15.1999 19.7382 14.5837V9.92923C19.7371 9.31301 19.2395 8.82597 18.6233 8.82597Z" fill="#FEFEFE"/>
</svg>
