<svg width="24" height="24" viewBox="0 0 24 24" fill="none" xmlns="http://www.w3.org/2000/svg">
<path fill-rule="evenodd" clip-rule="evenodd" d="M21 6.5C21 8.98528 18.9853 11 16.5 11C15.2236 11 14.0712 10.4685 13.2523 9.61484L9.7828 11.6965C9.9236 12.1051 10 12.5436 10 13C10 13.4564 9.9236 13.8949 9.7828 14.3034L13.5743 16.5783C14.2 15.6276 15.2767 15 16.5 15C18.433 15 20 16.567 20 18.5C20 20.433 18.433 22 16.5 22C14.5892 22 13.036 20.4688 13.0006 18.5665L8.67694 15.9722C7.96805 16.6111 7.02944 17 6 17C3.79086 17 2 15.2091 2 13C2 10.7909 3.79086 9 6 9C7.0294 9 7.96799 9.38886 8.67687 10.0277L12.2222 7.90049C12.078 7.45972 12 6.98897 12 6.5C12 4.01472 14.0147 2 16.5 2C18.9853 2 21 4.01472 21 6.5ZM16.5 9C17.8807 9 19 7.88071 19 6.5C19 5.11929 17.8807 4 16.5 4C15.1193 4 14 5.11929 14 6.5C14 7.88071 15.1193 9 16.5 9ZM8 13C8 14.1046 7.10457 15 6 15C4.89543 15 4 14.1046 4 13C4 11.8954 4.89543 11 6 11C7.10457 11 8 11.8954 8 13ZM16.5 20C17.3284 20 18 19.3284 18 18.5C18 17.6716 17.3284 17 16.5 17C15.6716 17 15 17.6716 15 18.5C15 19.3284 15.6716 20 16.5 20Z" fill="#FEFEFE"/>
</svg>
