<svg width="24" height="24" viewBox="0 0 24 24" fill="none" xmlns="http://www.w3.org/2000/svg">
<path d="M21.2939 8.80273C21.8738 10.3495 21.2419 11.9675 19.9999 12.7939V19H20.9999V21H2.99992V19H3.99992V12.7939C2.75801 11.9675 2.12607 10.3495 2.70598 8.80273L4.88273 3H19.1181L21.2939 8.80273ZM14.8466 11.7754C14.7998 11.8502 14.7501 11.9229 14.6982 11.9932C14.4139 12.3775 14.0538 12.6915 13.6464 12.9209C13.1515 13.1995 12.5863 13.3525 11.9999 13.3525C11.4136 13.3525 10.8483 13.1995 10.3534 12.9209C9.94604 12.6915 9.58597 12.3774 9.30168 11.9932C9.24972 11.9229 9.2 11.8502 9.15324 11.7754L8.92668 11.4121L8.76848 11.6816C8.63369 11.9127 8.47433 12.1248 8.29387 12.3135C8.06352 12.5543 7.7993 12.758 7.51164 12.9199C7.05508 13.1769 6.53835 13.3253 5.99992 13.3477V19H17.9999V13.3477C17.4615 13.3253 16.9447 13.1769 16.4882 12.9199C16.2006 12.758 15.9363 12.5543 15.706 12.3135C15.5255 12.1248 15.3662 11.9127 15.2314 11.6816L15.0732 11.4121L14.8466 11.7754ZM4.57902 9.50488C4.24376 10.3989 4.90452 11.3523 5.8593 11.3525C6.3456 11.3525 6.79575 11.0947 7.04094 10.6748L8.86711 7.54395L10.8495 10.7158C11.0974 11.1123 11.5323 11.3525 11.9999 11.3525C12.4675 11.3525 12.9024 11.1123 13.1503 10.7158L15.1327 7.54395L16.9589 10.6748C17.2041 11.0948 17.6542 11.3525 18.1405 11.3525C19.0954 11.3523 19.7561 10.399 19.4208 9.50488L17.7314 5H6.26848L4.57902 9.50488Z" fill="#FEFEFE"/>
</svg>
