<svg width="40" height="40" viewBox="0 0 40 40" fill="none" xmlns="http://www.w3.org/2000/svg">
<path fill-rule="evenodd" clip-rule="evenodd" d="M37.3207 10L20.0002 0L2.67969 10V30L20.0002 40L37.3207 30V10ZM3.67969 29.4226V10.5774L20.0002 1.1547L36.3207 10.5774V29.4226L20.0002 38.8452L3.67969 29.4226ZM16.7828 19.6965L20.2522 17.6148C21.0712 18.4685 22.2235 19 23.5 19C25.9853 19 28 16.9853 28 14.5C28 12.0147 25.9853 10 23.5 10C21.0147 10 19 12.0147 19 14.5C19 14.989 19.078 15.4597 19.2222 15.9005L15.6769 18.0277C14.968 17.3888 14.0294 17 13 17C10.7909 17 9 18.7909 9 21C9 23.2091 10.7909 25 13 25C14.0294 25 14.9679 24.6112 15.6768 23.9724L20.0006 26.5667C20.0362 28.4689 21.5893 30 23.5 30C25.433 30 27 28.433 27 26.5C27 24.567 25.433 23 23.5 23C22.2766 23 21.1999 23.6276 20.5742 24.5785L16.7828 22.3036C16.9236 21.895 17 21.4564 17 21C17 20.5436 16.9236 20.1051 16.7828 19.6965ZM23.5 12C22.1193 12 21 13.1193 21 14.5C21 15.8807 22.1193 17 23.5 17C24.8807 17 26 15.8807 26 14.5C26 13.1193 24.8807 12 23.5 12ZM11 21C11 19.8954 11.8954 19 13 19C14.1046 19 15 19.8954 15 21C15 22.1046 14.1046 23 13 23C11.8954 23 11 22.1046 11 21ZM23.5 25C22.6716 25 22 25.6716 22 26.5C22 27.3284 22.6716 28 23.5 28C24.3284 28 25 27.3284 25 26.5C25 25.6716 24.3284 25 23.5 25Z" fill="#FEFEFE"/>
</svg>
