<svg width="24" height="24" viewBox="0 0 24 24" fill="none" xmlns="http://www.w3.org/2000/svg">
<path fill-rule="evenodd" clip-rule="evenodd" d="M16.0909 4.63636H7.90909C6.10165 4.63636 4.63636 6.10165 4.63636 7.90909V16.0909C4.63636 17.8984 6.10165 19.3636 7.90909 19.3636H16.0909C17.8984 19.3636 19.3636 17.8984 19.3636 16.0909V7.90909C19.3636 6.10165 17.8984 4.63636 16.0909 4.63636ZM7.90909 3C5.19788 3 3 5.19788 3 7.90909V16.0909C3 18.8021 5.19788 21 7.90909 21H16.0909C18.8021 21 21 18.8021 21 16.0909V7.90909C21 5.19788 18.8021 3 16.0909 3H7.90909ZM12 15.2727C13.8074 15.2727 15.2727 13.8074 15.2727 12C15.2727 10.1926 13.8074 8.72727 12 8.72727C10.1926 8.72727 8.72727 10.1926 8.72727 12C8.72727 13.8074 10.1926 15.2727 12 15.2727ZM12 16.9091C14.7112 16.9091 16.9091 14.7112 16.9091 12C16.9091 9.28879 14.7112 7.09091 12 7.09091C9.28879 7.09091 7.09091 9.28879 7.09091 12C7.09091 14.7112 9.28879 16.9091 12 16.9091ZM16.9091 7.90909C17.361 7.90909 17.7273 7.54279 17.7273 7.09091C17.7273 6.63903 17.361 6.27273 16.9091 6.27273C16.4572 6.27273 16.0909 6.63903 16.0909 7.09091C16.0909 7.54279 16.4572 7.90909 16.9091 7.90909Z" fill="url(#paint0_linear_1_462)"/>
<defs>
<linearGradient id="paint0_linear_1_462" x1="3" y1="12.3103" x2="21" y2="12.3103" gradientUnits="userSpaceOnUse">
<stop stop-color="#9EE6FC"/>
<stop offset="1" stop-color="#EBB9E7"/>
</linearGradient>
</defs>
</svg>
