<svg width="24" height="24" viewBox="0 0 24 24" fill="none" xmlns="http://www.w3.org/2000/svg">
<path fill-rule="evenodd" clip-rule="evenodd" d="M20.7683 5.35998C21.0121 5.65257 21.0685 6.05819 20.9138 6.40617L15.5805 18.4062C15.462 18.6729 15.2329 18.8745 14.9533 18.9581C14.6736 19.0417 14.3715 18.999 14.126 18.8412L11.4593 17.1269L12.5408 15.4446L14.2265 16.5282L18.2623 7.44758L5.74058 10.4662L7.45603 12.6718C7.64071 12.9092 7.70869 13.2172 7.64114 13.5103L7.35904 14.7344L12.7398 10.7666L13.9268 12.3763L6.37128 17.9478C6.03452 18.1961 5.57875 18.2085 5.22897 17.9789C4.87919 17.7492 4.70937 17.3261 4.80333 16.9184L5.58546 13.5244L3.21066 10.4711C3.00215 10.203 2.94396 9.84746 3.05613 9.5269C3.16829 9.20634 3.43549 8.96462 3.76565 8.88502L19.7657 5.02788C20.1359 4.93864 20.5246 5.0674 20.7683 5.35998Z" fill="#FEFEFE"/>
</svg>
