<svg width="24" height="24" viewBox="0 0 24 24" fill="none" xmlns="http://www.w3.org/2000/svg">
<g clip-path="url(#clip0_1_626)">
<path d="M12 24C18.6274 24 24 18.6274 24 12C24 5.37258 18.6274 0 12 0C5.37258 0 0 5.37258 0 12C0 18.6274 5.37258 24 12 24Z" fill="url(#paint0_linear_1_626)"/>
<path d="M15.8944 14.2666L19.2151 12.3548C19.3908 12.2535 19.5 12.065 19.5 11.8626V8.03824C19.5 7.83607 19.3908 7.64725 19.2151 7.54602L15.8944 5.63416C15.7188 5.53293 15.5003 5.53323 15.3247 5.63416L12.0041 7.54602C11.8284 7.64725 11.7192 7.83578 11.7192 8.03824V14.872L9.39071 16.2123L7.06224 14.872V12.1903L9.39071 10.8499L10.9267 11.734V9.93526L9.67559 9.21504C9.58926 9.16546 9.49073 9.13934 9.39071 9.13934C9.29069 9.13934 9.19216 9.16546 9.10583 9.21504L5.78488 11.1272C5.60925 11.2284 5.5 11.417 5.5 11.6194V15.4434C5.5 15.6456 5.60925 15.8344 5.78488 15.9357L9.10553 17.8478C9.28116 17.9488 9.49936 17.9488 9.67529 17.8478L12.9959 15.936C13.1716 15.8347 13.2808 15.6459 13.2808 15.4437V8.61002L13.3228 8.58597L15.6093 7.26964L17.9377 8.61032V11.2917L15.6093 12.6323L14.0756 11.7494V13.5482L15.3244 14.2675C15.5 14.3685 15.7185 14.3685 15.8941 14.2675L15.8944 14.2666Z" fill="white"/>
</g>
<defs>
<linearGradient id="paint0_linear_1_626" x1="0" y1="0" x2="20.8589" y2="26.4748" gradientUnits="userSpaceOnUse">
<stop stop-color="#A726C1"/>
<stop offset="0.88" stop-color="#803BDF"/>
<stop offset="1" stop-color="#7B3FE4"/>
</linearGradient>
<clipPath id="clip0_1_626">
<rect width="24" height="24" fill="white"/>
</clipPath>
</defs>
</svg>
