<svg width="24" height="24" viewBox="0 0 24 24" fill="none" xmlns="http://www.w3.org/2000/svg">
<path fill-rule="evenodd" clip-rule="evenodd" d="M7.43381 16.0001H3V18.0001H8C8.35126 18.0001 8.67677 17.8158 8.85749 17.5146L9.84767 15.8643L9.7998 15.9002L8.51866 14.192L7.43381 16.0001ZM11 10.0564L8.85749 6.4855C8.67677 6.1843 8.35126 6 8 6H3V8H7.43381L13.1425 17.5145C13.3232 17.8157 13.6487 18 14 18H17.5858L16.2929 19.2929L17.7071 20.7071L20.7071 17.7071C20.9931 17.4211 21.0787 16.991 20.9239 16.6173C20.7691 16.2436 20.4045 16 20 16H14.5662L12.1662 12L14.5662 8.00008H20C20.4045 8.00008 20.7691 7.75643 20.9239 7.38276C21.0787 7.00908 20.9931 6.57897 20.7071 6.29297L17.7071 3.29297L16.2929 4.70718L17.5858 6.00008H14C13.6487 6.00008 13.3232 6.18437 13.1425 6.48558L11 10.0564Z" fill="#FEFEFE"/>
</svg>
