<svg width="117" height="24" viewBox="0 0 117 24" fill="none" xmlns="http://www.w3.org/2000/svg">
<g clip-path="url(#clip0_222_921)">
<path fill-rule="evenodd" clip-rule="evenodd" d="M28.032 3.48459C28.0365 3.50803 28.0447 3.53061 28.0563 3.55146C28.0624 3.90648 28.0697 4.26039 28.0831 4.62515C28.0936 5.85558 28.1038 7.08683 28.1135 8.31891C28.1241 9.56472 28.1342 10.8105 28.1439 12.0564C28.1475 12.5562 28.1505 13.0561 28.1535 13.5559C28.1575 14.222 28.1614 14.8882 28.167 15.5544C28.1647 15.7345 28.1765 15.9147 28.2022 16.093C28.5256 17.997 29.4534 19.5144 31.102 20.5588C32.223 21.2689 33.4656 21.6628 34.7606 21.906C36.6959 22.2517 38.6703 22.3238 40.6258 22.1199C40.7388 22.109 40.7473 22.0604 40.7473 21.968C40.7425 20.5138 40.7425 19.0572 40.7473 17.5983C40.7473 17.4803 40.7109 17.4608 40.6039 17.4608C39.8422 17.454 39.0835 17.3643 38.3412 17.1933C37.3418 16.9477 36.4226 16.5477 35.6992 15.7903C35.0183 15.0777 34.6377 14.2376 34.6438 13.237C34.6519 12.0009 34.6519 10.7644 34.6438 9.52741C34.6426 9.36211 34.6949 9.33658 34.8432 9.33658H39.6251C39.7382 9.33658 39.7747 9.31345 39.7747 9.19185C39.769 7.76931 39.769 6.3476 39.7747 4.92667C39.7747 4.79536 39.7382 4.77591 39.6166 4.77591C37.9825 4.78199 36.3387 4.78199 34.6998 4.78199C34.5684 4.78199 34.5235 4.75889 34.5235 4.6142V0.769698L34.5157 0.768513L34.521 0.76596L34.527 0.727051H28.032V3.48459ZM1.28555 21.519C1.09977 21.7062 0.913613 21.8937 0.727795 22.0847C0.7241 22.1484 0.761133 22.1433 0.794071 22.1388C0.804457 22.1375 0.814471 22.1361 0.822631 22.1369H8.71467C8.74943 22.1373 8.78376 22.13 8.81532 22.1155C8.84681 22.1009 8.87474 22.0796 8.89707 22.053L11.1391 19.7527C11.7875 19.0856 12.436 18.4177 13.0844 17.7489L13.0881 17.7453C13.1323 17.701 13.1627 17.6705 13.2255 17.7368C13.5471 18.0785 13.8729 18.413 14.198 18.747L14.2881 18.8396C15.3256 19.9103 16.3603 20.9835 17.3922 22.0591C17.4168 22.0865 17.4473 22.108 17.4814 22.122C17.5155 22.1359 17.5523 22.1418 17.5891 22.1393H25.452C25.4599 22.1393 25.4686 22.1407 25.4774 22.142C25.5067 22.1465 25.539 22.1515 25.5614 22.1114L25.5479 22.0963C25.5395 22.0869 25.5312 22.0776 25.5225 22.0689L23.0678 19.5326C21.7659 18.1879 20.4642 16.8423 19.1624 15.496C18.5553 14.8654 17.9454 14.2364 17.3326 13.609C17.2523 13.5202 17.2207 13.4607 17.3326 13.3658C17.44 13.2681 17.5415 13.1642 17.6366 13.0545C18.5566 12.1063 19.4761 11.157 20.3953 10.2071L24.7444 5.706L25.5955 4.82087H25.4168H17.6438C17.5876 4.81896 17.5317 4.82965 17.4802 4.85216C17.4286 4.87467 17.3827 4.90843 17.3459 4.95096C16.9246 5.39685 16.4997 5.83612 16.075 6.27507L16.0743 6.27578C15.9527 6.40147 15.8309 6.52736 15.7094 6.65315C15.4903 6.87952 15.271 7.10544 15.0516 7.33134C14.4557 7.94509 13.8599 8.55876 13.2681 9.18087C13.1756 9.27454 13.1392 9.26967 13.054 9.18087C12.8269 8.94523 12.6009 8.7104 12.3754 8.47592L12.3712 8.47163L12.3703 8.47061C12.0495 8.13716 11.7295 7.80451 11.4078 7.47142C10.5883 6.62843 9.77001 5.78382 8.953 4.93759C8.92318 4.90243 8.88587 4.87444 8.84376 4.85571C8.80165 4.83696 8.7559 4.82797 8.7098 4.82938H5.10119H0.891933C0.880944 4.82938 0.868653 4.82684 0.855984 4.82423C0.816813 4.81613 0.774137 4.80732 0.755758 4.87072C1.35882 5.48027 1.9562 6.09224 2.54792 6.70664L6.4216 10.7116C7.28972 11.6121 8.15947 12.5127 9.03081 13.4132C9.08914 13.4716 9.0855 13.5008 9.03081 13.5555C8.89038 13.6924 8.7559 13.8325 8.621 13.973C8.57256 14.0235 8.52405 14.074 8.47518 14.1245L4.15526 18.5745C3.36821 19.3851 2.58034 20.1956 1.79166 21.0062C1.62361 21.1783 1.45473 21.3485 1.28555 21.519ZM77.1646 6.50593C76.505 6.87469 75.8759 7.29549 75.2832 7.76436C75.2817 7.72974 75.2803 7.71047 75.2788 7.69614L75.2774 7.68043V4.93262C75.2788 4.8159 75.2606 4.77456 75.1275 4.77456C73.3937 4.77943 71.6602 4.77943 69.9265 4.77456C69.8 4.77456 69.772 4.80982 69.772 4.93141V22.0748C69.7708 22.2037 69.8097 22.2268 69.9313 22.2268C71.6602 22.2212 73.3894 22.2212 75.1181 22.2268C75.2577 22.2268 75.2774 22.1806 75.2774 22.0591V15.0777C75.2766 14.9928 75.289 14.9083 75.3137 14.8272C75.5683 14.027 75.9995 13.2943 76.5755 12.6836C77.4272 11.7499 78.4774 11.0836 79.6155 10.5498C80.8381 9.97978 82.1275 9.5656 83.4541 9.31694C83.5501 9.29876 83.5843 9.26836 83.5843 9.16501V8.57898V4.9156C83.5843 4.82806 83.5843 4.76119 83.4621 4.77213C83.3799 4.77821 83.2963 4.77866 83.2126 4.77911C83.1457 4.77947 83.0788 4.77984 83.0126 4.78307C80.9552 4.89208 78.9523 5.48217 77.1646 6.50593ZM91.4752 15.7755V22.0663C91.4752 22.2049 91.4374 22.228 91.3086 22.228H86.3174C86.1959 22.228 86.1595 22.2012 86.1595 22.0736V9.4288C86.1595 9.3072 86.1959 9.27316 86.3174 9.27316H91.3094C91.4395 9.27316 91.4752 9.30232 91.4752 9.43607C91.4723 11.5492 91.4723 13.6623 91.4752 15.7755ZM57.4239 14.9756H47.7859C47.696 14.9756 47.6507 14.9756 47.6312 14.998C47.6113 15.0207 47.618 15.0667 47.6315 15.1591C47.8114 16.409 48.6455 17.2492 49.8966 17.4084C50.2662 17.4381 50.6374 17.4446 51.0079 17.4279H54.7673C55.2032 17.4279 55.639 17.4297 56.075 17.4316C56.5108 17.4334 56.9467 17.4352 57.3826 17.4352C58.0938 17.4352 58.8051 17.4352 59.5163 17.4194C60.0113 17.4097 60.4477 17.2017 60.8708 16.9708C61.1785 16.8021 61.4714 16.6077 61.7462 16.3896C61.771 16.3632 61.8046 16.3468 61.8406 16.3433C61.8767 16.34 61.9128 16.35 61.942 16.3713C63.2632 17.1138 64.5869 17.8531 65.9129 18.589C66.0114 18.6425 66.0102 18.6802 65.9616 18.7678C65.1214 20.2535 63.8618 21.2408 62.2934 21.8633C61.9634 21.9953 61.6235 22.101 61.2769 22.1794C61.1697 22.2047 61.06 22.2173 60.9499 22.2172C59.5833 22.2172 58.2166 22.2163 56.85 22.2155C54.1168 22.2139 51.3836 22.2123 48.6504 22.2172C47.6179 22.2201 46.6047 21.9377 45.7226 21.4013C44.4289 20.6341 43.5815 19.4973 43.0368 18.1185C42.6707 17.1547 42.4475 16.1425 42.3742 15.1142C42.2789 14.0676 42.298 13.0137 42.4313 11.9712C42.6744 10.1414 43.2824 8.46712 44.5469 7.07985C45.567 5.948 46.9126 5.15971 48.3987 4.82324C48.4912 4.80265 48.5859 4.79286 48.6808 4.79406C49.8366 4.79406 50.9922 4.79265 52.1478 4.79125C55.1523 4.78759 58.1566 4.78393 61.1614 4.805C62.4369 4.81352 63.5566 5.3266 64.5014 6.18864C65.4035 7.01176 65.9798 8.04523 66.3969 9.176C66.791 10.2842 67.0459 11.4372 67.1555 12.6083C67.235 13.3443 67.267 14.0847 67.2516 14.8248C67.2516 14.9561 67.2102 14.9743 67.0923 14.9743C63.8695 14.9735 60.6467 14.974 57.4239 14.9756ZM54.895 11.4156H47.7689C47.6807 11.4156 47.636 11.4156 47.6159 11.3933C47.5952 11.3705 47.6004 11.3243 47.6109 11.2308C47.7008 10.4428 48.1824 9.9456 48.8438 9.58451C49.1459 9.41621 49.4865 9.32952 49.8323 9.3328C53.3176 9.34254 56.8055 9.34254 60.2958 9.3328C60.5364 9.32647 60.775 9.37847 60.9912 9.48429C61.2073 9.59018 61.3947 9.74676 61.5372 9.94072C61.8427 10.3505 62.0623 10.8178 62.1828 11.3146C62.2011 11.3839 62.195 11.4216 62.1111 11.4119C62.0763 11.41 62.0414 11.41 62.0065 11.4119L54.895 11.4156Z" fill="#FEFEFE"/>
<path fill-rule="evenodd" clip-rule="evenodd" d="M113.607 20.3966C115.256 18.4976 116.166 16.0677 116.168 13.5526C116.167 12.5708 116.028 11.594 115.756 10.6507C114.061 4.69727 107.535 1.52665 101.775 3.85477C100.792 4.25231 99.9124 4.81884 99.0615 5.44373C98.0332 6.20842 96.8608 6.43576 95.6012 6.20842C94.6288 6.03336 93.7619 5.62123 92.927 5.13493C92.5015 4.88869 92.1786 4.49779 92.0172 4.03348C91.9808 3.93333 91.9561 3.82728 91.9313 3.72078C91.9139 3.6463 91.8964 3.57161 91.8754 3.49856C91.6637 2.78458 91.2092 2.16712 90.5903 1.75333C89.9713 1.33954 89.2266 1.15553 88.4863 1.23323C87.7459 1.31092 87.0557 1.64541 86.5357 2.17868C86.0164 2.71194 85.6993 3.41032 85.6412 4.15262C85.4499 6.44306 87.7248 8.18762 89.8877 7.3986C90.1852 7.28449 90.5037 7.23725 90.8223 7.26014C91.1401 7.28304 91.4484 7.37555 91.727 7.53111C92.3393 7.84711 92.9183 8.2234 93.4557 8.65445C94.7808 9.74136 95.4324 11.1054 95.279 12.8414C95.1815 14.0678 95.3168 15.3017 95.6783 16.4777C96.3844 18.8915 97.9372 20.97 100.051 22.3318C102.166 23.6937 104.7 24.2477 107.19 23.8923C109.68 23.5368 111.958 22.2958 113.607 20.3966ZM101.286 10.6688C100.707 11.5354 100.398 12.5545 100.398 13.597C100.399 14.9932 100.955 16.3318 101.941 17.3198C102.928 18.3077 104.265 18.8646 105.662 18.8684C106.704 18.8696 107.723 18.5616 108.591 17.9833C109.459 17.4049 110.135 16.5824 110.535 15.6195C110.934 14.6567 111.04 13.5969 110.838 12.5742C110.635 11.5515 110.134 10.6119 109.397 9.87424C108.66 9.13649 107.721 8.63387 106.699 8.42987C105.676 8.22595 104.616 8.32973 103.653 8.72827C102.69 9.12682 101.866 9.80209 101.286 10.6688Z" fill="url(#paint0_linear_222_921)"/>
</g>
<defs>
<linearGradient id="paint0_linear_222_921" x1="85.6295" y1="1.21582" x2="116.168" y2="24.1195" gradientUnits="userSpaceOnUse">
<stop stop-color="#CBF2FE"/>
<stop offset="0.390625" stop-color="#7DD5F9"/>
<stop offset="0.734529" stop-color="#E6B1F7"/>
<stop offset="1" stop-color="#E1DFA2"/>
</linearGradient>
<clipPath id="clip0_222_921">
<rect width="116.364" height="24" fill="white"/>
</clipPath>
</defs>
</svg>
