<svg width="24" height="24" viewBox="0 0 24 24" fill="none" xmlns="http://www.w3.org/2000/svg">
<path fill-rule="evenodd" clip-rule="evenodd" d="M12 6C10.3432 6 9.00001 7.34315 9.00001 9V9.26289C9.00001 9.91391 9.26336 10.5373 9.73015 10.9911L10.2073 11.455C10.7993 12.0306 11.1333 12.8211 11.1333 13.6468C11.1333 15.4061 10.0919 16.9986 8.48006 17.7037L6.22305 18.6912C5.65699 18.9388 5.1401 19.2863 4.69709 19.717L3.98009 20.4141L2.58594 18.9801L3.30293 18.283C3.91796 17.6851 4.63555 17.2027 5.42141 16.8588L7.67842 15.8714C8.56225 15.4847 9.13334 14.6115 9.13334 13.6468C9.13334 13.3613 9.01787 13.088 8.81318 12.889L8.33599 12.4251C7.48189 11.5947 7.00001 10.4541 7.00001 9.26289V9C7.00001 6.23858 9.23859 4 12 4C14.7614 4 17 6.23858 17 9V9.26289C17 10.4541 16.5181 11.5947 15.664 12.4251L15.1868 12.889C14.9822 13.088 14.8667 13.3613 14.8667 13.6468C14.8667 14.6115 15.4378 15.4847 16.3216 15.8714L18.5786 16.8588C19.3645 17.2027 20.0821 17.6851 20.6971 18.283L21.4141 18.9801L20.0199 20.4141L19.3029 19.717C18.8599 19.2863 18.343 18.9388 17.777 18.6912L15.52 17.7037C13.9082 16.9986 12.8667 15.4061 12.8667 13.6468C12.8667 12.8211 13.2007 12.0306 13.7927 11.455L14.2699 10.9911C14.7367 10.5373 15 9.91392 15 9.26289V9C15 7.34315 13.6569 6 12 6Z" fill="#FEFEFE"/>
</svg>
