<svg width="24" height="24" viewBox="0 0 24 24" fill="none" xmlns="http://www.w3.org/2000/svg">
<path d="M16.4848 12.0169C16.4766 10.6183 17.1103 9.5642 18.3899 8.78696C17.6742 7.76157 16.5914 7.1976 15.1641 7.08891C13.8126 6.98227 12.334 7.87641 11.7926 7.87641C11.2204 7.87641 9.91201 7.12583 8.88252 7.12583C6.75791 7.15864 4.5 8.81977 4.5 12.1995C4.5 13.1982 4.68252 14.2297 5.04756 15.292C5.53564 16.6907 7.29521 20.1175 9.13066 20.0622C10.0904 20.0396 10.7692 19.3813 12.0182 19.3813C13.2302 19.3813 13.8577 20.0622 14.9282 20.0622C16.7801 20.0355 18.3715 16.9204 18.835 15.5176C16.3515 14.3466 16.4848 12.0887 16.4848 12.0169Z" fill="#FEFEFE"/>
<path d="M14.3287 5.7624C15.3684 4.52783 15.2741 3.404 15.2433 3C14.3246 3.05332 13.2623 3.62549 12.6573 4.32891C11.9908 5.08359 11.5991 6.0167 11.6832 7.06875C12.6757 7.14463 13.5822 6.63398 14.3287 5.7624Z" fill="#FEFEFE"/>
</svg>
