<svg width="24" height="24" viewBox="0 0 24 24" fill="none" xmlns="http://www.w3.org/2000/svg">
<path fill-rule="evenodd" clip-rule="evenodd" d="M15.163 15.8442C14.9292 17.1184 14.5856 18.2432 14.17 19.1575C13.3109 21.0474 12.4308 21.5 12 21.5C11.5692 21.5 10.6891 21.0474 9.83002 19.1575C9.41441 18.2432 9.07077 17.1184 8.83696 15.8442C9.80971 15.7859 10.8687 15.7499 12 15.7499C13.1313 15.7499 14.1903 15.7859 15.163 15.8442ZM16.6668 15.9564C16.2315 18.4404 15.3981 20.4894 14.3387 21.725C17.2121 21.0366 19.6033 19.1076 20.9144 16.536C20.4717 16.4511 19.8752 16.3468 19.1439 16.2423C18.4377 16.1415 17.6063 16.0404 16.6668 15.9564ZM21.5026 15.1232C21.4785 15.1183 21.4537 15.1133 21.4283 15.1082C20.947 15.0119 20.2458 14.8845 19.356 14.7574C18.6443 14.6557 17.8114 14.5542 16.8736 14.4689C16.9563 13.6753 17 12.8489 17 12C17 11.1511 16.9563 10.3247 16.8736 9.53107C17.8114 9.44582 18.6443 9.34426 19.356 9.24259C20.2458 9.11547 20.947 8.98806 21.4283 8.89181L21.5026 8.87684C21.8254 9.8595 22 10.9094 22 12C22 13.0906 21.8254 14.1405 21.5026 15.1232ZM15.3774 14.3545C14.3423 14.2901 13.2112 14.2499 12 14.2499C10.7888 14.2499 9.65768 14.2901 8.62264 14.3545C8.54292 13.604 8.5 12.8159 8.5 12C8.5 11.1841 8.54292 10.396 8.62264 9.6455C9.65768 9.70993 10.7888 9.75012 12 9.75012C13.2112 9.75012 14.3423 9.70993 15.3774 9.6455C15.4571 10.396 15.5 11.1841 15.5 12C15.5 12.8159 15.4571 13.604 15.3774 14.3545ZM7.12644 14.4689C7.04371 13.6753 7 12.8489 7 12C7 11.1511 7.04371 10.3247 7.12644 9.53108C6.18855 9.44582 5.35567 9.34427 4.64391 9.24259C3.75411 9.11547 3.0529 8.98806 2.57164 8.89181L2.49737 8.87685C2.1746 9.8595 2 10.9094 2 12C2 13.0906 2.1746 14.1405 2.49737 15.1232C2.52151 15.1183 2.54627 15.1133 2.57164 15.1082C3.0529 15.0119 3.75411 14.8845 4.64391 14.7574C5.35567 14.6557 6.18855 14.5542 7.12644 14.4689ZM3.08556 16.536C4.3967 19.1076 6.78788 21.0366 9.66132 21.725C8.60191 20.4894 7.76855 18.4404 7.33316 15.9564C6.39372 16.0404 5.56229 16.1415 4.85604 16.2423C4.12479 16.3468 3.52826 16.4511 3.08556 16.536ZM12 8.25012C10.8687 8.25012 9.80971 8.21407 8.83696 8.1558C9.07077 6.88156 9.41441 5.75686 9.83002 4.84253C10.6891 2.95264 11.5692 2.5 12 2.5C12.4308 2.5 13.3109 2.95264 14.17 4.84253C14.5856 5.75686 14.9292 6.88156 15.163 8.15579C14.1903 8.21407 13.1313 8.25012 12 8.25012ZM19.1439 7.75766C19.8752 7.65319 20.4717 7.54894 20.9144 7.46397C19.6033 4.89239 17.2121 2.96345 14.3387 2.27496C15.3981 3.5106 16.2315 5.55956 16.6668 8.04363C17.6063 7.95957 18.4377 7.85855 19.1439 7.75766ZM4.85604 7.75766C5.56229 7.85855 6.39372 7.95958 7.33316 8.04363C7.76855 5.55957 8.60191 3.5106 9.66132 2.27496C6.78789 2.96345 4.3967 4.89239 3.08556 7.46398C3.52826 7.54895 4.12479 7.6532 4.85604 7.75766Z" fill="#FEFEFE"/>
</svg>
