<svg width="117" height="24" viewBox="0 0 117 24" fill="none" xmlns="http://www.w3.org/2000/svg">
<g clip-path="url(#clip0_0_335)">
<path fill-rule="evenodd" clip-rule="evenodd" d="M28.0317 3.4848C28.0362 3.50825 28.0445 3.53082 28.0561 3.55167C28.0622 3.9067 28.0695 4.2606 28.0829 4.62536C28.0934 5.8558 28.1035 7.08704 28.1133 8.31912C28.1238 9.56494 28.1339 10.8108 28.1437 12.0566C28.1473 12.5564 28.1503 13.0563 28.1533 13.5561C28.1573 14.2222 28.1612 14.8884 28.1668 15.5546C28.1645 15.7348 28.1762 15.9149 28.202 16.0932C28.5254 17.9972 29.4531 19.5146 31.1018 20.559C32.2228 21.2691 33.4654 21.663 34.7603 21.9062C36.6957 22.2519 38.6701 22.324 40.6255 22.1201C40.7386 22.1092 40.7471 22.0606 40.7471 21.9682C40.7423 20.514 40.7423 19.0574 40.7471 17.5985C40.7471 17.4805 40.7106 17.461 40.6037 17.461C39.8419 17.4542 39.0832 17.3645 38.341 17.1935C37.3415 16.9479 36.4223 16.5479 35.6989 15.7905C35.0181 15.078 34.6375 14.2378 34.6436 13.2372C34.6517 12.0011 34.6517 10.7646 34.6436 9.52763C34.6423 9.36232 34.6946 9.33679 34.8429 9.33679H39.6249C39.738 9.33679 39.7744 9.31366 39.7744 9.19206C39.7687 7.76952 39.7687 6.34781 39.7744 4.92689C39.7744 4.79558 39.738 4.77612 39.6164 4.77612C37.9823 4.7822 36.3384 4.7822 34.6995 4.7822C34.5682 4.7822 34.5232 4.7591 34.5232 4.61441V0.769912L34.5154 0.768726L34.5208 0.766174L34.5268 0.727264H28.0317V3.4848ZM1.28531 21.5192C1.09952 21.7064 0.913369 21.894 0.727551 22.0849C0.723856 22.1486 0.760889 22.1436 0.793827 22.139C0.804212 22.1377 0.814227 22.1363 0.822387 22.1372H8.71442C8.74919 22.1375 8.78351 22.1302 8.81508 22.1157C8.84657 22.1012 8.8745 22.0798 8.89682 22.0532L11.1389 19.7529C11.7873 19.0858 12.4357 18.4179 13.0842 17.7492L13.0878 17.7455C13.132 17.7012 13.1625 17.6707 13.2253 17.737C13.5469 18.0787 13.8726 18.4132 14.1978 18.7472L14.2879 18.8398C15.3254 19.9105 16.3601 20.9837 17.392 22.0593C17.4165 22.0868 17.4471 22.1082 17.4812 22.1222C17.5153 22.1361 17.5521 22.142 17.5889 22.1396H25.4518C25.4597 22.1396 25.4683 22.1409 25.4772 22.1422C25.5064 22.1468 25.5388 22.1517 25.5612 22.1116L25.5477 22.0965C25.5393 22.0871 25.531 22.0778 25.5223 22.0691L23.0675 19.5328C21.7657 18.1881 20.464 16.8425 19.1622 15.4962C18.5551 14.8656 17.9451 14.2366 17.3324 13.6092C17.2521 13.5204 17.2205 13.4609 17.3324 13.366C17.4397 13.2684 17.5413 13.1644 17.6363 13.0548C18.5563 12.1065 19.4759 11.1572 20.3951 10.2073L24.7442 5.70622L25.5952 4.82108H25.4165H17.6436C17.5874 4.81917 17.5314 4.82986 17.48 4.85237C17.4284 4.87488 17.3825 4.90864 17.3457 4.95118C16.9244 5.39706 16.4994 5.83633 16.0748 6.27528L16.0741 6.27599C15.9525 6.40169 15.8306 6.52758 15.7092 6.65337C15.4901 6.87973 15.2707 7.10565 15.0514 7.33156C14.4554 7.9453 13.8597 8.55897 13.2678 9.18108C13.1754 9.27476 13.1389 9.26988 13.0538 9.18108C12.8266 8.94545 12.6007 8.71061 12.3752 8.47614L12.371 8.47185L12.3701 8.47083C12.0493 8.13737 11.7293 7.80472 11.4075 7.47163C10.588 6.62864 9.76977 5.78404 8.95275 4.9378C8.92293 4.90264 8.88562 4.87465 8.84351 4.85592C8.8014 4.83718 8.75566 4.82818 8.70955 4.82959H5.10095H0.891689C0.8807 4.82959 0.868409 4.82705 0.85574 4.82444C0.816569 4.81635 0.773892 4.80753 0.755514 4.87093C1.35858 5.48048 1.95596 6.09245 2.54767 6.70686L6.42135 10.7118C7.28948 11.6124 8.15922 12.5129 9.03057 13.4134C9.0889 13.4718 9.08526 13.501 9.03057 13.5557C8.89013 13.6926 8.75566 13.8327 8.62075 13.9732C8.57232 14.0237 8.52381 14.0742 8.47493 14.1247L4.15502 18.5748C3.36796 19.3853 2.5801 20.1958 1.79142 21.0064C1.62337 21.1785 1.45449 21.3487 1.28531 21.5192ZM77.1644 6.50614C76.5048 6.8749 75.8757 7.2957 75.2829 7.76457C75.2815 7.72996 75.28 7.71068 75.2786 7.69636L75.2771 7.68065V4.93284C75.2786 4.81612 75.2604 4.77478 75.1273 4.77478C73.3935 4.77964 71.66 4.77964 69.9262 4.77478C69.7997 4.77478 69.7718 4.81004 69.7718 4.93162V22.075C69.7706 22.2039 69.8095 22.227 69.9311 22.227C71.66 22.2214 73.3891 22.2214 75.1178 22.227C75.2575 22.227 75.2771 22.1808 75.2771 22.0593V15.0779C75.2764 14.993 75.2887 14.9085 75.3135 14.8274C75.568 14.0272 75.9993 13.2945 76.5753 12.6838C77.4269 11.7501 78.4771 11.0838 79.6153 10.55C80.8378 9.97999 82.1273 9.56581 83.4538 9.31716C83.5498 9.29897 83.584 9.26857 83.584 9.16523V8.57919V4.91582C83.584 4.82828 83.584 4.7614 83.4618 4.77235C83.3797 4.77843 83.296 4.77887 83.2124 4.77932C83.1455 4.77969 83.0786 4.78005 83.0124 4.78329C80.9549 4.89229 78.952 5.48238 77.1644 6.50614ZM91.4749 15.7757V22.0665C91.4749 22.2051 91.4371 22.2282 91.3084 22.2282H86.3171C86.1957 22.2282 86.1593 22.2014 86.1593 22.0738V9.42901C86.1593 9.30741 86.1957 9.27337 86.3171 9.27337H91.3091C91.4393 9.27337 91.4749 9.30254 91.4749 9.43628C91.472 11.5494 91.472 13.6625 91.4749 15.7757ZM57.4237 14.9758H47.7856C47.6957 14.9758 47.6505 14.9758 47.6309 14.9982C47.6111 15.0209 47.6178 15.0669 47.6312 15.1593C47.8111 16.4092 48.6453 17.2494 49.8964 17.4086C50.266 17.4383 50.6372 17.4448 51.0077 17.4281H54.767C55.2029 17.4281 55.6388 17.43 56.0747 17.4318C56.5106 17.4336 56.9464 17.4354 57.3824 17.4354C58.0936 17.4354 58.8049 17.4354 59.5161 17.4196C60.011 17.4099 60.4474 17.202 60.8706 16.971C61.1783 16.8023 61.4712 16.6079 61.746 16.3898C61.7708 16.3634 61.8043 16.347 61.8404 16.3436C61.8765 16.3402 61.9125 16.3502 61.9418 16.3716C63.2629 17.114 64.5866 17.8533 65.9127 18.5892C66.0111 18.6428 66.01 18.6804 65.9613 18.768C65.1212 20.2537 63.8615 21.241 62.2931 21.8636C61.9632 21.9956 61.6233 22.1012 61.2767 22.1796C61.1695 22.2049 61.0597 22.2175 60.9496 22.2174C59.583 22.2174 58.2164 22.2165 56.8498 22.2157C54.1165 22.2141 51.3834 22.2125 48.6501 22.2174C47.6177 22.2203 46.6045 21.938 45.7224 21.4015C44.4287 20.6343 43.5813 19.4975 43.0365 18.1188C42.6704 17.1549 42.4472 16.1428 42.3739 15.1144C42.2786 14.0678 42.2978 13.0139 42.4311 11.9714C42.6742 10.1416 43.2821 8.46734 44.5466 7.08006C45.5668 5.94821 46.9123 5.15992 48.3984 4.82345C48.491 4.80286 48.5857 4.79308 48.6805 4.79428C49.8363 4.79428 50.992 4.79286 52.1476 4.79146C55.1521 4.7878 58.1563 4.78414 61.1612 4.80521C62.4366 4.81373 63.5564 5.32681 64.5011 6.18885C65.4032 7.01198 65.9796 8.04545 66.3966 9.17621C66.7908 10.2844 67.0457 11.4374 67.1553 12.6085C67.2347 13.3445 67.2668 14.0849 67.2514 14.825C67.2514 14.9563 67.21 14.9745 67.092 14.9745C63.8693 14.9737 60.6465 14.9742 57.4237 14.9758ZM54.8948 11.4158H47.7687C47.6805 11.4158 47.6358 11.4158 47.6157 11.3935C47.595 11.3707 47.6002 11.3245 47.6106 11.231C47.7006 10.443 48.1821 9.94581 48.8435 9.58472C49.1456 9.41643 49.4863 9.32974 49.832 9.33301C53.3174 9.34276 56.8053 9.34276 60.2956 9.33301C60.5362 9.32668 60.7747 9.37868 60.9909 9.4845C61.2071 9.59039 61.3944 9.74697 61.537 9.94094C61.8425 10.3508 62.0621 10.818 62.1826 11.3148C62.2008 11.3841 62.1947 11.4218 62.1109 11.4121C62.076 11.4102 62.0411 11.4102 62.0063 11.4121L54.8948 11.4158Z" fill="#FEFEFE"/>
<path fill-rule="evenodd" clip-rule="evenodd" d="M113.607 20.3967C115.256 18.4977 116.165 16.0678 116.167 13.5527C116.167 12.5709 116.028 11.5941 115.756 10.6508C114.06 4.69736 107.535 1.52674 101.775 3.85486C100.791 4.2524 99.912 4.81893 99.0611 5.44382C98.0327 6.20851 96.8604 6.43586 95.6007 6.20851C94.6284 6.03345 93.7615 5.62132 92.9266 5.13503C92.5011 4.88878 92.1782 4.49788 92.0167 4.03357C91.9804 3.93342 91.9556 3.82737 91.9309 3.72087C91.9135 3.64639 91.896 3.5717 91.8749 3.49866C91.6633 2.78467 91.2087 2.16722 90.5898 1.75342C89.9709 1.33963 89.2262 1.15562 88.4858 1.23332C87.7455 1.31101 87.0553 1.64551 86.5353 2.17877C86.016 2.71203 85.6989 3.41041 85.6407 4.15271C85.4495 6.44315 87.7244 8.18771 89.8873 7.39869C90.1847 7.28458 90.5033 7.23734 90.8218 7.26023C91.1396 7.28313 91.448 7.37564 91.7266 7.5312C92.3389 7.8472 92.9178 8.22349 93.4553 8.65455C94.7804 9.74146 95.432 11.1055 95.2786 12.8415C95.1811 14.0679 95.3164 15.3017 95.6778 16.4777C96.384 18.8916 97.9367 20.9701 100.051 22.3319C102.165 23.6937 104.7 24.2478 107.19 23.8924C109.679 23.5369 111.958 22.2959 113.607 20.3967ZM101.286 10.6689C100.707 11.5355 100.397 12.5545 100.397 13.5971C100.399 14.9933 100.954 16.3319 101.94 17.3199C102.927 18.3078 104.265 18.8647 105.661 18.8685C106.703 18.8697 107.723 18.5617 108.591 17.9833C109.458 17.405 110.135 16.5825 110.535 15.6196C110.934 14.6568 111.039 13.597 110.837 12.5743C110.634 11.5516 110.133 10.612 109.396 9.87433C108.66 9.13658 107.721 8.63396 106.698 8.42996C105.676 8.22604 104.616 8.32982 103.652 8.72836C102.689 9.12691 101.865 9.80218 101.286 10.6689Z" fill="url(#paint0_linear_0_335)"/>
</g>
<defs>
<linearGradient id="paint0_linear_0_335" x1="85.6291" y1="1.21591" x2="116.167" y2="24.1196" gradientUnits="userSpaceOnUse">
<stop stop-color="#CBF2FE"/>
<stop offset="0.390625" stop-color="#7DD5F9"/>
<stop offset="0.734529" stop-color="#E6B1F7"/>
<stop offset="1" stop-color="#E1DFA2"/>
</linearGradient>
<clipPath id="clip0_0_335">
<rect width="116.364" height="24" fill="white"/>
</clipPath>
</defs>
</svg>
