<svg width="64" height="64" viewBox="0 0 64 64" fill="none" xmlns="http://www.w3.org/2000/svg">
<path d="M40.6398 27.18L38.4551 24.5139L36.5993 27.4186L36.047 28.2832C35.1647 29.6642 33.639 30.4999 32.0003 30.4999C30.3614 30.5 28.8357 29.6642 27.9534 28.2831L27.4011 27.4186L25.5454 24.5139L23.3606 27.18L22.0544 28.774C21.1592 29.8664 19.8213 30.4999 18.4089 30.4999C15.1181 30.4999 12.8403 27.213 13.9958 24.1317L18.2033 12.9116H45.7971L50.0046 24.1317C51.1601 27.213 48.8823 30.4999 45.5915 30.4999C44.1791 30.4999 42.8412 29.8664 41.946 28.774L40.6398 27.18Z" stroke="#FEFEFE" stroke-width="5"/>
<path d="M16.4707 30.1763V47.1174H32.706" stroke="#FEFEFE" stroke-width="5"/>
<path d="M52 43L45 50L38 43" stroke="#FEFEFE" stroke-width="5"/>
<path d="M44.8164 47.634V36" stroke="#FEFEFE" stroke-width="5"/>
<path d="M12.2354 47.1177H33.4118" stroke="#FEFEFE" stroke-width="5"/>
</svg>
