<svg width="24" height="24" viewBox="0 0 24 24" fill="none" xmlns="http://www.w3.org/2000/svg">
<path d="M12 24C18.6274 24 24 18.6274 24 12C24 5.37258 18.6274 0 12 0C5.37258 0 0 5.37258 0 12C0 18.6274 5.37258 24 12 24Z" fill="url(#paint0_linear_552_45)"/>
<path d="M11.1771 16.3664C10.4974 16.223 9.90786 15.9624 9.40856 15.5846C8.91757 15.2001 8.52525 14.6746 8.23159 14.0081L9.15407 13.0661C9.42189 13.659 9.732 14.1331 10.0844 14.4884C10.4385 14.8355 10.896 15.0683 11.457 15.1866C11.7803 15.2548 12.1008 15.2713 12.4184 15.2362C12.7377 15.1929 13.0104 15.0929 13.2365 14.9362C13.4642 14.7714 13.6099 14.5382 13.6735 14.2366C13.7131 14.0491 13.6971 13.8797 13.6257 13.7284C13.5608 13.5785 13.4545 13.4454 13.3067 13.3291C13.1672 13.206 13.0045 13.0951 12.8186 12.9962C12.6392 12.8988 12.4573 12.8136 12.2728 12.7406C12.09 12.6595 11.9245 12.5948 11.7761 12.5465C11.2376 12.3222 10.781 12.0683 10.4066 11.785C10.0338 11.4935 9.77048 11.157 9.61661 10.7755C9.47106 10.3872 9.45073 9.94441 9.55563 9.44718C9.63817 9.05591 9.7847 8.72072 9.99522 8.4416C10.2123 8.16387 10.4752 7.94688 10.7839 7.79063C11.1009 7.62762 11.4496 7.52664 11.8301 7.4877C12.2105 7.44876 12.6086 7.47314 13.0243 7.56084C13.6908 7.70145 14.2408 7.95368 14.6741 8.31754C15.114 8.68279 15.4251 9.13582 15.6074 9.67661L14.6935 10.48C14.5218 10.0521 14.2762 9.68099 13.9565 9.36664C13.6368 9.0523 13.2328 8.84361 12.7444 8.74059C12.4079 8.6696 12.0973 8.65516 11.8127 8.69729C11.5281 8.73942 11.2877 8.83345 11.0915 8.97936C10.9036 9.11852 10.783 9.31445 10.7297 9.56714C10.6867 9.77092 10.695 9.96 10.7548 10.1344C10.8145 10.3087 10.919 10.467 11.0682 10.6092C11.2191 10.7432 11.4089 10.8726 11.6376 10.9975C11.868 11.1142 12.129 11.2331 12.4205 11.3542C12.7961 11.5015 13.1476 11.6651 13.475 11.8448C13.8108 12.0178 14.0958 12.2185 14.3303 12.4467C14.5731 12.6682 14.742 12.9295 14.837 13.2305C14.9404 13.5247 14.9491 13.8756 14.8631 14.2832C14.7479 14.8294 14.5177 15.2831 14.1727 15.6446C13.8276 16.006 13.4 16.2521 12.8899 16.3829C12.3816 16.5055 11.8106 16.5 11.1771 16.3664ZM10.206 17.196L11.377 11.6449L12.3312 12.2677L11.2453 17.4152L10.206 17.196ZM12.7272 12.3512L11.7729 11.7284L12.8537 6.60532L13.8931 6.82458L12.7272 12.3512Z" fill="white"/>
<path fill-rule="evenodd" clip-rule="evenodd" d="M11.2214 2.21228C6.4939 2.58317 2.70735 6.30253 2.23213 11H3.53991C4.0052 7.02126 7.21238 3.88024 11.2214 3.51697V2.21228ZM20.4601 11C20.0121 7.16887 17.0218 4.11446 13.2214 3.56877V2.25709C17.7408 2.81789 21.3076 6.45014 21.7679 11H20.4601ZM13.2214 20.4313C17.0219 19.8856 20.0121 16.8311 20.4601 13H21.7679C21.3077 17.5499 17.7409 21.1822 13.2214 21.743V20.4313ZM3.53989 13C4.00513 16.9788 7.21234 20.1198 11.2214 20.4831V21.7878C6.49385 21.4169 2.70728 17.6975 2.23212 13H3.53989Z" fill="white"/>
<defs>
<linearGradient id="paint0_linear_552_45" x1="0" y1="0" x2="24" y2="24" gradientUnits="userSpaceOnUse">
<stop offset="1" stop-color="#6221EB"/>
</linearGradient>
</defs>
</svg>
