<svg width="117" height="24" viewBox="0 0 117 24" fill="none" xmlns="http://www.w3.org/2000/svg">
<g clip-path="url(#clip0_222_921)">
<path fill-rule="evenodd" clip-rule="evenodd" d="M28.032 3.48483C28.0365 3.50828 28.0447 3.53085 28.0563 3.5517C28.0624 3.90673 28.0697 4.26063 28.0831 4.62539C28.0936 5.85583 28.1038 7.08707 28.1135 8.31915C28.1241 9.56497 28.1342 10.8108 28.1439 12.0566C28.1475 12.5565 28.1505 13.0563 28.1535 13.5561C28.1575 14.2223 28.1614 14.8885 28.167 15.5546C28.1647 15.7348 28.1765 15.9149 28.2022 16.0933C28.5256 17.9973 29.4534 19.5146 31.102 20.5591C32.223 21.2691 33.4656 21.663 34.7606 21.9062C36.6959 22.252 38.6703 22.324 40.6258 22.1202C40.7388 22.1093 40.7473 22.0606 40.7473 21.9682C40.7425 20.5141 40.7425 19.0575 40.7473 17.5985C40.7473 17.4805 40.7109 17.461 40.6039 17.461C39.8422 17.4543 39.0835 17.3645 38.3412 17.1936C37.3418 16.948 36.4226 16.548 35.6992 15.7905C35.0183 15.078 34.6377 14.2378 34.6438 13.2373C34.6519 12.0011 34.6519 10.7646 34.6438 9.52766C34.6426 9.36235 34.6949 9.33682 34.8432 9.33682H39.6251C39.7382 9.33682 39.7747 9.31369 39.7747 9.19209C39.769 7.76955 39.769 6.34784 39.7747 4.92692C39.7747 4.79561 39.7382 4.77615 39.6166 4.77615C37.9825 4.78223 36.3387 4.78223 34.6998 4.78223C34.5684 4.78223 34.5235 4.75914 34.5235 4.61444V0.769942L34.5157 0.768757L34.521 0.766204L34.527 0.727295H28.032V3.48483ZM1.28555 21.5192C1.09977 21.7064 0.913613 21.894 0.727795 22.0849C0.7241 22.1487 0.761133 22.1436 0.794071 22.1391C0.804457 22.1377 0.814471 22.1363 0.822631 22.1372H8.71467C8.74943 22.1376 8.78376 22.1302 8.81532 22.1157C8.84681 22.1012 8.87474 22.0799 8.89707 22.0533L11.1391 19.7529C11.7875 19.0858 12.436 18.4179 13.0844 17.7492L13.0881 17.7456C13.1323 17.7013 13.1627 17.6707 13.2255 17.737C13.5471 18.0787 13.8729 18.4133 14.198 18.7472L14.2881 18.8398C15.3256 19.9106 16.3603 20.9837 17.3922 22.0594C17.4168 22.0868 17.4473 22.1082 17.4814 22.1222C17.5155 22.1361 17.5523 22.1421 17.5891 22.1396H25.452C25.4599 22.1396 25.4686 22.141 25.4774 22.1423C25.5067 22.1468 25.539 22.1517 25.5614 22.1117L25.5479 22.0965C25.5395 22.0872 25.5312 22.0778 25.5225 22.0691L23.0678 19.5328C21.7659 18.1881 20.4642 16.8426 19.1624 15.4962C18.5553 14.8656 17.9454 14.2366 17.3326 13.6093C17.2523 13.5205 17.2207 13.4609 17.3326 13.3661C17.44 13.2684 17.5415 13.1645 17.6366 13.0548C18.5566 12.1065 19.4761 11.1573 20.3953 10.2073L24.7444 5.70625L25.5955 4.82111H25.4168H17.6438C17.5876 4.8192 17.5317 4.82989 17.4802 4.8524C17.4286 4.87491 17.3827 4.90867 17.3459 4.95121C16.9246 5.39709 16.4997 5.83636 16.075 6.27531L16.0743 6.27602C15.9527 6.40172 15.8309 6.52761 15.7094 6.6534C15.4903 6.87976 15.271 7.10568 15.0516 7.33159C14.4557 7.94533 13.8599 8.559 13.2681 9.18111C13.1756 9.27479 13.1392 9.26991 13.054 9.18111C12.8269 8.94548 12.6009 8.71064 12.3754 8.47617L12.3712 8.47188L12.3703 8.47086C12.0495 8.1374 11.7295 7.80475 11.4078 7.47166C10.5883 6.62867 9.77001 5.78407 8.953 4.93783C8.92318 4.90267 8.88587 4.87468 8.84376 4.85595C8.80165 4.83721 8.7559 4.82821 8.7098 4.82962H5.10119H0.891933C0.880944 4.82962 0.868653 4.82708 0.855984 4.82447C0.816813 4.81638 0.774137 4.80756 0.755758 4.87096C1.35882 5.48051 1.9562 6.09248 2.54792 6.70689L6.4216 10.7119C7.28972 11.6124 8.15947 12.513 9.03081 13.4135C9.08914 13.4719 9.0855 13.501 9.03081 13.5557C8.89038 13.6926 8.7559 13.8327 8.621 13.9733C8.57256 14.0237 8.52405 14.0743 8.47518 14.1247L4.15526 18.5748C3.36821 19.3853 2.58034 20.1959 1.79166 21.0064C1.62361 21.1786 1.45473 21.3487 1.28555 21.5192ZM77.1646 6.50618C76.505 6.87493 75.8759 7.29573 75.2832 7.7646C75.2817 7.72999 75.2803 7.71071 75.2788 7.69639L75.2774 7.68068V4.93287C75.2788 4.81615 75.2606 4.77481 75.1275 4.77481C73.3937 4.77967 71.6602 4.77967 69.9265 4.77481C69.8 4.77481 69.772 4.81007 69.772 4.93165V22.0751C69.7708 22.204 69.8097 22.2271 69.9313 22.2271C71.6602 22.2214 73.3894 22.2214 75.1181 22.2271C75.2577 22.2271 75.2774 22.1808 75.2774 22.0593V15.0779C75.2766 14.993 75.289 14.9085 75.3137 14.8274C75.5683 14.0272 75.9995 13.2946 76.5755 12.6839C77.4272 11.7501 78.4774 11.0838 79.6155 10.5501C80.8381 9.98002 82.1275 9.56584 83.4541 9.31719C83.5501 9.299 83.5843 9.2686 83.5843 9.16526V8.57922V4.91585C83.5843 4.82831 83.5843 4.76143 83.4621 4.77238C83.3799 4.77846 83.2963 4.7789 83.2126 4.77935C83.1457 4.77972 83.0788 4.78008 83.0126 4.78332C80.9552 4.89232 78.9523 5.48242 77.1646 6.50618ZM91.4752 15.7757V22.0665C91.4752 22.2051 91.4374 22.2282 91.3086 22.2282H86.3174C86.1959 22.2282 86.1595 22.2015 86.1595 22.0738V9.42904C86.1595 9.30744 86.1959 9.2734 86.3174 9.2734H91.3094C91.4395 9.2734 91.4752 9.30257 91.4752 9.43631C91.4723 11.5495 91.4723 13.6626 91.4752 15.7757ZM57.4239 14.9758H47.7859C47.696 14.9758 47.6507 14.9758 47.6312 14.9982C47.6113 15.021 47.618 15.0669 47.6315 15.1594C47.8114 16.4093 48.6455 17.2494 49.8966 17.4087C50.2662 17.4383 50.6374 17.4448 51.0079 17.4282H54.7673C55.2032 17.4282 55.639 17.43 56.075 17.4318C56.5108 17.4336 56.9467 17.4354 57.3826 17.4354C58.0938 17.4354 58.8051 17.4354 59.5163 17.4197C60.0113 17.4099 60.4477 17.202 60.8708 16.971C61.1785 16.8024 61.4714 16.6079 61.7462 16.3898C61.771 16.3634 61.8046 16.347 61.8406 16.3436C61.8767 16.3402 61.9128 16.3502 61.942 16.3716C63.2632 17.1141 64.5869 17.8533 65.9129 18.5893C66.0114 18.6428 66.0102 18.6805 65.9616 18.768C65.1214 20.2538 63.8618 21.241 62.2934 21.8636C61.9634 21.9956 61.6235 22.1013 61.2769 22.1797C61.1697 22.205 61.06 22.2176 60.9499 22.2174C59.5833 22.2174 58.2166 22.2165 56.85 22.2157C54.1168 22.2141 51.3836 22.2125 48.6504 22.2174C47.6179 22.2203 46.6047 21.938 45.7226 21.4016C44.4289 20.6343 43.5815 19.4975 43.0368 18.1188C42.6707 17.1549 42.4475 16.1428 42.3742 15.1144C42.2789 14.0678 42.298 13.0139 42.4313 11.9714C42.6744 10.1416 43.2824 8.46737 44.5469 7.08009C45.567 5.94824 46.9126 5.15995 48.3987 4.82348C48.4912 4.8029 48.5859 4.79311 48.6808 4.79431C49.8366 4.79431 50.9922 4.7929 52.1478 4.79149C55.1523 4.78783 58.1566 4.78417 61.1614 4.80524C62.4369 4.81376 63.5566 5.32684 64.5014 6.18888C65.4035 7.01201 65.9798 8.04548 66.3969 9.17624C66.791 10.2845 67.0459 11.4374 67.1555 12.6085C67.235 13.3445 67.267 14.0849 67.2516 14.825C67.2516 14.9563 67.2102 14.9746 67.0923 14.9746C63.8695 14.9738 60.6467 14.9742 57.4239 14.9758ZM54.895 11.4158H47.7689C47.6807 11.4158 47.636 11.4158 47.6159 11.3935C47.5952 11.3707 47.6004 11.3245 47.6109 11.231C47.7008 10.4431 48.1824 9.94584 48.8438 9.58475C49.1459 9.41646 49.4865 9.32977 49.8323 9.33304C53.3176 9.34279 56.8055 9.34279 60.2958 9.33304C60.5364 9.32671 60.775 9.37871 60.9912 9.48453C61.2073 9.59042 61.3947 9.747 61.5372 9.94097C61.8427 10.3508 62.0623 10.8181 62.1828 11.3149C62.2011 11.3842 62.195 11.4218 62.1111 11.4121C62.0763 11.4103 62.0414 11.4103 62.0065 11.4121L54.895 11.4158Z" fill="#FEFEFE"/>
<path fill-rule="evenodd" clip-rule="evenodd" d="M113.607 20.3966C115.256 18.4976 116.166 16.0677 116.168 13.5526C116.167 12.5708 116.028 11.594 115.756 10.6507C114.061 4.69727 107.535 1.52665 101.775 3.85477C100.792 4.25231 99.9124 4.81884 99.0615 5.44373C98.0332 6.20842 96.8608 6.43576 95.6012 6.20842C94.6288 6.03336 93.7619 5.62123 92.927 5.13493C92.5015 4.88869 92.1786 4.49779 92.0172 4.03348C91.9808 3.93333 91.9561 3.82728 91.9313 3.72078C91.9139 3.6463 91.8964 3.57161 91.8754 3.49856C91.6637 2.78458 91.2092 2.16712 90.5903 1.75333C89.9713 1.33954 89.2266 1.15553 88.4863 1.23323C87.7459 1.31092 87.0557 1.64541 86.5357 2.17868C86.0164 2.71194 85.6993 3.41032 85.6412 4.15262C85.4499 6.44306 87.7248 8.18762 89.8877 7.3986C90.1852 7.28449 90.5037 7.23725 90.8223 7.26014C91.1401 7.28304 91.4484 7.37555 91.727 7.53111C92.3393 7.84711 92.9183 8.2234 93.4557 8.65445C94.7808 9.74136 95.4324 11.1054 95.279 12.8414C95.1815 14.0678 95.3168 15.3017 95.6783 16.4777C96.3844 18.8915 97.9372 20.97 100.051 22.3318C102.166 23.6937 104.7 24.2477 107.19 23.8923C109.68 23.5368 111.958 22.2958 113.607 20.3966ZM101.286 10.6688C100.707 11.5354 100.398 12.5545 100.398 13.597C100.399 14.9932 100.955 16.3318 101.941 17.3198C102.928 18.3077 104.265 18.8646 105.662 18.8684C106.704 18.8696 107.723 18.5616 108.591 17.9833C109.459 17.4049 110.135 16.5824 110.535 15.6195C110.934 14.6567 111.04 13.5969 110.838 12.5742C110.635 11.5515 110.134 10.6119 109.397 9.87424C108.66 9.13649 107.721 8.63387 106.699 8.42987C105.676 8.22595 104.616 8.32973 103.653 8.72827C102.69 9.12682 101.866 9.80209 101.286 10.6688Z" fill="url(#paint0_linear_222_921)"/>
</g>
<defs>
<linearGradient id="paint0_linear_222_921" x1="85.6295" y1="1.21582" x2="116.168" y2="24.1195" gradientUnits="userSpaceOnUse">
<stop stop-color="#CBF2FE"/>
<stop offset="0.390625" stop-color="#7DD5F9"/>
<stop offset="0.734529" stop-color="#E6B1F7"/>
<stop offset="1" stop-color="#E1DFA2"/>
</linearGradient>
<clipPath id="clip0_222_921">
<rect width="116.364" height="24" fill="white"/>
</clipPath>
</defs>
</svg>
