<svg width="24" height="24" viewBox="0 0 24 24" fill="none" xmlns="http://www.w3.org/2000/svg">
<path d="M9.02585 3.57537C10.9892 3.18272 13.0107 3.18273 14.9741 3.57537L16.3628 3.85271C16.7299 3.92614 17.0255 4.19873 17.1284 4.55876L18.6596 9.92009L22.3715 11.4045C22.7741 11.5655 23.0267 11.968 22.9975 12.4006C22.9682 12.8332 22.6633 13.1976 22.2426 13.3029L18.5717 14.2199L17.1284 19.2746C17.048 19.5561 16.8478 19.7878 16.5815 19.9093C16.3152 20.0308 16.0089 20.0302 15.7436 19.9064L14.0434 19.1125C12.748 18.5081 11.2509 18.508 9.95553 19.1125L8.25631 19.9064C7.99103 20.0302 7.68478 20.0308 7.41842 19.9093C7.15206 19.7879 6.95198 19.5561 6.87155 19.2746L5.42721 14.2199L1.75729 13.3029C1.33663 13.1976 1.03177 12.8332 1.00241 12.4006C0.973218 11.968 1.22583 11.5655 1.62839 11.4045L5.3403 9.92009L6.87155 4.55876C6.97441 4.19875 7.27003 3.92615 7.63717 3.85271L9.02585 3.57537ZM16.3559 14.6926C15.9028 14.7696 15.4484 14.8351 14.9926 14.8879C14.9968 14.9247 15.0005 14.9622 15.0005 15.0002C15.0003 15.5522 14.5524 15.9999 14.0005 16.0002C13.4623 16.0002 13.0246 15.5748 13.0024 15.0422C12.3343 15.0679 11.6656 15.0679 10.9975 15.0422C10.9754 15.5747 10.5384 15.9999 10.0005 16.0002C9.44824 16.0002 9.00057 15.5524 9.00046 15.0002C9.00046 14.9623 9.00221 14.9247 9.00632 14.8879C8.55059 14.835 8.09617 14.7696 7.64303 14.6926L8.47311 17.5978L9.10983 17.3C10.9415 16.4452 13.0584 16.4452 14.8901 17.3L15.5268 17.5978L16.3559 14.6926ZM14.5825 5.5363C12.8779 5.19539 11.122 5.19539 9.41745 5.5363L8.62741 5.69451L7.12839 10.9416C7.04335 11.239 6.82475 11.48 6.53756 11.5949L5.24264 12.1135L6.17917 12.3468C10.0009 13.3023 13.999 13.3023 17.8208 12.3468L18.7573 12.1135L17.4624 11.5949C17.1752 11.48 16.9566 11.239 16.8715 10.9416L15.3725 5.69451L14.5825 5.5363Z" fill="#FEFEFE"/>
</svg>
