<svg width="40" height="40" viewBox="0 0 40 40" fill="none" xmlns="http://www.w3.org/2000/svg">
<g clip-path="url(#clip0_222_923)">
<path fill-rule="evenodd" clip-rule="evenodd" d="M20.0002 12C17.791 12 16.0002 13.7909 16.0002 16V16.5081C16.0002 17.4116 16.359 18.278 16.9979 18.9169L17.5886 19.5076C18.279 20.1979 18.6668 21.1343 18.6668 22.1106C18.6668 24.2626 17.4047 26.2145 15.4423 27.0976L12.7002 28.3316C11.958 28.6656 11.2827 29.1316 10.7073 29.7071L10.0002 30.4142L8.58594 29L9.29304 28.2929C10.0399 27.546 10.9163 26.9412 11.8794 26.5077L14.6215 25.2738C15.8663 24.7137 16.6668 23.4756 16.6668 22.1106C16.6668 21.6647 16.4897 21.2371 16.1744 20.9218L15.5837 20.3311C14.5698 19.3172 14.0002 17.942 14.0002 16.5081V16C14.0002 12.6863 16.6864 10 20.0002 10C23.3139 10 26.0002 12.6863 26.0002 16V16.5081C26.0002 17.942 25.4305 19.3172 24.4166 20.3311L23.8259 20.9218C23.5106 21.2371 23.3335 21.6647 23.3335 22.1106C23.3335 23.4756 24.134 24.7136 25.3788 25.2738L28.1209 26.5077C29.084 26.9412 29.9604 27.546 30.7073 28.2929L31.4144 29L30.0002 30.4142L29.293 29.7071C28.7176 29.1316 28.0423 28.6656 27.3001 28.3316L24.558 27.0976C22.5956 26.2145 21.3335 24.2626 21.3335 22.1106C21.3335 21.1343 21.7213 20.1979 22.4117 19.5076L23.0024 18.9169C23.6413 18.278 24.0002 17.4116 24.0002 16.5081V16C24.0002 13.7909 22.2093 12 20.0002 12Z" fill="#FEFEFE"/>
</g>
<defs>
<clipPath id="clip0_222_923">
<rect width="40" height="40" fill="white"/>
</clipPath>
</defs>
</svg>
