<svg width="24" height="24" viewBox="0 0 24 24" fill="none" xmlns="http://www.w3.org/2000/svg">
<path d="M17.9639 3.43951L22.5127 11.627L22.8232 12.1856L22.5127 12.7432L17.9639 20.9307L17.6357 21.5215H7.18652L6.8584 20.9307L2.30957 12.7432L2 12.1856L2.30957 11.627L6.8584 3.43951L7.18652 2.84869H17.6357L17.9639 3.43951ZM4.62891 12.1846L8.53809 19.2227H16.2842L20.1924 12.1846L16.2832 5.14752H8.53906L4.62891 12.1846ZM17.5 11.9229L13.8291 14.9815H15.1406V16.6671H9.17383L10.9619 15.1768L16.4199 10.628L17.5 11.9229ZM13.8613 9.1944L8.40332 13.7432L7.32324 12.4483L10.9941 9.38971H9.68262V7.70416H15.6494L13.8613 9.1944Z" fill="#FEFEFE"/>
</svg>
