<svg width="24" height="24" viewBox="0 0 24 24" fill="none" xmlns="http://www.w3.org/2000/svg">
<path fill-rule="evenodd" clip-rule="evenodd" d="M19.4142 4H4.58578L2.03131 6.55447L0.92012 21H7.53518L9.53518 18H14.4648L16.4648 21H23.0799L21.9687 6.55447L19.4142 4ZM3.96868 7.44553L5.41421 6H18.5858L20.0313 7.44553L20.9201 19H17.5352L15.5352 16H8.46481L6.46481 19H3.07987L3.96868 7.44553ZM17 11.5C17 11.7761 16.7762 12 16.5 12C16.2239 12 16 11.7761 16 11.5C16 11.2239 16.2239 11 16.5 11C16.7762 11 17 11.2239 17 11.5ZM19 11.5C19 12.8807 17.8807 14 16.5 14C15.1193 14 14 12.8807 14 11.5C14 10.1193 15.1193 9 16.5 9C17.8807 9 19 10.1193 19 11.5ZM7.50002 12.5H6.00002V10.5H7.50002V9H9.50002V10.5H11V12.5H9.50002V14H7.50002V12.5Z" fill="#FEFEFE"/>
</svg>
