<svg width="80" height="80" viewBox="0 0 80 80" fill="none" xmlns="http://www.w3.org/2000/svg">
<path fill-rule="evenodd" clip-rule="evenodd" d="M34.9092 19.1415C35.6063 23.1468 35.1881 26.9552 34.5557 29.3322L29.7238 28.0468C30.1903 26.293 30.5435 23.2181 29.9832 19.9989C29.4283 16.8104 28.0154 13.6595 25.1247 11.3951L28.208 7.45898C32.3334 10.6905 34.2067 15.1055 34.9092 19.1415ZM50.7894 9.82159L50.5183 10.403C50.28 10.914 49.7673 11.2408 49.2034 11.2409L48.1901 11.2412C46.3941 11.2418 44.8313 12.47 44.4062 14.2149C43.9999 15.883 44.7335 17.6205 46.2124 18.4925L51.1622 21.4114L51.1642 21.4127L51.165 21.4133C51.1653 21.4137 51.1666 21.4153 51.1674 21.4177L51.168 21.42L51.1683 21.4222C51.1683 21.4223 51.1681 21.4238 51.1673 21.4258L51.1659 21.4292L51.1644 21.4306L51.163 21.4315L51.1611 21.4325C51.1594 21.4333 51.158 21.4337 51.157 21.4339L51.1558 21.4341L51.152 21.4328L47.3062 19.9871C45.8246 19.4302 44.1535 19.8154 43.0653 20.9648C41.8905 22.2057 41.651 24.0631 42.4729 25.5614L43.4639 27.368C43.585 27.5888 43.5559 27.8617 43.3908 28.0519C43.1902 28.2831 42.848 28.327 42.5956 28.1537L41.6627 27.5135L39.3993 30.8115L40.3322 31.4517C42.2619 32.7761 44.8783 32.4411 46.4121 30.6733C47.674 29.2189 47.897 27.1326 46.9709 25.4443L46.0657 23.7941L49.7445 25.177C51.8186 25.9566 54.1319 24.9073 54.9115 22.8333C55.5973 21.009 54.8728 18.9558 53.194 17.9659L48.5734 15.2411L49.2046 15.2409C51.3225 15.2403 53.2484 14.013 54.1435 12.0934L54.4146 11.5121L50.7894 9.82159ZM54.0904 37.3716C55.0955 35.8401 57.2425 33.3213 60.2668 31.073C63.2815 28.8319 67.0373 26.9557 71.2764 26.4847L70.7242 21.5153C65.3632 22.1109 60.7857 24.457 57.2838 27.0603C53.7914 29.6565 51.2384 32.6043 49.9102 34.6284L54.0904 37.3716ZM26.0827 26.2725C26.1258 26.1221 26.5162 25.3437 28.2303 24.6485C28.314 23.3582 28.2781 21.867 28.0127 20.3418C27.9637 20.0602 27.9075 19.7805 27.8437 19.5034C24.4062 20.5213 22.0037 22.3581 21.2764 24.8943C21.0148 25.8067 20.985 26.7572 21.1647 27.7253L21.1353 27.7285L26.0565 72.9985C26.2955 75.1968 28.9953 76.1123 30.522 74.5127L62.9707 40.5178L62.8667 40.4185C63.8384 39.5628 64.5211 38.5494 64.8536 37.3899C65.4098 35.4501 64.9181 33.3379 63.5931 31.2505C62.8494 31.6949 62.1373 32.1747 61.4602 32.6781C60.7754 33.1871 60.1403 33.7101 59.5584 34.2293C60.1443 35.2777 60.0828 35.8878 60.0473 36.0117C59.9909 36.2082 59.3419 37.4764 55.9234 38.2309C55.8663 38.3134 55.8127 38.3928 55.7627 38.4689L55.5261 38.3137C55.4669 38.3253 55.4069 38.3368 55.3462 38.3481C51.7508 39.0187 46.7517 38.7878 41.3193 37.2301C35.8869 35.6724 31.525 33.2191 28.8313 30.7451C25.8914 28.045 26.0233 26.4796 26.0827 26.2725ZM39.4955 23.9139C38.7349 23.8065 37.9917 23.7261 37.2692 23.6713C37.2836 22.1296 37.1721 20.4806 36.8794 18.7986C36.8698 18.7437 36.8601 18.6887 36.8501 18.6336C38.3016 18.7125 39.809 18.8812 41.3522 19.1433C41.3188 19.1771 41.2857 19.2113 41.2529 19.2459C40.035 20.5323 39.4317 22.2237 39.4955 23.9139ZM56.4921 25.1612C56.5632 25.0597 56.6317 24.9557 56.6973 24.8493C56.7385 24.8752 56.7795 24.9012 56.8203 24.9271C56.7099 25.0049 56.6005 25.083 56.4921 25.1612ZM52.715 28.2981C52.4668 28.1592 52.2133 28.0217 51.9548 27.8861C52.541 27.8134 53.1122 27.6614 53.653 27.4371C53.3298 27.7237 53.017 28.0112 52.715 28.2981ZM39.9411 42.0364C44.6183 43.3775 49.1625 43.8832 53.0719 43.6468L46.1037 50.947C39.7071 51.5434 33.3271 49.7829 28.1534 46.022L27.0385 35.7654C30.337 38.3205 34.804 40.5634 39.9411 42.0364ZM28.8404 52.3415L30.4694 67.3264L41.3065 55.9729C36.9423 55.645 32.6949 54.4069 28.8404 52.3415Z" fill="#FEFEFE"/>
</svg>
