<svg width="24" height="24" viewBox="0 0 24 24" fill="none" xmlns="http://www.w3.org/2000/svg">
<path fill-rule="evenodd" clip-rule="evenodd" d="M20.7683 5.35992C21.0121 5.65251 21.0685 6.05813 20.9138 6.40611L15.5805 18.4061C15.462 18.6728 15.2329 18.8744 14.9532 18.958C14.6736 19.0417 14.3714 18.999 14.1259 18.8412L11.4592 17.1269L12.5408 15.4445L14.2265 16.5282L18.2623 7.44752L5.74057 10.4662L7.45602 12.6717C7.64069 12.9092 7.70868 13.2171 7.64113 13.5102L7.35903 14.7344L12.7398 10.7665L13.9268 12.3762L6.37127 17.9477C6.03451 18.196 5.57874 18.2085 5.22896 17.9788C4.87918 17.7492 4.70936 17.326 4.80332 16.9183L5.58545 13.5244L3.21065 10.4711C3.00214 10.203 2.94395 9.8474 3.05612 9.52684C3.16828 9.20628 3.43548 8.96455 3.76564 8.88496L19.7656 5.02782C20.1358 4.93858 20.5246 5.06734 20.7683 5.35992Z" fill="#FEFEFE"/>
</svg>
