<svg width="72" height="72" viewBox="0 0 72 72" fill="none" xmlns="http://www.w3.org/2000/svg">
<path fill-rule="evenodd" clip-rule="evenodd" d="M36.0005 12.5C29.6493 12.5 24.5005 17.6487 24.5005 24V25.5243C24.5005 28.1021 25.5246 30.5743 27.3473 32.397L29.1195 34.1692C31.2843 36.334 32.5005 39.2702 32.5005 42.3318C32.5005 48.9845 28.5989 55.0188 22.5321 57.7488L14.3058 61.4507C12.1346 62.4277 10.159 63.7913 8.4754 65.4749L6.00053 67.9497L1.05078 63L3.52565 60.5251C5.80904 58.2417 8.48843 56.3924 11.4332 55.0672L19.6595 51.3654C23.2144 49.7657 25.5005 46.23 25.5005 42.3318C25.5005 41.1267 25.0218 39.971 24.1697 39.1189L22.3976 37.3468C19.2621 34.2113 17.5005 29.9586 17.5005 25.5243V24C17.5005 13.7827 25.7833 5.5 36.0005 5.5C46.2178 5.5 54.5005 13.7827 54.5005 24V25.5243C54.5005 29.9586 52.739 34.2113 49.6035 37.3468L47.8314 39.1189C46.9793 39.971 46.5005 41.1267 46.5005 42.3318C46.5005 46.23 48.7867 49.7657 52.3415 51.3654L60.5679 55.0672C63.5126 56.3924 66.192 58.2417 68.4754 60.5251L70.9503 63L66.0005 67.9497L63.5257 65.4749C61.8421 63.7913 59.8665 62.4277 57.6953 61.4507L49.469 57.7488C43.4022 55.0188 39.5005 48.9845 39.5005 42.3318C39.5005 39.2702 40.7167 36.3341 42.8816 34.1692L44.6538 32.397C46.4765 30.5743 47.5005 28.1021 47.5005 25.5243V24C47.5005 17.6487 42.3518 12.5 36.0005 12.5Z" fill="#FEFEFE"/>
</svg>
