<svg width="120" height="120" viewBox="0 0 120 120" fill="none" xmlns="http://www.w3.org/2000/svg">
<path fill-rule="evenodd" clip-rule="evenodd" d="M38.5 41C38.5 29.1259 48.1259 19.5 60 19.5C71.8741 19.5 81.5 29.1259 81.5 41V46.3801C79.3529 44.7063 77.0056 43.2775 74.5 42.1355V41C74.5 32.9919 68.0081 26.5 60 26.5C51.9919 26.5 45.5 32.9919 45.5 41V42.1355V50.6289C49.7096 48.0116 54.6783 46.5 60 46.5C75.1878 46.5 87.5 58.8122 87.5 74C87.5 89.1878 75.1878 101.5 60 101.5C44.8122 101.5 32.5 89.1878 32.5 74C32.5 67.5148 34.7449 61.5538 38.5 56.8519V46.3801V41ZM39.5 74C39.5 62.6782 48.6782 53.5 60 53.5C71.3218 53.5 80.5 62.6782 80.5 74C80.5 85.3218 71.3218 94.5 60 94.5C48.6782 94.5 39.5 85.3218 39.5 74ZM60 65.5C55.3056 65.5 51.5 69.3056 51.5 74C51.5 77.4467 53.5515 80.4143 56.5 81.7483V87L63.5 85.1333V81.7483C66.4485 80.4143 68.5 77.4467 68.5 74C68.5 69.3056 64.6944 65.5 60 65.5Z" fill="#FEFEFE"/>
</svg>
