<svg width="24" height="24" viewBox="0 0 24 24" fill="none" xmlns="http://www.w3.org/2000/svg">
<path fill-rule="evenodd" clip-rule="evenodd" d="M16 13C18.7614 13 21 10.7614 21 8C21 5.23858 18.7614 3 16 3C13.2386 3 11 5.23858 11 8C11 10.7614 13.2386 13 16 13ZM16 15C19.866 15 23 11.866 23 8C23 4.13401 19.866 1 16 1C12.134 1 9 4.13401 9 8C9 9.57239 9.51844 11.0237 10.3937 12.1923L2.58594 20.0001L6.29304 23.7072L7.70726 22.293L5.41436 20.0001L7.00011 18.4143L9.29297 20.7072L10.7072 19.293L8.41433 17.0001L11.808 13.6065C12.9765 14.4816 14.4277 15 16 15Z" fill="#FEFEFE"/>
</svg>
