<svg width="64" height="64" viewBox="0 0 64 64" fill="none" xmlns="http://www.w3.org/2000/svg">
<path fill-rule="evenodd" clip-rule="evenodd" d="M16.2584 10H47.3461L52.1114 22.7074C53.9835 27.7001 50.2929 33.0261 44.9605 33.0261C42.2525 33.0261 39.7477 31.5921 38.3763 29.2585L38.2579 29.4479C36.8668 31.6739 34.4268 33.0261 31.8023 33.0261C29.1777 33.0261 26.7379 31.6742 25.3468 29.4482L25.2282 29.2585C23.9122 31.498 21.5523 32.909 18.9707 33.0192V44.6174H32.706V44.6177H33.4118V49.6177H12.2354V44.6177H13.9707V31.4346C11.4586 29.4819 10.2505 26.0213 11.4931 22.7075L16.2584 10ZM19.7234 15L16.1748 24.463C15.5283 26.1871 16.8028 28.0261 18.644 28.0261C19.5819 28.0261 20.4492 27.5279 20.9218 26.7178L21.2598 26.1385L25.0806 19.5886L29.5866 26.798C30.0639 27.5617 30.9013 28.0261 31.8023 28.0261C32.7032 28.0261 33.5404 27.562 34.0177 26.7983L34.5049 26.0188L38.5239 19.5886L42.3447 26.1384L42.6826 26.7175C43.1551 27.5277 44.0226 28.0261 44.9605 28.0261C46.8017 28.0261 48.0762 26.1871 47.4297 24.463L43.8811 15H19.7234ZM39.768 41.2322L42.3169 43.7811V35.9999H47.3169V44.1477L50.2324 41.2322L53.768 44.7677L45.0002 53.5355L36.2324 44.7677L39.768 41.2322Z" fill="#FEFEFE"/>
</svg>
