<svg width="12" height="12" viewBox="0 0 12 12" fill="none" xmlns="http://www.w3.org/2000/svg">
<mask id="mask0_426_31" style="mask-type:alpha" maskUnits="userSpaceOnUse" x="0" y="0" width="12" height="12">
<rect width="12" height="12" fill="#D9D9D9"/>
</mask>
<g mask="url(#mask0_426_31)">
<path fill-rule="evenodd" clip-rule="evenodd" d="M6 10C8.20914 10 10 8.20914 10 6C10 3.79086 8.20914 2 6 2C3.79086 2 2 3.79086 2 6C2 8.20914 3.79086 10 6 10ZM6 11C8.76142 11 11 8.76142 11 6C11 3.23858 8.76142 1 6 1C3.23858 1 1 3.23858 1 6C1 8.76142 3.23858 11 6 11Z" fill="#FEFEFE"/>
<path fill-rule="evenodd" clip-rule="evenodd" d="M6.39648 4.60367C6.17753 4.38472 5.82254 4.38472 5.60359 4.60367L4.85359 5.35367L4.14648 4.64656L4.89648 3.89656C5.50596 3.28708 6.49412 3.28708 7.10359 3.89656C7.71307 4.50604 7.71307 5.49419 7.10359 6.10367L6.50004 6.70722V7.50011H5.50004V6.29301L6.39648 5.39656C6.61544 5.17761 6.61544 4.82262 6.39648 4.60367Z" fill="#FEFEFE"/>
<path fill-rule="evenodd" clip-rule="evenodd" d="M5.5 9V8H6.5V9H5.5Z" fill="#FEFEFE"/>
</g>
</svg>
