<svg width="24" height="24" viewBox="0 0 24 24" fill="none" xmlns="http://www.w3.org/2000/svg">
<path d="M20.6155 6.92788C19.9694 7.25096 19.3232 7.35865 18.5694 7.46635C19.3232 7.03558 19.8617 6.38942 20.0771 5.52788C19.4309 5.95865 18.6771 6.17404 17.8155 6.38942C17.1694 5.74327 16.2002 5.3125 15.2309 5.3125C13.4002 5.3125 11.7848 6.92789 11.7848 8.86635C11.7848 9.18942 11.7848 9.40481 11.8925 9.62019C8.98477 9.5125 6.29246 8.1125 4.56938 5.95865C4.2463 6.49712 4.13861 7.03558 4.13861 7.78942C4.13861 8.97404 4.78477 10.051 5.754 10.6971C5.21554 10.6971 4.67707 10.4817 4.13861 10.2663C4.13861 11.9894 5.32323 13.3894 6.93861 13.7125C6.61554 13.8202 6.29246 13.8202 5.96938 13.8202C5.754 13.8202 5.53861 13.8202 5.32323 13.7125C5.754 15.1125 7.0463 16.1894 8.66169 16.1894C7.47707 17.1587 5.96938 17.6971 4.2463 17.6971C3.92323 17.6971 3.70784 17.6971 3.38477 17.6971C5.00015 18.6663 6.83092 19.3125 8.76938 19.3125C15.2309 19.3125 18.7848 13.9279 18.7848 9.29711C18.7848 9.18942 18.7848 8.97404 18.7848 8.86635C19.5386 8.32789 20.1848 7.68173 20.6155 6.92788Z" fill="url(#paint0_linear_222_900)"/>
<defs>
<linearGradient id="paint0_linear_222_900" x1="3.38477" y1="12.5539" x2="20.6155" y2="12.5539" gradientUnits="userSpaceOnUse">
<stop stop-color="#9EE6FC"/>
<stop offset="1" stop-color="#EBB9E7"/>
</linearGradient>
</defs>
</svg>
