<svg width="32" height="32" viewBox="0 0 32 32" fill="none" xmlns="http://www.w3.org/2000/svg">
<path fill-rule="evenodd" clip-rule="evenodd" d="M17.3157 6.13121V3L14.5788 4.36842V6.14741C10.2818 6.82909 7 10.5504 7 15.0358V21L5 25H27L25 21V15.0358C25 10.5105 21.6608 6.76762 17.3157 6.13121ZM14.8922 8.12271L15.9578 7.95366L17.0259 8.1101C20.4036 8.60482 23 11.5179 23 15.0358V21.4721L23.7639 23H8.23607L9 21.4721V15.0358C9 11.549 11.5518 8.65263 14.8922 8.12271ZM21 27H11.375L10 29H19.625L21 27Z" fill="#FEFEFE"/>
</svg>
