<svg width="24" height="24" viewBox="0 0 24 24" fill="none" xmlns="http://www.w3.org/2000/svg">
<path fill-rule="evenodd" clip-rule="evenodd" d="M12 20C16.4183 20 20 16.4183 20 12C20 7.58172 16.4183 4 12 4C7.58172 4 4 7.58172 4 12C4 16.4183 7.58172 20 12 20ZM12 22C17.5228 22 22 17.5228 22 12C22 6.47715 17.5228 2 12 2C6.47715 2 2 6.47715 2 12C2 17.5228 6.47715 22 12 22ZM11 8V6H13V8H11ZM12.9996 11C12.9996 10.672 12.8387 10.3649 12.5692 10.1781C12.2996 9.99126 11.9555 9.94852 11.6484 10.0637L9.64844 10.8137L10.3507 12.6863L10.9996 12.443V17C10.9996 17.328 11.1604 17.6351 11.43 17.8219C11.6995 18.0087 12.0436 18.0515 12.3507 17.9363L14.3507 17.1863L13.6484 15.3137L12.9996 15.557V11Z" fill="#FEFEFE"/>
</svg>
