<svg width="24" height="24" viewBox="0 0 24 24" fill="none" xmlns="http://www.w3.org/2000/svg">
<path d="M18.2612 6.15822C18.2562 6.14858 18.2479 6.14099 18.2378 6.13682C17.0708 5.60139 15.8392 5.21954 14.5739 5.00097C14.5624 4.99878 14.5506 5.00032 14.54 5.00534C14.5294 5.01035 14.5207 5.01858 14.515 5.0288C14.3474 5.33319 14.1952 5.64581 14.0589 5.9655C12.6951 5.7585 11.3078 5.7585 9.94388 5.9655C9.80676 5.64497 9.65209 5.33229 9.48051 5.0288C9.47466 5.01877 9.46592 5.01074 9.45538 5.00579C9.4449 5.00084 9.43313 4.9991 9.42163 5.00097C8.15623 5.21909 6.92458 5.60094 5.75773 6.13688C5.7477 6.14112 5.73928 6.14832 5.73356 6.15758C3.40005 9.64233 2.76079 13.0414 3.07438 16.3985C3.07528 16.4067 3.07779 16.4147 3.08184 16.4219C3.08582 16.4291 3.09129 16.4355 3.09778 16.4406C4.45659 17.4466 5.97643 18.2146 7.59244 18.7116C7.60382 18.715 7.61597 18.7149 7.62728 18.7112C7.6386 18.7075 7.64843 18.7004 7.65563 18.6909C8.00271 18.2187 8.31025 17.7186 8.57511 17.1958C8.57878 17.1887 8.58083 17.1807 8.58122 17.1727C8.5816 17.1647 8.58025 17.1566 8.5773 17.1492C8.57434 17.1417 8.56984 17.1349 8.56412 17.1293C8.55833 17.1237 8.55145 17.1194 8.54393 17.1166C8.05896 16.931 7.58942 16.7074 7.1398 16.4476C7.13164 16.4428 7.12476 16.4361 7.11981 16.428C7.11486 16.4199 7.11197 16.4107 7.11145 16.4013C7.11088 16.3918 7.11268 16.3824 7.1166 16.3738C7.12058 16.3652 7.12656 16.3576 7.13415 16.3519C7.22878 16.2813 7.32173 16.2084 7.41295 16.1334C7.42099 16.1269 7.4307 16.1226 7.44092 16.1213C7.45121 16.1199 7.46168 16.1214 7.47113 16.1256C10.417 17.47 13.6062 17.47 16.5171 16.1256C16.5265 16.1211 16.5371 16.1194 16.5476 16.1206C16.558 16.1219 16.5679 16.1261 16.576 16.1328C16.6673 16.2081 16.7605 16.2812 16.8556 16.3519C16.8631 16.3576 16.8692 16.365 16.8732 16.3736C16.8772 16.3822 16.8791 16.3916 16.8786 16.4011C16.8781 16.4105 16.8753 16.4197 16.8704 16.4278C16.8655 16.4359 16.8587 16.4428 16.8506 16.4476C16.402 16.7095 15.932 16.9331 15.4458 17.1159C15.4382 17.1188 15.4314 17.1232 15.4256 17.1289C15.4199 17.1346 15.4155 17.1415 15.4126 17.149C15.4097 17.1565 15.4084 17.1646 15.4089 17.1726C15.4093 17.1807 15.4114 17.1887 15.4152 17.1958C15.6845 17.7157 15.9916 18.2152 16.3339 18.6902C16.3409 18.6999 16.3507 18.7072 16.3621 18.711C16.3734 18.7149 16.3857 18.715 16.3971 18.7116C18.016 18.2162 19.5385 17.4482 20.8991 16.4406C20.9057 16.4357 20.9111 16.4296 20.9152 16.4224C20.9192 16.4153 20.9217 16.4073 20.9225 16.3992C21.2979 12.5181 20.2939 9.14688 18.2612 6.15822ZM9.01502 14.3544C8.12813 14.3544 7.3974 13.5406 7.3974 12.541C7.3974 11.5414 8.11399 10.7275 9.01502 10.7275C9.92318 10.7275 10.6468 11.5485 10.6327 12.5409C10.6327 13.5406 9.91605 14.3544 9.01502 14.3544ZM14.9961 14.3544C14.1092 14.3544 13.3784 13.5406 13.3784 12.541C13.3784 11.5414 14.0951 10.7275 14.9961 10.7275C15.9043 10.7275 16.6279 11.5485 16.6138 12.5409C16.6138 13.5406 15.9043 14.3544 14.9961 14.3544Z" fill="url(#paint0_linear_1_460)"/>
<defs>
<linearGradient id="paint0_linear_1_460" x1="3" y1="12.0935" x2="21" y2="12.0935" gradientUnits="userSpaceOnUse">
<stop stop-color="#9EE6FC"/>
<stop offset="1" stop-color="#EBB9E7"/>
</linearGradient>
</defs>
</svg>
