<svg width="24" height="24" viewBox="0 0 24 24" fill="none" xmlns="http://www.w3.org/2000/svg">
<path d="M16.393 4H7.607C5.61491 4 4 5.61491 4 7.607V16.393C4 18.3851 5.61491 20 7.607 20H16.393C18.3851 20 20 18.3851 20 16.393V7.607C20 5.61491 18.3851 4 16.393 4Z" fill="url(#paint0_linear_26_40)"/>
<path d="M17.333 11.246C17.333 8.85899 14.94 6.91699 11.9985 6.91699C9.057 6.91699 6.664 8.85899 6.664 11.246C6.664 13.386 8.564 15.1785 11.125 15.517C11.299 15.5545 11.5355 15.6315 11.595 15.78C11.649 15.915 11.6305 16.1265 11.6125 16.2625C11.6125 16.2625 11.55 16.639 11.5365 16.719C11.513 16.854 11.429 17.2465 11.9985 17.007C12.568 16.7675 15.0705 15.198 16.1895 13.9095C16.9625 13.062 17.333 12.2 17.333 11.246Z" fill="#141430"/>
<path d="M15.558 12.6245H14.058C14.0315 12.6245 14.006 12.6139 13.9873 12.5952C13.9685 12.5764 13.958 12.551 13.958 12.5245V10.197C13.958 10.1705 13.9685 10.145 13.9873 10.1263C14.006 10.1075 14.0315 10.097 14.058 10.097H15.558C15.5845 10.097 15.61 10.1075 15.6287 10.1263C15.6475 10.145 15.658 10.1705 15.658 10.197V10.5755C15.658 10.602 15.6475 10.6274 15.6287 10.6462C15.61 10.6649 15.5845 10.6755 15.558 10.6755H14.5395V11.068H15.558C15.5845 11.068 15.61 11.0785 15.6287 11.0973C15.6475 11.116 15.658 11.1415 15.658 11.168V11.55C15.658 11.5765 15.6475 11.6019 15.6287 11.6207C15.61 11.6394 15.5845 11.65 15.558 11.65H14.5395V12.043H15.558C15.5845 12.043 15.61 12.0535 15.6287 12.0723C15.6475 12.091 15.658 12.1165 15.658 12.143V12.521C15.6585 12.5344 15.6562 12.5478 15.6514 12.5603C15.6466 12.5729 15.6393 12.5843 15.63 12.594C15.6206 12.6036 15.6095 12.6113 15.5971 12.6166C15.5847 12.6218 15.5714 12.6245 15.558 12.6245Z" fill="url(#paint1_linear_26_40)"/>
<path d="M10.0145 12.6245C10.041 12.6245 10.0665 12.614 10.0852 12.5952C10.104 12.5765 10.1145 12.551 10.1145 12.5245V12.1465C10.1145 12.12 10.104 12.0945 10.0852 12.0758C10.0665 12.057 10.041 12.0465 10.0145 12.0465H8.996V10.1965C8.996 10.17 8.98546 10.1445 8.96671 10.1258C8.94796 10.107 8.92252 10.0965 8.896 10.0965H8.516C8.48948 10.0965 8.46404 10.107 8.44529 10.1258C8.42654 10.1445 8.416 10.17 8.416 10.1965V12.523C8.416 12.5495 8.42654 12.575 8.44529 12.5937C8.46404 12.6125 8.48948 12.623 8.516 12.623H10.016L10.0145 12.6245Z" fill="url(#paint2_linear_26_40)"/>
<path d="M10.9165 10.0925H10.5385C10.4822 10.0925 10.4365 10.1382 10.4365 10.1945V12.5225C10.4365 12.5788 10.4822 12.6245 10.5385 12.6245H10.9165C10.9728 12.6245 11.0185 12.5788 11.0185 12.5225V10.1945C11.0185 10.1382 10.9728 10.0925 10.9165 10.0925Z" fill="url(#paint3_linear_26_40)"/>
<path d="M13.492 10.0925H13.114C13.0875 10.0925 13.062 10.103 13.0433 10.1218C13.0245 10.1405 13.014 10.166 13.014 10.1925V11.5755L11.949 10.137C11.9466 10.1332 11.9437 10.1297 11.9405 10.1265L11.9345 10.1205L11.929 10.116H11.926L11.9205 10.112H11.9175L11.912 10.109H11.9085H11.903H11.8995H11.8935H11.8895H11.8835H11.8795H11.874H11.4885C11.462 10.109 11.4365 10.1195 11.4178 10.1383C11.399 10.157 11.3885 10.1825 11.3885 10.209V12.537C11.3885 12.5635 11.399 12.589 11.4178 12.6077C11.4365 12.6265 11.462 12.637 11.4885 12.637H11.867C11.8935 12.637 11.919 12.6265 11.9377 12.6077C11.9565 12.589 11.967 12.5635 11.967 12.537V11.1405L13.0335 12.5805C13.0405 12.5907 13.0493 12.5995 13.0595 12.6065L13.0655 12.6105H13.0685L13.0735 12.613H13.0785H13.082H13.089C13.0978 12.6152 13.1069 12.6164 13.116 12.6165H13.492C13.5185 12.6165 13.544 12.606 13.5627 12.5872C13.5815 12.5685 13.592 12.543 13.592 12.5165V10.1945C13.5923 10.1812 13.5899 10.168 13.585 10.1556C13.5801 10.1433 13.5727 10.132 13.5634 10.1225C13.5541 10.113 13.543 10.1054 13.5307 10.1003C13.5185 10.0951 13.5053 10.0925 13.492 10.0925Z" fill="url(#paint4_linear_26_40)"/>
<defs>
<linearGradient id="paint0_linear_26_40" x1="4" y1="12" x2="20" y2="12" gradientUnits="userSpaceOnUse">
<stop stop-color="#9EE6FC"/>
<stop offset="1" stop-color="#EBB9E7"/>
</linearGradient>
<linearGradient id="paint1_linear_26_40" x1="13.958" y1="11.3607" x2="15.6581" y2="11.3607" gradientUnits="userSpaceOnUse">
<stop stop-color="#9EE6FC"/>
<stop offset="1" stop-color="#EBB9E7"/>
</linearGradient>
<linearGradient id="paint2_linear_26_40" x1="8.416" y1="11.3605" x2="10.1145" y2="11.3605" gradientUnits="userSpaceOnUse">
<stop stop-color="#9EE6FC"/>
<stop offset="1" stop-color="#EBB9E7"/>
</linearGradient>
<linearGradient id="paint3_linear_26_40" x1="10.4365" y1="11.3585" x2="11.0185" y2="11.3585" gradientUnits="userSpaceOnUse">
<stop stop-color="#9EE6FC"/>
<stop offset="1" stop-color="#EBB9E7"/>
</linearGradient>
<linearGradient id="paint4_linear_26_40" x1="11.3885" y1="11.3647" x2="13.592" y2="11.3647" gradientUnits="userSpaceOnUse">
<stop stop-color="#9EE6FC"/>
<stop offset="1" stop-color="#EBB9E7"/>
</linearGradient>
</defs>
</svg>
