<svg width="24" height="24" viewBox="0 0 24 24" fill="none" xmlns="http://www.w3.org/2000/svg">
<path fill-rule="evenodd" clip-rule="evenodd" d="M12 4C4 4 2 12 2 12C2 12 4 20 12 20C20 20 22 12 22 12C22 12 20 4 12 4ZM4.28365 11.5192C4.2083 11.7001 4.14651 11.8622 4.09704 12C4.14651 12.1379 4.2083 12.2999 4.28365 12.4808C4.55025 13.1206 4.97418 13.9656 5.6 14.8C6.82703 16.436 8.78571 18 12 18C15.2143 18 17.173 16.436 18.4 14.8C19.0258 13.9656 19.4498 13.1206 19.7163 12.4808C19.7917 12.2999 19.8535 12.1379 19.903 12C19.8535 11.8622 19.7917 11.7001 19.7163 11.5192C19.4498 10.8794 19.0258 10.0344 18.4 9.2C17.173 7.56396 15.2143 6 12 6C8.78571 6 6.82703 7.56396 5.6 9.2C4.97418 10.0344 4.55025 10.8794 4.28365 11.5192ZM14 12C14 13.1046 13.1046 14 12 14C10.8954 14 10 13.1046 10 12C10 10.8954 10.8954 10 12 10C13.1046 10 14 10.8954 14 12ZM16 12C16 14.2091 14.2091 16 12 16C9.79086 16 8 14.2091 8 12C8 9.79086 9.79086 8 12 8C14.2091 8 16 9.79086 16 12Z" fill="#FEFEFE"/>
</svg>
