<svg width="24" height="24" viewBox="0 0 24 24" fill="none" xmlns="http://www.w3.org/2000/svg">
<path d="M12.8968 11.9756C12.8968 14.1712 11.129 15.951 8.9485 15.951C6.76795 15.951 5 14.1708 5 11.9756C5 9.7804 6.7678 8 8.9485 8C11.1292 8 12.8968 9.78 12.8968 11.9756ZM17.2283 11.9756C17.2283 14.0423 16.3444 15.7183 15.2541 15.7183C14.1638 15.7183 13.2799 14.0423 13.2799 11.9756C13.2799 9.9089 14.1636 8.2329 15.254 8.2329C16.3443 8.2329 17.2283 9.9084 17.2283 11.9756ZM19 11.9756C19 13.8268 18.6892 15.3285 18.3057 15.3285C17.9222 15.3285 17.6115 13.8272 17.6115 11.9756C17.6115 10.124 17.9223 8.6227 18.3057 8.6227C18.6891 8.6227 19 10.1238 19 11.9756Z" fill="url(#paint0_linear_222_919)"/>
<defs>
<linearGradient id="paint0_linear_222_919" x1="5" y1="12.1126" x2="19" y2="12.1126" gradientUnits="userSpaceOnUse">
<stop stop-color="#9EE6FC"/>
<stop offset="1" stop-color="#EBB9E7"/>
</linearGradient>
</defs>
</svg>
