<svg width="24" height="24" viewBox="0 0 24 24" fill="none" xmlns="http://www.w3.org/2000/svg">
<path d="M11.0858 3.99997L9.25736 2.17154L10.6716 0.757324L14.9142 4.99997L10.6716 9.24261L9.25736 7.82839L11.0858 5.99997H8.5C6.84315 5.99997 5.5 7.34311 5.5 8.99997V13H3.5V8.99997C3.5 6.23854 5.73858 3.99997 8.5 3.99997H11.0858ZM9.5 11C9.5 10.4477 9.94772 9.99997 10.5 9.99997H20.5C21.0523 9.99997 21.5 10.4477 21.5 11V21C21.5 21.5522 21.0523 22 20.5 22H10.5C9.94772 22 9.5 21.5522 9.5 21V11ZM11.5 12V20H19.5V12H11.5Z" fill="#FEFEFE"/>
</svg>
