<svg width="80" height="80" viewBox="0 0 80 80" fill="none" xmlns="http://www.w3.org/2000/svg">
<path fill-rule="evenodd" clip-rule="evenodd" d="M39.9185 19.9316L38.2627 20.0406C28.6243 20.675 21 28.6988 21 38.5V54.1648L17.2867 60H61.7133L58 54.1648V38.5C58 28.9802 50.8062 21.1352 41.5605 20.1131L39.9185 19.9316ZM69 64H10L17 53V38.5C17 26.5777 26.273 16.8211 38 16.0492V8L42 7V16.1374C53.2499 17.381 62 26.9187 62 38.5V53L69 64ZM30 68H52L50 72H28L30 68ZM39 30C34.5817 30 31 33.5817 31 38V39L27 42V38C27 31.3726 32.3726 26 39 26V30Z" fill="#FEFEFE"/>
</svg>
