<svg width="24" height="24" viewBox="0 0 24 24" fill="none" xmlns="http://www.w3.org/2000/svg">
<path fill-rule="evenodd" clip-rule="evenodd" d="M13 2L11 3V5.04365C7.60635 5.52912 5 8.44753 5 11.9727V16L3.60522 19H20.3947L19 16V11.9727C19 8.44497 16.3909 5.52856 13 5.04356V2ZM11.2832 7.0235L12.0002 6.92092L12.7168 7.02341C15.1371 7.36957 17 9.45468 17 11.9727V16.4421L17.2593 17H6.74065L7 16.4422V11.9727C7 9.45638 8.86108 7.36999 11.2832 7.0235ZM16.4375 20.25H8.01562L6.8125 22H15.2344L16.4375 20.25Z" fill="#FEFEFE"/>
</svg>
