<svg width="32" height="32" viewBox="0 0 32 32" fill="none" xmlns="http://www.w3.org/2000/svg">
<path fill-rule="evenodd" clip-rule="evenodd" d="M19.8278 25.2412C23.1578 23.8603 25.5801 20.7319 25.9506 17H21.9795C21.8429 20.3102 21.0346 23.2395 19.8278 25.2412ZM16 28C22.6274 28 28 22.6274 28 16C28 9.37258 22.6274 4 16 4C9.37258 4 4 9.37258 4 16C4 22.6274 9.37258 28 16 28ZM12.1722 6.75877C8.8422 8.13966 6.41991 11.2681 6.04938 15H10.0205C10.1571 11.6898 10.9654 8.7605 12.1722 6.75877ZM12.0224 15C12.1416 12.349 12.7278 10.0459 13.5462 8.40915C14.5257 6.45018 15.5088 6 16 6C16.4912 6 17.4743 6.45018 18.4538 8.40915C19.2722 10.0459 19.8584 12.349 19.9776 15H12.0224ZM12.0224 17C12.1416 19.651 12.7278 21.9541 13.5462 23.5909C14.5257 25.5498 15.5088 26 16 26C16.4912 26 17.4743 25.5498 18.4538 23.5909C19.2722 21.9541 19.8584 19.651 19.9776 17H12.0224ZM10.0205 17C10.1571 20.3102 10.9654 23.2395 12.1722 25.2412C8.8422 23.8603 6.41991 20.7319 6.04938 17H10.0205ZM21.9795 15C21.8429 11.6898 21.0346 8.7605 19.8278 6.75877C23.1578 8.13966 25.5801 11.2681 25.9506 15H21.9795Z" fill="#FEFEFE"/>
</svg>
