<svg width="64" height="64" viewBox="0 0 64 64" fill="none" xmlns="http://www.w3.org/2000/svg">
<path fill-rule="evenodd" clip-rule="evenodd" d="M20 6H25V9H39V6H44V9H56V19H51V14H44V17H39V14H25V17H20V14H13V50H20V55H8V9H20V6ZM42 54C49.1797 54 55 48.1797 55 41C55 33.8203 49.1797 28 42 28C34.8203 28 29 33.8203 29 41C29 48.1797 34.8203 54 42 54ZM42 59C51.9411 59 60 50.9411 60 41C60 31.0589 51.9411 23 42 23C32.0589 23 24 31.0589 24 41C24 50.9411 32.0589 59 42 59ZM42.7678 45.7681L50.5355 38.0004L47 34.4648L41 40.4648L38 37.4648L34.4645 41.0004L39.2322 45.7681C40.2086 46.7445 41.7915 46.7445 42.7678 45.7681Z" fill="#FEFEFE"/>
</svg>
