<svg width="24" height="24" viewBox="0 0 24 24" fill="none" xmlns="http://www.w3.org/2000/svg">
<path d="M11.9705 2.39999C6.96048 2.39999 2.79047 6.29999 2.43047 11.22L7.56048 13.35C8.01048 13.05 8.52048 12.9 9.09048 12.9H9.24048L11.5205 9.56999V9.53999C11.5205 7.55999 13.1405 5.90999 15.1505 5.90999C17.1605 5.90999 18.7805 7.52999 18.7805 9.53999C18.7805 11.55 17.1605 13.17 15.1505 13.17H15.0605L11.7905 15.51V15.63C11.7905 17.13 10.5605 18.36 9.06048 18.36C7.74048 18.36 6.63048 17.4 6.39048 16.17L2.73047 14.61C3.87047 18.63 7.59048 21.6 11.9705 21.6C17.2805 21.6 21.5705 17.31 21.5705 12C21.5705 6.68999 17.2805 2.39999 11.9705 2.39999Z" fill="#FEFEFE"/>
<path d="M8.43096 16.9805L7.26096 16.5005C7.47096 16.9505 7.83096 17.3105 8.31096 17.4905C9.33096 17.9405 10.531 17.4305 10.981 16.4105C11.191 15.9005 11.191 15.3605 10.981 14.8505C10.771 14.3405 10.381 13.9505 9.90096 13.7405C9.42096 13.5305 8.88096 13.5605 8.40096 13.7105L9.63096 14.2205C10.381 14.5505 10.771 15.4205 10.441 16.1705C10.081 16.9205 9.21096 17.2805 8.43096 16.9805ZM17.551 9.51047C17.551 8.19047 16.471 7.08047 15.121 7.08047C13.801 7.08047 12.691 8.16047 12.691 9.51047C12.691 10.8605 13.801 11.9405 15.121 11.9405C16.441 11.9405 17.551 10.8605 17.551 9.51047ZM13.351 9.51047C13.351 8.49047 14.161 7.71047 15.151 7.71047C16.171 7.71047 16.951 8.52047 16.951 9.51047C16.951 10.5305 16.141 11.3105 15.151 11.3105C14.161 11.3405 13.351 10.5305 13.351 9.51047Z" fill="#FEFEFE"/>
</svg>
