<svg width="64" height="64" viewBox="0 0 64 64" fill="none" xmlns="http://www.w3.org/2000/svg">
<path fill-rule="evenodd" clip-rule="evenodd" d="M28.4117 10.8418L26.9117 5.3418L22.0879 6.65738L23.5879 12.1574L28.4117 10.8418ZM10 6.5L16 14.5L12 17.5L6 9.5L10 6.5ZM54 6.5L48 14.5L52 17.5L58 9.5L54 6.5ZM38.0746 5.39355L36.5746 11.3936L41.4253 12.6062L42.9253 6.60623L38.0746 5.39355ZM12 34H40V52H12V34ZM40 57H7V30.5898L0.955078 18.5H33.5357L42.75 27.7143L51.9643 18.5H63.1924L58.9924 29H59V57H45H40ZM45 52H54V34H45V52ZM33.5 43.5H25V38.5H33.5V43.5ZM11.5452 28.5L9.04525 23.5H31.4646L36.4646 28.5H11.5452ZM55.8072 23.5L53.8072 28.5H49.0353L54.0353 23.5H55.8072Z" fill="#FEFEFE"/>
</svg>
