<svg width="24" height="24" viewBox="0 0 24 24" fill="none" xmlns="http://www.w3.org/2000/svg">
<g clip-path="url(#clip0_1_380)">
<path d="M0 12C0 5.37259 5.37259 0 12 0C18.6274 0 24 5.37259 24 12C24 18.6274 18.6274 24 12 24C5.37259 24 0 18.6274 0 12Z" fill="#E6B1F7"/>
<path fill-rule="evenodd" clip-rule="evenodd" d="M10.2498 10.5V13H11.7498V10.8106L13.5302 9.0303C14.0657 8.4948 14.9339 8.4948 15.4695 9.0303C16.005 9.56586 16.005 10.4341 15.4695 10.9696L14.9695 11.4697L16.0301 12.5303L16.5302 12.0303C17.6515 10.909 17.6515 9.09096 16.5302 7.96962C15.4088 6.84834 13.5908 6.84834 12.4695 7.96962L10.4695 9.96966C10.3288 10.1103 10.2498 10.301 10.2498 10.5ZM14.2498 14V11.5H12.7498V13.6893L10.9695 15.4696C10.434 16.0052 9.56568 16.0052 9.03018 15.4696C8.49462 14.9341 8.49462 14.0659 9.03018 13.5303L9.53016 13.0303L8.46948 11.9696L7.9695 12.4696C6.84816 13.591 6.84816 15.409 7.9695 16.5303C9.09084 17.6516 10.9088 17.6516 12.0302 16.5303L14.0302 14.5303C14.1708 14.3897 14.2498 14.1989 14.2498 14Z" fill="#FEFEFE"/>
</g>
<defs>
<clipPath id="clip0_1_380">
<rect width="24" height="24" fill="white"/>
</clipPath>
</defs>
</svg>
