<svg width="32" height="32" viewBox="0 0 32 32" fill="none" xmlns="http://www.w3.org/2000/svg">
<path fill-rule="evenodd" clip-rule="evenodd" d="M16 26C21.5228 26 26 21.5228 26 16C26 10.4772 21.5228 6 16 6C10.4772 6 6 10.4772 6 16C6 21.5228 10.4772 26 16 26ZM16 28C22.6274 28 28 22.6274 28 16C28 9.37258 22.6274 4 16 4C9.37258 4 4 9.37258 4 16C4 22.6274 9.37258 28 16 28Z" fill="#FEFEFE"/>
<path fill-rule="evenodd" clip-rule="evenodd" d="M26.8002 17H5.2002V15H26.8002V17Z" fill="#FEFEFE"/>
<path fill-rule="evenodd" clip-rule="evenodd" d="M18.4538 23.5909C19.3735 21.7515 20 19.0705 20 16C20 12.9295 19.3735 10.2485 18.4538 8.40915C17.4743 6.45018 16.4912 6 16 6C15.5088 6 14.5257 6.45018 13.5462 8.40915C12.6265 10.2485 12 12.9295 12 16C12 19.0705 12.6265 21.7515 13.5462 23.5909C14.5257 25.5498 15.5088 26 16 26C16.4912 26 17.4743 25.5498 18.4538 23.5909ZM16 28C19.3137 28 22 22.6274 22 16C22 9.37258 19.3137 4 16 4C12.6863 4 10 9.37258 10 16C10 22.6274 12.6863 28 16 28Z" fill="#FEFEFE"/>
</svg>
