<svg width="24" height="24" viewBox="0 0 24 24" fill="none" xmlns="http://www.w3.org/2000/svg">
<path fill-rule="evenodd" clip-rule="evenodd" d="M13.0002 2L11.0002 3V5.04365C7.6066 5.52912 5.00025 8.44753 5.00025 11.9727V16L3.60547 19H20.3949L19.0002 16V11.9727C19.0002 8.44497 16.3911 5.52856 13.0002 5.04356V2ZM11.2834 7.0235L12.0004 6.92092L12.717 7.02341C15.1373 7.36957 17.0002 9.45468 17.0002 11.9727V16.4421L17.2595 17H6.7409L7.00025 16.4422V11.9727C7.00025 9.45638 8.86133 7.36999 11.2834 7.0235ZM16.4377 20.25H8.01587L6.81275 22H15.2346L16.4377 20.25Z" fill="#FEFEFE"/>
</svg>
