<svg width="16" height="16" viewBox="0 0 16 16" fill="none" xmlns="http://www.w3.org/2000/svg">
<g clip-path="url(#clip0_222_797)">
<path fill-rule="evenodd" clip-rule="evenodd" d="M6.57121 2.38024L5.157 3.79445L6.57121 5.20867L7.98542 3.79445C9.157 2.62288 11.0565 2.62288 12.2281 3.79445C13.3996 4.96603 13.3996 6.86552 12.2281 8.0371L10.8139 9.45131L12.2281 10.8655L13.6423 9.45131C15.5949 7.49869 15.5949 4.33286 13.6423 2.38024C11.6897 0.427616 8.52383 0.427616 6.57121 2.38024ZM2.77892 6.17254L1.32872 4.72234L2.74293 3.30813L12.6424 13.2076L11.2282 14.6219L9.84998 13.2436L9.39979 13.6938C7.44717 15.6464 4.28134 15.6464 2.32872 13.6938C0.376102 11.7412 0.376103 8.57535 2.32872 6.62273L2.77892 6.17254ZM8.43577 11.8294L7.98558 12.2796C6.814 13.4512 4.91451 13.4512 3.74293 12.2796C2.57136 11.108 2.57136 9.20852 3.74293 8.03694L4.19313 7.58675L8.43577 11.8294Z" fill="#FEFEFE"/>
</g>
<defs>
<clipPath id="clip0_222_797">
<rect width="16" height="16" fill="white"/>
</clipPath>
</defs>
</svg>
