<svg width="12" height="12" viewBox="0 0 12 12" fill="none" xmlns="http://www.w3.org/2000/svg">
<mask id="mask0_426_31" style="mask-type:alpha" maskUnits="userSpaceOnUse" x="0" y="0" width="12" height="12">
<rect width="12" height="12" fill="#D9D9D9"/>
</mask>
<g mask="url(#mask0_426_31)">
<path fill-rule="evenodd" clip-rule="evenodd" d="M6 10C8.20914 10 10 8.20914 10 6C10 3.79086 8.20914 2 6 2C3.79086 2 2 3.79086 2 6C2 8.20914 3.79086 10 6 10ZM6 11C8.76142 11 11 8.76142 11 6C11 3.23858 8.76142 1 6 1C3.23858 1 1 3.23858 1 6C1 8.76142 3.23858 11 6 11Z" fill="#FEFEFE"/>
<path d="M4.5 5L5.25 4.25C5.66421 3.83579 6.33579 3.83579 6.75 4.25V4.25C7.16421 4.66421 7.16421 5.33579 6.75 5.75L6 6.5V7.5" stroke="#FEFEFE"/>
<path d="M6 8V9" stroke="#FEFEFE"/>
</g>
</svg>
