<svg width="24" height="24" viewBox="0 0 24 24" fill="none" xmlns="http://www.w3.org/2000/svg">
<path fill-rule="evenodd" clip-rule="evenodd" d="M13.423 2.10178C15.3098 2.37303 17.0797 3.17787 18.5243 4.42148L17.2088 5.9495C16.0555 4.95663 14.6424 4.31407 13.1361 4.09751C11.6298 3.88095 10.093 4.09941 8.70667 4.72717C7.32037 5.35492 6.14236 6.36581 5.31142 7.64074C4.48049 8.91567 4.03125 10.4015 4.01662 11.9233C4.00199 13.445 4.42259 14.9392 5.22887 16.2299C6.03514 17.5206 7.1935 18.5539 8.56748 19.2082C9.94145 19.8625 11.4738 20.1104 12.984 19.9229C14.4942 19.7353 15.9194 19.12 17.0915 18.1495L18.3774 19.7025C16.9092 20.9182 15.1241 21.6888 13.2325 21.9238C11.3409 22.1587 9.42158 21.8481 7.70061 21.0286C5.97964 20.2091 4.52875 18.9148 3.51885 17.2981C2.50896 15.6815 1.98214 13.8099 2.00046 11.9039C2.01878 9.99785 2.58148 8.13674 3.62226 6.53983C4.66304 4.94292 6.13855 3.67674 7.87495 2.89045C9.61135 2.10416 11.5363 1.83053 13.423 2.10178ZM21 11H9V13H18.5858L16.5858 15L18 16.4142L21.7071 12.7071C21.9931 12.4211 22.0787 11.991 21.9239 11.6173C21.7691 11.2436 21.4045 11 21 11Z" fill="#FEFEFE"/>
</svg>
