<svg width="24" height="24" viewBox="0 0 24 24" fill="none" xmlns="http://www.w3.org/2000/svg">
<path d="M20.049 7.83938C19.8559 7.11563 19.2859 6.54563 18.564 6.3525C17.2534 6 11.9996 6 11.9996 6C11.9996 6 6.74586 6 5.43523 6.35062C4.71148 6.54375 4.14336 7.11375 3.95023 7.8375C3.59961 9.15 3.59961 11.8875 3.59961 11.8875C3.59961 11.8875 3.59961 14.625 3.95023 15.9356C4.14336 16.6594 4.71336 17.2294 5.43523 17.4225C6.74586 17.775 11.9996 17.775 11.9996 17.775C11.9996 17.775 17.2534 17.775 18.564 17.4225C19.2877 17.2294 19.8559 16.6594 20.049 15.9356C20.3996 14.625 20.3996 11.8875 20.3996 11.8875C20.3996 11.8875 20.3996 9.15 20.049 7.83938ZM10.3309 14.4V9.375L14.6809 11.8687L10.3309 14.4Z" fill="#FEFEFE"/>
</svg>
