<svg width="24" height="24" viewBox="0 0 24 24" fill="none" xmlns="http://www.w3.org/2000/svg">
<g clip-path="url(#clip0_1_168)">
<path fill-rule="evenodd" clip-rule="evenodd" d="M21 12C21 16.9706 16.9706 21 12 21C7.02944 21 3 16.9706 3 12C3 7.02944 7.02944 3 12 3C16.9706 3 21 7.02944 21 12ZM23 12C23 18.0751 18.0751 23 12 23C5.92487 23 1 18.0751 1 12C1 5.92487 5.92487 1 12 1C18.0751 1 23 5.92487 23 12ZM7.40419 8.00347C7.146 7.98463 6.88801 8.04277 6.66287 8.17054C6.43772 8.29832 6.25551 8.48999 6.1393 8.72132C6.02308 8.95264 5.97808 9.21324 6.00997 9.47015C6.04186 9.72705 6.14922 9.96873 6.31847 10.1646C6.48772 10.3605 6.71125 10.5018 6.96081 10.5707C7.21037 10.6395 7.47474 10.6328 7.72048 10.5514C7.75033 10.5415 7.77974 10.5306 7.80866 10.5186C7.80866 10.5186 8.14691 10.3833 8.55748 10.6235L8.60675 10.6521C9.06245 10.9165 10.0334 11.4799 9.9698 12.6572C9.9516 12.8465 9.94575 13.0391 9.95304 13.2343C10.0416 15.6051 12.0353 17.4552 14.4061 17.3666C16.7769 17.278 18.6269 15.2843 18.5384 12.9135C18.4498 10.5428 16.4561 8.69269 14.0853 8.78128C13.1296 8.817 12.2585 9.16231 11.5649 9.71711V9.71327C10.5704 10.4499 9.57194 9.92469 9.10946 9.68141L9.07946 9.66565C8.65837 9.44458 8.59721 9.07812 8.59721 9.07812C8.55606 8.84881 8.45406 8.63258 8.29917 8.45331C8.07225 8.19067 7.75035 8.02887 7.40419 8.00347ZM13.4498 15.1145C12.3345 14.6842 11.7792 13.4311 12.2096 12.3158C12.6399 11.2005 13.893 10.6452 15.0083 11.0756C16.1236 11.5059 16.6789 12.759 16.2485 13.8743C15.8182 14.9896 14.5651 15.5449 13.4498 15.1145Z" fill="#FEFEFE"/>
<path d="M7.80865 10.5186L7.85761 10.5294L7.8782 10.4357L7.78951 10.4723L7.80865 10.5186ZM7.80865 10.5186L7.75956 10.5084L7.73922 10.601L7.8272 10.5657L7.80865 10.5186ZM9.96979 12.6572L10.0197 12.662L10.0199 12.6599L9.96979 12.6572ZM11.5649 9.71713L11.5148 9.71692L11.5143 9.82178L11.5962 9.75628L11.5649 9.71713ZM11.5649 9.71329L11.615 9.71351L11.6155 9.61347L11.5351 9.67301L11.5649 9.71329ZM8.5972 9.07814L8.64664 9.06989L8.63113 8.97694L8.56272 9.04175L8.5972 9.07814ZM8.5972 9.07814L8.54784 9.08702L8.56424 9.17842L8.63166 9.11455L8.5972 9.07814ZM12 21.0501C16.9982 21.0501 21.0501 16.9982 21.0501 12H20.9499C20.9499 16.9429 16.9429 20.9499 12 20.9499V21.0501ZM2.94986 12C2.94986 16.9982 7.00174 21.0501 12 21.0501V20.9499C7.05711 20.9499 3.05012 16.9429 3.05012 12H2.94986ZM12 2.94989C7.00174 2.94989 2.94986 7.00177 2.94986 12H3.05012C3.05012 7.05714 7.05711 3.05015 12 3.05015V2.94989ZM21.0501 12C21.0501 7.00177 16.9982 2.94989 12 2.94989V3.05015C16.9429 3.05015 20.9499 7.05714 20.9499 12H21.0501ZM12 23.0501C18.1028 23.0501 23.0501 18.1028 23.0501 12H22.9499C22.9499 18.0474 18.0474 22.9499 12 22.9499V23.0501ZM0.94986 12C0.94986 18.1028 5.89717 23.0501 12 23.0501V22.9499C5.95254 22.9499 1.05012 18.0474 1.05012 12H0.94986ZM12 0.94989C5.89717 0.94989 0.94986 5.8972 0.94986 12H1.05012C1.05012 5.95257 5.95254 1.05015 12 1.05015V0.94989ZM23.0501 12C23.0501 5.8972 18.1028 0.94989 12 0.94989V1.05015C18.0474 1.05015 22.9499 5.95257 22.9499 12H23.0501ZM6.6876 8.21416C6.90412 8.09128 7.15223 8.03537 7.40053 8.05349L7.40785 7.9535C7.13977 7.93393 6.87188 7.9943 6.63811 8.12696L6.6876 8.21416ZM6.18408 8.74384C6.29585 8.52137 6.47107 8.33704 6.6876 8.21416L6.63811 8.12696C6.40434 8.25963 6.21516 8.45864 6.09449 8.69883L6.18408 8.74384ZM6.05971 9.46399C6.02904 9.21692 6.07232 8.96631 6.18408 8.74384L6.09449 8.69883C5.97383 8.93902 5.9271 9.2096 5.96021 9.47634L6.05971 9.46399ZM6.35639 10.1319C6.19363 9.94348 6.09038 9.71106 6.05971 9.46399L5.96021 9.47634C5.99333 9.74309 6.10479 9.99403 6.28053 10.1974L6.35639 10.1319ZM6.97413 10.5223C6.73413 10.4561 6.51916 10.3202 6.35639 10.1319L6.28053 10.1974C6.45626 10.4008 6.68835 10.5475 6.94747 10.619L6.97413 10.5223ZM7.70471 10.5038C7.46837 10.5821 7.21413 10.5885 6.97413 10.5223L6.94747 10.619C7.20658 10.6905 7.48108 10.6835 7.73624 10.599L7.70471 10.5038ZM7.78951 10.4723C7.76169 10.4838 7.73341 10.4943 7.70471 10.5038L7.73624 10.599C7.76722 10.5887 7.79717 10.5781 7.8272 10.5657L7.78951 10.4723ZM8.58278 10.5802C8.36828 10.4547 8.1715 10.427 8.02758 10.4312C7.95577 10.4333 7.89726 10.4433 7.85632 10.4529C7.83583 10.4578 7.81971 10.4625 7.80846 10.4661C7.80284 10.4679 7.79844 10.4695 7.79531 10.4706C7.79375 10.4712 7.79251 10.4716 7.79159 10.472C7.79114 10.4722 7.7898 10.4722 7.78951 10.4723C7.78937 10.4724 7.78961 10.4722 7.78951 10.4723C7.78948 10.4723 7.78998 10.4721 7.80865 10.5186C7.82733 10.5651 7.82722 10.5657 7.8272 10.5657C7.82759 10.5656 7.82852 10.5652 7.82953 10.5649C7.83157 10.5641 7.83483 10.563 7.83926 10.5615C7.84813 10.5587 7.86165 10.5547 7.8793 10.5505C7.91464 10.5422 7.96638 10.5333 8.03049 10.5314C8.1584 10.5277 8.3361 10.5521 8.53216 10.6667L8.58278 10.5802ZM8.63195 10.6088L8.58278 10.5802L8.53216 10.6667L8.58154 10.6955L8.63195 10.6088ZM10.0199 12.6599C10.0852 11.4487 9.08447 10.8713 8.63195 10.6088L8.58154 10.6955C9.04041 10.9617 9.98146 11.511 9.91973 12.6545L10.0199 12.6599ZM10.0031 13.2325C9.99592 13.0395 10.0017 12.8491 10.0197 12.662L9.91989 12.6524C9.90147 12.8439 9.89556 13.0388 9.90294 13.2362L10.0031 13.2325ZM14.4042 17.3165C12.0611 17.4041 10.0907 15.5756 10.0031 13.2325L9.90294 13.2362C9.99256 15.6347 12.0095 17.5063 14.408 17.4167L14.4042 17.3165ZM18.4883 12.9154C18.5758 15.2585 16.7473 17.2289 14.4042 17.3165L14.408 17.4167C16.8064 17.3271 18.6781 15.3101 18.5885 12.9117L18.4883 12.9154ZM14.0872 8.8314C16.4303 8.74384 18.4007 10.5723 18.4883 12.9154L18.5885 12.9117C18.4988 10.5132 16.4819 8.64159 14.0834 8.73121L14.0872 8.8314ZM11.5962 9.75628C12.2817 9.20796 13.1425 8.8667 14.0872 8.8314L14.0834 8.73121C13.1166 8.76734 12.2353 9.1167 11.5336 9.67799L11.5962 9.75628ZM11.5148 9.71308V9.71692L11.615 9.71734V9.71351L11.5148 9.71308ZM9.08611 9.7258C9.54617 9.9678 10.5727 10.5105 11.5948 9.75358L11.5351 9.67301C10.568 10.3892 9.5977 9.88162 9.13278 9.63707L9.08611 9.7258ZM9.05613 9.71004L9.08611 9.7258L9.13278 9.63707L9.10277 9.6213L9.05613 9.71004ZM8.5972 9.07814C8.54775 9.0864 8.54784 9.08699 8.54784 9.08702C8.54784 9.087 8.54784 9.08703 8.54784 9.08702C8.54789 9.08733 8.54799 9.08777 8.54808 9.08826C8.54826 9.08923 8.54851 9.09055 8.54884 9.0922C8.54951 9.0955 8.5505 9.10013 8.55189 9.10596C8.55467 9.11762 8.55906 9.1341 8.56567 9.15438C8.57887 9.19492 8.60097 9.25082 8.63686 9.31382C8.70878 9.44008 8.83585 9.59439 9.05613 9.71004L9.10277 9.6213C8.90196 9.51587 8.7879 9.37643 8.72397 9.26419C8.69193 9.20794 8.67242 9.15841 8.661 9.12333C8.65529 9.10581 8.65162 9.09193 8.64941 9.08268C8.64831 9.07806 8.64757 9.0746 8.64713 9.07243C8.64691 9.07134 8.64672 9.07032 8.64664 9.06989C8.64664 9.06991 8.64664 9.06989 8.5972 9.07814ZM8.26123 8.4861C8.41019 8.65851 8.50827 8.86648 8.54784 9.08702L8.64664 9.06989C8.60392 8.8318 8.49792 8.60669 8.33709 8.42056L8.26123 8.4861ZM7.40053 8.05349C7.73343 8.07792 8.043 8.23352 8.26123 8.4861L8.33709 8.42056C8.10149 8.14786 7.76726 7.97987 7.40785 7.9535L7.40053 8.05349ZM12.1628 12.2977C11.7225 13.4389 12.2906 14.721 13.4317 15.1613L13.4678 15.0678C12.3783 14.6474 11.8359 13.4233 12.2563 12.3338L12.1628 12.2977ZM15.0264 11.0288C13.8852 10.5884 12.6031 11.1566 12.1628 12.2977L12.2563 12.3338C12.6767 11.2443 13.9008 10.7019 14.9903 11.1223L15.0264 11.0288ZM16.2953 13.8923C16.7356 12.7512 16.1675 11.4691 15.0264 11.0288L14.9903 11.1223C16.0798 11.5427 16.6222 12.7668 16.2018 13.8563L16.2953 13.8923ZM13.4317 15.1613C14.5729 15.6016 15.855 15.0335 16.2953 13.8923L16.2018 13.8563C15.7814 14.9458 14.5573 15.4882 13.4678 15.0678L13.4317 15.1613Z" fill="#FEFEFE"/>
</g>
<defs>
<clipPath id="clip0_1_168">
<rect width="24" height="24" fill="white"/>
</clipPath>
</defs>
</svg>
