<svg width="24" height="24" viewBox="0 0 24 24" fill="none" xmlns="http://www.w3.org/2000/svg">
<path fill-rule="evenodd" clip-rule="evenodd" d="M15 18H9L7 21H1L2 6L4 4H20L22 6L23 21H17L15 18ZM7.92963 16L5.92963 19H3.13777L3.94558 6.88284L4.82843 6H19.1716L20.0544 6.88284L20.8622 19H18.0704L16.0704 16H7.92963ZM17 11C17 11.2761 16.7761 11.5 16.5 11.5C16.2239 11.5 16 11.2761 16 11C16 10.7239 16.2239 10.5 16.5 10.5C16.7761 10.5 17 10.7239 17 11ZM19 11C19 12.3807 17.8807 13.5 16.5 13.5C15.1193 13.5 14 12.3807 14 11C14 9.61929 15.1193 8.5 16.5 8.5C17.8807 8.5 19 9.61929 19 11ZM9.5 10H11V12H9.5V13.5H7.5V12H6V10H7.5V8.5H9.5V10Z" fill="#FEFEFE"/>
</svg>
