<svg width="24" height="24" viewBox="0 0 24 24" fill="none" xmlns="http://www.w3.org/2000/svg">
<path fill-rule="evenodd" clip-rule="evenodd" d="M16.4883 12.9199C16.9449 13.177 17.4616 13.3276 18 13.35V19H6V13.35C6.53845 13.3276 7.05513 13.1769 7.5117 12.9199C7.7994 12.758 8.06324 12.5539 8.29361 12.313C8.47407 12.1243 8.634 11.9131 8.76879 11.6821L8.92647 11.4118L9.15375 11.7754C9.20052 11.8502 9.24997 11.9228 9.30195 11.9931C9.58626 12.3774 9.94594 12.6919 10.3534 12.9213C10.8483 13.1999 11.4137 13.3529 12 13.3529C12.5863 13.3529 13.1517 13.1999 13.6466 12.9213C14.0541 12.6919 14.4137 12.3774 14.6981 11.9931C14.75 11.9228 14.7995 11.8502 14.8462 11.7754L15.0735 11.4118L15.2312 11.6821C15.366 11.9131 15.5259 12.1243 15.7064 12.313C15.9368 12.5539 16.2006 12.758 16.4883 12.9199ZM4 19V12.7958C2.75743 11.9695 2.12618 10.3498 2.70637 8.80261L4.88235 3H19.1176L21.2936 8.80261C21.8738 10.3498 21.2426 11.9695 20 12.7958V19H21V21H3V19H4ZM4.57903 9.50486L6.26835 5H17.7316L19.421 9.50486C19.7563 10.3991 19.0953 11.3529 18.1403 11.3529C17.6538 11.3529 17.2039 11.0945 16.9588 10.6743L15.1326 7.5437L13.1503 10.7154C12.9024 11.112 12.4677 11.3529 12 11.3529C11.5323 11.3529 11.0976 11.112 10.8497 10.7154L8.86743 7.5437L7.04123 10.6743C6.79611 11.0945 6.34624 11.3529 5.85975 11.3529C4.90474 11.3529 4.24371 10.3991 4.57903 9.50486Z" fill="#FEFEFE"/>
</svg>
