<svg width="24" height="24" viewBox="0 0 24 24" fill="none" xmlns="http://www.w3.org/2000/svg">
<path fill-rule="evenodd" clip-rule="evenodd" d="M19.3684 8.23684L13.579 11.8553V19.5454L19.3684 15.927V8.23684ZM5.47369 8.23684L11.2632 11.8553V19.5454L5.47369 15.927V8.23684ZM3.1579 6.78947L12.4211 1L21.6842 6.78947V17.2105L12.4211 23L3.1579 17.2105V6.78947ZM7.52732 6.78947L12.4211 9.84805L17.3148 6.78947L12.4211 3.73089L7.52732 6.78947ZM15.8947 14.8947C16.5342 14.8947 17.0526 14.3763 17.0526 13.7368C17.0526 13.0973 16.5342 12.5789 15.8947 12.5789C15.2552 12.5789 14.7368 13.0973 14.7368 13.7368C14.7368 14.3763 15.2552 14.8947 15.8947 14.8947ZM8.94737 12.5789C8.94737 13.2185 8.42896 13.7368 7.78948 13.7368C7.14999 13.7368 6.63158 13.2185 6.63158 12.5789C6.63158 11.9394 7.14999 11.4211 7.78948 11.4211C8.42896 11.4211 8.94737 11.9394 8.94737 12.5789ZM8.94737 17.2105C9.58685 17.2105 10.1053 16.6921 10.1053 16.0526C10.1053 15.4131 9.58685 14.8947 8.94737 14.8947C8.30789 14.8947 7.78948 15.4131 7.78948 16.0526C7.78948 16.6921 8.30789 17.2105 8.94737 17.2105Z" fill="#FEFEFE"/>
</svg>
