<svg width="24" height="24" viewBox="0 0 24 24" fill="none" xmlns="http://www.w3.org/2000/svg">
<path d="M20.0625 9.83789H18.1875V5.4375H5.0625V17.7354L6.79883 16.5625H11.3779V18.4375H7.37207L3.1875 21.2646V3.5625H20.0625V9.83789ZM16.875 15.9375C18.348 15.9375 19.3245 16.3772 19.9463 16.918C20.2489 17.1811 20.4477 17.4511 20.5742 17.668C20.8142 18.0794 20.9065 18.5523 21.042 19.0039L19.2461 19.542L18.9844 18.6699C18.9799 18.6599 18.9707 18.64 18.9551 18.6133C18.9176 18.549 18.8442 18.4437 18.7158 18.332C18.4751 18.1228 17.9514 17.8125 16.875 17.8125C15.7987 17.8125 15.275 18.1228 15.0342 18.332C14.9058 18.4437 14.8324 18.549 14.7949 18.6133C14.7793 18.6401 14.7701 18.6599 14.7656 18.6699L14.5039 19.542L12.708 19.0039C12.8136 18.652 12.8921 18.2857 13.0352 17.9463C13.0667 17.8715 13.1117 17.7762 13.1748 17.668C13.3013 17.4511 13.5009 17.1813 13.8037 16.918C14.4256 16.3772 15.4019 15.9375 16.875 15.9375ZM16.875 10.875C18.1176 10.875 19.125 11.8824 19.125 13.125C19.125 14.3676 18.1176 15.375 16.875 15.375C15.6324 15.375 14.625 14.3676 14.625 13.125C14.625 11.8824 15.6324 10.875 16.875 10.875ZM11.0625 14.0625H7.6875V12.1875H11.0625V14.0625ZM16.875 12.75C16.6679 12.75 16.5 12.9179 16.5 13.125C16.5 13.3321 16.6679 13.5 16.875 13.5C17.0821 13.5 17.25 13.3321 17.25 13.125C17.25 12.9179 17.0821 12.75 16.875 12.75ZM15.5625 10.3125H7.6875V8.4375H15.5625V10.3125Z" fill="#FEFEFE"/>
</svg>
