<svg width="24" height="24" viewBox="0 0 24 24" fill="none" xmlns="http://www.w3.org/2000/svg">
<path fill-rule="evenodd" clip-rule="evenodd" d="M20.352 17.2189C21.4454 15.9596 22.0483 14.3483 22.05 12.6806C22.0492 12.0295 21.9572 11.3818 21.7767 10.7563C20.6529 6.80856 16.3255 4.7061 12.5059 6.2499C11.8537 6.51351 11.2709 6.88917 10.7066 7.30353C10.0246 7.81062 9.24746 7.96137 8.41226 7.81062C7.76735 7.69452 7.19255 7.42125 6.63872 7.09878C6.35666 6.93549 6.14264 6.67629 6.03572 6.3684C6.01154 6.30198 5.99516 6.23166 5.97872 6.16107C5.9672 6.11166 5.95568 6.06213 5.9414 6.01371C5.80124 5.54025 5.49974 5.13081 5.08925 4.85643C4.67873 4.58205 4.18514 4.46001 3.69407 4.51155C3.203 4.56306 2.74548 4.78488 2.40086 5.13849C2.05624 5.49207 1.84629 5.95518 1.80744 6.44742C1.68087 7.9662 3.1892 9.12303 4.62335 8.59983C4.82066 8.52417 5.03219 8.49282 5.24297 8.50803C5.45375 8.52321 5.65862 8.58456 5.84306 8.6877C6.24902 8.89722 6.63305 9.14676 6.98942 9.4326C7.86812 10.1533 8.30021 11.0578 8.19863 12.209C8.1338 13.0222 8.22353 13.8403 8.46305 14.6202C8.93135 16.2208 9.96095 17.5991 11.3631 18.5021C12.7652 19.4052 14.4458 19.7725 16.0968 19.5368C17.7479 19.3011 19.2586 18.4782 20.352 17.2189ZM12.1822 10.7679C11.7979 11.3426 11.5927 12.0183 11.5926 12.7096C11.5938 13.6355 11.9619 14.5231 12.6161 15.1782C13.2703 15.8333 14.1574 16.2026 15.0832 16.2051C15.7746 16.2059 16.4506 16.0017 17.0258 15.6182C17.601 15.2347 18.0495 14.6892 18.3147 14.0508C18.5798 13.4123 18.6497 12.7096 18.5153 12.0314C18.381 11.3533 18.0486 10.7302 17.5601 10.241C17.0716 9.75189 16.449 9.41859 15.771 9.28332C15.093 9.14805 14.3902 9.2169 13.7514 9.48117C13.1126 9.74544 12.5665 10.1932 12.1822 10.7679Z" fill="white"/>
</svg>
