<svg width="24" height="24" viewBox="0 0 24 24" fill="none" xmlns="http://www.w3.org/2000/svg">
<path d="M20.6243 7.55011C20.4174 6.77466 19.8067 6.16395 19.0333 5.95703C17.629 5.57935 12 5.57935 12 5.57935C12 5.57935 6.37098 5.57935 4.96674 5.95502C4.19129 6.16194 3.58259 6.77265 3.37567 7.5481C3 8.95436 3 11.8874 3 11.8874C3 11.8874 3 14.8204 3.37567 16.2247C3.58259 17.0001 4.1933 17.6109 4.96674 17.8178C6.37098 18.1955 12 18.1955 12 18.1955C12 18.1955 17.629 18.1955 19.0333 17.8178C19.8087 17.6109 20.4174 17.0001 20.6243 16.2247C21 14.8204 21 11.8874 21 11.8874C21 11.8874 21 8.95436 20.6243 7.55011ZM10.2121 14.5794V9.19543L14.8728 11.8673L10.2121 14.5794Z" fill="#FEFEFE"/>
</svg>
