<svg width="24" height="24" viewBox="0 0 24 24" fill="none" xmlns="http://www.w3.org/2000/svg">
<path d="M18 8.125C17.55 8.35 17.1 8.425 16.575 8.5C17.1 8.2 17.475 7.75 17.625 7.15C17.175 7.45 16.65 7.6 16.05 7.75C15.6 7.3 14.925 7 14.25 7C12.975 7 11.85 8.125 11.85 9.475C11.85 9.7 11.85 9.85 11.925 10C9.9 9.925 8.025 8.95 6.825 7.45C6.6 7.825 6.525 8.2 6.525 8.725C6.525 9.55 6.975 10.3 7.65 10.75C7.275 10.75 6.9 10.6 6.525 10.45C6.525 11.65 7.35 12.625 8.475 12.85C8.25 12.925 8.025 12.925 7.8 12.925C7.65 12.925 7.5 12.925 7.35 12.85C7.65 13.825 8.55 14.575 9.675 14.575C8.85 15.25 7.8 15.625 6.6 15.625C6.375 15.625 6.225 15.625 6 15.625C7.125 16.3 8.4 16.75 9.75 16.75C14.25 16.75 16.725 13 16.725 9.775C16.725 9.7 16.725 9.55 16.725 9.475C17.25 9.1 17.7 8.65 18 8.125Z" fill="url(#paint0_linear_222_900)"/>
<defs>
<linearGradient id="paint0_linear_222_900" x1="6" y1="12.0431" x2="18" y2="12.0431" gradientUnits="userSpaceOnUse">
<stop stop-color="#9EE6FC"/>
<stop offset="1" stop-color="#EBB9E7"/>
</linearGradient>
</defs>
</svg>
