<svg width="24" height="24" viewBox="0 0 24 24" fill="none" xmlns="http://www.w3.org/2000/svg">
<path fill-rule="evenodd" clip-rule="evenodd" d="M20.3518 17.2189C21.4452 15.9596 22.0481 14.3483 22.0498 12.6806C22.049 12.0295 21.957 11.3818 21.7765 10.7563C20.6527 6.80856 16.3253 4.7061 12.5057 6.2499C11.8536 6.51351 11.2707 6.88917 10.7064 7.30353C10.0244 7.81062 9.24727 7.96137 8.41207 7.81062C7.76716 7.69452 7.19236 7.42125 6.63853 7.09878C6.35647 6.93549 6.14245 6.67629 6.03553 6.3684C6.01135 6.30198 5.99497 6.23166 5.97853 6.16107C5.96701 6.11166 5.95549 6.06213 5.94121 6.01371C5.80105 5.54025 5.49955 5.13081 5.08906 4.85643C4.67854 4.58205 4.18495 4.46001 3.69388 4.51155C3.20281 4.56306 2.74529 4.78488 2.40068 5.13849C2.05606 5.49207 1.84611 5.95518 1.80726 6.44742C1.68069 7.9662 3.18901 9.12303 4.62316 8.59983C4.82047 8.52417 5.032 8.49282 5.24278 8.50803C5.45356 8.52321 5.65843 8.58456 5.84287 8.6877C6.24883 8.89722 6.63286 9.14676 6.98923 9.4326C7.86793 10.1533 8.30002 11.0578 8.19844 12.209C8.13361 13.0222 8.22334 13.8403 8.46286 14.6202C8.93116 16.2208 9.96076 17.5991 11.3629 18.5021C12.765 19.4052 14.4456 19.7725 16.0967 19.5368C17.7477 19.3011 19.2584 18.4782 20.3518 17.2189ZM12.182 10.7679C11.7978 11.3426 11.5926 12.0183 11.5924 12.7096C11.5937 13.6355 11.9617 14.5231 12.6159 15.1782C13.2701 15.8333 14.1572 16.2026 15.0831 16.2051C15.7744 16.2059 16.4504 16.0017 17.0256 15.6182C17.6008 15.2347 18.0494 14.6892 18.3145 14.0508C18.5796 13.4123 18.6495 12.7096 18.5151 12.0314C18.3808 11.3533 18.0484 10.7302 17.5599 10.241C17.0714 9.75189 16.4488 9.41859 15.7708 9.28332C15.0929 9.14805 14.39 9.2169 13.7512 9.48117C13.1124 9.74544 12.5663 10.1932 12.182 10.7679Z" fill="url(#paint0_linear_222_908)"/>
<defs>
<linearGradient id="paint0_linear_222_908" x1="1.7998" y1="4.5" x2="22.0498" y2="19.6875" gradientUnits="userSpaceOnUse">
<stop stop-color="#CBF2FE"/>
<stop offset="0.390625" stop-color="#7DD5F9"/>
<stop offset="0.734529" stop-color="#E6B1F7"/>
<stop offset="1" stop-color="#E1DFA2"/>
</linearGradient>
</defs>
</svg>
