<svg width="16" height="16" viewBox="0 0 16 16" fill="none" xmlns="http://www.w3.org/2000/svg">
<path fill-rule="evenodd" clip-rule="evenodd" d="M5 8H6.58594L7.58594 7H3.74755L3 7.74755V13H8.25245L9 12.2525V12H9.25245L9.29289 11.9596L9.33333 12H11V13.0809L9.08088 15H1V6.91912L2.91912 5H9.58594L10.293 4.29297L11 5L11.293 5.29297L5.29297 11.293L5 11L4.29297 10.293L5 9.58594V8ZM8.41436 11H13.0809L15 9.08088V1H6.91912L5 2.91912V4H6.66667L6.70711 4.04044L6.74755 4H7V3.74755L7.74755 3H13V8.25245L12.2525 9H10.4144L8.41436 11Z" fill="#FEFEFE"/>
</svg>
