<svg width="12" height="12" viewBox="0 0 12 12" fill="none" xmlns="http://www.w3.org/2000/svg">
<path fill-rule="evenodd" clip-rule="evenodd" d="M4.20391 9.57505C3.91527 9.42976 3.64665 9.25054 3.40327 9.04263C2.54445 8.30897 2 7.21807 2 6C2 4.98555 2.37764 4.05931 3 3.35418C3.11058 3.22889 3.22889 3.11058 3.35418 3C4.05931 2.37764 4.98555 2 6 2C7.01445 2 7.94069 2.37764 8.64582 3C8.77111 3.11058 8.88942 3.22889 9 3.35418C9.62236 4.05931 10 4.98555 10 6C10 7.21811 9.45551 8.30905 8.59664 9.04271C8.35328 9.25059 8.08467 9.42979 7.79607 9.57507C7.256 9.84692 6.64588 10 6 10C5.35411 10 4.74398 9.84692 4.20391 9.57505ZM8.22358 7.55275C8.22314 7.55254 8.22271 7.55232 8.22227 7.5521C7.91935 7.40075 7.60484 7.28217 7.28374 7.19636C6.44293 6.97166 5.55702 6.97166 4.7162 7.19636C4.39465 7.2823 4.07969 7.40109 3.77637 7.55275L4.22358 8.44718C4.22331 8.44732 4.22386 8.44704 4.22358 8.44718C4.23131 8.44332 4.23987 8.43907 4.24762 8.43526C5.35266 7.89202 6.64732 7.89202 7.75236 8.43528C7.76037 8.43922 7.76837 8.44318 7.77637 8.44718L8.22358 7.55275ZM11 6C11 8.76142 8.76142 11 6 11C3.23858 11 1 8.76142 1 6C1 3.23858 3.23858 1 6 1C8.76142 1 11 3.23858 11 6ZM5 4H4V6H5V4ZM7 4H8V6H7V4Z" fill="#FEFEFE"/>
</svg>
